<svg xmlns="http://www.w3.org/2000/svg" xmlns:xlink="http://www.w3.org/1999/xlink" width="500" zoomAndPan="magnify" viewBox="0 0 375 374.999991" height="500" preserveAspectRatio="xMidYMid meet" version="1.2"><defs><clipPath id="5b85fb0e48"><path d="M 69.019531 69.019531 L 305.980469 69.019531 L 305.980469 305.980469 L 69.019531 305.980469 Z M 69.019531 69.019531 "/></clipPath><clipPath id="11ae694e60"><path d="M 187.5 69.019531 C 122.066406 69.019531 69.019531 122.066406 69.019531 187.5 C 69.019531 252.933594 122.066406 305.980469 187.5 305.980469 C 252.933594 305.980469 305.980469 252.933594 305.980469 187.5 C 305.980469 122.066406 252.933594 69.019531 187.5 69.019531 Z M 187.5 69.019531 "/></clipPath><clipPath id="d4acb1fb7d"><path d="M 100.46875 138 L 274 138 L 274 236 L 100.46875 236 Z M 100.46875 138 "/></clipPath></defs><g id="7f4663703c"><g clip-rule="nonzero" clip-path="url(#5b85fb0e48)"><g clip-rule="nonzero" clip-path="url(#11ae694e60)"><path style=" stroke:none;fill-rule:nonzero;fill:#ff5757;fill-opacity:1;" d="M 69.019531 69.019531 L 305.980469 69.019531 L 305.980469 305.980469 L 69.019531 305.980469 Z M 69.019531 69.019531 "/></g></g><g clip-rule="nonzero" clip-path="url(#d4acb1fb7d)"><path style=" stroke:none;fill-rule:nonzero;fill:#ffffff;fill-opacity:1;" d="M 246.347656 138.566406 C 244.824219 138.484375 243.335938 139.296875 242.625 140.753906 C 242.546875 140.917969 242.472656 141.082031 242.417969 141.253906 C 241.964844 142.445312 241.488281 143.632812 240.960938 144.785156 C 239.851562 147.222656 238.558594 149.578125 237.160156 151.859375 C 236.273438 152.550781 235.394531 153.238281 234.472656 153.871094 C 232.882812 154.960938 231.226562 155.949219 229.542969 156.898438 C 229.546875 156.910156 229.550781 156.917969 229.558594 156.929688 C 229.050781 157.195312 228.566406 157.527344 228.152344 157.976562 L 222.847656 163.710938 C 222.84375 163.714844 222.84375 163.722656 222.839844 163.726562 C 220.246094 164.464844 217.601562 165.074219 214.933594 165.488281 C 213.835938 165.660156 212.722656 165.769531 211.617188 165.875 C 209.015625 165.261719 206.4375 164.519531 203.925781 163.597656 C 202.730469 163.160156 201.5625 162.660156 200.394531 162.144531 C 200.234375 162.0625 200.0625 161.992188 199.894531 161.933594 C 197.84375 161.242188 195.621094 162.335938 194.929688 164.382812 C 194.929688 164.386719 194.921875 164.398438 194.921875 164.40625 C 194.265625 166.367188 195.25 168.496094 197.167969 169.269531 C 198.5 169.859375 199.851562 170.433594 201.222656 170.941406 C 204.132812 172.011719 207.109375 172.894531 210.136719 173.597656 C 210.167969 173.605469 210.199219 173.597656 210.226562 173.605469 C 210.429688 173.664062 210.644531 173.648438 210.859375 173.675781 C 211.160156 173.710938 211.457031 173.769531 211.753906 173.738281 C 211.761719 173.738281 211.777344 173.738281 211.785156 173.738281 C 213.238281 173.609375 214.695312 173.453125 216.140625 173.230469 C 218.71875 172.828125 221.269531 172.257812 223.789062 171.582031 L 236.800781 183.625 C 237.03125 183.835938 237.277344 184.011719 237.53125 184.179688 C 237.539062 184.1875 237.539062 184.195312 237.550781 184.203125 C 237.589844 184.242188 237.628906 184.28125 237.664062 184.316406 C 241.683594 188.234375 245.527344 192.316406 249.21875 196.550781 C 251.78125 201.484375 254.136719 206.519531 256.300781 211.644531 C 256.347656 211.765625 256.390625 211.886719 256.445312 212 C 257.480469 214.164062 260.066406 215.078125 262.230469 214.050781 C 264.390625 213.019531 265.308594 210.421875 264.277344 208.261719 C 264.253906 208.210938 264.234375 208.160156 264.207031 208.113281 C 261.921875 202.710938 259.429688 197.386719 256.71875 192.179688 C 256.628906 192 256.46875 191.878906 256.363281 191.71875 C 256.226562 191.511719 256.140625 191.28125 255.960938 191.097656 C 255.921875 191.054688 255.890625 191.015625 255.855469 190.980469 C 252.816406 187.492188 249.628906 184.121094 246.375 180.828125 L 247.804688 179.265625 C 251.585938 179.308594 255.367188 179.4375 259.144531 179.6875 C 261.40625 184.070312 263.542969 188.523438 265.492188 193.058594 C 265.539062 193.171875 265.589844 193.292969 265.644531 193.40625 C 266.695312 195.5625 269.289062 196.460938 271.445312 195.414062 C 273.597656 194.371094 274.488281 191.765625 273.445312 189.609375 C 273.421875 189.5625 273.402344 189.511719 273.375 189.464844 C 271.050781 184.078125 268.519531 178.773438 265.769531 173.585938 C 265.628906 173.304688 265.398438 173.113281 265.203125 172.875 C 265.089844 172.730469 264.996094 172.574219 264.867188 172.445312 C 264.640625 172.234375 264.398438 172.078125 264.140625 171.921875 C 263.898438 171.765625 263.671875 171.609375 263.398438 171.507812 C 263.222656 171.441406 263.042969 171.425781 262.859375 171.386719 C 262.558594 171.308594 262.277344 171.179688 261.953125 171.167969 C 261.898438 171.167969 261.847656 171.167969 261.792969 171.167969 C 257.632812 170.859375 253.472656 170.703125 249.304688 170.628906 C 249.222656 170.542969 249.160156 170.445312 249.066406 170.359375 L 238.503906 160.578125 C 238.632812 160.492188 238.769531 160.414062 238.90625 160.328125 C 240.113281 159.496094 241.269531 158.605469 242.417969 157.703125 C 242.484375 157.65625 242.515625 157.582031 242.578125 157.53125 C 242.800781 157.363281 242.964844 157.132812 243.148438 156.917969 C 243.253906 156.78125 243.390625 156.660156 243.472656 156.507812 C 243.535156 156.414062 243.625 156.351562 243.679688 156.246094 C 245.3125 153.605469 246.785156 150.871094 248.074219 148.050781 C 248.683594 146.71875 249.230469 145.355469 249.746094 143.996094 C 250.546875 142.085938 249.722656 139.890625 247.867188 138.976562 C 247.859375 138.972656 247.859375 138.972656 247.851562 138.96875 C 247.371094 138.722656 246.859375 138.59375 246.347656 138.566406 Z M 215.886719 141.730469 C 215.648438 141.722656 215.410156 141.804688 215.21875 141.980469 C 215.160156 142.035156 215.097656 142.089844 215.054688 142.15625 C 215.03125 142.1875 215.003906 142.222656 214.976562 142.25 C 214.0625 143.265625 212.925781 144.046875 211.738281 144.71875 C 210.535156 145.40625 209.277344 145.988281 208.167969 146.796875 C 207.890625 146.996094 207.621094 147.214844 207.367188 147.449219 C 206.605469 148.15625 205.988281 149 205.695312 149.984375 C 205.527344 150.558594 205.476562 151.179688 205.550781 151.777344 C 205.554688 151.8125 205.550781 151.851562 205.542969 151.882812 C 205.390625 152.417969 205.316406 152.964844 205.347656 153.507812 C 205.414062 154.671875 205.898438 155.785156 206.582031 156.730469 C 207.269531 157.679688 208.15625 158.464844 209.101562 159.164062 C 210.394531 160.125 211.828125 160.882812 213.316406 161.496094 C 213.457031 161.566406 213.601562 161.628906 213.746094 161.691406 C 213.820312 161.71875 213.878906 161.757812 213.949219 161.78125 L 213.949219 161.773438 C 217.414062 163.160156 221.363281 162.429688 224.109375 159.910156 C 224.644531 159.417969 225.121094 158.867188 225.53125 158.269531 L 225.539062 158.269531 C 225.824219 157.890625 226.125 157.511719 226.453125 157.179688 C 226.585938 157.046875 226.769531 156.851562 226.890625 156.707031 C 227.984375 155.699219 228.152344 154.015625 227.269531 152.824219 C 227.113281 152.589844 226.957031 152.359375 226.808594 152.121094 C 226.507812 151.648438 226.195312 151.1875 225.855469 150.742188 C 225.734375 150.582031 225.597656 150.421875 225.460938 150.265625 C 225.378906 150.171875 225.378906 150.027344 225.453125 149.925781 C 225.527344 149.824219 225.589844 149.722656 225.652344 149.617188 C 225.746094 149.464844 225.832031 149.3125 225.886719 149.148438 C 225.941406 148.988281 225.957031 148.816406 225.933594 148.640625 C 225.914062 148.5 225.863281 148.375 225.765625 148.269531 C 225.671875 148.171875 225.546875 148.113281 225.417969 148.0625 C 224.921875 147.863281 224.40625 147.738281 223.875 147.648438 C 223.585938 147.597656 223.289062 147.554688 222.988281 147.519531 C 222.667969 147.460938 222.367188 147.296875 222.140625 147.058594 C 222.125 147.039062 222.117188 147.023438 222.101562 147.007812 C 221.523438 146.296875 220.859375 145.648438 220.117188 145.101562 C 219.390625 144.558594 218.59375 144.117188 217.761719 143.761719 C 217.558594 143.664062 217.378906 143.515625 217.226562 143.351562 C 217.097656 143.210938 216.988281 143.042969 216.914062 142.867188 C 216.871094 142.769531 216.828125 142.671875 216.789062 142.566406 C 216.773438 142.519531 216.757812 142.46875 216.742188 142.421875 C 216.703125 142.277344 216.628906 142.144531 216.527344 142.035156 C 216.355469 141.847656 216.128906 141.738281 215.886719 141.730469 Z M 223.332031 181.628906 C 222.921875 181.640625 222.578125 181.933594 222.492188 182.332031 L 220.707031 190.535156 L 213.496094 183.730469 C 213.132812 183.398438 212.574219 183.421875 212.242188 183.78125 C 212.050781 183.988281 211.96875 184.28125 212.027344 184.5625 L 214.996094 198.15625 C 215.097656 198.632812 215.574219 198.9375 216.054688 198.832031 C 216.058594 198.832031 216.0625 198.832031 216.0625 198.832031 L 216.722656 198.6875 C 217.199219 198.585938 217.503906 198.113281 217.402344 197.628906 L 215.511719 189.007812 L 221.046875 194.226562 C 221.40625 194.558594 221.964844 194.539062 222.300781 194.179688 C 222.40625 194.0625 222.480469 193.925781 222.515625 193.769531 L 223.769531 188.027344 L 225.925781 193.714844 C 226.101562 194.171875 226.617188 194.398438 227.074219 194.226562 C 227.144531 194.199219 227.203125 194.164062 227.265625 194.121094 L 232.417969 190.480469 L 230.800781 197.160156 C 230.683594 197.636719 230.972656 198.117188 231.449219 198.238281 C 231.558594 198.261719 231.671875 198.269531 231.785156 198.253906 L 237.285156 197.476562 L 232.835938 201.402344 C 232.476562 201.71875 232.433594 202.265625 232.746094 202.636719 L 235.992188 206.546875 L 228.261719 204.960938 C 227.785156 204.859375 227.3125 205.164062 227.207031 205.644531 C 227.207031 205.648438 227.207031 205.648438 227.207031 205.648438 L 227.070312 206.316406 C 226.96875 206.792969 227.273438 207.265625 227.753906 207.375 C 227.753906 207.375 227.757812 207.375 227.761719 207.375 L 239.886719 209.859375 C 240.367188 209.953125 240.832031 209.644531 240.933594 209.167969 C 240.984375 208.90625 240.917969 208.632812 240.75 208.425781 L 235.613281 202.246094 L 242.84375 195.847656 C 243.207031 195.523438 243.238281 194.960938 242.914062 194.597656 C 242.710938 194.375 242.421875 194.269531 242.128906 194.3125 L 233.738281 195.507812 L 235.800781 187 C 235.882812 186.660156 235.757812 186.308594 235.484375 186.09375 C 235.175781 185.851562 234.742188 185.84375 234.417969 186.070312 L 227.515625 190.949219 L 224.195312 182.203125 C 224.0625 181.847656 223.714844 181.613281 223.332031 181.628906 Z M 151.527344 181.78125 C 146.964844 181.84375 142.460938 182.582031 138.25 184.238281 C 133.785156 185.992188 129.695312 188.753906 125.363281 191.191406 C 121.328125 193.457031 117.109375 195.398438 112.769531 197.011719 C 110.851562 197.726562 108.898438 198.335938 106.9375 198.902344 C 106.9375 198.914062 106.941406 198.929688 106.945312 198.941406 C 105.414062 199.457031 104.117188 200.484375 103.269531 201.851562 L 103.261719 201.859375 C 103.222656 201.921875 103.1875 201.988281 103.148438 202.050781 C 103.125 202.09375 103.109375 202.136719 103.085938 202.175781 C 102.792969 202.644531 102.507812 203.121094 102.277344 203.621094 C 100.875 206.734375 100.632812 210.324219 100.53125 213.925781 C 100.480469 215.613281 100.464844 217.296875 100.46875 218.984375 C 100.46875 219.050781 100.46875 219.117188 100.46875 219.183594 C 100.46875 222.511719 103.320312 225.210938 106.640625 225.210938 L 109.066406 225.210938 C 109.039062 224.847656 109.007812 224.484375 109.007812 224.128906 C 109.007812 220.300781 110.585938 216.496094 113.289062 213.796875 C 115.992188 211.097656 119.796875 209.515625 123.621094 209.515625 C 127.441406 209.515625 131.246094 211.09375 133.949219 213.796875 C 136.652344 216.5 138.230469 220.300781 138.230469 224.128906 C 138.230469 224.488281 138.195312 224.851562 138.167969 225.210938 L 186.617188 225.210938 C 186.589844 224.847656 186.5625 224.484375 186.5625 224.128906 C 186.5625 220.300781 188.136719 216.496094 190.839844 213.796875 C 193.546875 211.09375 197.34375 209.515625 201.171875 209.515625 C 205 209.515625 208.800781 211.09375 211.5 213.796875 C 214.199219 216.5 215.78125 220.300781 215.78125 224.128906 C 215.78125 224.488281 215.746094 224.851562 215.71875 225.210938 L 219.101562 225.210938 C 220.847656 225.210938 222.636719 224.140625 223.292969 222.515625 C 223.460938 222.140625 223.617188 221.761719 223.746094 221.375 C 224.648438 218.691406 224.546875 215.695312 224.394531 212.664062 C 224.3125 211.207031 224.230469 209.796875 223.882812 208.503906 C 223.515625 207.136719 222.832031 205.859375 221.882812 204.847656 C 220.71875 203.609375 219.136719 202.746094 217.441406 202.183594 C 215.738281 201.617188 213.921875 201.347656 212.0625 201.082031 C 206.628906 200.308594 200.980469 199.636719 195.796875 197.359375 C 192.945312 196.105469 190.375 194.441406 187.796875 192.917969 C 180.71875 188.726562 173.128906 185.378906 165.167969 183.433594 C 160.710938 182.351562 156.089844 181.722656 151.527344 181.78125 Z M 154.121094 186.5 C 157.417969 186.652344 160.777344 187.167969 164.066406 187.96875 C 171.488281 189.785156 178.667969 192.929688 185.425781 196.929688 C 186.546875 197.589844 187.867188 198.347656 189.125 199.085938 L 189.117188 199.140625 C 189.332031 199.25 189.464844 199.472656 189.464844 199.710938 C 189.464844 200.066406 189.191406 200.351562 188.835938 200.359375 L 156.933594 200.359375 Z M 149.03125 186.574219 L 151.835938 200.355469 L 121.652344 200.355469 C 121.121094 200.355469 120.683594 199.925781 120.683594 199.390625 C 120.683594 199.003906 120.914062 198.652344 121.265625 198.496094 C 121.261719 198.484375 121.257812 198.480469 121.25 198.472656 C 123.417969 197.472656 125.554688 196.414062 127.640625 195.242188 C 132.191406 192.6875 136.128906 190.074219 139.949219 188.578125 C 142.796875 187.460938 145.855469 186.828125 149.03125 186.574219 Z M 123.625 212.519531 C 117.214844 212.519531 112.015625 217.714844 112.015625 224.128906 C 112.015625 230.539062 117.210938 235.734375 123.625 235.734375 C 130.03125 235.734375 135.230469 230.539062 135.230469 224.128906 C 135.230469 217.714844 130.035156 212.519531 123.625 212.519531 Z M 201.179688 212.519531 C 194.765625 212.519531 189.574219 217.714844 189.574219 224.128906 C 189.574219 230.539062 194.765625 235.734375 201.179688 235.734375 C 207.585938 235.730469 212.777344 230.535156 212.777344 224.128906 C 212.777344 217.71875 207.585938 212.519531 201.179688 212.519531 Z M 123.484375 218.96875 C 123.5 218.96875 123.515625 218.96875 123.53125 218.96875 C 123.53125 218.96875 123.535156 218.96875 123.539062 218.96875 C 123.570312 218.96875 123.597656 218.96875 123.625 218.96875 C 126.472656 218.96875 128.78125 221.277344 128.78125 224.128906 C 128.78125 226.976562 126.472656 229.285156 123.625 229.285156 C 120.773438 229.285156 118.464844 226.976562 118.464844 224.128906 C 118.464844 221.332031 120.691406 219.046875 123.484375 218.96875 Z M 201.035156 218.96875 C 201.050781 218.96875 201.074219 218.96875 201.089844 218.96875 C 201.121094 218.96875 201.152344 218.96875 201.179688 218.96875 C 204.027344 218.96875 206.339844 221.277344 206.339844 224.128906 C 206.339844 226.976562 204.027344 229.285156 201.179688 229.285156 C 198.328125 229.289062 196.015625 226.984375 196.011719 224.136719 C 196.011719 224.132812 196.011719 224.128906 196.011719 224.128906 C 196.011719 221.332031 198.238281 219.046875 201.035156 218.96875 Z M 201.035156 218.96875 "/></g></g></svg>