<svg xmlns="http://www.w3.org/2000/svg" xmlns:xlink="http://www.w3.org/1999/xlink" width="500" zoomAndPan="magnify" viewBox="0 0 375 374.999991" height="500" preserveAspectRatio="xMidYMid meet" version="1.2"><defs><clipPath id="4fb025b720"><path d="M 100 74 L 287.730469 74 L 287.730469 301 L 100 301 Z M 100 74 "/></clipPath></defs><g id="d461e8b773"><g clip-rule="nonzero" clip-path="url(#4fb025b720)"><path style=" stroke:none;fill-rule:evenodd;fill:#f4f6fc;fill-opacity:1;" d="M 164.277344 77.96875 L 164.320312 77.742188 C 167.859375 78.984375 171.167969 80.632812 174.230469 82.601562 C 176.707031 84.195312 178.175781 86.941406 178.128906 89.878906 L 177.011719 153.835938 C 176.964844 156.671875 175.496094 159.304688 173.101562 160.828125 C 169.574219 163.078125 163.53125 164.828125 158.46875 166.015625 C 161.40625 178.503906 166.75 190.640625 174.558594 201.78125 C 182.355469 212.933594 191.925781 222.109375 202.671875 229.136719 C 205.507812 224.777344 209.226562 219.703125 212.539062 217.160156 C 214.796875 215.429688 217.769531 214.957031 220.449219 215.871094 L 280.933594 236.695312 C 283.660156 237.636719 285.714844 239.894531 286.40625 242.6875 C 287.308594 246.359375 287.761719 250.167969 287.613281 254.054688 L 287.117188 260.765625 C 287.09375 261.058594 287.058594 261.34375 287.015625 261.613281 C 282.550781 286.878906 258.425781 303.785156 233.160156 299.332031 C 145.902344 283.941406 87.550781 200.605469 102.941406 113.359375 C 107.390625 88.09375 131.527344 71.1875 156.796875 75.640625 C 157.078125 75.695312 157.347656 75.753906 157.621094 75.832031 L 163.835938 77.59375 C 164.015625 77.652344 164.164062 77.777344 164.277344 77.96875 Z M 164.277344 77.96875 "/></g></g></svg>