<?xml version="1.0" standalone="no"?>
<!DOCTYPE svg PUBLIC "-//W3C//DTD SVG 20010904//EN"
 "http://www.w3.org/TR/2001/REC-SVG-20010904/DTD/svg10.dtd">
<svg version="1.0" xmlns="http://www.w3.org/2000/svg"
 width="7200.000000pt" height="7200.000000pt" viewBox="0 0 7200.000000 7200.000000"
 preserveAspectRatio="xMidYMid meet">

<g transform="translate(0.000000,7200.000000) scale(0.100000,-0.100000)"
fill="#000000" stroke="none">
<path d="M35370 57569 c-1116 -36 -2280 -177 -3370 -410 -257 -55 -1435 -330
-1755 -410 -2152 -537 -4184 -1445 -6037 -2695 -291 -196 -1103 -776 -1411
-1007 -1456 -1092 -2752 -2389 -3846 -3846 -229 -306 -809 -1118 -1005 -1409
-1136 -1683 -1983 -3501 -2536 -5442 -122 -429 -433 -1715 -569 -2350 -560
-2626 -560 -5374 0 -8000 136 -635 447 -1921 569 -2350 511 -1792 1287 -3511
2291 -5072 265 -412 868 -1270 1252 -1781 1090 -1452 2392 -2754 3844 -3844
308 -231 1120 -811 1411 -1007 1854 -1251 3884 -2157 6037 -2695 322 -80 1499
-355 1755 -410 2626 -560 5374 -560 8000 0 256 55 1433 330 1755 410 2004 501
3931 1334 5667 2450 412 265 1270 868 1781 1252 1452 1090 2754 2392 3844
3844 224 299 804 1111 996 1394 1182 1749 2064 3667 2605 5669 105 387 406
1647 511 2140 560 2626 560 5374 0 8000 -69 323 -344 1491 -434 1845 -504
1977 -1325 3865 -2426 5577 -265 412 -867 1268 -1253 1783 -1088 1450 -2389
2751 -3843 3842 -308 231 -1120 811 -1411 1007 -1855 1252 -3871 2152 -6037
2695 -284 71 -1480 351 -1730 405 -1500 323 -3094 465 -4655 415z m1265 -1409
c1220 -43 2380 -190 3549 -450 1533 -341 2631 -685 3821 -1195 1464 -628 2749
-1382 4175 -2451 1083 -812 2067 -1722 2945 -2725 811 -925 1670 -2112 2287
-3159 916 -1555 1604 -3216 2043 -4931 433 -1696 615 -2835 697 -4369 17 -311
17 -1449 0 -1760 -82 -1535 -264 -2672 -697 -4369 -439 -1715 -1127 -3376
-2043 -4931 -527 -894 -1273 -1950 -1970 -2789 -625 -752 -1362 -1507 -2103
-2156 -852 -747 -1932 -1540 -2912 -2139 -1615 -986 -3366 -1727 -5182 -2191
-1696 -434 -2833 -616 -4365 -697 -310 -17 -1450 -17 -1760 0 -1532 81 -2669
263 -4365 697 -1957 500 -3844 1324 -5557 2426 -701 451 -1535 1062 -2167
1587 -751 624 -1508 1363 -2156 2103 -811 925 -1671 2113 -2287 3159 -916
1555 -1604 3216 -2043 4931 -433 1696 -615 2835 -697 4369 -17 311 -17 1449 0
1760 82 1534 264 2673 697 4369 439 1715 1127 3376 2043 4931 527 894 1273
1950 1970 2789 624 750 1363 1508 2102 2156 894 782 2019 1603 3038 2214 1587
952 3291 1665 5053 2116 1593 407 2734 597 4084 680 545 34 1262 44 1800 25z"/>
<path d="M35370 55069 c-4840 -155 -9425 -2144 -12860 -5579 -2677 -2677
-4490 -6063 -5224 -9760 -423 -2132 -479 -4383 -160 -6535 705 -4764 3180
-9066 6962 -12098 2803 -2248 6208 -3662 9767 -4056 4527 -502 9006 588 12760
3104 3366 2256 5938 5536 7320 9335 1544 4245 1525 8963 -55 13190 -1397 3738
-3945 6960 -7265 9185 -3323 2227 -7225 3343 -11245 3214z m782 -7063 c112
-38 134 -49 184 -95 82 -75 170 -219 184 -302 7 -45 10 -479 8 -1444 -3 -1280
-4 -1383 -20 -1418 -22 -47 -127 -207 -137 -207 -4 0 -30 -21 -57 -46 -62 -57
-87 -70 -181 -95 -97 -24 -160 -24 -270 2 -96 22 -110 30 -163 80 -19 19 -46
43 -60 54 -37 29 -136 184 -150 236 -19 66 -16 2839 2 2889 22 60 90 159 158
232 65 68 66 69 195 113 72 25 141 45 155 45 14 0 82 -20 152 -44z m-7327
-1920 c208 -57 327 -152 423 -336 58 -110 131 -241 142 -254 6 -8 25 -42 41
-77 17 -35 42 -77 56 -94 31 -37 80 -118 129 -209 20 -39 47 -87 60 -108 13
-21 32 -57 41 -80 9 -24 29 -60 45 -80 16 -20 39 -61 52 -90 13 -30 35 -67 49
-84 14 -16 35 -50 48 -74 13 -25 42 -73 66 -108 24 -35 43 -68 43 -73 0 -6 16
-35 35 -65 20 -30 44 -78 55 -105 10 -28 29 -65 43 -82 13 -18 36 -55 50 -83
14 -28 37 -64 50 -80 13 -16 37 -53 52 -83 15 -30 42 -77 61 -104 19 -27 34
-55 34 -62 0 -7 17 -37 37 -66 20 -30 45 -76 56 -104 10 -27 33 -77 50 -110
30 -57 32 -65 32 -170 l-1 -110 -51 -100 c-72 -141 -130 -200 -263 -267 -105
-53 -105 -53 -200 -53 -93 0 -97 1 -193 48 -103 50 -166 103 -255 217 -48 61
-120 185 -146 252 -10 24 -30 61 -45 83 -16 22 -40 64 -55 93 -14 28 -44 76
-66 105 -22 28 -40 57 -40 63 0 6 -18 39 -41 74 -22 35 -45 74 -50 88 -5 13
-23 44 -40 68 -17 25 -41 69 -55 99 -13 30 -39 78 -58 107 -19 29 -38 65 -41
80 -4 15 -24 47 -45 70 -20 24 -50 68 -65 98 -15 30 -33 62 -41 71 -8 8 -31
48 -51 88 -74 141 -128 240 -154 278 -14 21 -31 52 -37 70 -6 18 -25 51 -42
75 -32 45 -79 118 -127 201 -15 27 -43 74 -62 105 -18 31 -43 86 -56 122 -12
36 -33 86 -45 110 -16 31 -25 68 -28 121 -4 67 -1 83 25 145 17 38 38 91 48
119 32 86 145 191 231 214 22 6 66 22 99 35 68 29 128 32 200 12z m14549 -11
c35 -14 87 -32 117 -41 75 -23 191 -134 215 -208 9 -28 30 -78 45 -112 39 -83
40 -181 3 -269 -14 -33 -34 -85 -45 -115 -11 -30 -35 -80 -54 -112 -19 -31
-35 -60 -35 -66 0 -9 -26 -51 -154 -248 -25 -39 -46 -75 -46 -81 0 -5 -18 -38
-40 -72 -22 -34 -53 -91 -69 -125 -16 -35 -34 -67 -40 -71 -7 -4 -28 -39 -46
-79 -41 -84 -101 -185 -146 -241 -17 -22 -42 -63 -55 -92 -12 -29 -36 -72 -52
-95 -15 -24 -35 -59 -42 -78 -8 -19 -31 -61 -52 -93 -20 -33 -40 -69 -44 -80
-4 -12 -19 -40 -34 -62 -15 -22 -39 -62 -53 -90 -14 -27 -39 -68 -57 -90 -18
-22 -43 -64 -55 -92 -13 -29 -37 -70 -53 -90 -16 -21 -37 -58 -46 -83 -10 -25
-28 -61 -40 -80 -13 -20 -33 -55 -46 -80 -31 -60 -118 -168 -179 -221 -27 -24
-90 -64 -138 -89 -87 -44 -89 -45 -188 -45 l-100 1 -104 53 c-134 68 -191 126
-264 270 l-52 104 0 106 c1 96 3 110 27 151 15 25 39 77 54 115 15 39 39 86
54 105 14 19 35 55 45 80 10 25 31 61 46 80 14 19 38 59 53 88 15 29 42 73 61
97 18 25 37 55 41 67 3 13 22 44 40 69 19 26 41 66 49 90 17 48 80 160 141
253 23 35 45 73 49 85 3 12 22 41 40 66 19 24 49 72 66 107 17 34 44 78 59 98
15 19 33 51 39 70 6 19 29 64 51 100 22 36 40 69 40 73 0 4 20 39 45 77 25 38
49 80 54 92 5 13 23 41 41 63 18 22 43 65 56 94 14 30 36 70 50 88 14 18 36
59 50 90 14 31 34 68 45 81 11 14 28 45 39 69 41 92 125 190 214 249 29 18
150 67 211 84 58 16 125 11 189 -15z m-6629 -3944 c44 -6 132 -23 195 -36 63
-14 165 -30 225 -35 161 -15 180 -18 290 -55 55 -18 147 -41 205 -49 82 -12
119 -23 170 -50 44 -24 91 -39 140 -46 41 -7 109 -27 150 -45 41 -18 94 -38
118 -44 23 -6 61 -16 85 -22 23 -6 63 -21 89 -35 26 -13 80 -33 120 -44 40
-11 95 -34 123 -51 27 -17 75 -39 107 -49 32 -10 81 -33 110 -52 29 -20 71
-41 93 -48 22 -7 67 -30 99 -51 33 -22 65 -39 72 -39 20 0 267 -130 294 -155
14 -13 45 -33 70 -45 25 -13 63 -37 85 -55 22 -18 56 -40 75 -50 19 -10 51
-30 70 -45 19 -15 58 -39 85 -54 28 -15 69 -41 92 -59 23 -17 61 -45 84 -62
91 -66 137 -101 153 -117 9 -9 38 -34 64 -55 26 -21 52 -43 57 -49 6 -6 32
-26 60 -45 65 -43 222 -181 260 -228 17 -20 80 -82 140 -136 137 -124 183
-170 236 -237 23 -29 101 -117 173 -196 127 -139 156 -176 233 -292 19 -30 50
-72 67 -92 67 -81 139 -176 185 -248 26 -41 61 -95 77 -118 32 -48 104 -173
155 -267 17 -33 49 -84 70 -114 22 -30 39 -60 39 -66 0 -7 19 -41 41 -76 23
-35 50 -87 60 -116 10 -29 29 -69 44 -90 14 -21 33 -63 42 -93 8 -30 33 -89
54 -130 20 -41 44 -101 53 -133 8 -33 26 -76 41 -97 28 -41 65 -130 65 -158 0
-10 16 -51 35 -91 20 -41 46 -119 60 -175 13 -56 33 -122 44 -147 12 -26 30
-102 41 -170 11 -68 34 -160 50 -204 36 -100 37 -106 50 -245 6 -75 22 -159
44 -237 78 -275 81 -428 81 -3923 l0 -2885 -24 -48 c-13 -28 -37 -57 -55 -68
-30 -18 -103 -19 -3091 -19 -2954 0 -3062 1 -3095 18 -19 11 -43 36 -54 58
-21 39 -21 42 -21 2034 0 1535 3 2001 12 2022 7 15 24 35 40 45 26 17 89 18
1138 23 1280 6 1131 -9 1262 126 106 109 117 140 111 308 -3 103 -7 128 -28
170 -27 54 -134 167 -183 194 -30 16 -190 17 -2756 20 -1957 1 -2735 -1 -2764
-9 -48 -13 -177 -132 -207 -189 -44 -86 -54 -273 -19 -366 17 -44 39 -74 102
-136 45 -44 95 -87 112 -96 27 -16 129 -17 1148 -22 l1119 -5 28 -32 c21 -23
30 -46 35 -85 3 -29 5 -935 3 -2013 -3 -1950 -3 -1960 -23 -1995 -12 -19 -36
-43 -55 -52 -33 -17 -202 -18 -3093 -18 -3315 0 -3093 -4 -3129 52 -39 61 -38
-8 -38 3046 0 1624 1 2956 4 2960 2 4 7 122 10 262 11 399 21 493 72 655 15
48 31 135 39 220 16 150 20 171 58 267 14 35 30 104 37 153 6 50 23 122 36
160 14 39 38 120 53 180 15 61 40 133 54 161 14 28 33 79 42 114 18 69 31 99
69 155 14 20 29 59 36 87 6 29 28 86 49 127 21 42 46 101 56 131 10 30 29 73
43 94 13 21 32 62 42 90 9 28 36 80 59 115 22 35 41 70 41 76 0 7 20 40 45 74
25 34 45 65 45 69 0 5 16 35 36 68 21 32 48 81 61 108 14 27 42 74 62 105 21
31 55 82 77 114 21 32 47 73 58 90 10 18 33 49 51 69 19 20 41 49 51 65 10 15
32 44 50 63 17 19 63 82 102 140 39 58 126 164 193 235 66 72 139 153 160 180
21 28 82 92 136 144 54 52 159 153 233 226 128 126 195 184 285 249 22 16 45
34 50 40 6 6 30 27 55 46 25 18 66 52 92 74 73 64 149 122 193 145 22 12 81
51 130 86 50 36 108 74 130 86 22 12 58 36 80 54 22 18 60 42 85 55 25 12 59
32 75 45 17 12 50 32 75 45 25 12 70 38 100 56 30 18 75 40 100 47 25 7 65 27
90 43 25 16 68 38 97 50 28 12 71 35 95 52 24 16 76 41 116 56 41 14 88 37
105 49 18 13 68 34 112 46 44 12 95 32 114 43 19 11 77 31 129 44 51 13 123
38 160 55 37 18 105 38 151 46 55 9 110 27 155 50 55 28 97 40 186 53 63 10
135 25 160 35 106 39 143 47 282 61 81 8 178 21 215 29 141 32 232 46 343 55
164 12 1286 5 1385 -9z m-13139 -1376 c27 -16 81 -44 119 -63 39 -19 77 -40
85 -48 18 -15 133 -78 246 -133 44 -21 93 -50 110 -63 16 -13 49 -35 74 -47
25 -13 54 -32 66 -42 23 -22 162 -100 263 -150 36 -17 79 -41 95 -54 17 -13
57 -35 88 -49 32 -13 72 -36 90 -49 18 -14 53 -35 78 -47 25 -13 63 -37 85
-55 22 -18 50 -36 62 -39 12 -4 45 -22 72 -41 27 -19 76 -45 109 -59 33 -13
80 -37 104 -54 24 -16 53 -33 66 -37 13 -4 52 -26 86 -50 34 -23 72 -46 84
-49 12 -4 50 -26 84 -50 35 -24 79 -51 98 -61 19 -9 44 -26 55 -36 11 -10 52
-33 90 -53 109 -54 181 -118 236 -211 26 -44 53 -102 58 -128 14 -60 14 -198
1 -267 -13 -71 -86 -185 -165 -258 -57 -54 -74 -63 -172 -96 -143 -48 -192
-47 -336 0 -60 20 -130 51 -156 68 -26 18 -67 42 -91 55 -25 12 -56 33 -70 46
-14 13 -61 42 -105 66 -44 23 -116 61 -160 84 -126 66 -222 121 -252 145 -16
12 -55 35 -88 51 -33 16 -80 43 -105 60 -74 51 -147 93 -295 169 -77 39 -156
84 -175 100 -20 15 -60 40 -90 55 -30 15 -64 35 -75 45 -11 10 -51 35 -90 55
-38 19 -76 42 -85 49 -8 8 -44 28 -80 46 -36 18 -77 41 -91 51 -14 10 -45 26
-70 35 -24 10 -65 32 -90 50 -25 18 -66 42 -90 54 -24 13 -64 39 -89 59 -25
21 -60 46 -78 57 -26 17 -152 147 -152 158 0 2 -11 54 -25 116 -25 110 -25
114 -10 201 8 49 23 111 34 138 28 74 112 164 206 220 150 90 154 91 291 87
90 -2 106 -6 150 -31z m25116 9 c118 -61 197 -117 249 -175 73 -83 74 -86 99
-218 l22 -112 -21 -106 c-12 -58 -28 -117 -36 -132 -19 -36 -131 -149 -184
-186 -154 -108 -247 -167 -291 -185 -37 -15 -107 -53 -218 -119 -31 -19 -86
-49 -122 -68 -36 -19 -76 -45 -90 -58 -14 -13 -45 -31 -70 -41 -25 -9 -62 -30
-84 -47 -21 -16 -66 -43 -100 -60 -33 -16 -72 -37 -86 -46 -14 -9 -45 -26 -70
-36 -25 -10 -58 -28 -75 -40 -16 -12 -54 -34 -83 -49 -29 -15 -80 -47 -114
-71 -33 -25 -66 -45 -72 -45 -7 0 -34 -15 -62 -32 -70 -46 -167 -101 -254
-144 -41 -20 -88 -47 -105 -59 -16 -13 -52 -32 -80 -44 -27 -12 -66 -37 -85
-56 -19 -19 -57 -43 -83 -54 -26 -11 -67 -34 -91 -50 -24 -17 -90 -46 -147
-66 -138 -47 -194 -47 -338 0 -103 34 -112 39 -178 103 -39 37 -89 99 -113
140 -37 64 -44 85 -53 163 -12 105 0 225 29 281 76 147 148 219 286 281 41 19
79 40 82 46 4 6 30 23 57 37 28 14 79 45 115 69 36 25 71 45 79 45 7 0 35 16
61 36 26 20 68 46 93 57 26 11 60 30 78 43 18 14 62 38 98 54 36 16 80 41 99
55 18 14 38 25 44 25 6 0 50 27 99 60 48 33 91 60 96 60 4 0 37 20 74 45 36
25 71 45 77 45 7 0 39 16 72 36 59 37 126 73 263 146 41 22 88 50 104 64 16
14 48 34 71 46 22 11 55 32 73 45 28 21 76 48 258 140 27 14 68 38 90 53 22
15 62 37 90 49 27 12 72 36 99 53 62 40 99 48 216 44 69 -2 105 -8 132 -22z
m-24556 -7245 c127 -13 154 -22 232 -83 150 -115 227 -247 239 -408 6 -74 4
-83 -37 -190 -38 -102 -49 -119 -107 -179 -55 -57 -81 -74 -181 -120 l-117
-54 -1395 0 -1395 0 -55 27 c-30 14 -81 38 -112 52 -67 29 -142 95 -191 169
-26 38 -41 78 -58 152 -20 90 -21 108 -11 180 21 143 33 175 97 250 66 78 176
167 229 185 19 6 79 15 133 19 156 13 2600 13 2729 0z m26378 1 c65 -6 135
-14 155 -20 58 -16 159 -101 245 -205 70 -85 101 -256 72 -397 -20 -95 -29
-119 -65 -172 -58 -83 -112 -127 -231 -185 l-115 -56 -1400 0 -1400 0 -55 27
c-30 14 -84 39 -120 56 -81 36 -179 135 -205 209 -10 26 -27 68 -38 93 -27 64
-33 163 -13 232 44 153 111 249 231 338 79 57 105 66 226 79 118 12 2565 13
2713 1z m-7652 -4870 c293 -11 378 -22 463 -57 33 -14 105 -33 161 -43 64 -11
123 -29 161 -49 33 -16 83 -36 109 -42 61 -15 269 -123 309 -160 17 -15 48
-36 70 -46 176 -81 578 -435 713 -628 23 -33 66 -94 97 -135 30 -41 67 -95 82
-119 16 -24 38 -58 50 -75 13 -17 34 -56 48 -86 14 -30 43 -91 65 -135 21 -44
42 -96 45 -115 4 -19 24 -73 45 -120 24 -54 43 -114 50 -164 7 -44 26 -113 42
-155 58 -144 59 -163 65 -1131 3 -577 1 -921 -5 -988 -11 -103 -11 -105 -66
-187 -54 -79 -130 -160 -172 -183 -10 -5 -74 -28 -141 -51 l-122 -41 -8973 2
-8973 3 -118 42 c-94 33 -129 51 -173 88 -30 26 -63 59 -72 74 -9 14 -33 49
-53 76 -21 28 -43 70 -49 95 -9 32 -12 287 -11 970 0 1057 3 1106 67 1252 14
32 31 98 40 148 9 61 25 113 48 158 18 37 41 95 50 129 8 35 27 80 40 100 14
21 35 65 46 98 11 33 33 76 49 95 16 20 38 56 51 80 12 25 33 56 46 70 23 25
69 89 150 210 41 62 359 380 443 444 110 84 217 156 260 176 24 11 60 35 80
52 19 17 64 44 99 60 36 16 81 40 101 53 20 13 68 33 107 44 40 12 92 33 118
47 28 16 86 33 151 44 57 11 126 28 152 39 99 41 167 51 437 61 302 11 13521
11 13818 0z"/>
</g>
</svg>
