<svg xmlns="http://www.w3.org/2000/svg" xmlns:xlink="http://www.w3.org/1999/xlink" width="500" zoomAndPan="magnify" viewBox="0 0 375 374.999991" height="500" preserveAspectRatio="xMidYMid meet" version="1.2"><defs><clipPath id="804114d7b4"><path d="M 101 269 L 274 269 L 274 302.746094 L 101 302.746094 Z M 101 269 "/></clipPath><clipPath id="5afce7443c"><path d="M 181 72.496094 L 194 72.496094 L 194 114 L 181 114 Z M 181 72.496094 "/></clipPath><clipPath id="deb1788fa4"><path d="M 267 187 L 308.691406 187 L 308.691406 200 L 267 200 Z M 267 187 "/></clipPath><clipPath id="1490196137"><path d="M 66.441406 187 L 108 187 L 108 200 L 66.441406 200 Z M 66.441406 187 "/></clipPath></defs><g id="a83dba0842"><path style=" stroke:none;fill-rule:evenodd;fill:#f4f6fc;fill-opacity:1;" d="M 187.417969 127.414062 C 224.503906 127.414062 254.867188 157.78125 254.867188 194.867188 L 254.867188 279.078125 L 119.964844 279.078125 L 119.964844 194.867188 C 119.964844 157.78125 150.25 127.414062 187.417969 127.414062 Z M 187.417969 127.414062 "/><path style=" stroke:none;fill-rule:evenodd;fill:#f4f6fc;fill-opacity:1;" d="M 147.902344 255.917969 L 147.902344 191.222656 C 147.902344 168.46875 162.152344 148.875 182.152344 140.855469 C 154.785156 143.449219 133.082031 166.769531 133.082031 194.867188 L 133.082031 255.917969 Z M 147.902344 255.917969 "/><path style=" stroke:none;fill-rule:evenodd;fill:#f4f6fc;fill-opacity:1;" d="M 172.839844 128.953125 C 202.964844 135.675781 225.714844 162.71875 225.714844 194.867188 L 225.714844 279.078125 L 254.867188 279.078125 L 254.867188 194.867188 C 254.867188 157.78125 224.503906 127.414062 187.417969 127.414062 C 182.394531 127.414062 177.539062 127.980469 172.839844 128.953125 Z M 172.839844 128.953125 "/><g clip-rule="nonzero" clip-path="url(#804114d7b4)"><path style=" stroke:none;fill-rule:evenodd;fill:#f4f6fc;fill-opacity:1;" d="M 117.535156 269.359375 L 257.214844 269.359375 C 266.203125 269.359375 273.570312 276.730469 273.570312 285.71875 L 273.570312 302.074219 L 101.179688 302.074219 L 101.179688 285.71875 C 101.179688 276.730469 108.546875 269.359375 117.535156 269.359375 Z M 117.535156 269.359375 "/></g><g clip-rule="nonzero" clip-path="url(#5afce7443c)"><path style=" stroke:none;fill-rule:nonzero;fill:#f4f6fc;fill-opacity:1;" d="M 181.828125 78.101562 C 181.828125 75.027344 184.339844 72.515625 187.417969 72.515625 C 190.492188 72.515625 193.003906 75.027344 193.003906 78.101562 L 193.003906 108.226562 C 193.003906 111.300781 190.492188 113.8125 187.417969 113.8125 C 184.339844 113.8125 181.828125 111.300781 181.828125 108.226562 Z M 181.828125 78.101562 "/></g><path style=" stroke:none;fill-rule:nonzero;fill:#f4f6fc;fill-opacity:1;" d="M 240.210938 90.734375 C 241.75 88.0625 245.230469 87.171875 247.824219 88.710938 C 250.496094 90.25 251.464844 93.648438 249.925781 96.320312 L 234.785156 122.476562 C 233.246094 125.148438 229.847656 126.039062 227.175781 124.5 C 224.503906 122.960938 223.613281 119.5625 225.148438 116.890625 Z M 240.210938 90.734375 "/><path style=" stroke:none;fill-rule:nonzero;fill:#f4f6fc;fill-opacity:1;" d="M 284.503906 130.976562 C 287.175781 129.441406 290.574219 130.332031 292.113281 133.003906 C 293.652344 135.675781 292.761719 139.074219 290.089844 140.613281 L 264.015625 155.675781 C 261.34375 157.214844 257.945312 156.324219 256.40625 153.652344 C 254.785156 150.980469 255.757812 147.578125 258.429688 146.039062 Z M 284.503906 130.976562 "/><g clip-rule="nonzero" clip-path="url(#deb1788fa4)"><path style=" stroke:none;fill-rule:nonzero;fill:#f4f6fc;fill-opacity:1;" d="M 302.722656 187.902344 C 305.800781 187.902344 308.308594 190.414062 308.308594 193.488281 C 308.308594 196.566406 305.800781 199.078125 302.722656 199.078125 L 272.601562 199.078125 C 269.523438 199.078125 267.011719 196.566406 267.011719 193.488281 C 267.011719 190.414062 269.523438 187.902344 272.601562 187.902344 Z M 302.722656 187.902344 "/></g><g clip-rule="nonzero" clip-path="url(#1490196137)"><path style=" stroke:none;fill-rule:nonzero;fill:#f4f6fc;fill-opacity:1;" d="M 72.03125 199.078125 C 68.953125 199.078125 66.441406 196.566406 66.441406 193.488281 C 66.441406 190.414062 68.953125 187.902344 72.03125 187.902344 L 102.152344 187.902344 C 105.230469 187.902344 107.738281 190.414062 107.738281 193.488281 C 107.738281 196.566406 105.230469 199.078125 102.152344 199.078125 Z M 72.03125 199.078125 "/></g><path style=" stroke:none;fill-rule:nonzero;fill:#f4f6fc;fill-opacity:1;" d="M 84.660156 140.613281 C 81.988281 139.074219 81.097656 135.675781 82.636719 133.003906 C 84.175781 130.332031 87.578125 129.441406 90.25 130.976562 L 116.402344 146.039062 C 119.074219 147.578125 119.964844 150.980469 118.425781 153.652344 C 116.890625 156.324219 113.488281 157.214844 110.816406 155.675781 Z M 84.660156 140.613281 "/><path style=" stroke:none;fill-rule:nonzero;fill:#f4f6fc;fill-opacity:1;" d="M 124.90625 96.320312 C 123.367188 93.648438 124.257812 90.25 126.929688 88.710938 C 129.601562 87.171875 133.003906 88.0625 134.542969 90.734375 L 149.601562 116.890625 C 151.140625 119.5625 150.25 122.960938 147.578125 124.5 C 144.90625 126.039062 141.503906 125.148438 139.964844 122.476562 Z M 124.90625 96.320312 "/></g></svg>