<?xml version="1.0" standalone="no"?>
<!DOCTYPE svg PUBLIC "-//W3C//DTD SVG 20010904//EN"
 "http://www.w3.org/TR/2001/REC-SVG-20010904/DTD/svg10.dtd">
<svg version="1.0" xmlns="http://www.w3.org/2000/svg"
 width="7200.000000pt" height="7200.000000pt" viewBox="0 0 7200.000000 7200.000000"
 preserveAspectRatio="xMidYMid meet">

<g transform="translate(0.000000,7200.000000) scale(0.100000,-0.100000)"
fill="#000000" stroke="none">
<path d="M35370 57569 c-1116 -36 -2280 -177 -3370 -410 -257 -55 -1435 -330
-1755 -410 -2152 -537 -4184 -1445 -6037 -2695 -291 -196 -1103 -776 -1411
-1007 -1456 -1092 -2752 -2389 -3846 -3846 -229 -306 -809 -1118 -1005 -1409
-1136 -1683 -1983 -3501 -2536 -5442 -122 -429 -433 -1715 -569 -2350 -560
-2626 -560 -5374 0 -8000 136 -635 447 -1921 569 -2350 511 -1792 1287 -3511
2291 -5072 265 -412 868 -1270 1252 -1781 1090 -1452 2392 -2754 3844 -3844
308 -231 1120 -811 1411 -1007 1854 -1251 3884 -2157 6037 -2695 322 -80 1499
-355 1755 -410 2626 -560 5374 -560 8000 0 256 55 1433 330 1755 410 2004 501
3931 1334 5667 2450 412 265 1270 868 1781 1252 1452 1090 2754 2392 3844
3844 224 299 804 1111 996 1394 1182 1749 2064 3667 2605 5669 105 387 406
1647 511 2140 560 2626 560 5374 0 8000 -69 323 -344 1491 -434 1845 -504
1977 -1325 3865 -2426 5577 -265 412 -867 1268 -1253 1783 -1088 1450 -2389
2751 -3843 3842 -308 231 -1120 811 -1411 1007 -1853 1250 -3885 2158 -6037
2695 -292 73 -1485 352 -1730 405 -1500 323 -3094 465 -4655 415z m1265 -1409
c1220 -43 2380 -190 3549 -450 1533 -341 2631 -685 3821 -1195 1462 -627 2752
-1384 4175 -2451 1212 -909 2313 -1953 3262 -3095 701 -844 1442 -1893 1970
-2789 916 -1555 1604 -3216 2043 -4931 433 -1696 615 -2835 697 -4369 17 -311
17 -1449 0 -1760 -82 -1535 -264 -2672 -697 -4369 -439 -1715 -1127 -3376
-2043 -4931 -527 -894 -1273 -1950 -1970 -2789 -625 -752 -1362 -1507 -2103
-2156 -852 -747 -1932 -1540 -2912 -2139 -1615 -986 -3366 -1727 -5182 -2191
-1696 -434 -2833 -616 -4365 -697 -310 -17 -1450 -17 -1760 0 -1532 81 -2669
263 -4365 697 -1957 500 -3844 1324 -5557 2426 -701 451 -1535 1062 -2167
1587 -751 624 -1508 1363 -2156 2103 -811 925 -1671 2113 -2287 3159 -916
1555 -1604 3216 -2043 4931 -433 1696 -615 2835 -697 4369 -17 311 -17 1449 0
1760 82 1534 264 2673 697 4369 439 1715 1127 3376 2043 4931 527 894 1273
1950 1970 2789 624 750 1363 1508 2102 2156 894 782 2019 1603 3038 2214 1587
952 3291 1665 5053 2116 1593 407 2734 597 4084 680 545 34 1262 44 1800 25z"/>
<path d="M35370 55069 c-4840 -155 -9425 -2144 -12860 -5579 -2677 -2677
-4490 -6063 -5224 -9760 -423 -2132 -479 -4383 -160 -6535 705 -4764 3180
-9066 6962 -12098 3812 -3057 8651 -4524 13547 -4106 5209 443 9979 2995
13268 7097 2248 2803 3662 6208 4056 9767 465 4196 -437 8360 -2586 11944
-1901 3169 -4677 5720 -7993 7344 -2793 1369 -5870 2027 -9010 1926z m5218
-4511 c3 -11 17 -44 32 -72 15 -28 31 -67 35 -86 4 -19 20 -60 36 -91 16 -31
29 -63 29 -70 0 -8 13 -42 30 -77 16 -34 36 -84 44 -111 8 -27 21 -62 30 -79
9 -17 25 -70 36 -117 11 -47 29 -103 39 -123 11 -21 25 -67 31 -103 6 -35 22
-88 35 -117 13 -29 29 -80 35 -114 6 -33 22 -84 35 -114 13 -29 29 -79 35
-111 6 -32 22 -85 36 -119 13 -34 28 -101 34 -150 5 -49 19 -117 30 -152 11
-34 25 -104 31 -155 6 -50 24 -144 40 -207 16 -63 33 -157 39 -209 6 -51 12
-96 14 -100 11 -18 37 -249 46 -411 5 -102 15 -252 21 -335 9 -114 9 -247 0
-554 -13 -446 -23 -584 -51 -712 -11 -48 -24 -146 -30 -218 -10 -143 -13 -158
-41 -246 -10 -33 -25 -107 -34 -164 -8 -56 -26 -139 -40 -183 -14 -43 -25 -97
-25 -120 0 -22 -13 -79 -29 -127 -16 -47 -37 -119 -46 -160 -8 -40 -22 -86
-30 -100 -7 -15 -21 -63 -29 -106 -9 -44 -27 -107 -40 -140 -13 -34 -29 -87
-35 -119 -6 -32 -22 -83 -35 -114 -14 -32 -30 -81 -35 -110 -6 -29 -22 -77
-35 -105 -13 -29 -30 -79 -36 -112 -7 -33 -20 -76 -30 -95 -9 -19 -23 -60 -30
-90 -6 -30 -25 -89 -40 -130 -16 -41 -34 -99 -39 -128 -6 -29 -21 -74 -32
-100 -12 -26 -28 -77 -36 -115 -8 -37 -22 -87 -33 -111 -10 -24 -26 -81 -35
-127 -9 -46 -27 -109 -40 -139 -12 -30 -26 -77 -29 -105 -4 -27 -20 -95 -36
-150 -15 -55 -33 -139 -39 -188 -6 -48 -21 -115 -32 -150 -14 -44 -24 -119
-34 -262 -8 -110 -22 -256 -31 -324 -15 -108 -16 -143 -6 -260 7 -75 17 -210
22 -301 13 -212 24 -301 49 -373 11 -32 27 -106 35 -165 9 -59 26 -138 39
-177 13 -38 27 -88 31 -109 4 -22 20 -65 36 -95 15 -31 31 -72 34 -91 4 -19
20 -62 36 -95 16 -33 38 -92 50 -132 20 -72 58 -131 76 -120 11 6 94 142 94
153 0 4 16 31 35 60 19 29 35 56 35 61 0 10 57 94 135 198 33 44 68 91 77 105
65 93 107 145 247 305 262 298 471 489 760 695 43 30 113 82 157 114 43 33 98
73 122 90 24 17 58 43 75 57 47 38 122 86 189 122 57 30 82 44 238 131 36 19
91 49 122 65 31 16 69 38 84 50 15 12 32 21 39 21 7 0 32 13 56 30 24 16 66
37 92 46 27 9 68 27 90 40 23 13 49 24 58 24 9 0 38 12 65 26 27 15 73 35 103
45 29 10 67 27 85 38 17 10 55 26 85 36 30 10 68 26 85 36 17 10 60 25 95 34
36 9 82 25 103 36 22 11 64 25 96 30 31 6 77 21 102 34 25 12 72 28 104 35 33
7 87 22 121 35 34 13 96 28 139 34 43 6 99 20 123 31 73 32 143 25 143 -14 0
-36 -29 -119 -54 -156 -14 -19 -30 -55 -36 -79 -6 -24 -22 -68 -35 -98 -14
-30 -29 -80 -35 -112 -6 -32 -21 -85 -34 -117 -15 -38 -28 -100 -35 -172 -12
-113 -16 -137 -45 -267 -13 -56 -16 -139 -16 -421 0 -332 1 -358 24 -470 13
-66 29 -177 36 -249 6 -71 20 -170 32 -220 11 -49 25 -112 30 -140 5 -27 24
-97 43 -155 18 -58 36 -124 39 -148 4 -24 18 -66 31 -93 14 -27 32 -76 39
-109 8 -34 21 -72 30 -85 9 -13 24 -55 35 -93 10 -39 26 -81 35 -94 9 -13 24
-49 35 -80 11 -31 26 -67 35 -80 8 -13 22 -44 31 -68 18 -55 58 -138 145 -305
20 -38 45 -86 54 -105 9 -19 26 -51 37 -70 11 -19 31 -60 45 -90 14 -30 31
-62 38 -70 7 -8 19 -31 26 -50 13 -35 57 -135 110 -245 15 -33 44 -94 63 -135
19 -41 54 -113 76 -160 23 -47 41 -92 41 -101 0 -8 11 -30 25 -49 13 -18 31
-57 40 -85 8 -29 21 -58 29 -64 8 -7 23 -36 32 -64 9 -29 27 -70 39 -92 13
-22 30 -66 39 -97 9 -32 25 -72 35 -90 10 -18 24 -55 30 -83 7 -27 21 -65 31
-83 11 -18 27 -60 36 -94 8 -34 26 -80 39 -103 12 -22 27 -61 34 -86 6 -26 24
-75 41 -110 16 -35 30 -72 30 -81 0 -10 14 -47 30 -81 17 -35 30 -69 30 -76 0
-6 15 -51 34 -99 19 -48 37 -109 41 -137 4 -27 18 -73 30 -101 13 -28 30 -87
39 -131 9 -45 25 -101 36 -126 11 -24 26 -79 34 -120 8 -41 24 -93 35 -114 11
-22 26 -75 35 -119 8 -43 24 -101 36 -128 12 -26 28 -86 35 -132 8 -46 23
-114 34 -151 11 -38 27 -118 35 -178 8 -61 21 -129 30 -151 8 -23 19 -77 26
-120 6 -44 25 -135 41 -204 16 -69 34 -160 39 -202 5 -43 18 -131 29 -195 25
-153 29 -189 41 -368 5 -82 16 -184 24 -225 39 -201 45 -338 46 -1000 1 -673
-7 -863 -50 -1115 -6 -33 -15 -147 -20 -252 -8 -157 -15 -207 -34 -270 -14
-43 -30 -116 -36 -163 -6 -47 -22 -123 -35 -170 -13 -47 -29 -121 -35 -165 -6
-44 -22 -118 -35 -165 -13 -47 -29 -121 -34 -165 -6 -46 -23 -114 -40 -157
-17 -42 -31 -85 -31 -95 0 -10 -12 -43 -26 -73 -14 -30 -32 -84 -40 -119 -8
-35 -24 -80 -34 -101 -10 -20 -26 -65 -35 -101 -9 -35 -27 -86 -40 -114 -12
-27 -27 -74 -34 -103 -6 -29 -20 -70 -31 -92 -11 -22 -25 -63 -31 -92 -6 -29
-24 -78 -40 -108 -44 -87 -99 -206 -99 -216 0 -16 -153 -322 -279 -559 -20
-38 -48 -90 -61 -115 -13 -25 -35 -63 -50 -85 -28 -43 -35 -55 -76 -125 -15
-25 -35 -56 -45 -70 -11 -14 -30 -45 -44 -70 -37 -64 -88 -141 -180 -270 -44
-61 -87 -122 -95 -134 -8 -12 -28 -40 -44 -61 -17 -22 -48 -65 -70 -95 -22
-30 -65 -84 -96 -120 -30 -36 -91 -110 -135 -165 -100 -126 -128 -158 -289
-329 -72 -76 -136 -146 -143 -156 -19 -27 -509 -490 -577 -544 -136 -110 -164
-133 -256 -211 -92 -78 -180 -147 -269 -210 -23 -16 -55 -40 -69 -51 -15 -12
-63 -46 -107 -76 -44 -30 -112 -79 -150 -108 -39 -28 -86 -61 -105 -71 -19
-11 -50 -30 -67 -42 -18 -12 -56 -37 -85 -55 -77 -47 -272 -173 -310 -199 -18
-13 -53 -32 -78 -44 -25 -12 -57 -30 -73 -41 -15 -11 -51 -32 -80 -47 -77 -41
-153 -83 -232 -129 -94 -54 -268 -142 -282 -142 -5 0 -22 -10 -37 -21 -15 -12
-50 -30 -79 -41 -28 -11 -62 -27 -76 -37 -14 -10 -44 -24 -66 -31 -22 -7 -56
-23 -75 -36 -19 -13 -54 -30 -78 -38 -24 -9 -56 -24 -71 -35 -15 -11 -40 -23
-57 -27 -16 -3 -54 -19 -85 -34 -31 -16 -79 -35 -107 -43 -28 -9 -61 -22 -74
-31 -13 -9 -49 -24 -79 -35 -29 -10 -76 -30 -103 -45 -27 -14 -56 -26 -64 -26
-8 0 -40 -13 -71 -28 -31 -16 -78 -34 -105 -41 -27 -6 -69 -22 -95 -35 -25
-13 -68 -28 -95 -35 -27 -7 -69 -22 -95 -35 -25 -13 -62 -27 -81 -31 -19 -4
-70 -22 -112 -41 -87 -39 -124 -38 -134 2 -7 28 -8 25 101 160 44 55 94 117
110 138 17 22 46 60 65 85 20 25 50 67 68 94 17 26 47 67 65 92 17 25 48 70
67 100 39 59 142 215 172 258 10 15 33 53 50 85 51 96 83 154 128 232 24 41
56 100 72 130 16 30 47 87 70 125 22 39 51 90 64 115 14 25 44 79 69 120 24
41 51 91 60 110 8 19 29 60 45 91 17 31 30 63 30 71 0 8 15 45 34 84 19 38 39
87 45 109 6 22 20 54 30 72 11 17 26 53 34 80 8 26 26 70 41 97 14 27 26 56
26 66 0 9 16 47 35 86 19 38 35 76 35 84 0 8 16 46 35 84 19 39 35 76 35 83 0
7 15 53 34 101 18 48 37 108 40 135 4 26 19 73 33 105 14 31 29 84 35 117 5
33 20 85 33 115 12 30 28 82 35 115 7 33 23 87 35 120 13 33 29 85 35 115 7
30 23 87 36 125 12 39 27 113 33 165 6 52 20 124 32 160 11 36 27 111 35 168
16 115 28 176 44 218 6 16 18 78 26 139 9 60 26 169 39 240 13 72 29 210 35
307 6 98 13 184 15 190 3 7 14 76 25 153 14 95 24 231 30 425 5 157 12 366 17
465 10 226 10 382 0 760 -11 411 -25 725 -37 815 -28 209 -40 330 -50 484 -6
95 -21 219 -35 285 -13 64 -29 177 -35 251 -6 74 -23 181 -36 238 -14 57 -30
142 -35 189 -6 47 -22 122 -35 167 -14 44 -29 119 -34 166 -5 47 -20 121 -33
165 -14 44 -30 121 -36 170 -7 50 -23 128 -36 175 -14 47 -29 126 -36 175 -6
50 -19 109 -29 132 -10 23 -26 79 -35 125 -10 46 -26 106 -37 133 -11 28 -26
83 -34 122 -7 40 -24 99 -38 130 -13 32 -29 91 -35 131 -6 41 -19 88 -27 105
-20 37 -31 75 -44 141 -13 62 -34 96 -61 96 -25 0 -44 -43 -54 -125 -4 -33
-17 -87 -30 -121 -13 -33 -28 -87 -35 -120 -7 -32 -25 -80 -41 -105 -16 -25
-29 -52 -29 -60 0 -8 -13 -36 -29 -61 -16 -25 -32 -56 -36 -69 -9 -28 -103
-212 -130 -254 -11 -16 -60 -88 -110 -158 -49 -71 -97 -138 -105 -150 -53 -79
-125 -165 -275 -326 -209 -225 -414 -414 -626 -576 -28 -22 -66 -52 -83 -66
-49 -42 -279 -196 -303 -203 -12 -4 -33 -2 -45 5 -40 21 -258 241 -314 317
-140 188 -170 228 -202 276 -19 28 -46 73 -61 100 -14 27 -42 79 -63 115 -61
111 -138 266 -138 280 0 6 -16 42 -35 78 -19 36 -35 72 -35 80 0 7 -13 40 -29
71 -16 32 -35 86 -41 120 -6 34 -22 85 -35 114 -13 28 -27 77 -31 107 -3 31
-17 83 -31 115 -14 33 -31 93 -39 134 -8 41 -23 94 -34 119 -11 25 -28 90 -39
146 -11 56 -27 127 -35 158 -8 31 -20 110 -26 175 -7 66 -20 153 -30 194 -23
92 -35 178 -56 385 -8 88 -22 210 -30 272 -25 205 -37 618 -31 1144 4 365 2
510 -6 518 -18 18 -49 13 -121 -24 -37 -19 -85 -39 -105 -46 -20 -6 -67 -27
-105 -45 -39 -19 -76 -34 -84 -34 -8 0 -38 -13 -66 -29 -28 -16 -62 -32 -76
-36 -14 -4 -40 -18 -58 -32 -17 -13 -47 -29 -65 -35 -17 -6 -45 -21 -62 -33
-16 -13 -50 -32 -75 -44 -123 -60 -245 -132 -395 -236 -64 -44 -134 -91 -154
-105 -93 -61 -133 -90 -246 -180 -162 -128 -342 -287 -509 -450 -147 -143
-486 -521 -543 -605 -18 -27 -49 -72 -68 -100 -20 -27 -55 -79 -80 -115 -48
-71 -212 -310 -277 -405 -23 -33 -55 -85 -71 -115 -42 -79 -159 -304 -237
-457 -37 -73 -72 -138 -77 -145 -6 -7 -18 -37 -28 -66 -9 -30 -28 -73 -41 -95
-13 -23 -24 -52 -24 -63 0 -12 -13 -47 -29 -77 -16 -31 -37 -81 -46 -113 -9
-31 -23 -67 -32 -81 -9 -13 -26 -58 -38 -101 -13 -42 -32 -103 -44 -134 -12
-32 -21 -68 -21 -82 0 -13 -12 -57 -26 -98 -14 -40 -30 -91 -35 -113 -22 -90
-64 -107 -149 -61 -25 13 -70 38 -100 54 -53 29 -94 51 -226 124 -33 18 -96
62 -139 98 -122 102 -218 181 -285 235 -77 62 -393 404 -480 519 -19 25 -49
65 -67 89 -113 149 -172 231 -211 297 -25 41 -58 94 -74 117 -15 23 -28 45
-28 50 0 4 -15 30 -33 58 -40 58 -143 230 -172 284 -11 21 -29 51 -41 67 -21
30 -95 178 -113 227 -8 19 -17 27 -35 27 -30 0 -51 -34 -67 -112 -6 -29 -24
-80 -40 -113 -15 -33 -31 -78 -35 -100 -4 -22 -17 -61 -30 -87 -13 -26 -30
-74 -38 -105 -8 -32 -24 -79 -35 -106 -12 -26 -28 -80 -36 -121 -8 -40 -23
-97 -35 -126 -12 -29 -27 -85 -35 -124 -7 -39 -23 -92 -34 -119 -11 -26 -26
-78 -32 -115 -6 -37 -22 -100 -35 -140 -14 -40 -31 -119 -39 -175 -8 -56 -23
-128 -34 -161 -12 -32 -25 -93 -30 -136 -6 -43 -22 -123 -35 -177 -14 -54 -30
-150 -36 -213 -6 -63 -22 -164 -36 -225 -17 -78 -29 -174 -39 -328 -8 -119
-22 -261 -30 -315 -46 -281 -46 -1306 0 -1577 8 -49 19 -162 25 -250 13 -187
20 -242 48 -350 11 -44 26 -123 32 -175 6 -52 22 -135 35 -185 13 -49 29 -135
35 -190 6 -55 20 -129 31 -165 10 -36 26 -111 34 -168 8 -57 26 -129 39 -160
13 -31 29 -83 36 -115 6 -32 20 -78 31 -101 10 -24 25 -74 33 -112 8 -38 24
-91 36 -117 12 -26 28 -79 36 -118 8 -39 24 -89 35 -111 11 -22 26 -72 34
-112 8 -39 28 -101 44 -136 17 -36 31 -71 31 -79 0 -8 12 -34 26 -58 14 -24
32 -66 40 -93 8 -27 25 -68 39 -92 14 -24 25 -50 25 -59 0 -8 16 -47 35 -86
19 -39 35 -77 35 -83 0 -7 16 -44 35 -81 19 -38 35 -75 35 -82 0 -8 12 -36 26
-63 14 -27 34 -73 44 -102 11 -29 28 -65 38 -80 11 -15 29 -47 41 -72 12 -25
39 -76 61 -115 21 -38 53 -97 70 -130 17 -33 49 -91 70 -130 22 -38 53 -97 70
-130 61 -118 96 -182 118 -212 12 -17 22 -34 22 -37 0 -5 66 -107 110 -171 12
-16 41 -61 65 -100 24 -38 54 -83 65 -100 11 -16 38 -58 60 -92 22 -35 58 -91
80 -125 22 -35 61 -92 87 -127 27 -35 57 -75 67 -90 221 -299 408 -538 548
-702 86 -101 164 -193 175 -204 10 -11 58 -65 107 -120 158 -178 546 -565 734
-735 365 -328 565 -499 650 -553 34 -22 42 -33 42 -57 0 -24 -5 -31 -27 -37
-38 -9 -229 13 -317 37 -39 11 -120 24 -181 30 -60 7 -161 23 -224 36 -62 13
-175 31 -250 39 -75 9 -166 25 -202 35 -37 11 -102 25 -145 30 -44 6 -118 22
-165 36 -47 13 -130 31 -185 39 -54 9 -125 24 -158 36 -32 11 -95 24 -140 30
-44 5 -108 19 -142 30 -33 11 -110 28 -171 38 -60 10 -125 26 -144 35 -19 9
-75 25 -126 35 -51 11 -106 27 -123 36 -17 9 -64 22 -103 30 -40 8 -102 25
-138 39 -36 13 -94 30 -130 36 -35 7 -89 22 -119 35 -30 12 -77 26 -103 30
-27 3 -91 22 -143 41 -52 19 -102 34 -111 34 -9 0 -44 13 -78 29 -34 16 -79
33 -101 37 -21 4 -60 17 -85 30 -25 12 -74 30 -109 39 -35 9 -82 26 -104 37
-23 12 -67 27 -99 34 -32 8 -77 24 -100 35 -23 12 -68 28 -100 35 -32 8 -68
21 -80 29 -13 8 -49 24 -81 35 -32 11 -72 28 -90 39 -17 10 -49 24 -71 31 -22
7 -58 22 -80 35 -22 12 -58 28 -80 35 -22 7 -65 26 -96 42 -31 15 -62 28 -68
28 -7 0 -42 16 -78 35 -36 19 -72 35 -80 35 -8 0 -44 16 -80 35 -36 19 -73 35
-82 35 -9 0 -33 11 -53 25 -20 13 -60 36 -90 50 -29 15 -83 43 -120 63 -38 20
-121 65 -185 99 -65 33 -149 78 -188 99 -38 21 -95 51 -125 66 -30 16 -71 39
-90 52 -50 32 -141 91 -202 129 -29 19 -98 63 -153 99 -55 36 -113 73 -130 82
-16 9 -41 24 -55 35 -14 10 -63 44 -110 75 -47 31 -106 73 -132 94 -26 20
-100 77 -165 127 -65 49 -155 119 -200 155 -46 36 -106 83 -135 105 -29 22
-158 139 -287 260 -130 121 -248 231 -264 245 -16 14 -81 84 -145 155 -64 72
-139 155 -168 185 -141 150 -224 253 -454 565 -156 211 -191 262 -265 386 -11
19 -31 53 -45 76 -14 22 -38 63 -54 90 -16 26 -43 71 -61 98 -66 103 -82 131
-104 175 -12 25 -27 56 -35 70 -37 67 -96 191 -96 203 0 7 -11 29 -25 49 -13
20 -33 59 -44 88 -11 29 -27 60 -35 69 -8 9 -26 45 -39 81 -14 36 -34 89 -46
118 -50 124 -65 161 -93 237 -16 44 -40 110 -53 146 -13 37 -32 84 -43 105
-11 22 -27 74 -36 118 -9 43 -25 98 -36 123 -10 24 -24 72 -30 106 -7 34 -23
90 -37 125 -14 35 -31 100 -39 145 -8 45 -23 109 -34 142 -10 33 -26 107 -34
165 -9 58 -25 136 -36 174 -11 39 -27 133 -36 210 -8 78 -19 157 -24 176 -18
69 -30 168 -45 365 -8 110 -22 268 -31 350 -11 103 -17 272 -19 540 -4 394 -2
441 35 845 33 364 40 432 55 498 8 34 22 135 30 225 9 89 27 223 40 297 13 74
28 178 34 230 6 52 22 129 36 172 13 42 29 111 34 155 6 43 20 105 31 138 12
33 28 103 36 155 8 52 23 121 34 152 11 31 29 108 39 170 11 62 26 130 35 151
9 20 23 67 32 105 8 37 25 94 39 127 13 33 30 87 38 120 8 33 24 87 36 120 42
125 72 223 91 298 11 43 28 94 39 115 10 20 24 64 31 97 6 33 22 78 35 100 12
22 30 67 39 99 10 32 24 68 31 80 8 12 25 53 38 91 13 39 34 94 46 123 11 28
31 76 42 105 12 28 33 83 46 122 13 38 30 79 37 90 8 12 21 45 30 74 8 28 24
65 36 80 11 16 20 33 20 37 0 5 18 44 39 89 22 44 49 100 60 125 11 25 26 56
34 70 8 14 30 59 50 100 77 165 139 288 177 350 21 36 53 90 70 120 31 54 69
121 145 250 21 36 51 88 67 115 17 28 47 79 68 115 21 36 49 83 61 105 11 22
32 54 45 72 13 17 24 36 24 41 0 5 16 33 35 61 19 28 35 54 35 58 0 8 65 146
124 261 57 111 126 269 153 352 8 25 28 74 43 110 16 36 34 85 40 108 6 24 20
61 31 81 11 21 26 71 35 111 8 40 24 90 34 111 11 21 27 69 34 106 8 38 24 89
36 116 12 26 25 88 31 140 6 50 21 133 34 182 13 50 31 137 39 195 9 58 25
134 36 170 11 36 27 130 35 210 9 80 25 208 36 285 31 224 42 550 35 1070 -6
495 -14 630 -45 785 -11 52 -22 129 -26 170 -3 41 -11 103 -17 138 -14 82 3
112 62 112 64 0 191 -20 260 -41 36 -11 112 -27 169 -35 57 -8 125 -24 150
-35 25 -11 76 -27 114 -35 37 -7 85 -23 107 -34 22 -11 71 -27 110 -35 39 -8
87 -23 108 -34 20 -10 55 -24 77 -31 22 -7 71 -28 109 -46 39 -19 76 -34 84
-34 7 0 32 -11 55 -24 23 -13 59 -29 79 -35 41 -13 178 -83 218 -110 14 -10
45 -28 70 -40 69 -34 151 -79 190 -104 130 -85 165 -109 250 -171 52 -38 114
-83 138 -100 87 -62 370 -317 492 -442 112 -115 261 -282 315 -355 11 -15 46
-61 78 -103 31 -41 57 -79 57 -82 0 -4 14 -25 30 -48 17 -23 48 -69 70 -103
22 -35 58 -91 80 -125 22 -35 47 -74 57 -88 40 -56 87 -140 134 -240 28 -58
57 -117 65 -132 68 -131 114 -231 129 -283 38 -138 69 -216 85 -213 13 3 16
44 21 303 6 268 9 314 32 431 15 72 31 198 36 280 11 160 24 245 45 296 8 18
19 73 26 123 7 49 23 120 36 158 13 37 28 104 34 147 6 44 20 105 30 136 11
31 27 98 36 148 16 95 45 196 119 409 8 23 24 71 36 107 51 157 73 217 89 240
10 14 25 49 34 78 8 30 24 68 35 85 10 18 24 50 31 72 20 64 63 156 178 375
36 69 81 154 100 190 34 66 92 166 126 216 11 16 34 52 51 79 18 28 41 63 51
79 26 39 75 116 99 155 25 42 172 236 239 317 28 33 85 103 126 155 174 218
558 586 825 789 18 14 58 45 90 70 192 150 238 184 282 210 86 52 139 84 182
112 25 15 48 28 53 28 5 0 25 12 43 26 19 14 52 35 74 47 52 28 227 134 264
159 15 10 51 31 80 47 51 27 94 52 227 131 36 21 88 51 115 66 28 14 57 32 65
39 8 7 35 24 60 38 25 13 73 40 108 60 34 21 89 53 122 72 33 19 87 51 120 70
33 19 88 51 123 71 154 91 216 131 419 277 29 20 76 53 103 72 83 58 233 164
389 275 81 58 164 116 185 130 81 55 164 121 316 250 55 47 132 111 170 142
39 31 136 112 217 180 81 67 171 143 200 167 29 23 203 190 387 370 250 244
398 399 589 616 140 160 285 331 322 380 37 50 74 96 83 104 13 11 42 11 160
1 143 -12 356 -3 447 19 54 14 61 13 68 -11z"/>
</g>
</svg>
