<svg xmlns="http://www.w3.org/2000/svg" xmlns:xlink="http://www.w3.org/1999/xlink" width="500" zoomAndPan="magnify" viewBox="0 0 375 374.999991" height="500" preserveAspectRatio="xMidYMid meet" version="1.2"><defs><clipPath id="cd7f6cf976"><path d="M 68.632812 69.238281 L 312.226562 69.238281 L 312.226562 312.835938 L 68.632812 312.835938 Z M 68.632812 69.238281 "/></clipPath><clipPath id="a33cd9fa34"><path d="M 190.429688 69.238281 C 123.164062 69.238281 68.632812 123.769531 68.632812 191.035156 C 68.632812 258.304688 123.164062 312.835938 190.429688 312.835938 C 257.699219 312.835938 312.226562 258.304688 312.226562 191.035156 C 312.226562 123.769531 257.699219 69.238281 190.429688 69.238281 Z M 190.429688 69.238281 "/></clipPath><clipPath id="1f39c96ee1"><path d="M 74.601562 76.953125 L 304.851562 76.953125 L 304.851562 307.203125 L 74.601562 307.203125 Z M 74.601562 76.953125 "/></clipPath><clipPath id="37db436a1e"><path d="M 189.726562 76.953125 C 126.144531 76.953125 74.601562 128.496094 74.601562 192.078125 C 74.601562 255.660156 126.144531 307.203125 189.726562 307.203125 C 253.308594 307.203125 304.851562 255.660156 304.851562 192.078125 C 304.851562 128.496094 253.308594 76.953125 189.726562 76.953125 Z M 189.726562 76.953125 "/></clipPath></defs><g id="2fbc0d53f5"><g clip-rule="nonzero" clip-path="url(#cd7f6cf976)"><g clip-rule="nonzero" clip-path="url(#a33cd9fa34)"><path style=" stroke:none;fill-rule:nonzero;fill:#ffffff;fill-opacity:1;" d="M 68.632812 69.238281 L 312.226562 69.238281 L 312.226562 312.835938 L 68.632812 312.835938 Z M 68.632812 69.238281 "/></g></g><path style=" stroke:none;fill-rule:nonzero;fill:#e9403e;fill-opacity:1;" d="M 185.304688 67.761719 C 178.875 67.96875 172.171875 68.78125 165.890625 70.125 C 164.410156 70.441406 157.625 72.023438 155.78125 72.484375 C 143.386719 75.578125 131.679688 80.808594 121.007812 88.011719 C 119.332031 89.140625 114.652344 92.480469 112.878906 93.8125 C 104.492188 100.101562 97.027344 107.574219 90.722656 115.964844 C 89.40625 117.726562 86.0625 122.40625 84.933594 124.082031 C 78.390625 133.777344 73.511719 144.25 70.328125 155.429688 C 69.625 157.902344 67.832031 165.308594 67.046875 168.96875 C 63.824219 184.09375 63.824219 199.921875 67.046875 215.050781 C 67.832031 218.707031 69.625 226.117188 70.328125 228.585938 C 73.269531 238.910156 77.738281 248.8125 83.523438 257.804688 C 85.050781 260.175781 88.523438 265.121094 90.734375 268.0625 C 97.015625 276.429688 104.515625 283.929688 112.878906 290.207031 C 114.652344 291.539062 119.332031 294.878906 121.007812 296.007812 C 131.6875 303.214844 143.378906 308.433594 155.78125 311.53125 C 157.636719 311.992188 164.417969 313.578125 165.890625 313.894531 C 181.019531 317.121094 196.847656 317.121094 211.976562 313.894531 C 213.449219 313.578125 220.230469 311.992188 222.085938 311.53125 C 233.628906 308.644531 244.730469 303.847656 254.730469 297.417969 C 257.101562 295.890625 262.042969 292.417969 264.988281 290.207031 C 273.351562 283.929688 280.851562 276.429688 287.132812 268.0625 C 288.421875 266.339844 291.761719 261.664062 292.867188 260.035156 C 299.675781 249.957031 304.757812 238.910156 307.875 227.378906 C 308.480469 225.148438 310.214844 217.890625 310.816406 215.050781 C 314.042969 199.921875 314.042969 184.09375 310.816406 168.96875 C 310.421875 167.105469 308.835938 160.378906 308.316406 158.339844 C 305.414062 146.949219 300.683594 136.074219 294.34375 126.214844 C 292.816406 123.839844 289.347656 118.910156 287.125 115.941406 C 280.859375 107.589844 273.363281 100.097656 264.988281 93.8125 C 263.214844 92.480469 258.535156 89.140625 256.859375 88.011719 C 246.1875 80.808594 234.480469 75.578125 222.085938 72.484375 C 220.402344 72.066406 213.53125 70.457031 212.117188 70.152344 C 203.476562 68.292969 194.296875 67.472656 185.304688 67.761719 Z M 192.589844 75.878906 C 199.617188 76.125 206.300781 76.972656 213.035156 78.472656 C 221.867188 80.433594 228.191406 82.417969 235.046875 85.355469 C 243.46875 88.964844 250.898438 93.328125 259.09375 99.472656 C 266.078125 104.710938 272.417969 110.722656 277.886719 117.300781 C 281.921875 122.164062 286.191406 128.207031 289.234375 133.367188 C 294.511719 142.324219 298.472656 151.894531 301.003906 161.773438 C 303.496094 171.542969 304.546875 178.101562 305.015625 186.941406 C 305.113281 188.730469 305.113281 195.285156 305.015625 197.078125 C 304.546875 205.921875 303.496094 212.46875 301.003906 222.246094 C 298.472656 232.125 294.511719 241.691406 289.234375 250.648438 C 286.199219 255.800781 281.902344 261.882812 277.886719 266.714844 C 274.285156 271.046875 270.039062 275.398438 265.773438 279.136719 C 260.863281 283.4375 254.640625 288.007812 248.996094 291.457031 C 239.695312 297.136719 229.609375 301.40625 219.148438 304.078125 C 209.378906 306.578125 202.828125 307.625 194.003906 308.09375 C 192.21875 308.191406 185.648438 308.191406 183.863281 308.09375 C 175.039062 307.625 168.488281 306.578125 158.71875 304.078125 C 147.445312 301.199219 136.578125 296.449219 126.710938 290.101562 C 122.671875 287.503906 117.867188 283.984375 114.226562 280.960938 C 109.902344 277.367188 105.539062 273.109375 101.808594 268.847656 C 97.136719 263.519531 92.179688 256.675781 88.632812 250.648438 C 83.355469 241.691406 79.394531 232.125 76.863281 222.246094 C 74.371094 212.476562 73.320312 205.914062 72.847656 197.078125 C 72.75 195.285156 72.75 188.730469 72.847656 186.941406 C 73.320312 178.101562 74.371094 171.542969 76.863281 161.773438 C 79.394531 151.894531 83.355469 142.324219 88.632812 133.367188 C 91.667969 128.21875 95.964844 122.136719 99.980469 117.300781 C 103.574219 112.980469 107.832031 108.617188 112.089844 104.882812 C 117.238281 100.378906 123.71875 95.648438 129.589844 92.128906 C 138.730469 86.644531 148.546875 82.539062 158.695312 79.941406 C 167.875 77.59375 174.445312 76.5 182.222656 76.023438 C 185.363281 75.828125 189.492188 75.769531 192.589844 75.878906 Z M 192.589844 75.878906 "/><path style=" stroke:none;fill-rule:nonzero;fill:#e9403e;fill-opacity:1;" d="M 185.304688 82.164062 C 157.425781 83.054688 131.011719 94.515625 111.226562 114.300781 C 95.804688 129.722656 85.359375 149.226562 81.132812 170.523438 C 78.695312 182.804688 78.375 195.769531 80.210938 208.167969 C 84.273438 235.609375 98.53125 260.390625 120.316406 277.855469 C 142.273438 295.464844 170.148438 303.917969 198.351562 301.507812 C 228.359375 298.957031 255.835938 284.257812 274.78125 260.628906 C 287.730469 244.480469 295.875 224.867188 298.144531 204.363281 C 300.824219 180.195312 295.628906 156.207031 283.25 135.5625 C 272.296875 117.308594 256.308594 102.613281 237.207031 93.257812 C 221.117188 85.371094 203.390625 81.582031 185.304688 82.164062 Z M 215.363281 108.148438 C 215.378906 108.210938 215.460938 108.402344 215.546875 108.5625 C 215.632812 108.726562 215.726562 108.949219 215.75 109.058594 C 215.769531 109.167969 215.863281 109.40625 215.957031 109.582031 C 216.046875 109.761719 216.121094 109.945312 216.121094 109.988281 C 216.121094 110.03125 216.199219 110.226562 216.296875 110.429688 C 216.386719 110.625 216.503906 110.914062 216.546875 111.070312 C 216.59375 111.226562 216.667969 111.425781 216.722656 111.523438 C 216.773438 111.621094 216.867188 111.925781 216.929688 112.199219 C 216.992188 112.46875 217.097656 112.792969 217.152344 112.90625 C 217.21875 113.027344 217.296875 113.292969 217.332031 113.5 C 217.367188 113.703125 217.457031 114.007812 217.535156 114.175781 C 217.609375 114.339844 217.699219 114.636719 217.734375 114.832031 C 217.769531 115.019531 217.863281 115.316406 217.9375 115.488281 C 218.011719 115.65625 218.105469 115.941406 218.140625 116.128906 C 218.171875 116.3125 218.265625 116.617188 218.347656 116.8125 C 218.421875 117.007812 218.507812 117.394531 218.542969 117.675781 C 218.570312 117.957031 218.652344 118.351562 218.714844 118.550781 C 218.777344 118.746094 218.859375 119.152344 218.894531 119.445312 C 218.929688 119.734375 219.03125 120.273438 219.125 120.636719 C 219.214844 121 219.3125 121.542969 219.347656 121.839844 C 219.382812 122.136719 219.417969 122.394531 219.429688 122.417969 C 219.492188 122.519531 219.640625 123.851562 219.695312 124.785156 C 219.722656 125.371094 219.78125 126.238281 219.816406 126.714844 C 219.867188 127.371094 219.867188 128.136719 219.816406 129.90625 C 219.738281 132.476562 219.683594 133.269531 219.519531 134.007812 C 219.457031 134.285156 219.382812 134.847656 219.347656 135.261719 C 219.289062 136.085938 219.273438 136.171875 219.113281 136.679688 C 219.054688 136.871094 218.96875 137.296875 218.917969 137.625 C 218.871094 137.949219 218.765625 138.425781 218.6875 138.679688 C 218.605469 138.925781 218.542969 139.238281 218.542969 139.371094 C 218.542969 139.496094 218.46875 139.824219 218.375 140.101562 C 218.28125 140.371094 218.160156 140.789062 218.109375 141.023438 C 218.0625 141.253906 217.984375 141.519531 217.9375 141.597656 C 217.898438 141.6875 217.816406 141.960938 217.769531 142.210938 C 217.71875 142.464844 217.613281 142.828125 217.539062 143.015625 C 217.464844 143.210938 217.371094 143.519531 217.339844 143.703125 C 217.304688 143.886719 217.210938 144.179688 217.136719 144.359375 C 217.054688 144.542969 216.964844 144.824219 216.933594 144.992188 C 216.898438 145.160156 216.808594 145.4375 216.734375 145.597656 C 216.660156 145.765625 216.558594 146.050781 216.527344 146.242188 C 216.484375 146.433594 216.410156 146.679688 216.351562 146.789062 C 216.300781 146.898438 216.21875 147.136719 216.179688 147.308594 C 216.144531 147.480469 216.035156 147.820312 215.949219 148.058594 C 215.859375 148.292969 215.753906 148.628906 215.726562 148.792969 C 215.691406 148.960938 215.605469 149.21875 215.539062 149.371094 C 215.472656 149.519531 215.378906 149.8125 215.332031 150.03125 C 215.289062 150.246094 215.207031 150.535156 215.144531 150.671875 C 215.085938 150.808594 214.992188 151.140625 214.941406 151.402344 C 214.890625 151.667969 214.785156 152.03125 214.710938 152.203125 C 214.640625 152.378906 214.5625 152.648438 214.542969 152.808594 C 214.519531 152.964844 214.429688 153.355469 214.335938 153.671875 C 214.25 153.988281 214.148438 154.472656 214.113281 154.757812 C 214.078125 155.03125 213.992188 155.417969 213.929688 155.621094 C 213.847656 155.875 213.789062 156.304688 213.730469 157.128906 C 213.6875 157.761719 213.605469 158.605469 213.554688 158.996094 C 213.46875 159.617188 213.460938 159.820312 213.519531 160.492188 C 213.558594 160.925781 213.617188 161.703125 213.644531 162.226562 C 213.71875 163.449219 213.785156 163.960938 213.929688 164.375 C 213.992188 164.5625 214.082031 164.988281 214.128906 165.328125 C 214.179688 165.667969 214.277344 166.121094 214.355469 166.347656 C 214.429688 166.566406 214.507812 166.851562 214.53125 166.972656 C 214.554688 167.101562 214.648438 167.347656 214.738281 167.519531 C 214.828125 167.699219 214.917969 167.9375 214.9375 168.046875 C 214.957031 168.15625 215.050781 168.402344 215.144531 168.59375 C 215.234375 168.78125 215.363281 169.121094 215.429688 169.351562 C 215.546875 169.769531 215.765625 170.109375 215.867188 170.042969 C 215.933594 170.011719 216.410156 169.226562 216.410156 169.164062 C 216.410156 169.140625 216.503906 168.984375 216.613281 168.816406 C 216.722656 168.652344 216.8125 168.496094 216.8125 168.464844 C 216.8125 168.410156 217.140625 167.925781 217.589844 167.324219 C 217.78125 167.070312 217.984375 166.800781 218.035156 166.722656 C 218.410156 166.183594 218.652344 165.886719 219.457031 164.964844 C 220.96875 163.246094 222.171875 162.148438 223.835938 160.960938 C 224.082031 160.789062 224.488281 160.488281 224.738281 160.304688 C 224.988281 160.113281 225.304688 159.882812 225.441406 159.785156 C 225.582031 159.6875 225.777344 159.539062 225.875 159.457031 C 226.144531 159.238281 226.578125 158.960938 226.964844 158.753906 C 227.292969 158.582031 227.4375 158.5 228.335938 158 C 228.542969 157.890625 228.859375 157.71875 229.039062 157.625 C 229.214844 157.53125 229.433594 157.40625 229.519531 157.335938 C 229.609375 157.269531 229.707031 157.214844 229.746094 157.214844 C 229.785156 157.214844 229.929688 157.140625 230.070312 157.042969 C 230.207031 156.949219 230.449219 156.832031 230.597656 156.777344 C 230.753906 156.726562 230.988281 156.621094 231.117188 156.546875 C 231.25 156.472656 231.398438 156.410156 231.449219 156.410156 C 231.503906 156.410156 231.667969 156.339844 231.824219 156.261719 C 231.980469 156.171875 232.246094 156.058594 232.417969 156 C 232.585938 155.941406 232.804688 155.84375 232.910156 155.78125 C 233.007812 155.722656 233.226562 155.632812 233.398438 155.574219 C 233.570312 155.515625 233.789062 155.425781 233.886719 155.367188 C 233.984375 155.308594 234.234375 155.222656 234.433594 155.171875 C 234.640625 155.121094 234.90625 155.027344 235.027344 154.964844 C 235.15625 154.898438 235.398438 154.820312 235.582031 154.789062 C 235.761719 154.757812 236.023438 154.671875 236.167969 154.59375 C 236.3125 154.527344 236.582031 154.433594 236.769531 154.394531 C 236.957031 154.351562 237.269531 154.265625 237.464844 154.191406 C 237.660156 154.117188 238.019531 154.03125 238.265625 153.996094 C 238.511719 153.960938 238.835938 153.878906 238.972656 153.816406 C 239.394531 153.632812 239.796875 153.671875 239.796875 153.898438 C 239.796875 154.105469 239.628906 154.582031 239.488281 154.796875 C 239.40625 154.90625 239.3125 155.113281 239.28125 155.25 C 239.246094 155.390625 239.152344 155.644531 239.078125 155.816406 C 238.996094 155.988281 238.910156 156.277344 238.875 156.460938 C 238.839844 156.644531 238.753906 156.949219 238.679688 157.136719 C 238.59375 157.355469 238.519531 157.710938 238.480469 158.125 C 238.410156 158.777344 238.386719 158.914062 238.21875 159.664062 C 238.144531 159.988281 238.128906 160.464844 238.128906 162.089844 C 238.128906 164 238.132812 164.152344 238.265625 164.796875 C 238.339844 165.175781 238.433594 165.816406 238.472656 166.230469 C 238.507812 166.640625 238.589844 167.210938 238.65625 167.5 C 238.71875 167.78125 238.800781 168.144531 238.832031 168.304688 C 238.859375 168.460938 238.96875 168.863281 239.078125 169.199219 C 239.179688 169.53125 239.285156 169.910156 239.300781 170.050781 C 239.324219 170.1875 239.40625 170.429688 239.480469 170.585938 C 239.5625 170.742188 239.664062 171.023438 239.707031 171.214844 C 239.75 171.410156 239.828125 171.628906 239.878906 171.703125 C 239.929688 171.777344 240.015625 172.019531 240.082031 172.238281 C 240.136719 172.464844 240.230469 172.707031 240.28125 172.78125 C 240.332031 172.855469 240.421875 173.0625 240.484375 173.242188 C 240.546875 173.421875 240.632812 173.628906 240.683594 173.703125 C 240.730469 173.777344 240.8125 173.957031 240.863281 174.09375 C 240.96875 174.410156 241.199219 174.890625 241.699219 175.851562 C 241.8125 176.070312 241.957031 176.347656 242.011719 176.457031 C 242.0625 176.566406 242.160156 176.75 242.222656 176.859375 C 242.285156 176.96875 242.402344 177.203125 242.480469 177.378906 C 242.5625 177.550781 242.660156 177.734375 242.699219 177.78125 C 242.742188 177.828125 242.8125 177.960938 242.851562 178.070312 C 242.925781 178.269531 243.179688 178.847656 243.484375 179.480469 C 243.570312 179.671875 243.738281 180.023438 243.847656 180.257812 C 243.957031 180.492188 244.160156 180.910156 244.285156 181.179688 C 244.417969 181.449219 244.519531 181.710938 244.519531 181.761719 C 244.519531 181.808594 244.585938 181.933594 244.664062 182.042969 C 244.742188 182.148438 244.84375 182.371094 244.894531 182.53125 C 244.941406 182.699219 245.015625 182.867188 245.0625 182.902344 C 245.109375 182.941406 245.195312 183.109375 245.246094 183.269531 C 245.300781 183.4375 245.402344 183.671875 245.472656 183.800781 C 245.546875 183.925781 245.644531 184.179688 245.695312 184.359375 C 245.75 184.542969 245.839844 184.773438 245.898438 184.878906 C 245.957031 184.980469 246.035156 185.195312 246.070312 185.355469 C 246.109375 185.511719 246.191406 185.730469 246.25 185.832031 C 246.3125 185.9375 246.40625 186.179688 246.457031 186.375 C 246.503906 186.570312 246.605469 186.835938 246.679688 186.96875 C 246.75 187.09375 246.835938 187.320312 246.878906 187.464844 C 246.910156 187.613281 247.015625 187.894531 247.113281 188.097656 C 247.207031 188.300781 247.285156 188.511719 247.285156 188.5625 C 247.285156 188.621094 247.367188 188.835938 247.460938 189.03125 C 247.558594 189.234375 247.632812 189.429688 247.632812 189.46875 C 247.632812 189.503906 247.71875 189.761719 247.828125 190.039062 C 247.9375 190.316406 248.039062 190.667969 248.0625 190.828125 C 248.085938 190.984375 248.167969 191.25 248.238281 191.410156 C 248.3125 191.570312 248.410156 191.910156 248.460938 192.164062 C 248.511719 192.421875 248.605469 192.746094 248.667969 192.890625 C 248.730469 193.027344 248.820312 193.34375 248.863281 193.582031 C 248.910156 193.816406 249.003906 194.117188 249.066406 194.238281 C 249.128906 194.363281 249.214844 194.671875 249.269531 194.921875 C 249.3125 195.171875 249.40625 195.503906 249.476562 195.660156 C 249.542969 195.8125 249.636719 196.15625 249.675781 196.421875 C 249.722656 196.6875 249.808594 197.078125 249.871094 197.292969 C 249.9375 197.511719 250.027344 197.972656 250.074219 198.316406 C 250.121094 198.667969 250.195312 199.058594 250.246094 199.1875 C 250.292969 199.320312 250.355469 199.628906 250.398438 199.878906 C 250.429688 200.132812 250.542969 200.65625 250.632812 201.054688 C 250.726562 201.449219 250.828125 201.972656 250.859375 202.214844 C 250.886719 202.464844 250.960938 202.972656 251.023438 203.339844 C 251.167969 204.222656 251.191406 204.429688 251.261719 205.460938 C 251.289062 205.933594 251.351562 206.519531 251.398438 206.753906 C 251.625 207.914062 251.660156 208.703125 251.664062 212.515625 C 251.671875 216.394531 251.625 217.488281 251.375 218.9375 C 251.339844 219.128906 251.289062 219.785156 251.261719 220.390625 C 251.214844 221.292969 251.175781 221.582031 251.066406 221.945312 C 250.984375 222.195312 250.890625 222.613281 250.859375 222.886719 C 250.824219 223.15625 250.730469 223.59375 250.65625 223.863281 C 250.582031 224.136719 250.488281 224.5625 250.453125 224.816406 C 250.421875 225.066406 250.328125 225.496094 250.253906 225.765625 C 250.179688 226.035156 250.085938 226.460938 250.058594 226.714844 C 250.023438 226.980469 249.925781 227.371094 249.828125 227.621094 C 249.730469 227.863281 249.648438 228.109375 249.648438 228.167969 C 249.648438 228.226562 249.578125 228.414062 249.5 228.585938 C 249.417969 228.761719 249.3125 229.070312 249.269531 229.273438 C 249.222656 229.476562 249.128906 229.734375 249.070312 229.855469 C 249.015625 229.96875 248.921875 230.230469 248.871094 230.4375 C 248.820312 230.636719 248.714844 230.933594 248.640625 231.09375 C 248.570312 231.25 248.484375 231.519531 248.445312 231.6875 C 248.410156 231.855469 248.328125 232.089844 248.265625 232.214844 C 248.203125 232.34375 248.121094 232.578125 248.085938 232.746094 C 248.050781 232.914062 247.949219 233.195312 247.855469 233.367188 C 247.601562 233.871094 247.285156 234.554688 247.285156 234.613281 C 247.285156 234.707031 246.40625 236.46875 245.679688 237.832031 C 245.5625 238.050781 245.402344 238.351562 245.328125 238.496094 C 245.253906 238.640625 245.125 238.859375 245.039062 238.984375 C 244.878906 239.234375 244.839844 239.300781 244.601562 239.707031 C 244.515625 239.847656 244.402344 240.027344 244.34375 240.109375 C 244.28125 240.1875 244.171875 240.367188 244.089844 240.511719 C 243.875 240.878906 243.582031 241.324219 243.050781 242.066406 C 242.800781 242.417969 242.550781 242.769531 242.503906 242.839844 C 242.460938 242.90625 242.34375 243.070312 242.25 243.191406 C 242.152344 243.316406 241.976562 243.566406 241.847656 243.738281 C 241.722656 243.910156 241.472656 244.222656 241.296875 244.429688 C 241.121094 244.636719 240.769531 245.0625 240.519531 245.378906 C 239.941406 246.105469 239.78125 246.289062 238.851562 247.273438 C 238.4375 247.710938 238.070312 248.117188 238.03125 248.171875 C 237.921875 248.328125 235.097656 250.996094 234.707031 251.308594 C 233.921875 251.941406 233.761719 252.074219 233.230469 252.523438 C 232.699219 252.972656 232.195312 253.367188 231.679688 253.730469 C 231.550781 253.824219 231.363281 253.960938 231.285156 254.027344 C 231.199219 254.09375 230.921875 254.289062 230.667969 254.464844 C 230.414062 254.636719 230.023438 254.917969 229.804688 255.085938 C 229.578125 255.246094 229.308594 255.4375 229.199219 255.496094 C 229.089844 255.558594 228.910156 255.667969 228.8125 255.738281 C 228.710938 255.804688 228.488281 255.949219 228.324219 256.054688 C 227.878906 256.324219 226.757812 257.050781 226.539062 257.199219 C 226.433594 257.273438 226.230469 257.382812 226.089844 257.453125 C 225.945312 257.523438 225.757812 257.625 225.667969 257.6875 C 225.582031 257.753906 225.375 257.875 225.207031 257.960938 C 224.761719 258.195312 224.324219 258.4375 223.871094 258.703125 C 223.328125 259.015625 222.328125 259.519531 222.246094 259.519531 C 222.21875 259.519531 222.117188 259.578125 222.03125 259.640625 C 221.945312 259.710938 221.746094 259.816406 221.578125 259.878906 C 221.417969 259.941406 221.21875 260.035156 221.140625 260.089844 C 221.058594 260.148438 220.886719 260.230469 220.757812 260.269531 C 220.632812 260.308594 220.4375 260.402344 220.328125 260.476562 C 220.21875 260.550781 220.015625 260.648438 219.878906 260.695312 C 219.738281 260.746094 219.554688 260.835938 219.46875 260.898438 C 219.382812 260.960938 219.238281 261.03125 219.140625 261.054688 C 219.050781 261.070312 218.828125 261.164062 218.652344 261.25 C 218.472656 261.339844 218.195312 261.449219 218.035156 261.496094 C 217.875 261.546875 217.683594 261.625 217.609375 261.675781 C 217.535156 261.726562 217.328125 261.8125 217.152344 261.878906 C 216.988281 261.933594 216.714844 262.050781 216.558594 262.136719 C 216.40625 262.21875 216.238281 262.285156 216.191406 262.285156 C 216.144531 262.285156 215.960938 262.359375 215.78125 262.449219 C 215.605469 262.539062 215.332031 262.644531 215.179688 262.683594 C 215.023438 262.71875 214.78125 262.808594 214.628906 262.886719 C 214.488281 262.960938 214.238281 263.046875 214.082031 263.085938 C 213.929688 263.128906 213.6875 263.214844 213.535156 263.289062 C 213.390625 263.363281 213.179688 263.445312 213.070312 263.46875 C 212.960938 263.488281 212.667969 263.59375 212.425781 263.703125 C 211.921875 263.929688 211.710938 263.921875 211.652344 263.691406 C 211.613281 263.53125 211.605469 263.546875 212.234375 262.769531 C 212.488281 262.453125 212.777344 262.097656 212.867188 261.976562 C 212.964844 261.847656 213.132812 261.628906 213.242188 261.484375 C 213.359375 261.339844 213.53125 261.097656 213.632812 260.945312 C 213.730469 260.792969 213.90625 260.558594 214.007812 260.414062 C 214.105469 260.269531 214.285156 260.011719 214.394531 259.835938 C 214.617188 259.496094 215.210938 258.597656 215.386719 258.351562 C 215.441406 258.265625 215.574219 258.046875 215.671875 257.863281 C 215.96875 257.308594 216.152344 256.976562 216.410156 256.527344 C 216.546875 256.289062 216.734375 255.949219 216.824219 255.777344 C 216.917969 255.605469 217.097656 255.277344 217.230469 255.058594 C 217.355469 254.832031 217.523438 254.539062 217.597656 254.394531 C 217.679688 254.25 217.851562 253.9375 217.996094 253.703125 C 218.132812 253.46875 218.289062 253.179688 218.339844 253.070312 C 218.386719 252.960938 218.507812 252.722656 218.597656 252.546875 C 218.699219 252.367188 218.773438 252.183594 218.773438 252.136719 C 218.773438 252.089844 218.859375 251.878906 218.96875 251.652344 C 219.078125 251.433594 219.191406 251.152344 219.226562 251.023438 C 219.261719 250.898438 219.34375 250.714844 219.398438 250.609375 C 219.464844 250.511719 219.550781 250.304688 219.597656 250.148438 C 219.640625 250 219.746094 249.746094 219.832031 249.589844 C 219.914062 249.433594 219.980469 249.265625 219.980469 249.210938 C 219.980469 249.15625 220.074219 248.9375 220.183594 248.714844 C 220.292969 248.496094 220.386719 248.277344 220.386719 248.230469 C 220.386719 248.183594 220.476562 247.964844 220.585938 247.746094 C 220.695312 247.523438 220.789062 247.308594 220.789062 247.269531 C 220.789062 247.226562 220.875 246.964844 220.984375 246.6875 C 221.089844 246.410156 221.199219 246.066406 221.214844 245.910156 C 221.238281 245.757812 221.324219 245.488281 221.40625 245.304688 C 221.484375 245.125 221.570312 244.820312 221.605469 244.628906 C 221.636719 244.441406 221.722656 244.140625 221.796875 243.96875 C 221.867188 243.796875 221.957031 243.496094 222 243.304688 C 222.039062 243.117188 222.128906 242.804688 222.199219 242.613281 C 222.273438 242.425781 222.367188 242.125 222.402344 241.953125 C 222.441406 241.777344 222.535156 241.449219 222.609375 241.230469 C 222.679688 241.007812 222.765625 240.582031 222.800781 240.28125 C 222.832031 239.980469 222.914062 239.566406 222.984375 239.359375 C 223.046875 239.152344 223.140625 238.71875 223.183594 238.390625 C 223.277344 237.730469 223.347656 237.378906 223.4375 237.136719 C 223.472656 237.042969 223.542969 236.6875 223.589844 236.335938 C 223.640625 235.988281 223.738281 235.363281 223.8125 234.953125 C 223.886719 234.539062 223.980469 233.742188 224.015625 233.183594 C 224.050781 232.621094 224.089844 232.125 224.101562 232.089844 C 224.117188 232.050781 224.179688 231.652344 224.246094 231.207031 C 224.324219 230.660156 224.382812 229.878906 224.417969 228.761719 C 224.445312 227.855469 224.488281 226.652344 224.515625 226.082031 C 224.574219 224.78125 224.574219 223.882812 224.515625 221.703125 C 224.453125 219.335938 224.371094 217.527344 224.300781 217.007812 C 224.140625 215.804688 224.070312 215.109375 224.015625 214.222656 C 223.980469 213.675781 223.894531 212.960938 223.8125 212.578125 C 223.738281 212.210938 223.644531 211.558594 223.609375 211.132812 C 223.578125 210.707031 223.480469 210.089844 223.402344 209.761719 C 223.324219 209.433594 223.230469 208.945312 223.203125 208.675781 C 223.167969 208.402344 223.074219 207.972656 223 207.710938 C 222.917969 207.457031 222.832031 207.027344 222.804688 206.753906 C 222.777344 206.484375 222.6875 206.058594 222.613281 205.804688 C 222.535156 205.550781 222.441406 205.109375 222.40625 204.824219 C 222.367188 204.539062 222.273438 204.089844 222.199219 203.816406 C 222.117188 203.546875 222.03125 203.09375 221.992188 202.808594 C 221.957031 202.523438 221.882812 202.183594 221.824219 202.050781 C 221.769531 201.917969 221.675781 201.59375 221.625 201.328125 C 221.566406 201.0625 221.472656 200.71875 221.410156 200.5625 C 221.347656 200.402344 221.261719 200.085938 221.214844 199.859375 C 221.175781 199.628906 221.078125 199.289062 220.996094 199.113281 C 220.921875 198.925781 220.828125 198.585938 220.792969 198.355469 C 220.757812 198.121094 220.683594 197.851562 220.640625 197.753906 C 220.523438 197.539062 220.460938 197.320312 220.386719 196.941406 C 220.308594 196.582031 220.1875 196.386719 220.035156 196.386719 C 219.890625 196.386719 219.78125 196.632812 219.722656 197.105469 C 219.699219 197.296875 219.625 197.609375 219.550781 197.804688 C 219.476562 197.992188 219.390625 198.304688 219.347656 198.496094 C 219.308594 198.679688 219.203125 198.957031 219.113281 199.101562 C 219.019531 199.242188 218.945312 199.398438 218.945312 199.445312 C 218.945312 199.492188 218.871094 199.652344 218.777344 199.796875 C 218.6875 199.941406 218.59375 200.121094 218.570312 200.195312 C 218.519531 200.355469 217.976562 201.414062 217.820312 201.65625 C 217.757812 201.75 217.476562 202.164062 217.1875 202.566406 C 216.90625 202.976562 216.628906 203.363281 216.582031 203.433594 C 216.277344 203.886719 215.863281 204.382812 215 205.308594 C 213.796875 206.605469 212.613281 207.695312 211.394531 208.628906 C 211.230469 208.753906 211.011719 208.925781 210.914062 209.007812 C 210.632812 209.25 209.308594 210.136719 209.167969 210.175781 C 209.101562 210.199219 208.980469 210.1875 208.910156 210.148438 C 208.679688 210.027344 207.425781 208.761719 207.101562 208.324219 C 206.296875 207.238281 206.121094 207.007812 205.9375 206.734375 C 205.828125 206.570312 205.671875 206.3125 205.585938 206.15625 C 205.507812 206 205.34375 205.703125 205.222656 205.492188 C 204.871094 204.855469 204.429688 203.960938 204.429688 203.882812 C 204.429688 203.847656 204.335938 203.640625 204.226562 203.433594 C 204.117188 203.222656 204.027344 203.015625 204.027344 202.972656 C 204.027344 202.929688 203.949219 202.742188 203.859375 202.5625 C 203.765625 202.378906 203.65625 202.066406 203.621094 201.871094 C 203.585938 201.675781 203.496094 201.382812 203.421875 201.214844 C 203.347656 201.054688 203.265625 200.769531 203.242188 200.597656 C 203.226562 200.417969 203.144531 200.121094 203.0625 199.933594 C 202.984375 199.746094 202.886719 199.398438 202.839844 199.164062 C 202.792969 198.925781 202.707031 198.621094 202.644531 198.476562 C 202.578125 198.332031 202.480469 197.960938 202.417969 197.636719 C 202.355469 197.3125 202.261719 196.90625 202.21875 196.726562 C 202.171875 196.546875 202.101562 196.09375 202.066406 195.71875 C 202.027344 195.339844 201.953125 194.835938 201.894531 194.601562 C 201.761719 194.070312 201.691406 193.574219 201.570312 192.382812 C 201.527344 191.875 201.445312 191.171875 201.398438 190.816406 C 201.253906 189.636719 201.1875 187.257812 201.21875 184.226562 C 201.242188 182.125 201.230469 181.289062 201.1875 181.242188 C 201.082031 181.140625 200.902344 181.167969 200.488281 181.382812 C 200.277344 181.492188 200 181.605469 199.882812 181.644531 C 199.769531 181.679688 199.496094 181.800781 199.277344 181.90625 C 199.054688 182.015625 198.839844 182.101562 198.796875 182.101562 C 198.75 182.101562 198.578125 182.175781 198.414062 182.269531 C 198.253906 182.359375 198.058594 182.453125 197.976562 182.476562 C 197.898438 182.5 197.746094 182.578125 197.644531 182.660156 C 197.546875 182.734375 197.371094 182.828125 197.269531 182.863281 C 197.171875 182.894531 197.007812 182.980469 196.910156 183.050781 C 196.820312 183.125 196.625 183.234375 196.480469 183.304688 C 195.769531 183.652344 195.066406 184.066406 194.203125 184.664062 C 193.835938 184.917969 193.433594 185.1875 193.316406 185.269531 C 192.78125 185.621094 192.550781 185.789062 191.898438 186.304688 C 190.96875 187.042969 189.929688 187.960938 188.96875 188.898438 C 188.121094 189.722656 186.167969 191.898438 185.839844 192.382812 C 185.738281 192.539062 185.558594 192.796875 185.449219 192.960938 C 185.332031 193.113281 185.132812 193.414062 184.988281 193.621094 C 184.710938 194.03125 183.765625 195.40625 183.390625 195.953125 C 183.257812 196.144531 183.074219 196.445312 182.984375 196.617188 C 182.742188 197.074219 182.066406 198.367188 181.617188 199.25 C 181.40625 199.671875 181.203125 200.042969 181.175781 200.085938 C 181.140625 200.125 181.070312 200.296875 181.011719 200.464844 C 180.960938 200.636719 180.851562 200.886719 180.777344 201.011719 C 180.703125 201.144531 180.636719 201.3125 180.636719 201.375 C 180.636719 201.445312 180.5625 201.644531 180.472656 201.820312 C 180.378906 201.996094 180.257812 202.285156 180.207031 202.46875 C 180.15625 202.648438 180.074219 202.855469 180.023438 202.9375 C 179.96875 203.011719 179.871094 203.269531 179.804688 203.519531 C 179.726562 203.761719 179.617188 204.113281 179.550781 204.289062 C 179.480469 204.472656 179.429688 204.683594 179.429688 204.761719 C 179.429688 204.835938 179.359375 205.089844 179.277344 205.328125 C 179.199219 205.558594 179.105469 205.851562 179.078125 205.976562 C 178.949219 206.496094 178.707031 206.59375 178.21875 206.328125 C 178.074219 206.253906 177.816406 206.109375 177.644531 206.019531 C 177.335938 205.851562 177.101562 205.722656 176.339844 205.304688 C 176.152344 205.199219 175.789062 204.945312 175.539062 204.738281 C 174.835938 204.152344 174.285156 203.695312 173.898438 203.386719 C 173.457031 203.027344 171.636719 201.058594 171.132812 200.394531 C 171.023438 200.253906 170.851562 200.023438 170.746094 199.882812 C 170.097656 199.023438 169.757812 198.554688 169.53125 198.171875 C 169.386719 197.9375 169.199219 197.632812 169.105469 197.5 C 169.019531 197.367188 168.945312 197.238281 168.945312 197.210938 C 168.945312 197.1875 168.859375 197.039062 168.753906 196.875 C 168.523438 196.542969 167.929688 195.550781 167.765625 195.242188 C 167.699219 195.121094 167.597656 194.945312 167.527344 194.855469 C 167.40625 194.683594 166.980469 193.828125 166.875 193.546875 C 166.832031 193.4375 166.777344 193.390625 166.675781 193.390625 C 166.503906 193.390625 166.382812 193.585938 166.289062 194.035156 C 166.253906 194.203125 166.152344 194.496094 166.058594 194.6875 C 165.972656 194.878906 165.878906 195.136719 165.855469 195.261719 C 165.835938 195.390625 165.757812 195.613281 165.683594 195.765625 C 165.609375 195.914062 165.511719 196.191406 165.464844 196.371094 C 165.417969 196.554688 165.328125 196.824219 165.265625 196.980469 C 165.195312 197.128906 165.101562 197.441406 165.054688 197.675781 C 165.011719 197.90625 164.925781 198.234375 164.855469 198.402344 C 164.785156 198.570312 164.699219 198.894531 164.652344 199.117188 C 164.613281 199.34375 164.519531 199.648438 164.457031 199.804688 C 164.394531 199.953125 164.308594 200.253906 164.273438 200.464844 C 164.238281 200.679688 164.144531 201.042969 164.070312 201.273438 C 163.992188 201.503906 163.894531 201.957031 163.847656 202.28125 C 163.800781 202.601562 163.714844 203.015625 163.652344 203.207031 C 163.582031 203.390625 163.507812 203.742188 163.476562 203.992188 C 163.445312 204.238281 163.351562 204.699219 163.277344 205.011719 C 163.195312 205.320312 163.105469 205.875 163.070312 206.238281 C 163.035156 206.601562 162.941406 207.183594 162.863281 207.535156 C 162.765625 207.984375 162.695312 208.535156 162.636719 209.421875 C 162.589844 210.109375 162.511719 210.925781 162.464844 211.238281 C 162.199219 212.855469 162.199219 218.761719 162.464844 220.320312 C 162.511719 220.605469 162.574219 221.253906 162.609375 221.761719 C 162.683594 222.839844 162.722656 223.15625 162.886719 223.777344 C 162.949219 224.03125 163.035156 224.484375 163.070312 224.785156 C 163.105469 225.085938 163.195312 225.5625 163.269531 225.851562 C 163.34375 226.132812 163.4375 226.628906 163.472656 226.945312 C 163.507812 227.261719 163.585938 227.6875 163.652344 227.894531 C 163.707031 228.105469 163.800781 228.535156 163.847656 228.863281 C 163.894531 229.191406 163.996094 229.605469 164.070312 229.785156 C 164.144531 229.964844 164.238281 230.265625 164.277344 230.449219 C 164.3125 230.632812 164.394531 230.898438 164.457031 231.03125 C 164.515625 231.167969 164.601562 231.457031 164.648438 231.675781 C 164.695312 231.894531 164.785156 232.199219 164.855469 232.347656 C 164.925781 232.5 165.015625 232.804688 165.0625 233.027344 C 165.109375 233.253906 165.199219 233.542969 165.265625 233.667969 C 165.328125 233.796875 165.414062 234.082031 165.460938 234.3125 C 165.503906 234.539062 165.621094 234.894531 165.714844 235.097656 C 165.8125 235.304688 165.890625 235.503906 165.890625 235.550781 C 165.890625 235.597656 165.960938 235.746094 166.042969 235.886719 C 166.121094 236.023438 166.226562 236.265625 166.273438 236.421875 C 166.316406 236.578125 166.414062 236.8125 166.496094 236.953125 C 166.578125 237.089844 166.640625 237.238281 166.640625 237.292969 C 166.640625 237.335938 166.734375 237.5625 166.84375 237.785156 C 166.953125 238.011719 167.042969 238.230469 167.042969 238.265625 C 167.042969 238.304688 167.136719 238.519531 167.246094 238.730469 C 167.355469 238.949219 167.445312 239.164062 167.445312 239.203125 C 167.445312 239.25 167.515625 239.410156 167.597656 239.566406 C 167.675781 239.722656 167.792969 239.988281 167.851562 240.15625 C 167.914062 240.320312 168.011719 240.527344 168.070312 240.617188 C 168.132812 240.703125 168.234375 240.886719 168.304688 241.03125 C 168.375 241.175781 168.53125 241.46875 168.65625 241.691406 C 168.777344 241.910156 168.960938 242.25 169.058594 242.441406 C 169.15625 242.632812 169.34375 242.964844 169.464844 243.191406 C 169.589844 243.410156 169.769531 243.75 169.867188 243.9375 C 170.21875 244.617188 170.417969 244.988281 170.546875 245.160156 C 170.617188 245.257812 170.671875 245.355469 170.671875 245.375 C 170.671875 245.402344 171.054688 245.988281 171.304688 246.359375 C 171.375 246.449219 171.542969 246.710938 171.679688 246.933594 C 171.820312 247.152344 171.992188 247.414062 172.054688 247.511719 C 172.117188 247.601562 172.273438 247.84375 172.402344 248.039062 C 172.527344 248.242188 172.734375 248.566406 172.863281 248.761719 C 172.988281 248.960938 173.214844 249.289062 173.363281 249.492188 C 173.519531 249.695312 173.691406 249.925781 173.75 250.011719 C 175.023438 251.734375 176.097656 253.109375 176.90625 254.054688 C 177.402344 254.636719 177.851562 255.167969 177.914062 255.230469 C 177.972656 255.292969 178.246094 255.605469 178.53125 255.921875 C 179.441406 256.945312 181.675781 259.175781 182.757812 260.15625 C 184.859375 262.042969 186.011719 263.027344 186.503906 263.339844 C 186.699219 263.46875 186.746094 263.53125 186.746094 263.667969 C 186.746094 263.808594 186.714844 263.847656 186.589844 263.882812 C 186.371094 263.933594 185.269531 263.808594 184.761719 263.667969 C 184.539062 263.605469 184.070312 263.53125 183.71875 263.496094 C 183.375 263.457031 182.792969 263.363281 182.429688 263.289062 C 182.074219 263.214844 181.421875 263.109375 180.988281 263.0625 C 180.558594 263.011719 180.035156 262.917969 179.824219 262.863281 C 179.613281 262.796875 179.238281 262.71875 178.992188 262.6875 C 178.738281 262.65625 178.3125 262.5625 178.039062 262.480469 C 177.769531 262.40625 177.292969 262.304688 176.976562 262.257812 C 176.664062 262.207031 176.253906 262.117188 176.066406 262.050781 C 175.878906 261.988281 175.515625 261.910156 175.257812 261.878906 C 175.003906 261.847656 174.636719 261.769531 174.441406 261.703125 C 174.25 261.640625 173.804688 261.542969 173.457031 261.484375 C 173.109375 261.425781 172.734375 261.335938 172.625 261.285156 C 172.515625 261.230469 172.195312 261.140625 171.898438 261.082031 C 171.605469 261.019531 171.289062 260.925781 171.191406 260.875 C 171.09375 260.824219 170.824219 260.746094 170.597656 260.703125 C 170.367188 260.65625 170.011719 260.558594 169.804688 260.476562 C 169.59375 260.402344 169.261719 260.304688 169.054688 260.269531 C 168.851562 260.230469 168.542969 260.144531 168.367188 260.066406 C 168.195312 260 167.925781 259.917969 167.773438 259.894531 C 167.621094 259.878906 167.25 259.769531 166.953125 259.660156 C 166.652344 259.550781 166.363281 259.464844 166.3125 259.464844 C 166.261719 259.464844 166.058594 259.386719 165.863281 259.296875 C 165.667969 259.203125 165.40625 259.105469 165.28125 259.082031 C 165.160156 259.058594 164.933594 258.984375 164.792969 258.910156 C 164.648438 258.839844 164.363281 258.738281 164.164062 258.6875 C 163.960938 258.632812 163.691406 258.535156 163.566406 258.472656 C 163.433594 258.402344 163.179688 258.316406 162.996094 258.277344 C 162.808594 258.230469 162.550781 258.136719 162.417969 258.074219 C 162.285156 258.007812 162.027344 257.914062 161.84375 257.875 C 161.65625 257.828125 161.449219 257.753906 161.382812 257.707031 C 161.304688 257.660156 161.097656 257.566406 160.914062 257.503906 C 160.730469 257.441406 160.5 257.34375 160.394531 257.28125 C 160.296875 257.222656 160.113281 257.140625 159.988281 257.101562 C 159.859375 257.0625 159.652344 256.976562 159.527344 256.898438 C 159.398438 256.832031 159.191406 256.738281 159.066406 256.699219 C 158.9375 256.65625 158.691406 256.546875 158.511719 256.457031 C 158.335938 256.371094 158.15625 256.296875 158.121094 256.296875 C 158.082031 256.296875 157.878906 256.203125 157.671875 256.09375 C 157.464844 255.984375 157.257812 255.890625 157.210938 255.890625 C 157.164062 255.890625 156.957031 255.800781 156.75 255.691406 C 156.542969 255.582031 156.328125 255.488281 156.277344 255.488281 C 156.226562 255.488281 156.085938 255.425781 155.972656 255.34375 C 155.855469 255.269531 155.625 255.136719 155.453125 255.058594 C 155.285156 254.96875 154.976562 254.808594 154.761719 254.695312 C 154.542969 254.578125 154.066406 254.320312 153.695312 254.125 C 153.324219 253.933594 152.839844 253.675781 152.613281 253.554688 C 152.394531 253.433594 152.066406 253.257812 151.894531 253.171875 C 151.722656 253.082031 151.484375 252.949219 151.375 252.875 C 151.085938 252.6875 150.5625 252.347656 150.210938 252.128906 C 150.042969 252.019531 149.648438 251.765625 149.332031 251.558594 C 149.015625 251.351562 148.679688 251.140625 148.582031 251.085938 C 148.488281 251.035156 148.34375 250.949219 148.265625 250.886719 C 148.183594 250.828125 147.902344 250.632812 147.632812 250.453125 C 147.359375 250.277344 147.019531 250.035156 146.871094 249.914062 C 146.722656 249.796875 146.292969 249.46875 145.921875 249.179688 C 145.546875 248.898438 145.027344 248.496094 144.769531 248.289062 C 144.503906 248.082031 144.15625 247.808594 143.992188 247.683594 C 143.824219 247.558594 143.082031 246.882812 142.335938 246.1875 C 141.589844 245.488281 140.910156 244.855469 140.816406 244.773438 C 140.722656 244.695312 140.351562 244.289062 139.980469 243.882812 C 139.613281 243.464844 139.179688 242.988281 139.011719 242.816406 C 138.203125 241.953125 137.722656 241.359375 136.398438 239.5625 C 135.5 238.347656 135.296875 238.050781 134.871094 237.335938 C 134.808594 237.226562 134.691406 237.03125 134.613281 236.898438 C 134.53125 236.773438 134.394531 236.535156 134.300781 236.382812 C 134.210938 236.230469 134.054688 235.972656 133.949219 235.816406 C 133.570312 235.222656 133.476562 235.0625 133.351562 234.808594 C 133.28125 234.664062 133.195312 234.484375 133.148438 234.40625 C 132.9375 234.019531 132.597656 233.304688 132.597656 233.234375 C 132.597656 233.195312 132.53125 233.070312 132.453125 232.953125 C 132.378906 232.839844 132.261719 232.613281 132.199219 232.445312 C 132.136719 232.28125 132.042969 232.101562 131.996094 232.050781 C 131.953125 231.996094 131.847656 231.789062 131.773438 231.582031 C 131.691406 231.375 131.578125 231.070312 131.507812 230.902344 C 131.21875 230.1875 131.132812 229.976562 130.972656 229.539062 C 130.878906 229.285156 130.742188 228.90625 130.667969 228.695312 C 130.59375 228.484375 130.484375 228.214844 130.417969 228.09375 C 130.355469 227.964844 130.261719 227.664062 130.210938 227.414062 C 130.160156 227.164062 130.066406 226.847656 130.003906 226.703125 C 129.945312 226.566406 129.867188 226.289062 129.832031 226.09375 C 129.792969 225.898438 129.699219 225.574219 129.617188 225.375 C 129.539062 225.171875 129.441406 224.796875 129.394531 224.539062 C 129.347656 224.277344 129.261719 223.910156 129.199219 223.71875 C 129.140625 223.53125 129.046875 223.105469 129.003906 222.769531 C 128.949219 222.433594 128.859375 221.984375 128.792969 221.765625 C 128.730469 221.542969 128.640625 221 128.585938 220.558594 C 128.542969 220.109375 128.476562 219.652344 128.449219 219.542969 C 128.34375 219.144531 128.277344 218.574219 128.191406 217.441406 C 128.144531 216.808594 128.0625 215.898438 128.011719 215.425781 C 127.949219 214.832031 127.914062 213.859375 127.902344 212.3125 C 127.878906 210.042969 127.890625 209.773438 128.101562 207.445312 C 128.292969 205.351562 128.332031 204.957031 128.421875 204.578125 C 128.464844 204.382812 128.546875 203.800781 128.59375 203.28125 C 128.644531 202.769531 128.75 201.996094 128.824219 201.570312 C 128.898438 201.144531 128.984375 200.546875 129.019531 200.246094 C 129.054688 199.945312 129.144531 199.503906 129.226562 199.253906 C 129.300781 199.011719 129.394531 198.617188 129.421875 198.363281 C 129.457031 198.113281 129.539062 197.757812 129.601562 197.566406 C 129.671875 197.378906 129.761719 196.972656 129.808594 196.675781 C 129.855469 196.375 129.941406 195.976562 130.003906 195.800781 C 130.066406 195.621094 130.171875 195.175781 130.230469 194.820312 C 130.292969 194.460938 130.378906 194.070312 130.429688 193.949219 C 130.484375 193.835938 130.5625 193.5625 130.613281 193.34375 C 130.660156 193.132812 130.757812 192.804688 130.839844 192.613281 C 130.914062 192.421875 131.011719 192.113281 131.058594 191.921875 C 131.105469 191.734375 131.195312 191.421875 131.265625 191.230469 C 131.507812 190.511719 131.679688 189.945312 131.789062 189.515625 C 131.851562 189.265625 131.953125 188.972656 132.015625 188.851562 C 132.074219 188.738281 132.152344 188.484375 132.191406 188.292969 C 132.226562 188.101562 132.320312 187.84375 132.394531 187.71875 C 132.464844 187.589844 132.566406 187.332031 132.621094 187.148438 C 132.675781 186.960938 132.757812 186.753906 132.796875 186.6875 C 132.84375 186.617188 132.941406 186.382812 133.015625 186.164062 C 133.09375 185.9375 133.210938 185.621094 133.28125 185.453125 C 133.34375 185.292969 133.460938 185.015625 133.523438 184.847656 C 133.59375 184.6875 133.714844 184.371094 133.789062 184.144531 C 133.863281 183.925781 133.960938 183.691406 134.003906 183.628906 C 134.046875 183.558594 134.121094 183.367188 134.175781 183.203125 C 134.222656 183.039062 134.3125 182.828125 134.382812 182.742188 C 134.445312 182.648438 134.496094 182.550781 134.496094 182.527344 C 134.496094 182.5 134.601562 182.273438 134.722656 182.015625 C 134.847656 181.761719 135.003906 181.4375 135.066406 181.292969 C 135.132812 181.152344 135.21875 180.972656 135.261719 180.890625 C 135.308594 180.8125 135.4375 180.550781 135.550781 180.316406 C 135.996094 179.363281 136.351562 178.65625 136.570312 178.300781 C 136.691406 178.089844 136.875 177.78125 136.972656 177.609375 C 137.152344 177.296875 137.371094 176.910156 137.808594 176.167969 C 137.929688 175.960938 138.101562 175.660156 138.195312 175.503906 C 138.292969 175.34375 138.464844 175.050781 138.585938 174.84375 C 138.707031 174.636719 138.871094 174.363281 138.9375 174.238281 C 139.003906 174.113281 139.125 173.925781 139.199219 173.824219 C 139.273438 173.726562 139.335938 173.617188 139.335938 173.585938 C 139.335938 173.558594 139.429688 173.398438 139.539062 173.234375 C 139.648438 173.074219 139.738281 172.925781 139.738281 172.902344 C 139.738281 172.855469 140.113281 172.0625 140.453125 171.398438 C 140.78125 170.757812 141.179688 169.847656 141.335938 169.371094 C 141.382812 169.226562 141.496094 168.945312 141.582031 168.738281 C 141.675781 168.53125 141.777344 168.246094 141.8125 168.113281 C 141.847656 167.976562 141.929688 167.761719 141.992188 167.648438 C 142.054688 167.527344 142.140625 167.238281 142.191406 167.007812 C 142.238281 166.777344 142.332031 166.492188 142.390625 166.371094 C 142.453125 166.25 142.542969 165.972656 142.585938 165.757812 C 142.632812 165.539062 142.722656 165.246094 142.792969 165.089844 C 142.863281 164.941406 142.9375 164.582031 142.972656 164.285156 C 143.003906 163.996094 143.09375 163.519531 143.167969 163.234375 C 143.242188 162.949219 143.34375 162.445312 143.390625 162.113281 C 143.445312 161.777344 143.535156 161.339844 143.597656 161.132812 C 143.664062 160.925781 143.753906 160.382812 143.800781 159.921875 C 143.851562 159.460938 143.945312 158.726562 144.007812 158.28125 C 144.1875 156.992188 144.25 155.113281 144.210938 152.117188 C 144.175781 149.265625 144.128906 148.488281 143.949219 147.597656 C 143.886719 147.296875 143.824219 146.851562 143.800781 146.617188 C 143.785156 146.378906 143.738281 146.023438 143.703125 145.820312 C 143.621094 145.347656 143.71875 145.175781 144.058594 145.175781 C 144.429688 145.175781 145.160156 145.292969 145.558594 145.414062 C 145.765625 145.476562 146.203125 145.570312 146.53125 145.613281 C 146.859375 145.660156 147.25 145.753906 147.394531 145.816406 C 147.539062 145.878906 147.832031 145.972656 148.050781 146.019531 C 148.265625 146.058594 148.542969 146.148438 148.667969 146.214844 C 148.792969 146.277344 149.078125 146.371094 149.300781 146.414062 C 149.527344 146.460938 149.804688 146.546875 149.925781 146.609375 C 150.039062 146.667969 150.242188 146.75 150.367188 146.789062 C 150.492188 146.828125 150.777344 146.949219 150.996094 147.054688 C 151.21875 147.164062 151.433594 147.25 151.480469 147.25 C 151.519531 147.25 151.664062 147.3125 151.796875 147.390625 C 151.929688 147.464844 152.136719 147.554688 152.25 147.589844 C 152.488281 147.664062 153.277344 148.070312 153.507812 148.222656 C 153.585938 148.28125 153.765625 148.386719 153.910156 148.453125 C 154.308594 148.648438 154.78125 148.910156 155.003906 149.054688 C 155.753906 149.542969 155.953125 149.679688 156.445312 150.039062 C 156.746094 150.257812 157.101562 150.515625 157.238281 150.613281 C 157.742188 150.972656 159.371094 152.441406 160.074219 153.160156 C 160.71875 153.824219 161.578125 154.785156 161.886719 155.207031 C 161.953125 155.292969 162.152344 155.558594 162.335938 155.800781 C 162.515625 156.035156 162.664062 156.253906 162.664062 156.269531 C 162.664062 156.292969 162.746094 156.414062 162.839844 156.546875 C 162.9375 156.679688 163.113281 156.945312 163.242188 157.140625 C 163.367188 157.34375 163.574219 157.664062 163.703125 157.859375 C 163.828125 158.0625 163.972656 158.289062 164.03125 158.367188 C 164.261719 158.691406 164.53125 159.175781 164.804688 159.75 C 164.964844 160.085938 165.132812 160.425781 165.175781 160.511719 C 165.570312 161.265625 165.835938 161.839844 165.921875 162.140625 C 166.140625 162.9375 166.316406 163.386719 166.410156 163.367188 C 166.484375 163.351562 166.503906 163.113281 166.53125 161.621094 C 166.566406 160.078125 166.582031 159.8125 166.714844 159.140625 C 166.800781 158.726562 166.894531 158 166.921875 157.527344 C 166.984375 156.605469 167.0625 156.117188 167.183594 155.820312 C 167.226562 155.71875 167.292969 155.402344 167.332031 155.113281 C 167.371094 154.832031 167.464844 154.421875 167.539062 154.203125 C 167.613281 153.988281 167.699219 153.605469 167.734375 153.355469 C 167.769531 153.101562 167.851562 152.75 167.90625 152.574219 C 167.972656 152.394531 168.0625 152.007812 168.113281 151.71875 C 168.207031 151.171875 168.375 150.589844 168.800781 149.363281 C 168.847656 149.230469 168.9375 148.957031 169.007812 148.75 C 169.300781 147.84375 169.429688 147.5 169.519531 147.367188 C 169.578125 147.285156 169.664062 147.082031 169.714844 146.917969 C 169.761719 146.742188 169.855469 146.523438 169.917969 146.425781 C 169.976562 146.324219 170.054688 146.140625 170.097656 146.011719 C 170.210938 145.644531 170.460938 145.113281 171.121094 143.851562 C 171.328125 143.453125 171.589844 142.964844 171.699219 142.757812 C 171.894531 142.378906 172.226562 141.800781 172.425781 141.511719 C 172.488281 141.421875 172.621094 141.214844 172.71875 141.058594 C 172.820312 140.898438 172.953125 140.695312 173.011719 140.601562 C 173.160156 140.378906 173.445312 139.933594 173.582031 139.710938 C 173.726562 139.46875 174.574219 138.351562 174.957031 137.882812 C 175.121094 137.695312 175.449219 137.289062 175.683594 136.992188 C 176.6875 135.734375 178.898438 133.617188 180.4375 132.445312 C 180.539062 132.367188 180.769531 132.1875 180.957031 132.042969 C 182.0625 131.179688 182.328125 130.984375 182.578125 130.832031 C 183.074219 130.535156 183.378906 130.347656 183.628906 130.1875 C 183.773438 130.101562 183.90625 130.027344 183.933594 130.027344 C 183.960938 130.027344 184.078125 129.957031 184.179688 129.878906 C 184.289062 129.796875 184.480469 129.675781 184.605469 129.605469 C 184.90625 129.445312 185.914062 128.835938 186.128906 128.691406 C 186.214844 128.632812 186.421875 128.511719 186.589844 128.417969 C 186.882812 128.265625 187.128906 128.121094 187.898438 127.664062 C 188.105469 127.542969 188.402344 127.371094 188.558594 127.285156 C 188.71875 127.203125 188.886719 127.101562 188.933594 127.058594 C 188.980469 127.019531 189.136719 126.921875 189.277344 126.839844 C 189.421875 126.765625 189.699219 126.609375 189.902344 126.496094 C 190.097656 126.375 190.414062 126.191406 190.605469 126.082031 C 190.792969 125.972656 191.105469 125.789062 191.296875 125.679688 C 191.484375 125.566406 191.800781 125.382812 192.003906 125.269531 C 192.890625 124.746094 193.246094 124.515625 194.417969 123.671875 C 194.585938 123.558594 194.855469 123.367188 195.011719 123.257812 C 195.488281 122.925781 196.351562 122.3125 197.25 121.675781 C 197.71875 121.339844 198.195312 121.007812 198.316406 120.925781 C 198.785156 120.609375 199.261719 120.226562 200.136719 119.484375 C 200.453125 119.214844 200.898438 118.847656 201.117188 118.667969 C 201.339844 118.488281 201.898438 118.023438 202.367188 117.628906 C 202.832031 117.246094 203.351562 116.808594 203.519531 116.667969 C 203.6875 116.535156 204.6875 115.574219 205.746094 114.539062 C 207.1875 113.132812 208.039062 112.238281 209.140625 110.988281 C 209.949219 110.066406 210.78125 109.082031 210.996094 108.800781 C 211.207031 108.511719 211.421875 108.246094 211.472656 108.199219 C 211.546875 108.136719 211.714844 108.136719 212.394531 108.195312 C 213.21875 108.265625 214.445312 108.210938 214.96875 108.085938 C 215.28125 108.003906 215.320312 108.011719 215.363281 108.148438 Z M 215.363281 108.148438 "/><g clip-rule="nonzero" clip-path="url(#1f39c96ee1)"><g clip-rule="nonzero" clip-path="url(#37db436a1e)"><path style="fill:none;stroke-width:12;stroke-linecap:butt;stroke-linejoin:miter;stroke:#ffffff;stroke-opacity:1;stroke-miterlimit:4;" d="M 153.686096 -0.000377456 C 68.806493 -0.000377456 -0.0014176 68.807533 -0.0014176 153.687136 C -0.0014176 238.566739 68.806493 307.37465 153.686096 307.37465 C 238.565699 307.37465 307.37361 238.566739 307.37361 153.687136 C 307.37361 68.807533 238.565699 -0.000377456 153.686096 -0.000377456 Z M 153.686096 -0.000377456 " transform="matrix(0.749085,0,0,0.749085,74.602624,76.953408)"/></g></g></g></svg>