<?xml version="1.0" standalone="no"?>
<!DOCTYPE svg PUBLIC "-//W3C//DTD SVG 20010904//EN"
 "http://www.w3.org/TR/2001/REC-SVG-20010904/DTD/svg10.dtd">
<svg version="1.0" xmlns="http://www.w3.org/2000/svg"
 width="7200.000000pt" height="7200.000000pt" viewBox="0 0 7200.000000 7200.000000"
 preserveAspectRatio="xMidYMid meet">

<g transform="translate(0.000000,7200.000000) scale(0.100000,-0.100000)"
fill="#000000" stroke="none">
<path d="M35370 58809 c-1116 -36 -2280 -177 -3370 -410 -257 -55 -1435 -330
-1755 -410 -2152 -537 -4184 -1445 -6037 -2695 -291 -196 -1103 -776 -1411
-1007 -1456 -1092 -2752 -2389 -3846 -3846 -229 -306 -809 -1118 -1005 -1409
-1136 -1683 -1983 -3501 -2536 -5442 -122 -429 -433 -1715 -569 -2350 -560
-2626 -560 -5374 0 -8000 136 -635 447 -1921 569 -2350 511 -1792 1287 -3511
2291 -5072 265 -412 868 -1270 1252 -1781 1090 -1452 2392 -2754 3844 -3844
308 -231 1120 -811 1411 -1007 1854 -1251 3884 -2157 6037 -2695 322 -80 1499
-355 1755 -410 2626 -560 5374 -560 8000 0 256 55 1433 330 1755 410 2004 501
3931 1334 5667 2450 412 265 1270 868 1781 1252 1452 1090 2754 2392 3844
3844 224 299 804 1111 996 1394 1182 1749 2064 3667 2605 5669 105 387 406
1647 511 2140 560 2626 560 5374 0 8000 -69 323 -344 1491 -434 1845 -504
1977 -1325 3865 -2426 5577 -265 412 -867 1268 -1253 1783 -1088 1450 -2389
2751 -3843 3842 -308 231 -1120 811 -1411 1007 -1853 1250 -3885 2158 -6037
2695 -292 73 -1485 352 -1730 405 -1500 323 -3094 465 -4655 415z m1265 -1409
c1220 -43 2380 -190 3549 -450 1533 -341 2631 -685 3821 -1195 1462 -627 2752
-1384 4175 -2451 1212 -909 2313 -1953 3262 -3095 701 -844 1442 -1893 1970
-2789 916 -1555 1604 -3216 2043 -4931 433 -1696 615 -2835 697 -4369 17 -311
17 -1449 0 -1760 -82 -1535 -264 -2672 -697 -4369 -439 -1715 -1127 -3376
-2043 -4931 -527 -894 -1273 -1950 -1970 -2789 -625 -752 -1362 -1507 -2103
-2156 -852 -747 -1932 -1540 -2912 -2139 -1615 -986 -3366 -1727 -5182 -2191
-1696 -434 -2833 -616 -4365 -697 -310 -17 -1450 -17 -1760 0 -1532 81 -2669
263 -4365 697 -1957 500 -3844 1324 -5557 2426 -701 451 -1535 1062 -2167
1587 -751 624 -1508 1363 -2156 2103 -811 925 -1671 2113 -2287 3159 -916
1555 -1604 3216 -2043 4931 -433 1696 -615 2835 -697 4369 -17 311 -17 1449 0
1760 82 1534 264 2673 697 4369 439 1715 1127 3376 2043 4931 527 894 1273
1950 1970 2789 624 750 1363 1508 2102 2156 894 782 2019 1603 3038 2214 1587
952 3291 1665 5053 2116 1593 407 2734 597 4084 680 545 34 1262 44 1800 25z"/>
<path d="M35370 56309 c-4840 -155 -9425 -2144 -12860 -5579 -2677 -2677
-4490 -6063 -5224 -9760 -423 -2132 -479 -4383 -160 -6535 705 -4764 3180
-9066 6962 -12098 3812 -3057 8651 -4524 13547 -4106 5209 443 9979 2995
13268 7097 2248 2803 3662 6208 4056 9767 465 4196 -437 8360 -2586 11944
-1901 3169 -4677 5720 -7993 7344 -2793 1369 -5870 2027 -9010 1926z m-3415
-4780 c223 -113 251 -128 284 -153 19 -14 50 -31 70 -37 20 -6 56 -24 81 -39
25 -16 65 -36 90 -46 25 -9 57 -26 72 -36 14 -10 55 -32 90 -49 98 -47 210
-108 227 -123 9 -7 79 -44 156 -80 77 -37 147 -71 155 -77 8 -5 44 -24 80 -43
176 -91 218 -114 253 -139 21 -14 55 -31 75 -38 20 -6 52 -22 70 -36 18 -13
54 -32 80 -40 26 -9 72 -31 102 -50 30 -18 60 -33 66 -33 7 0 35 -16 63 -35
28 -19 70 -42 93 -51 24 -10 57 -28 75 -41 18 -13 61 -37 95 -53 35 -16 79
-38 98 -49 19 -10 80 -41 135 -68 55 -26 123 -62 150 -80 28 -17 69 -38 90
-47 21 -9 53 -27 69 -40 17 -12 58 -35 91 -50 33 -15 67 -33 75 -41 9 -8 42
-24 74 -35 31 -10 69 -28 85 -39 15 -11 52 -30 82 -41 30 -12 63 -30 74 -40
11 -10 46 -30 77 -44 32 -13 73 -36 91 -50 19 -14 49 -31 68 -38 19 -6 52 -23
74 -38 22 -15 67 -37 100 -49 33 -12 65 -27 71 -32 6 -5 47 -27 90 -49 78 -41
118 -63 224 -125 30 -17 71 -38 90 -45 19 -8 49 -25 67 -38 17 -13 55 -32 84
-43 29 -11 64 -28 78 -38 14 -10 46 -25 71 -34 25 -9 70 -33 100 -52 30 -19
64 -38 75 -41 11 -4 40 -21 65 -39 25 -18 61 -38 81 -44 20 -6 58 -25 85 -43
27 -17 65 -36 84 -43 19 -7 57 -26 84 -43 26 -17 62 -34 78 -38 17 -3 58 -24
91 -45 33 -21 66 -39 73 -39 7 0 34 -16 59 -36 26 -20 66 -42 88 -50 23 -8 62
-27 87 -43 25 -15 61 -34 80 -41 19 -8 47 -22 63 -33 15 -10 53 -29 85 -42 55
-22 117 -56 232 -128 30 -19 71 -40 90 -47 19 -8 46 -21 60 -31 14 -9 56 -31
95 -48 38 -17 76 -38 85 -45 8 -7 38 -21 65 -31 28 -10 68 -30 90 -45 22 -14
60 -35 85 -45 25 -11 61 -32 80 -47 19 -14 55 -34 80 -44 25 -10 56 -25 70
-34 14 -10 96 -52 182 -94 86 -42 159 -80 163 -85 3 -5 27 -17 53 -27 26 -9
62 -28 81 -42 18 -14 130 -74 248 -133 118 -60 226 -117 241 -127 15 -11 44
-25 64 -31 20 -7 54 -25 75 -40 21 -15 65 -41 98 -57 33 -17 78 -40 100 -51
22 -12 64 -32 93 -44 29 -13 58 -29 63 -36 6 -7 29 -18 50 -23 21 -6 52 -22
69 -36 17 -14 54 -35 83 -46 28 -11 66 -31 84 -44 18 -14 61 -38 95 -55 35
-16 79 -39 98 -49 19 -11 58 -30 85 -43 62 -30 181 -92 445 -235 41 -22 143
-75 225 -117 193 -98 291 -151 327 -176 16 -11 55 -31 88 -44 32 -13 74 -34
92 -48 18 -13 51 -30 72 -37 22 -7 65 -28 95 -46 31 -19 63 -34 72 -34 9 0 37
-16 63 -36 25 -19 61 -40 79 -46 17 -6 52 -25 76 -41 24 -16 66 -38 93 -48 28
-10 62 -26 76 -36 15 -10 92 -51 172 -92 247 -126 264 -135 301 -163 20 -16
40 -28 45 -28 12 0 256 -120 274 -136 8 -6 43 -23 78 -37 34 -14 74 -35 89
-47 14 -11 45 -29 68 -39 23 -10 61 -32 84 -49 23 -17 59 -36 79 -43 20 -7 53
-23 73 -36 20 -13 60 -33 90 -44 29 -11 64 -28 78 -38 14 -10 49 -30 76 -44
104 -52 195 -192 196 -302 1 -62 -15 -140 -31 -150 -4 -3 -16 -29 -26 -58 -9
-28 -29 -70 -44 -92 -15 -22 -37 -63 -50 -92 -12 -28 -30 -59 -40 -68 -10 -9
-29 -42 -41 -73 -13 -31 -35 -76 -49 -99 -15 -23 -35 -64 -45 -90 -10 -26 -24
-55 -31 -63 -7 -8 -29 -49 -49 -90 -61 -125 -99 -197 -114 -214 -13 -16 -33
-53 -132 -246 -49 -96 -71 -119 -166 -177 -77 -48 -79 -48 -163 -47 -66 0 -94
5 -125 21 -22 12 -105 53 -185 93 -168 83 -296 153 -319 175 -10 8 -35 21 -58
29 -22 8 -58 25 -79 38 -22 13 -93 50 -159 82 -66 31 -133 65 -150 73 -76 40
-171 95 -185 107 -8 7 -77 43 -153 80 -76 37 -155 79 -174 92 -20 13 -43 24
-52 24 -9 0 -32 9 -51 20 -19 11 -66 36 -105 56 -38 20 -83 46 -100 58 -16 11
-136 74 -265 140 -347 174 -342 172 -379 200 -19 14 -56 33 -82 41 -26 9 -53
22 -59 30 -6 7 -41 26 -78 41 -37 16 -82 39 -101 51 -40 27 -99 31 -108 7 -3
-9 1 -37 10 -63 9 -25 19 -64 23 -86 3 -22 22 -75 40 -117 19 -42 39 -103 45
-135 6 -32 24 -89 41 -127 17 -38 38 -108 48 -156 10 -47 27 -105 39 -128 12
-23 28 -79 37 -125 8 -45 27 -107 40 -137 14 -30 32 -89 40 -130 8 -41 28
-103 43 -137 16 -34 39 -102 51 -150 12 -48 32 -108 45 -133 12 -25 28 -74 34
-110 7 -36 25 -96 41 -135 15 -38 33 -104 40 -145 7 -41 23 -97 37 -125 14
-27 34 -90 44 -138 11 -49 31 -110 44 -137 13 -26 34 -88 46 -136 12 -49 30
-105 39 -124 19 -38 44 -123 54 -182 4 -20 16 -57 26 -81 11 -25 31 -93 45
-152 14 -58 34 -123 44 -143 10 -20 26 -73 35 -117 10 -44 32 -114 51 -155 19
-41 39 -103 45 -137 6 -34 24 -91 40 -125 16 -35 36 -97 44 -138 8 -41 24 -96
36 -122 11 -26 29 -87 40 -135 10 -48 30 -114 44 -145 14 -31 31 -88 37 -125
7 -37 26 -97 44 -133 18 -36 37 -95 44 -132 6 -36 26 -99 45 -140 18 -40 36
-97 40 -126 4 -30 20 -88 37 -129 16 -42 36 -109 44 -150 8 -41 25 -99 39
-129 13 -29 32 -90 41 -136 10 -46 30 -108 45 -138 15 -30 35 -91 45 -135 9
-44 28 -101 41 -127 13 -26 31 -80 39 -119 8 -39 26 -99 40 -132 13 -34 31
-91 39 -127 19 -86 34 -96 143 -105 49 -4 138 -18 198 -31 61 -14 153 -29 205
-35 104 -11 161 -24 201 -45 14 -7 75 -23 135 -35 60 -12 125 -30 145 -40 20
-10 67 -26 105 -35 38 -9 94 -30 124 -45 30 -15 82 -35 115 -45 33 -9 75 -27
95 -40 19 -13 61 -32 92 -43 31 -11 76 -31 100 -44 24 -14 68 -33 98 -42 30
-10 71 -28 90 -40 19 -12 53 -28 75 -35 22 -6 70 -30 106 -51 36 -21 69 -39
75 -39 5 0 36 -18 69 -40 33 -22 67 -40 75 -40 8 0 33 -11 55 -25 22 -13 105
-56 185 -96 80 -39 158 -80 173 -91 42 -30 192 -109 547 -290 135 -68 256
-131 270 -140 14 -9 45 -24 70 -34 25 -10 61 -28 81 -41 20 -13 65 -33 99 -43
34 -10 71 -25 84 -33 12 -8 58 -26 102 -40 44 -14 96 -35 116 -46 19 -12 72
-31 118 -42 45 -12 103 -31 129 -44 57 -29 106 -41 196 -50 39 -4 102 -15 140
-25 123 -33 228 -43 389 -37 83 3 180 13 216 22 36 8 99 22 140 30 134 27 164
36 200 59 19 12 63 32 98 44 35 11 82 33 105 47 23 15 84 51 134 80 115 67
206 136 303 230 41 40 135 124 208 188 124 109 138 118 236 156 91 36 115 41
184 41 44 0 97 -6 118 -14 169 -63 219 -93 332 -200 41 -39 66 -76 105 -156
l52 -105 0 -145 0 -145 -49 -100 c-44 -91 -105 -180 -145 -213 -9 -7 -83 -79
-166 -160 -82 -81 -179 -168 -215 -193 -67 -46 -93 -67 -164 -130 -69 -60
-216 -155 -341 -219 -33 -17 -82 -44 -110 -60 -27 -16 -57 -30 -66 -30 -8 0
-41 -16 -73 -35 -32 -19 -74 -39 -95 -45 -20 -5 -62 -23 -94 -39 -32 -17 -96
-37 -142 -46 -47 -8 -105 -24 -129 -35 -69 -29 -134 -38 -423 -56 -218 -14
-289 -15 -388 -6 -66 7 -176 14 -244 18 -84 4 -154 14 -215 30 -50 14 -138 34
-196 44 -58 11 -130 31 -161 45 -30 13 -86 32 -125 40 -38 9 -93 30 -122 46
-29 16 -83 36 -120 45 -37 8 -86 27 -110 40 -24 14 -65 32 -92 40 -28 8 -82
30 -122 49 -40 19 -80 35 -88 35 -9 0 -42 15 -73 34 -32 19 -67 38 -80 42 -12
3 -51 24 -87 44 -36 21 -81 43 -101 49 -19 6 -59 27 -89 46 -30 19 -59 35 -66
35 -13 0 -243 117 -264 135 -8 7 -40 24 -70 39 -30 15 -94 49 -142 74 -48 26
-150 78 -225 117 -76 38 -155 82 -176 97 -21 15 -55 32 -75 39 -20 7 -59 27
-87 46 -27 18 -54 33 -59 33 -5 0 -55 22 -110 49 -231 112 -272 131 -283 131
-7 0 -38 15 -70 34 -32 19 -77 39 -101 45 -24 7 -64 25 -89 41 -25 16 -71 34
-102 41 -31 6 -85 25 -121 41 -36 16 -104 36 -152 44 -48 8 -122 25 -165 39
-111 36 -273 48 -563 42 -241 -5 -247 -5 -331 -35 -48 -17 -113 -36 -145 -42
-50 -10 -154 -53 -254 -104 -57 -29 -168 -102 -210 -137 -25 -20 -72 -54 -105
-74 -56 -35 -213 -183 -499 -472 -67 -67 -146 -141 -176 -165 -96 -75 -131
-102 -180 -138 -26 -19 -83 -62 -126 -94 -88 -67 -160 -111 -249 -155 -33 -17
-73 -39 -90 -51 -16 -11 -51 -27 -77 -35 -26 -7 -67 -27 -91 -44 -24 -16 -57
-33 -73 -37 -16 -4 -67 -24 -114 -44 -47 -21 -106 -41 -132 -45 -26 -3 -87
-19 -134 -35 -95 -33 -170 -42 -497 -61 -163 -10 -229 -10 -305 -1 -53 7 -128
12 -167 12 -110 0 -238 18 -359 50 -61 16 -136 32 -166 36 -30 3 -85 19 -121
35 -37 16 -98 36 -135 44 -38 9 -98 31 -134 50 -36 18 -83 37 -105 40 -22 4
-65 20 -96 35 -30 15 -80 35 -110 45 -30 10 -79 30 -109 45 -31 16 -75 33
-100 40 -24 7 -62 24 -85 39 -22 16 -58 34 -80 41 -22 7 -58 25 -81 41 -22 15
-69 39 -104 53 -35 14 -71 32 -79 40 -9 8 -38 23 -66 34 -61 25 -224 109 -245
127 -8 7 -40 23 -70 36 -30 12 -69 33 -87 46 -18 13 -61 37 -95 54 -35 16 -79
39 -98 49 -19 11 -57 30 -85 43 -82 40 -158 81 -190 103 -33 23 -98 54 -112
54 -5 0 -27 13 -49 29 -22 17 -65 39 -96 51 -31 11 -68 30 -82 41 -14 11 -51
29 -82 39 -31 11 -71 29 -89 40 -18 11 -57 29 -86 39 -30 10 -71 30 -92 44
-21 14 -63 33 -93 42 -30 8 -77 29 -104 45 -28 16 -79 36 -115 45 -36 8 -87
26 -114 39 -26 14 -89 32 -139 41 -51 8 -131 27 -179 41 -126 37 -262 47 -548
41 -246 -5 -252 -6 -343 -36 -52 -17 -123 -38 -160 -46 -36 -9 -88 -28 -116
-44 -28 -16 -69 -34 -91 -41 -22 -7 -51 -23 -65 -35 -14 -13 -43 -33 -65 -45
-22 -12 -58 -35 -80 -51 -22 -16 -60 -44 -84 -62 -24 -18 -59 -42 -78 -53 -33
-20 -121 -105 -448 -429 -174 -173 -350 -317 -555 -455 -127 -86 -154 -102
-205 -125 -31 -13 -70 -34 -86 -46 -17 -12 -50 -27 -75 -35 -24 -7 -63 -26
-87 -42 -23 -16 -67 -37 -97 -46 -30 -10 -76 -29 -102 -42 -26 -13 -81 -31
-120 -38 -40 -8 -109 -26 -153 -41 -216 -73 -1082 -77 -1269 -6 -15 6 -85 23
-155 37 -69 14 -159 38 -199 55 -40 16 -98 34 -129 40 -31 6 -79 23 -107 39
-28 16 -80 36 -116 45 -36 9 -83 27 -105 39 -22 13 -70 33 -106 44 -36 12 -85
32 -110 46 -24 14 -51 26 -60 26 -8 0 -65 25 -126 55 -61 30 -115 55 -120 55
-4 0 -26 14 -47 30 -22 17 -45 30 -51 30 -20 0 -568 280 -595 305 -8 7 -44 27
-80 44 -36 17 -81 40 -100 51 -19 11 -57 30 -85 43 -97 45 -180 90 -200 108
-11 9 -44 27 -74 39 -29 11 -72 33 -95 48 -22 16 -62 36 -87 45 -25 10 -60 28
-78 41 -17 13 -53 29 -79 37 -26 7 -72 27 -102 45 -30 17 -68 34 -85 38 -16 4
-54 23 -85 41 -30 18 -70 36 -89 40 -18 4 -65 24 -105 45 -39 21 -88 41 -109
44 -20 4 -69 21 -108 37 -39 17 -108 37 -153 45 -45 8 -120 25 -166 39 -121
36 -284 48 -565 42 -226 -5 -245 -7 -320 -32 -44 -14 -114 -35 -155 -45 -41
-10 -106 -35 -145 -54 -38 -20 -77 -36 -86 -36 -9 0 -27 -8 -40 -19 -13 -10
-73 -51 -134 -92 -176 -117 -213 -147 -340 -270 -153 -149 -181 -173 -271
-229 -64 -41 -86 -49 -178 -65 -92 -15 -117 -16 -201 -5 -116 14 -136 21 -242
83 -105 61 -158 122 -225 256 l-53 104 0 151 0 151 44 90 c49 103 58 114 235
294 238 243 568 504 736 583 25 11 61 33 80 48 19 15 64 42 100 59 35 18 69
36 75 41 5 4 39 18 75 30 35 12 82 32 105 44 22 13 78 31 125 40 46 10 105 28
130 41 31 15 85 28 171 39 70 9 152 25 183 36 41 14 106 22 234 29 199 12 404
-2 567 -38 50 -11 144 -27 210 -35 73 -10 145 -25 181 -40 33 -14 99 -31 146
-40 47 -8 112 -26 144 -39 32 -14 87 -32 121 -41 35 -9 77 -25 95 -36 19 -10
65 -29 103 -41 39 -11 90 -34 115 -49 25 -16 65 -34 90 -40 25 -7 72 -27 106
-46 33 -19 68 -34 76 -34 9 0 42 -14 74 -31 33 -17 82 -39 109 -49 28 -10 77
-34 109 -54 33 -20 65 -36 72 -36 7 0 32 -15 57 -34 24 -18 61 -39 83 -46 21
-7 59 -25 84 -40 25 -16 70 -40 100 -54 30 -14 71 -34 90 -46 19 -11 53 -28
75 -38 68 -32 179 -93 210 -116 17 -12 93 -53 170 -91 77 -38 147 -74 155 -81
9 -8 36 -21 60 -29 25 -9 61 -26 81 -39 19 -13 60 -34 90 -47 30 -12 69 -33
87 -47 18 -13 60 -35 93 -47 33 -13 74 -32 92 -43 18 -11 57 -27 87 -37 30 -9
73 -27 95 -40 22 -13 69 -32 105 -43 36 -11 94 -34 130 -50 36 -16 91 -35 124
-42 32 -6 79 -22 105 -35 56 -28 106 -41 191 -50 36 -3 92 -13 125 -21 77 -20
220 -44 266 -44 19 0 44 6 54 14 18 13 19 19 7 86 -7 40 -26 104 -42 144 -16
39 -36 106 -44 148 -8 43 -26 97 -40 121 -14 23 -32 76 -41 117 -9 41 -29 104
-45 140 -16 36 -36 101 -45 145 -9 44 -27 105 -40 135 -13 30 -31 91 -40 135
-8 43 -26 103 -39 132 -14 29 -32 89 -41 135 -9 46 -27 102 -40 126 -13 23
-34 84 -46 135 -12 50 -32 112 -44 137 -12 25 -28 70 -35 100 -6 30 -21 82
-32 115 -11 33 -31 105 -45 160 -13 55 -34 123 -45 150 -12 28 -34 100 -50
160 -16 61 -35 119 -42 130 -16 24 -42 106 -51 158 -3 21 -20 67 -36 103 -17
35 -35 93 -41 127 -6 34 -23 94 -39 132 -15 39 -34 106 -43 150 -8 44 -26 105
-41 137 -14 31 -32 91 -41 135 -8 43 -28 104 -44 135 -17 32 -37 91 -44 132
-8 41 -27 97 -41 126 -14 29 -33 84 -40 123 -8 40 -27 106 -43 147 -16 41 -33
99 -37 128 -15 115 -66 117 -117 4 -49 -109 -123 -253 -157 -306 -17 -28 -31
-55 -31 -61 0 -6 -15 -33 -34 -61 -18 -28 -38 -65 -44 -83 -6 -17 -24 -50 -40
-73 -16 -24 -35 -61 -42 -82 -7 -22 -28 -65 -46 -97 -19 -32 -34 -64 -34 -72
0 -7 -17 -38 -38 -68 -21 -30 -46 -75 -56 -101 -9 -25 -24 -52 -33 -59 -8 -7
-32 -49 -53 -94 -21 -44 -45 -91 -53 -105 -9 -14 -43 -81 -77 -150 -81 -164
-137 -270 -154 -289 -8 -9 -30 -50 -50 -91 -19 -41 -40 -82 -45 -90 -6 -8 -41
-78 -79 -155 -85 -172 -138 -270 -169 -311 -12 -17 -30 -50 -38 -74 -9 -24
-28 -65 -44 -90 -16 -25 -34 -61 -40 -81 -6 -20 -23 -51 -37 -70 -14 -19 -32
-48 -40 -66 -23 -46 -117 -120 -177 -138 -105 -31 -236 -10 -344 55 -37 22
-72 40 -77 40 -6 0 -38 18 -71 40 -33 22 -65 40 -70 40 -6 0 -33 16 -62 35
-28 19 -64 37 -79 41 -31 7 -242 115 -284 144 -14 9 -36 21 -50 25 -14 4 -45
22 -70 39 -25 18 -65 41 -90 51 -25 11 -61 29 -80 42 -19 12 -54 29 -78 37
-60 22 -172 90 -210 129 -37 38 -102 186 -102 232 0 39 57 212 82 248 11 15
31 55 45 90 14 34 31 69 38 77 7 8 26 42 43 75 17 33 42 75 56 94 14 19 31 50
37 70 6 20 24 56 40 81 16 25 35 64 43 87 8 23 26 58 40 80 14 21 32 58 41 83
8 24 22 51 29 60 8 8 29 44 47 80 17 36 41 78 53 95 17 24 137 256 279 540 17
33 40 74 53 90 12 17 34 56 48 88 14 32 34 70 44 85 11 15 25 44 31 64 7 20
24 54 38 75 14 21 33 58 41 83 8 25 25 59 38 75 12 17 34 56 47 87 14 32 39
75 55 95 17 21 33 49 37 63 4 14 19 45 33 70 15 25 39 73 53 107 15 34 35 74
46 90 11 15 27 46 35 68 9 22 32 67 52 99 20 33 36 64 36 69 0 4 13 28 29 51
17 24 41 67 55 97 14 30 34 70 45 89 11 19 48 91 81 160 34 69 68 132 76 141
8 9 24 41 35 70 11 29 34 70 50 90 16 20 36 56 44 78 8 23 25 56 39 74 13 17
31 53 40 80 9 26 27 66 42 88 14 23 32 58 39 79 7 21 30 62 49 90 20 29 36 58
36 65 0 6 18 40 40 74 22 33 43 73 46 87 4 14 21 46 38 72 18 26 40 70 51 97
10 28 25 61 34 74 9 14 30 51 46 83 80 154 118 224 128 236 6 8 25 42 42 75
17 34 41 80 53 102 12 22 49 96 83 165 83 168 125 248 154 290 13 19 31 55 41
79 10 24 32 66 51 94 18 27 33 54 33 59 0 14 100 219 116 238 6 8 31 51 54 95
82 154 127 240 143 270 9 17 22 44 30 60 34 72 69 143 88 175 11 19 35 67 54
105 18 39 43 79 54 89 11 10 32 49 46 86 14 38 32 74 40 80 7 6 23 36 36 68
12 31 33 73 45 92 13 19 30 54 38 77 8 23 31 65 50 93 20 29 36 58 36 65 0 7
16 36 36 65 20 29 46 76 57 104 11 28 26 58 32 66 7 8 47 85 89 170 92 183
142 278 157 297 10 12 149 280 201 388 10 22 28 56 38 75 11 19 29 55 41 80
12 25 37 67 56 94 19 27 41 67 49 89 8 23 27 62 43 87 16 25 34 61 40 81 6 19
27 59 46 89 19 30 35 62 35 71 0 9 12 34 27 55 14 21 37 64 51 94 14 30 35 69
48 85 12 17 36 59 52 95 17 36 38 76 46 90 9 14 27 50 41 80 13 30 45 93 71
140 26 47 60 112 76 145 17 32 40 73 53 90 12 16 30 50 39 74 9 24 27 57 40
75 12 17 31 54 41 81 10 28 22 56 28 63 10 12 60 109 134 256 19 38 45 83 58
101 14 17 31 50 39 73 9 23 26 57 39 75 14 17 30 50 37 72 7 22 25 60 40 85
16 25 40 70 55 100 36 75 93 180 104 194 6 7 30 50 54 96 24 47 51 99 60 115
9 17 42 84 73 150 32 66 68 133 81 148 12 15 26 43 32 62 5 18 22 53 39 77 16
24 37 61 46 83 10 22 30 60 46 85 16 25 36 65 44 88 21 59 88 154 135 191 74
59 115 72 221 69 93 -3 97 -5 205 -59z m-6831 -18014 c49 -9 110 -22 135 -30
25 -8 95 -19 154 -26 81 -8 125 -19 173 -40 36 -16 100 -36 144 -43 46 -8 103
-27 137 -45 32 -16 81 -36 108 -42 28 -7 77 -24 110 -39 33 -15 87 -35 120
-45 33 -9 78 -27 100 -40 22 -13 56 -26 75 -30 31 -7 144 -59 250 -116 19 -10
64 -32 100 -49 36 -17 76 -37 90 -46 14 -8 45 -24 70 -35 136 -62 410 -207
439 -234 10 -8 37 -22 61 -30 25 -9 56 -23 70 -33 14 -9 99 -54 190 -101 91
-46 188 -96 216 -110 28 -14 67 -39 88 -54 20 -16 58 -36 84 -44 26 -9 67 -29
91 -45 25 -15 51 -28 57 -28 7 0 46 -17 86 -38 40 -22 91 -45 112 -52 22 -7
60 -26 85 -42 25 -16 64 -33 86 -39 22 -6 58 -23 81 -39 22 -16 69 -36 105
-45 35 -9 92 -30 126 -46 34 -16 90 -34 125 -40 34 -6 90 -21 123 -35 33 -13
94 -29 135 -35 41 -6 134 -20 205 -32 193 -32 398 -30 620 6 120 20 195 38
255 62 47 19 103 39 125 46 22 6 51 20 65 30 14 9 50 29 80 44 54 25 94 52
276 185 49 36 143 119 209 186 132 133 393 385 440 424 113 93 323 254 418
319 98 67 388 221 416 221 7 0 46 18 85 39 39 22 94 45 121 51 28 6 79 24 115
40 40 18 103 35 165 45 55 8 136 24 180 35 225 58 771 50 975 -15 25 -8 93
-19 151 -24 80 -8 121 -17 171 -40 37 -16 103 -36 148 -45 45 -8 102 -26 126
-40 25 -14 79 -34 120 -46 41 -11 97 -31 123 -45 27 -13 70 -29 97 -36 27 -7
74 -24 104 -39 30 -15 75 -34 100 -41 25 -7 70 -28 100 -46 30 -18 61 -33 68
-33 16 0 92 -38 113 -56 9 -8 44 -25 77 -38 34 -14 73 -34 88 -45 14 -11 49
-27 77 -37 29 -9 63 -25 77 -34 14 -10 56 -32 95 -49 38 -17 76 -38 85 -46 9
-8 43 -29 76 -46 32 -17 104 -55 159 -84 55 -29 163 -86 240 -125 77 -39 174
-91 215 -115 41 -25 100 -56 130 -70 30 -15 71 -35 90 -46 19 -11 55 -29 80
-40 64 -28 202 -94 290 -138 41 -21 87 -41 103 -45 15 -4 49 -19 75 -35 26
-16 81 -39 122 -51 41 -12 89 -31 107 -41 17 -11 72 -28 122 -39 50 -11 120
-31 156 -45 37 -13 109 -29 167 -35 57 -6 139 -19 183 -28 122 -25 399 -23
535 5 58 11 132 24 165 28 33 3 85 18 115 32 30 14 84 33 118 44 35 10 69 23
76 28 6 5 41 24 76 42 36 17 78 41 94 53 82 60 138 99 201 142 59 41 407 369
483 457 57 65 338 301 434 364 29 19 66 46 82 59 60 49 126 93 168 115 23 12
58 32 78 45 19 13 54 30 78 38 24 9 56 25 72 36 16 12 55 30 85 40 31 11 80
33 108 49 29 16 77 34 107 41 30 7 81 26 115 41 35 17 93 33 140 39 44 6 127
23 185 37 58 13 148 29 200 34 224 20 602 4 732 -32 40 -11 127 -26 193 -34
87 -11 139 -23 190 -45 39 -16 105 -36 149 -45 43 -8 98 -26 122 -39 25 -14
79 -34 120 -46 41 -11 97 -31 123 -45 27 -13 70 -29 97 -36 27 -7 74 -24 104
-39 30 -15 73 -33 95 -40 22 -7 69 -27 105 -46 36 -18 124 -61 195 -95 72 -35
141 -71 155 -81 14 -10 50 -26 80 -37 30 -11 96 -42 145 -70 50 -27 119 -65
155 -84 36 -18 87 -48 114 -65 28 -18 54 -32 60 -32 5 0 39 -18 75 -39 36 -21
77 -42 90 -46 13 -4 45 -19 70 -34 25 -15 66 -35 91 -45 25 -10 54 -26 65 -36
11 -11 45 -30 75 -44 30 -13 70 -36 89 -50 19 -14 50 -31 70 -37 20 -6 56 -24
81 -40 25 -16 66 -35 90 -44 25 -8 71 -29 102 -45 31 -17 75 -37 97 -45 23 -8
56 -25 74 -39 17 -13 52 -29 77 -36 25 -6 66 -25 91 -40 26 -16 80 -38 120
-50 41 -12 92 -33 114 -45 22 -13 72 -28 110 -35 39 -6 97 -22 130 -36 35 -14
107 -31 170 -39 61 -8 153 -23 205 -32 128 -24 402 -24 515 0 44 9 118 21 165
27 50 7 112 23 150 40 36 15 85 33 109 40 50 13 195 89 258 135 23 16 74 53
113 80 110 77 187 139 285 234 208 199 317 269 455 292 93 15 213 3 275 -28
28 -14 71 -33 97 -43 84 -32 212 -152 247 -233 8 -18 28 -61 45 -97 30 -63 31
-69 31 -205 l0 -140 -47 -96 c-25 -53 -70 -125 -100 -160 -105 -127 -396 -393
-603 -553 -16 -12 -77 -52 -135 -89 -58 -36 -116 -74 -130 -85 -14 -10 -45
-29 -70 -42 -25 -13 -66 -37 -91 -52 -25 -15 -72 -37 -103 -48 -32 -11 -72
-28 -90 -39 -17 -11 -58 -27 -91 -36 -33 -10 -86 -28 -118 -42 -32 -13 -100
-32 -151 -43 -51 -10 -110 -26 -132 -34 -110 -43 -159 -49 -501 -53 -389 -6
-519 4 -648 45 -49 16 -130 35 -180 42 -49 7 -122 25 -161 40 -39 15 -108 35
-155 45 -46 9 -104 27 -129 39 -25 13 -70 29 -100 36 -30 7 -77 24 -105 37
-27 14 -82 38 -122 53 -39 15 -85 37 -100 48 -16 11 -54 28 -86 37 -31 9 -83
32 -114 51 -31 19 -62 34 -69 34 -7 0 -52 18 -101 41 -132 61 -161 76 -238
121 -38 23 -106 60 -150 83 -44 23 -98 51 -120 63 -22 12 -100 50 -173 86 -73
36 -145 74 -159 86 -14 11 -31 20 -38 20 -7 0 -35 15 -61 33 -27 18 -69 41
-93 51 -25 9 -56 25 -70 35 -14 10 -84 46 -156 80 -71 34 -141 69 -155 77 -14
8 -61 33 -105 55 -44 22 -96 48 -115 58 -77 42 -228 110 -280 127 -30 9 -64
23 -75 30 -11 7 -46 20 -79 28 -32 9 -88 29 -125 45 -36 17 -109 40 -161 52
-52 12 -99 25 -105 29 -27 22 -163 51 -279 60 -347 27 -708 2 -801 -56 -11 -6
-47 -20 -80 -29 -64 -18 -260 -112 -361 -173 -127 -77 -257 -188 -520 -445
-149 -146 -295 -285 -325 -308 -30 -24 -86 -70 -126 -103 -105 -90 -244 -186
-334 -231 -25 -13 -51 -31 -59 -40 -8 -9 -36 -28 -64 -42 -27 -14 -66 -36 -86
-49 -19 -13 -61 -32 -94 -43 -32 -12 -72 -29 -90 -40 -17 -11 -63 -28 -101
-39 -39 -11 -91 -30 -118 -42 -26 -11 -82 -28 -125 -36 -42 -8 -109 -25 -148
-39 -141 -48 -262 -58 -649 -52 -358 5 -423 12 -517 51 -20 9 -91 24 -156 35
-66 10 -142 29 -168 41 -27 12 -91 30 -143 41 -52 11 -118 31 -146 45 -29 13
-57 24 -62 24 -24 0 -136 41 -176 65 -24 14 -50 25 -58 25 -8 0 -54 20 -101
44 -48 25 -105 50 -129 56 -23 6 -58 22 -78 35 -20 13 -55 31 -77 39 -42 14
-192 83 -249 113 -122 65 -162 87 -173 96 -7 5 -45 27 -85 47 -40 20 -90 46
-112 58 -22 11 -94 46 -160 78 -66 31 -128 64 -137 72 -10 8 -46 29 -80 47
-159 81 -215 112 -243 131 -17 12 -41 25 -55 29 -23 7 -126 57 -225 108 -150
77 -204 105 -230 120 -68 37 -223 106 -260 116 -22 6 -62 22 -89 36 -27 14
-55 25 -61 25 -23 0 -140 42 -156 56 -9 8 -57 23 -108 34 -50 11 -111 27 -134
36 -112 42 -163 52 -292 63 -288 23 -638 8 -745 -31 -30 -11 -95 -35 -145 -53
-84 -31 -216 -95 -330 -161 -53 -30 -196 -131 -205 -143 -3 -4 -23 -21 -45
-37 -51 -37 -227 -205 -370 -352 -60 -63 -146 -144 -190 -180 -44 -37 -123
-105 -176 -152 -53 -47 -124 -101 -158 -120 -35 -19 -77 -47 -95 -61 -17 -14
-47 -34 -66 -44 -19 -10 -51 -30 -70 -45 -19 -15 -60 -40 -90 -55 -30 -15 -62
-34 -71 -41 -9 -8 -43 -24 -75 -35 -32 -11 -76 -31 -99 -44 -22 -13 -69 -31
-105 -40 -36 -9 -87 -27 -115 -40 -27 -13 -97 -33 -155 -45 -58 -13 -116 -28
-130 -35 -14 -7 -61 -21 -105 -31 -65 -14 -140 -18 -410 -22 -379 -4 -506 5
-634 47 -47 16 -111 32 -141 35 -99 13 -164 28 -215 51 -27 13 -87 30 -133 38
-45 9 -108 27 -140 41 -31 14 -84 33 -117 42 -33 9 -74 24 -90 34 -17 11 -64
31 -105 46 -41 15 -91 37 -110 51 -19 13 -60 31 -90 40 -30 9 -70 26 -90 39
-19 13 -54 30 -76 38 -23 8 -80 33 -126 55 -46 23 -89 41 -95 41 -6 0 -34 16
-63 35 -29 19 -58 35 -65 35 -7 0 -30 12 -51 27 -35 24 -85 52 -219 120 -22
11 -89 44 -150 74 -60 29 -128 64 -150 79 -22 15 -55 32 -73 38 -18 6 -47 22
-64 34 -17 13 -62 39 -100 58 -166 85 -319 160 -327 160 -5 0 -26 12 -47 26
-21 15 -66 38 -99 52 -33 14 -73 35 -90 47 -16 12 -57 32 -90 45 -33 13 -76
34 -95 46 -19 12 -62 30 -95 39 -33 9 -73 25 -90 35 -16 10 -70 30 -120 45
-49 15 -100 33 -112 41 -13 8 -68 25 -123 39 -55 13 -129 35 -163 49 -100 40
-213 51 -527 51 -314 0 -412 -10 -497 -51 -29 -13 -82 -34 -118 -45 -65 -20
-231 -101 -342 -167 -117 -71 -169 -110 -293 -227 -203 -191 -327 -293 -408
-334 -57 -29 -170 -41 -298 -31 -115 9 -117 9 -235 78 -102 60 -189 157 -251
281 l-43 86 0 155 0 155 44 85 c53 104 102 171 177 242 31 29 104 99 161 156
95 93 188 172 304 260 24 18 64 48 89 67 148 115 446 286 557 320 23 7 64 26
91 43 26 16 72 35 101 41 29 6 84 25 121 41 37 16 100 34 141 40 41 6 124 23
184 37 61 14 148 29 195 34 137 12 561 3 664 -16z m-77 -4825 c97 -6 151 -16
205 -34 41 -14 131 -34 201 -45 76 -11 143 -27 167 -40 22 -11 86 -30 142 -41
56 -12 124 -32 152 -45 28 -13 80 -31 116 -40 35 -9 82 -27 105 -40 22 -13 68
-33 102 -43 34 -11 73 -29 88 -40 14 -11 56 -31 93 -43 37 -12 90 -34 117 -49
28 -16 68 -34 90 -41 22 -6 67 -27 100 -45 33 -17 71 -35 85 -39 14 -4 44 -21
67 -37 24 -16 60 -35 82 -43 22 -7 62 -29 89 -48 28 -19 63 -38 78 -41 15 -4
46 -20 68 -35 23 -15 103 -59 178 -97 220 -110 253 -128 284 -150 16 -12 59
-35 95 -52 37 -16 69 -34 72 -40 4 -5 33 -20 64 -32 32 -13 69 -31 83 -41 14
-9 54 -29 90 -43 36 -15 81 -37 100 -50 19 -12 52 -28 72 -35 20 -7 53 -25 73
-41 20 -16 60 -37 88 -46 29 -9 68 -27 87 -39 19 -12 67 -32 105 -45 39 -13
79 -29 91 -37 11 -7 58 -24 105 -38 46 -14 111 -38 144 -54 33 -16 89 -34 125
-41 36 -6 96 -25 134 -41 52 -22 97 -32 175 -40 58 -5 147 -14 198 -19 129
-14 253 -12 433 5 187 18 243 29 285 55 18 11 63 29 101 41 38 11 85 31 104
43 19 12 64 37 100 54 209 101 307 179 635 503 329 325 617 560 790 647 28 14
63 36 79 49 16 13 50 35 77 48 26 14 64 36 84 49 19 14 50 28 68 31 18 4 61
22 97 41 36 18 94 40 129 49 36 9 81 25 100 35 20 9 94 30 165 44 71 15 141
33 155 40 60 30 203 41 526 41 322 0 458 -11 515 -40 30 -15 152 -41 235 -50
33 -4 92 -20 132 -35 40 -16 108 -36 153 -44 44 -9 97 -24 117 -35 21 -10 72
-28 114 -40 41 -11 106 -36 145 -55 38 -19 83 -37 100 -40 18 -4 52 -20 76
-35 24 -16 68 -36 96 -45 29 -10 82 -33 118 -52 36 -19 73 -34 82 -34 9 0 37
-12 62 -26 25 -14 66 -34 91 -44 25 -10 68 -32 94 -49 26 -17 64 -36 84 -42
20 -7 52 -25 73 -41 20 -15 54 -35 76 -42 22 -8 64 -31 92 -50 29 -20 57 -36
64 -36 16 0 214 -101 261 -133 22 -15 45 -27 51 -27 7 0 36 -16 65 -36 30 -20
72 -43 94 -52 22 -8 63 -30 91 -49 28 -18 54 -33 58 -33 9 0 212 -96 246 -116
14 -8 54 -29 90 -46 36 -17 77 -40 93 -50 15 -11 55 -31 88 -44 33 -14 77 -35
97 -48 21 -12 60 -28 87 -36 28 -7 65 -21 83 -31 17 -10 71 -30 120 -45 48
-15 105 -37 127 -49 22 -13 76 -30 120 -39 44 -10 105 -28 135 -41 81 -35 125
-43 331 -60 229 -19 294 -19 489 0 194 19 212 22 280 52 30 14 84 35 120 48
67 25 215 99 308 153 153 91 326 241 592 513 74 76 150 150 169 163 18 14 86
72 150 129 64 57 143 122 175 143 32 21 82 55 111 74 79 52 113 74 190 120
156 93 188 110 243 130 31 12 71 30 87 40 17 10 65 27 108 39 43 12 95 30 115
40 20 10 86 29 146 41 60 12 127 28 150 36 98 35 192 46 431 51 318 7 524 -7
630 -41 44 -15 136 -35 205 -46 75 -11 147 -29 180 -44 30 -13 95 -32 144 -41
49 -9 105 -25 125 -35 20 -10 70 -28 111 -40 41 -12 93 -32 115 -45 22 -12 65
-30 95 -40 30 -10 88 -35 128 -57 40 -21 80 -38 88 -38 8 0 49 -18 90 -40 42
-22 81 -40 88 -40 15 0 229 -105 266 -130 14 -10 43 -23 64 -30 22 -7 66 -30
99 -51 33 -22 66 -39 72 -39 7 0 35 -15 61 -33 27 -18 65 -39 84 -47 46 -18
218 -108 250 -130 14 -9 45 -27 70 -38 25 -12 88 -46 140 -77 52 -30 115 -64
140 -75 114 -53 257 -124 280 -140 14 -9 41 -22 61 -29 20 -6 58 -26 85 -43
27 -17 76 -42 109 -56 33 -13 71 -32 85 -42 14 -10 52 -26 85 -35 33 -10 80
-28 105 -40 25 -13 79 -33 120 -46 41 -12 94 -33 118 -45 23 -13 77 -30 120
-39 42 -9 107 -30 144 -46 55 -25 91 -32 215 -44 242 -24 408 -29 538 -16 248
24 286 31 344 60 31 16 79 36 106 44 60 18 232 103 260 128 11 10 38 26 60 35
55 22 158 102 300 230 258 234 304 272 381 315 l79 44 165 0 165 0 99 -55
c144 -80 222 -161 289 -299 l52 -106 0 -140 0 -140 -47 -98 c-26 -53 -63 -118
-82 -143 -39 -51 -338 -342 -426 -415 -67 -55 -237 -185 -288 -219 -21 -14
-53 -37 -73 -52 -19 -15 -53 -35 -75 -44 -21 -9 -52 -26 -69 -38 -44 -31 -236
-126 -255 -126 -9 0 -42 -15 -73 -34 -31 -19 -83 -42 -115 -51 -31 -9 -86 -29
-122 -45 -36 -15 -87 -31 -115 -34 -27 -4 -117 -24 -200 -44 l-150 -37 -355 1
c-363 0 -400 3 -535 44 -33 9 -107 23 -165 30 -76 9 -123 20 -170 42 -36 16
-100 36 -144 44 -46 8 -100 25 -130 42 -28 16 -81 36 -118 45 -37 10 -94 30
-125 46 -32 16 -74 31 -93 35 -19 4 -60 19 -90 35 -30 16 -75 34 -100 41 -25
6 -67 25 -93 41 -27 16 -70 38 -96 48 -27 10 -64 30 -82 43 -19 14 -45 29 -59
33 -23 6 -264 123 -300 145 -8 5 -42 22 -75 38 -125 62 -196 99 -213 114 -9 9
-48 30 -87 47 -38 18 -76 38 -85 46 -8 7 -39 23 -69 35 -30 11 -66 30 -81 40
-15 10 -50 28 -78 39 -28 11 -70 34 -93 51 -23 16 -48 30 -54 30 -7 0 -37 16
-66 36 -30 20 -80 48 -112 61 -33 13 -75 34 -95 47 -21 13 -55 29 -77 36 -22
7 -60 25 -85 40 -25 16 -62 33 -83 38 -21 6 -59 24 -85 40 -26 16 -65 35 -87
42 -22 7 -65 27 -95 45 -30 19 -79 38 -108 44 -29 6 -79 24 -111 41 -33 16
-88 34 -123 40 -73 11 -103 20 -175 49 -34 13 -104 26 -200 36 -82 8 -175 19
-208 25 -85 15 -280 13 -383 -4 -48 -8 -126 -20 -174 -26 -49 -6 -116 -23
-155 -39 -37 -15 -90 -33 -118 -40 -27 -7 -70 -25 -95 -40 -25 -15 -61 -33
-80 -40 -19 -8 -51 -26 -70 -41 -19 -14 -60 -43 -90 -63 -135 -90 -232 -175
-495 -432 -158 -154 -327 -310 -386 -355 -57 -43 -126 -97 -154 -120 -27 -22
-69 -52 -93 -68 -23 -15 -66 -44 -94 -64 -28 -21 -56 -38 -61 -38 -5 0 -21 -8
-35 -19 -48 -33 -241 -130 -282 -141 -22 -6 -59 -24 -83 -40 -23 -15 -71 -36
-106 -45 -35 -9 -93 -29 -130 -45 -36 -16 -97 -34 -136 -40 -38 -6 -124 -25
-190 -41 -111 -28 -138 -30 -355 -36 -303 -7 -535 8 -650 41 -47 14 -130 30
-185 37 -69 8 -121 20 -168 41 -37 16 -102 36 -144 44 -41 8 -101 27 -132 44
-31 16 -78 35 -106 41 -27 7 -78 24 -112 40 -34 15 -88 35 -120 44 -32 9 -76
27 -98 40 -22 12 -65 30 -95 38 -30 9 -72 28 -93 42 -21 14 -56 33 -79 41 -23
8 -63 28 -88 44 -25 16 -71 38 -102 50 -31 11 -67 29 -80 39 -13 9 -39 24 -58
31 -19 8 -87 41 -150 73 -63 33 -148 77 -189 98 -41 21 -81 45 -90 53 -9 8
-45 28 -81 45 -36 16 -81 39 -100 50 -19 11 -84 44 -145 74 -60 29 -132 68
-160 85 -27 17 -54 32 -60 32 -5 0 -37 18 -70 40 -33 22 -64 40 -70 40 -9 0
-166 74 -267 126 -26 14 -66 31 -89 39 -23 9 -63 28 -88 43 -25 16 -71 37
-101 47 -30 10 -62 23 -70 30 -27 22 -74 42 -138 59 -35 9 -82 27 -105 40 -23
14 -73 30 -110 36 -37 6 -105 24 -149 40 -62 23 -118 34 -227 45 -81 8 -175
19 -211 25 -82 12 -282 12 -335 0 -22 -5 -100 -16 -173 -24 -98 -12 -152 -24
-205 -45 -40 -17 -91 -35 -114 -41 -55 -14 -231 -105 -264 -136 -14 -13 -29
-24 -34 -24 -5 0 -36 -20 -69 -45 -34 -25 -92 -68 -131 -96 -38 -27 -122 -102
-185 -167 -350 -356 -493 -483 -745 -663 -38 -27 -86 -62 -105 -77 -19 -15
-57 -39 -85 -53 -81 -43 -196 -104 -249 -132 -27 -15 -56 -27 -66 -27 -9 0
-45 -17 -81 -39 -35 -21 -82 -41 -104 -45 -22 -4 -74 -22 -115 -40 -41 -18
-110 -38 -153 -45 -43 -7 -131 -26 -195 -43 -109 -28 -133 -30 -352 -35 -306
-7 -537 8 -648 41 -46 14 -131 31 -190 37 -77 9 -124 20 -171 41 -35 16 -97
36 -138 44 -40 7 -99 27 -131 43 -31 16 -86 37 -122 46 -36 9 -84 27 -108 40
-24 13 -70 31 -102 39 -33 9 -83 27 -112 42 -28 14 -73 32 -98 40 -26 8 -65
26 -86 40 -21 15 -56 33 -77 40 -21 7 -64 29 -95 48 -31 19 -75 40 -97 47 -22
6 -58 24 -80 39 -22 15 -51 31 -64 35 -24 7 -204 99 -334 170 -41 22 -109 59
-153 82 -43 23 -90 49 -104 57 -14 8 -79 41 -145 72 -66 31 -134 67 -151 80
-16 13 -48 31 -69 40 -22 9 -59 29 -82 45 -24 17 -62 37 -85 45 -23 8 -63 28
-88 44 -25 16 -58 32 -75 36 -16 3 -53 19 -81 35 -28 16 -71 36 -95 44 -24 9
-64 28 -89 44 -25 16 -63 34 -85 41 -22 7 -67 27 -101 46 -33 18 -83 38 -110
44 -27 6 -75 24 -106 40 -32 16 -86 34 -120 40 -73 11 -103 20 -175 49 -35 14
-105 26 -209 36 -85 9 -179 20 -207 26 -70 13 -281 13 -338 0 -26 -6 -103 -17
-172 -25 -92 -11 -144 -23 -194 -44 -37 -16 -88 -34 -113 -40 -58 -14 -203
-88 -268 -136 -27 -20 -54 -36 -58 -36 -5 0 -20 -10 -34 -21 -14 -11 -65 -50
-115 -88 -49 -37 -145 -120 -212 -185 -155 -149 -199 -183 -303 -234 -76 -38
-95 -43 -180 -48 -131 -8 -204 6 -318 62 -134 66 -221 153 -288 291 l-48 98
-1 155 0 155 44 85 c24 46 67 114 96 150 58 71 248 259 335 330 30 25 93 79
140 120 73 64 155 127 218 165 9 6 44 28 78 50 168 108 321 195 379 215 28 10
66 27 85 38 19 11 71 30 115 42 44 12 97 31 118 42 21 11 84 28 140 39 56 10
129 28 162 38 33 11 94 25 135 31 41 7 82 13 90 15 36 7 497 3 617 -5z"/>
<path d="M33428 45939 c-84 -19 -154 -84 -243 -221 -16 -26 -57 -84 -90 -129
-33 -45 -73 -101 -90 -124 -16 -24 -50 -68 -75 -100 -25 -31 -58 -74 -75 -95
-57 -72 -110 -135 -171 -205 -34 -38 -88 -102 -121 -142 -148 -178 -692 -731
-898 -915 -66 -58 -129 -117 -140 -130 -20 -24 -145 -134 -201 -179 -17 -13
-103 -87 -191 -164 -137 -121 -251 -214 -547 -448 -34 -26 -104 -77 -156 -113
-52 -36 -129 -92 -170 -124 -41 -33 -113 -83 -159 -112 -161 -102 -190 -141
-198 -267 -6 -92 24 -256 61 -336 13 -30 32 -91 41 -137 9 -46 27 -101 40
-124 13 -22 35 -86 49 -142 14 -56 32 -112 40 -125 9 -13 27 -68 41 -124 13
-55 33 -121 44 -145 10 -25 27 -83 36 -129 9 -46 28 -111 42 -143 13 -33 31
-93 39 -134 8 -41 29 -109 48 -151 19 -42 39 -107 45 -145 7 -38 24 -91 38
-119 14 -28 34 -93 44 -145 11 -52 28 -115 40 -141 11 -25 30 -91 41 -146 11
-55 29 -117 40 -138 10 -21 28 -78 38 -126 11 -48 33 -117 50 -152 16 -36 35
-92 41 -124 6 -33 24 -88 40 -122 16 -35 36 -95 43 -135 8 -40 26 -98 40 -128
14 -31 33 -92 42 -135 9 -44 27 -102 41 -128 13 -26 31 -80 40 -120 9 -40 28
-97 44 -128 15 -30 35 -82 44 -115 10 -32 28 -77 41 -99 12 -22 32 -76 44
-120 12 -44 30 -93 39 -110 10 -16 26 -55 36 -85 10 -30 33 -84 51 -119 19
-35 34 -71 34 -81 0 -9 16 -43 35 -75 20 -32 49 -86 65 -119 36 -76 73 -116
106 -116 16 0 44 17 77 48 75 69 138 118 246 193 109 74 117 91 75 146 -15 19
-43 65 -64 102 -20 36 -41 75 -47 86 -35 63 -104 220 -114 262 -7 26 -22 68
-34 93 -13 25 -32 80 -44 123 -12 43 -32 99 -45 125 -13 26 -32 83 -41 127
-10 44 -29 102 -42 128 -13 27 -32 86 -42 131 -10 46 -30 112 -44 147 -14 35
-31 93 -37 128 -6 35 -25 97 -41 137 -16 41 -35 105 -43 143 -8 38 -26 92 -41
121 -15 29 -33 84 -41 123 -8 39 -28 100 -43 136 -15 36 -36 102 -46 146 -9
43 -30 111 -45 150 -15 38 -33 101 -39 139 -7 38 -23 90 -36 116 -13 26 -31
85 -41 131 -9 46 -29 109 -45 141 -16 31 -35 87 -43 125 -8 37 -25 94 -39 125
-14 31 -33 92 -43 135 -9 43 -29 110 -45 148 -15 39 -33 102 -40 140 -6 39
-23 95 -36 125 -14 30 -33 94 -43 143 -11 48 -30 106 -44 130 -13 23 -29 67
-36 97 -6 30 -21 84 -32 119 l-21 65 22 41 c12 23 36 49 53 60 17 10 48 32 67
50 20 17 81 63 136 100 112 76 172 121 260 195 82 69 161 130 204 159 20 13
97 79 172 145 75 67 167 145 205 175 38 29 105 87 149 130 44 42 123 114 175
160 135 121 456 438 740 731 106 109 317 347 396 446 50 62 122 148 159 189
66 75 119 143 200 262 48 69 141 161 173 169 14 4 45 -3 80 -19 31 -14 84 -31
117 -37 33 -7 91 -25 128 -41 38 -16 98 -34 135 -40 37 -6 105 -26 152 -44 47
-18 108 -36 135 -39 52 -7 142 -33 160 -46 23 -16 85 -31 174 -41 53 -6 138
-24 189 -40 51 -17 143 -37 205 -45 61 -8 158 -26 214 -39 55 -14 163 -32 240
-41 76 -8 194 -28 263 -44 75 -17 199 -35 310 -44 102 -9 239 -28 305 -41 71
-15 188 -29 285 -35 270 -16 789 -40 880 -40 109 0 207 -23 241 -56 15 -14 33
-47 39 -72 7 -26 24 -73 37 -105 13 -32 30 -93 39 -137 8 -43 26 -103 39 -132
14 -30 32 -90 41 -133 9 -44 29 -105 44 -135 15 -30 35 -90 44 -132 8 -43 26
-99 39 -125 14 -27 34 -90 46 -142 12 -52 30 -114 42 -140 11 -25 28 -84 39
-132 10 -47 30 -112 43 -145 14 -32 31 -88 37 -124 7 -36 25 -92 41 -126 16
-33 38 -100 49 -149 11 -49 30 -103 41 -121 11 -18 29 -76 40 -131 12 -54 30
-115 41 -136 10 -21 28 -78 38 -126 10 -49 30 -115 43 -147 14 -33 32 -93 41
-134 9 -41 30 -104 46 -140 16 -36 36 -98 45 -138 8 -40 26 -94 39 -121 14
-26 32 -86 42 -132 9 -46 27 -108 40 -137 13 -29 28 -81 35 -115 6 -34 26
-109 44 -167 19 -58 41 -154 50 -214 8 -60 22 -130 31 -155 37 -111 45 -184
51 -491 7 -401 -5 -602 -45 -730 -16 -52 -33 -124 -36 -160 -11 -99 -25 -164
-51 -228 -12 -31 -28 -91 -35 -132 -7 -41 -24 -100 -37 -130 -14 -30 -34 -88
-44 -129 -11 -40 -33 -97 -49 -126 -17 -29 -37 -73 -44 -98 -7 -25 -23 -59
-34 -75 -12 -16 -31 -53 -42 -83 -12 -30 -34 -74 -50 -99 -15 -25 -31 -56 -35
-70 -16 -54 -137 -261 -211 -360 -14 -19 -53 -78 -87 -130 -34 -53 -82 -122
-107 -154 -25 -32 -63 -82 -85 -111 -84 -111 -212 -259 -333 -387 -82 -87 -81
-101 9 -146 39 -20 94 -37 135 -44 38 -5 125 -21 194 -34 154 -30 173 -30 212
-1 17 12 92 98 167 191 165 205 156 193 263 354 48 72 92 134 98 137 6 4 24
32 41 63 30 57 58 104 131 216 21 32 38 65 38 74 0 8 13 36 28 61 16 25 35 64
44 86 9 22 32 66 51 98 20 33 39 73 43 90 3 18 21 57 40 87 18 30 38 75 44
100 6 25 23 65 36 90 14 25 34 82 45 128 10 45 30 104 43 130 13 26 32 90 40
142 9 52 27 119 41 150 30 71 32 78 45 185 6 50 24 140 41 201 40 150 51 306
50 714 -1 447 -11 597 -50 722 -16 53 -37 148 -45 211 -9 72 -23 131 -36 157
-11 22 -32 91 -45 153 -14 62 -34 134 -46 160 -11 26 -29 88 -39 137 -10 49
-28 107 -40 130 -12 23 -30 81 -40 130 -10 49 -30 111 -45 139 -14 28 -32 83
-40 122 -8 39 -28 101 -44 137 -16 37 -36 102 -45 144 -8 43 -24 95 -35 116
-10 20 -29 85 -41 142 -13 58 -33 126 -46 151 -12 25 -30 81 -39 125 -9 43
-29 106 -45 139 -16 33 -34 89 -41 125 -6 36 -25 93 -41 127 -15 35 -35 95
-42 135 -8 40 -28 107 -44 148 -16 41 -35 105 -41 141 -6 37 -24 95 -40 130
-16 35 -34 96 -40 134 -7 39 -25 96 -42 127 -16 32 -36 90 -44 129 -8 39 -28
101 -44 137 -15 37 -34 96 -41 132 -7 36 -26 97 -41 135 -15 39 -33 98 -39
133 -6 35 -24 96 -41 137 -16 40 -35 103 -43 139 -25 120 -107 199 -246 236
-29 8 -121 9 -303 5 -164 -4 -303 -3 -372 4 -60 6 -189 16 -285 21 -428 25
-499 32 -639 59 -80 16 -209 34 -286 40 -154 13 -234 25 -310 47 -27 8 -124
23 -215 34 -91 11 -196 29 -235 40 -38 11 -133 29 -210 39 -84 12 -167 30
-208 45 -38 15 -116 33 -174 42 -58 9 -138 28 -177 44 -39 16 -89 31 -111 35
-83 13 -142 28 -195 50 -30 13 -95 31 -144 40 -50 9 -115 27 -147 40 -31 13
-87 32 -125 41 -38 9 -87 27 -109 39 -22 13 -67 31 -100 40 -33 10 -89 30
-125 45 -76 32 -131 41 -182 29z"/>
<path d="M33753 44680 c-47 -24 -130 -110 -188 -194 -22 -32 -58 -80 -80 -106
-45 -53 -87 -107 -176 -230 -76 -105 -163 -205 -325 -377 -68 -72 -146 -157
-174 -190 -27 -32 -89 -94 -137 -138 -48 -44 -144 -135 -213 -201 -127 -124
-278 -260 -385 -349 -33 -27 -76 -64 -95 -81 -59 -54 -111 -97 -210 -172 -122
-93 -183 -142 -205 -165 -20 -21 -161 -117 -171 -117 -17 0 -136 -93 -205
-160 -70 -68 -78 -80 -88 -131 -17 -80 1 -209 39 -291 16 -35 36 -98 44 -140
8 -43 24 -98 35 -123 11 -25 30 -92 42 -148 11 -56 30 -118 41 -137 11 -19 28
-73 39 -121 22 -103 33 -133 58 -165 11 -14 25 -57 31 -97 7 -39 27 -106 45
-147 19 -41 39 -106 45 -145 6 -38 22 -94 35 -123 14 -29 31 -89 40 -133 8
-44 28 -110 44 -147 16 -37 34 -98 41 -137 7 -41 24 -91 41 -122 17 -29 38
-90 49 -144 11 -51 29 -108 41 -128 11 -19 29 -76 40 -125 10 -50 28 -113 39
-139 12 -26 30 -89 40 -139 11 -50 31 -115 45 -144 14 -29 31 -82 39 -118 8
-39 24 -80 40 -101 15 -19 36 -59 46 -88 17 -47 155 -326 242 -487 48 -90 88
-107 176 -76 23 8 67 20 97 25 31 6 83 22 115 37 31 14 95 31 141 37 75 11 84
15 87 35 2 15 -10 38 -38 69 -61 70 -164 232 -196 308 -11 28 -32 69 -47 90
-14 22 -31 60 -37 85 -7 24 -25 63 -41 86 -15 23 -37 73 -47 111 -11 38 -31
91 -45 118 -14 28 -31 82 -38 120 -6 39 -24 99 -39 135 -16 36 -33 99 -40 140
-6 41 -24 103 -40 137 -16 34 -35 95 -41 135 -7 48 -21 90 -41 122 -18 30 -37
85 -48 137 -11 48 -30 109 -43 136 -14 26 -32 85 -41 130 -10 46 -28 109 -41
140 -12 32 -31 96 -40 143 -10 47 -28 106 -40 131 -13 25 -31 83 -39 129 -9
46 -28 103 -42 127 -27 47 -48 112 -58 180 -3 24 -19 69 -35 100 -16 32 -35
90 -42 128 -6 39 -24 102 -40 140 -33 84 -54 193 -45 240 8 40 55 99 97 120
15 8 48 32 73 52 24 21 62 50 83 65 21 15 76 57 123 93 47 37 107 83 134 103
27 20 97 82 155 136 58 54 138 123 176 152 39 28 128 109 198 178 71 70 146
138 166 151 21 13 76 65 122 117 46 51 134 143 196 203 61 61 145 151 186 200
41 50 102 119 135 155 34 36 88 98 119 138 32 40 90 112 129 161 38 49 81 105
95 125 32 48 98 80 147 73 20 -4 67 -22 104 -41 40 -21 100 -41 147 -50 44 -9
107 -27 140 -41 33 -13 104 -32 158 -40 54 -9 132 -27 174 -40 41 -13 129 -31
195 -39 65 -9 161 -30 212 -46 50 -17 111 -30 135 -30 82 -1 253 -29 332 -55
67 -22 115 -29 290 -41 116 -8 287 -26 380 -40 128 -19 240 -28 455 -35 326
-11 313 -8 369 -105 36 -64 55 -122 66 -197 3 -26 17 -71 30 -100 14 -29 32
-91 40 -138 9 -46 28 -109 41 -139 14 -30 34 -95 45 -143 10 -49 32 -112 48
-140 16 -29 34 -83 41 -122 7 -38 26 -97 41 -131 16 -33 35 -94 43 -135 8 -42
26 -103 39 -135 14 -33 32 -95 41 -139 8 -44 26 -106 41 -139 14 -32 32 -91
40 -131 7 -41 27 -100 44 -132 17 -32 38 -94 47 -138 9 -44 27 -100 40 -125
13 -25 32 -86 43 -135 11 -50 30 -112 41 -139 12 -26 28 -88 36 -137 8 -49 28
-125 44 -168 23 -64 31 -108 40 -218 6 -76 17 -200 24 -276 13 -129 10 -259
-9 -372 -3 -16 -9 -94 -14 -172 -8 -115 -16 -159 -40 -230 -16 -48 -36 -126
-44 -173 -8 -47 -26 -110 -40 -140 -14 -31 -31 -78 -38 -105 -6 -28 -24 -72
-39 -100 -15 -27 -35 -73 -44 -102 -10 -28 -27 -64 -39 -80 -12 -15 -39 -61
-61 -103 -108 -211 -157 -296 -204 -356 -12 -16 -41 -54 -65 -84 -197 -256
-263 -333 -393 -461 -183 -179 -290 -274 -397 -351 -94 -68 -119 -100 -102
-128 4 -7 37 -25 74 -42 36 -16 73 -35 81 -42 8 -8 38 -21 67 -30 29 -10 69
-29 90 -43 56 -38 180 -86 206 -79 12 3 58 37 102 77 44 39 103 88 130 109 28
21 86 77 130 126 44 48 116 125 160 170 91 94 145 159 214 259 27 39 65 90 86
115 87 108 115 145 115 156 0 6 18 37 40 68 22 32 52 79 66 104 14 26 31 58
39 72 8 14 27 52 43 85 44 90 105 207 125 236 9 14 24 50 33 80 9 30 29 79 44
109 16 30 34 83 40 117 6 34 22 86 35 115 13 29 33 105 44 168 11 63 29 136
41 162 22 50 30 103 55 378 24 268 28 390 17 496 -6 54 -16 160 -22 234 -18
226 -28 292 -54 357 -14 34 -32 104 -40 155 -8 52 -25 121 -39 154 -14 33 -31
92 -38 130 -6 38 -25 100 -41 137 -16 38 -36 105 -45 150 -9 47 -27 102 -44
132 -16 28 -36 86 -45 129 -9 43 -27 100 -40 127 -14 26 -33 88 -44 136 -10
48 -28 110 -40 136 -12 26 -28 85 -37 130 -8 45 -28 111 -43 147 -16 36 -34
97 -40 135 -7 39 -24 90 -39 115 -36 61 -39 72 -51 145 -5 34 -23 91 -40 126
-16 35 -36 100 -45 144 -9 44 -26 100 -36 125 -11 25 -29 86 -39 135 -10 50
-30 115 -43 145 -14 30 -32 91 -41 134 -9 44 -28 100 -42 125 -14 25 -34 77
-44 116 -16 58 -27 76 -62 108 -24 21 -56 45 -72 54 -41 22 -184 31 -511 32
-304 2 -414 10 -563 41 -59 13 -170 25 -282 31 -212 11 -274 20 -366 55 -49
18 -100 27 -197 34 -137 11 -254 32 -312 56 -18 7 -91 21 -161 29 -70 9 -159
27 -197 41 -39 13 -113 31 -165 39 -52 9 -124 28 -161 44 -36 16 -95 35 -131
41 -36 6 -87 24 -115 40 -27 15 -79 36 -115 46 -36 9 -91 31 -124 48 -50 26
-71 31 -150 34 -77 3 -97 0 -133 -18z"/>
<path d="M36339 42831 c-68 -22 -121 -65 -168 -135 -26 -39 -55 -91 -65 -116
-10 -25 -25 -53 -33 -62 -8 -9 -32 -50 -53 -90 -20 -40 -46 -91 -58 -113 -11
-22 -48 -94 -80 -160 -72 -145 -118 -230 -166 -309 -20 -33 -36 -65 -36 -72 0
-6 -12 -29 -27 -50 -14 -21 -37 -66 -51 -99 -13 -33 -33 -72 -43 -87 -11 -15
-26 -45 -33 -67 -8 -21 -31 -63 -50 -91 -20 -29 -36 -58 -36 -65 0 -6 -17 -38
-38 -71 -21 -32 -46 -79 -56 -103 -9 -25 -25 -56 -35 -70 -19 -29 -131 -255
-131 -267 0 -3 -18 -33 -40 -66 -22 -33 -40 -66 -40 -73 0 -7 -10 -25 -22 -40
-12 -15 -76 -136 -143 -269 -168 -331 -192 -376 -213 -400 -11 -12 -27 -41
-36 -66 -10 -25 -30 -65 -46 -90 -15 -25 -31 -56 -35 -70 -18 -60 -47 -100
-90 -125 -56 -33 -77 -29 -176 30 -41 25 -79 45 -85 45 -6 0 -69 30 -140 66
-71 37 -162 84 -202 104 -40 21 -81 44 -90 53 -9 8 -46 29 -82 46 -36 17 -76
38 -90 45 -14 8 -74 38 -135 67 -60 30 -123 63 -140 74 -32 22 -96 55 -289
154 -124 62 -127 63 -195 59 -62 -3 -76 -8 -135 -48 -60 -41 -67 -50 -97 -120
-44 -104 -48 -154 -16 -222 14 -29 36 -66 50 -81 25 -28 134 -93 237 -143 30
-14 62 -32 71 -40 20 -18 221 -121 272 -140 21 -7 51 -22 66 -33 15 -11 47
-27 72 -37 24 -10 62 -30 84 -45 22 -15 58 -34 79 -43 21 -9 54 -29 74 -44 21
-16 57 -36 82 -46 25 -10 65 -30 90 -45 25 -15 66 -35 92 -44 26 -8 62 -27 80
-40 18 -13 47 -29 65 -35 17 -6 62 -29 99 -51 37 -23 72 -41 77 -41 5 0 30
-15 56 -33 25 -19 66 -42 90 -51 25 -10 56 -25 70 -35 44 -31 102 -45 186 -45
54 0 90 6 110 16 47 25 120 107 150 168 15 30 34 62 41 71 8 9 31 49 52 90 21
41 45 88 54 104 9 17 45 87 80 157 96 195 141 279 171 322 15 21 27 44 27 50
0 7 14 34 32 62 17 27 41 75 54 106 12 32 31 70 42 85 10 16 27 48 36 73 10
25 28 59 40 75 12 17 37 59 55 95 18 36 52 101 76 145 25 44 56 105 70 135 43
92 116 234 128 248 10 12 46 80 126 238 20 38 46 83 57 100 12 16 25 40 29 54
4 14 21 52 39 85 18 33 40 80 49 103 10 24 30 60 46 80 15 21 36 58 45 83 9
26 25 54 36 64 11 10 29 43 40 73 12 30 29 67 39 81 17 25 141 275 141 286 0
2 18 32 40 66 22 34 40 66 40 71 0 6 14 29 31 53 34 47 79 188 79 247 0 48
-32 133 -62 165 -32 34 -164 94 -218 98 -25 3 -57 1 -71 -4z"/>
</g>
</svg>
