<?xml version="1.0" standalone="no"?>
<!DOCTYPE svg PUBLIC "-//W3C//DTD SVG 20010904//EN"
 "http://www.w3.org/TR/2001/REC-SVG-20010904/DTD/svg10.dtd">
<svg version="1.0" xmlns="http://www.w3.org/2000/svg"
 width="7200.000000pt" height="7200.000000pt" viewBox="0 0 7200.000000 7200.000000"
 preserveAspectRatio="xMidYMid meet">

<g transform="translate(0.000000,7200.000000) scale(0.100000,-0.100000)"
fill="#000000" stroke="none">
<path d="M35370 58809 c-1116 -36 -2280 -177 -3370 -410 -257 -55 -1435 -330
-1755 -410 -2152 -537 -4184 -1445 -6037 -2695 -291 -196 -1103 -776 -1411
-1007 -1456 -1092 -2752 -2389 -3846 -3846 -229 -306 -809 -1118 -1005 -1409
-1136 -1683 -1983 -3501 -2536 -5442 -122 -429 -433 -1715 -569 -2350 -560
-2626 -560 -5374 0 -8000 136 -635 447 -1921 569 -2350 511 -1792 1287 -3511
2291 -5072 265 -412 868 -1270 1252 -1781 1090 -1452 2392 -2754 3844 -3844
308 -231 1120 -811 1411 -1007 1854 -1251 3884 -2157 6037 -2695 322 -80 1499
-355 1755 -410 2626 -560 5374 -560 8000 0 256 55 1433 330 1755 410 2004 501
3931 1334 5667 2450 412 265 1270 868 1781 1252 1452 1090 2754 2392 3844
3844 224 299 804 1111 996 1394 1182 1749 2064 3667 2605 5669 105 387 406
1647 511 2140 560 2626 560 5374 0 8000 -69 323 -344 1491 -434 1845 -504
1977 -1325 3865 -2426 5577 -265 412 -867 1268 -1253 1783 -1088 1450 -2389
2751 -3843 3842 -308 231 -1120 811 -1411 1007 -1855 1252 -3871 2152 -6037
2695 -284 71 -1480 351 -1730 405 -1500 323 -3094 465 -4655 415z m1265 -1409
c1220 -43 2380 -190 3549 -450 1533 -341 2631 -685 3821 -1195 1464 -628 2749
-1382 4175 -2451 1083 -812 2067 -1722 2945 -2725 811 -925 1670 -2112 2287
-3159 916 -1555 1604 -3216 2043 -4931 433 -1696 615 -2835 697 -4369 17 -311
17 -1449 0 -1760 -82 -1535 -264 -2672 -697 -4369 -439 -1715 -1127 -3376
-2043 -4931 -527 -894 -1273 -1950 -1970 -2789 -625 -752 -1362 -1507 -2103
-2156 -852 -747 -1932 -1540 -2912 -2139 -1615 -986 -3366 -1727 -5182 -2191
-1696 -434 -2833 -616 -4365 -697 -310 -17 -1450 -17 -1760 0 -1532 81 -2669
263 -4365 697 -1957 500 -3844 1324 -5557 2426 -701 451 -1535 1062 -2167
1587 -751 624 -1508 1363 -2156 2103 -811 925 -1671 2113 -2287 3159 -916
1555 -1604 3216 -2043 4931 -433 1696 -615 2835 -697 4369 -17 311 -17 1449 0
1760 82 1534 264 2673 697 4369 439 1715 1127 3376 2043 4931 527 894 1273
1950 1970 2789 624 750 1363 1508 2102 2156 894 782 2019 1603 3038 2214 1587
952 3291 1665 5053 2116 1593 407 2734 597 4084 680 545 34 1262 44 1800 25z"/>
<path d="M35370 56309 c-4840 -155 -9425 -2144 -12860 -5579 -2677 -2677
-4490 -6063 -5224 -9760 -423 -2132 -479 -4383 -160 -6535 705 -4764 3180
-9066 6962 -12098 2803 -2248 6208 -3662 9767 -4056 4527 -502 9006 588 12760
3104 3366 2256 5938 5536 7320 9335 1544 4245 1525 8963 -55 13190 -1397 3738
-3945 6960 -7265 9185 -3323 2227 -7225 3343 -11245 3214z m661 -7691 c80 -21
169 -49 196 -63 28 -14 55 -25 59 -25 19 0 139 -81 200 -134 89 -79 149 -161
192 -263 l37 -88 3 -326 3 -326 -24 -28 -24 -28 -304 12 c-167 7 -407 16 -534
21 -415 17 -979 7 -1760 -30 -705 -33 -755 -34 -771 -18 -26 26 -29 74 -24
413 l5 330 36 81 c76 171 226 312 426 401 89 39 276 91 373 103 36 4 448 7
915 6 l850 -1 146 -37z m344 -1928 c295 -11 480 -22 710 -45 83 -8 238 -19
345 -25 107 -6 274 -21 370 -35 96 -13 241 -29 322 -35 81 -6 192 -20 247 -30
55 -11 159 -27 231 -35 72 -8 177 -24 233 -36 56 -11 157 -29 224 -39 68 -11
158 -28 200 -39 43 -11 116 -25 163 -31 47 -6 119 -22 160 -35 41 -13 98 -26
125 -30 28 -3 100 -19 160 -35 61 -16 144 -38 185 -49 148 -38 414 -118 535
-161 44 -16 103 -34 130 -41 28 -7 77 -25 110 -41 33 -15 66 -28 74 -28 31 0
475 -209 521 -245 8 -6 36 -24 62 -39 64 -36 211 -156 258 -208 61 -70 88
-137 125 -300 21 -99 69 -162 158 -211 74 -41 86 -44 219 -57 57 -6 159 -22
228 -35 69 -13 170 -29 224 -35 55 -6 135 -19 178 -30 43 -11 133 -29 201 -39
67 -11 151 -29 187 -40 36 -10 101 -25 145 -32 44 -6 122 -25 174 -40 51 -16
102 -29 113 -29 11 0 54 -11 95 -25 42 -14 113 -34 157 -45 45 -10 106 -28
137 -39 31 -10 83 -24 115 -31 97 -20 115 -57 50 -104 -37 -27 -255 -100 -346
-116 -36 -6 -96 -20 -133 -31 -37 -11 -117 -27 -177 -34 -60 -8 -149 -24 -197
-34 -48 -11 -144 -27 -213 -36 -68 -9 -161 -25 -206 -35 -45 -11 -124 -24
-175 -30 -52 -7 -173 -24 -270 -40 -97 -16 -232 -34 -300 -40 -68 -6 -189 -21
-269 -35 -80 -13 -209 -29 -288 -35 -79 -6 -218 -21 -310 -35 -92 -13 -245
-29 -339 -34 -95 -6 -224 -18 -285 -25 -206 -27 -301 -35 -498 -46 -107 -6
-262 -17 -345 -25 -306 -30 -376 -35 -625 -45 -140 -6 -313 -15 -385 -21 -297
-22 -675 -40 -1070 -49 -231 -6 -597 -17 -814 -25 -1037 -39 -2989 -39 -4016
0 -215 8 -580 19 -810 25 -429 10 -628 19 -1000 45 -115 8 -318 19 -450 25
-267 11 -298 13 -575 40 -107 11 -285 24 -395 30 -183 10 -366 27 -535 50 -36
5 -144 14 -240 20 -96 6 -254 22 -350 36 -96 13 -235 29 -310 34 -137 11 -202
19 -345 44 -44 8 -127 20 -185 26 -58 6 -186 24 -285 39 -99 16 -232 34 -295
40 -63 7 -151 21 -195 31 -44 11 -136 27 -205 35 -69 9 -162 25 -207 35 -46
11 -124 24 -175 30 -51 6 -133 22 -183 35 -49 13 -117 29 -150 35 -72 14 -292
83 -333 104 -43 22 -74 64 -63 85 11 20 170 83 251 100 30 7 89 22 130 35 41
13 114 29 163 35 48 7 116 20 150 31 34 11 107 26 162 35 55 9 141 27 191 40
50 13 134 28 188 34 53 6 139 21 189 32 137 31 522 96 694 118 106 13 185 52
245 121 50 56 62 89 78 198 15 109 66 207 143 277 82 75 196 154 322 222 94
51 343 160 385 168 19 4 53 16 74 27 39 20 161 64 261 95 28 8 77 24 110 35
33 11 105 31 160 44 55 14 123 33 150 43 28 10 77 24 110 31 33 6 96 22 140
35 44 13 109 29 145 35 36 6 112 24 170 40 58 15 132 31 165 35 33 4 103 17
155 30 52 13 133 29 180 35 47 6 132 21 190 35 58 13 152 29 210 35 58 7 161
23 230 36 69 14 190 32 270 40 80 8 198 24 262 35 64 10 202 26 305 34 103 8
256 24 338 35 83 11 242 24 355 30 113 6 302 20 420 31 280 25 558 38 1020 49
442 10 1581 4 1965 -10z m-10490 -2996 c16 -8 59 -23 95 -33 36 -10 83 -26
105 -35 22 -10 85 -28 140 -41 55 -13 119 -30 141 -39 23 -8 76 -19 118 -26
42 -6 109 -23 149 -36 40 -14 106 -29 147 -35 41 -6 120 -21 175 -34 55 -13
135 -28 178 -34 43 -6 126 -22 185 -35 59 -14 159 -30 222 -36 63 -6 196 -24
295 -40 99 -16 229 -34 290 -40 60 -6 166 -20 235 -30 69 -11 190 -24 270 -30
80 -6 237 -22 350 -35 113 -13 246 -26 295 -30 179 -12 354 -26 545 -45 230
-22 296 -27 575 -41 116 -5 318 -19 450 -30 132 -10 434 -26 670 -34 237 -8
473 -17 525 -20 1109 -66 4289 -75 5575 -15 242 11 631 27 865 35 234 8 533
24 665 35 132 10 373 26 535 35 162 9 383 24 490 35 192 19 368 33 545 45 50
3 164 15 255 26 239 28 242 28 395 39 77 6 201 19 275 30 74 11 205 27 290 35
85 8 238 28 340 44 102 17 228 37 280 45 52 8 140 24 195 35 136 27 294 57
453 86 73 13 160 33 195 44 34 11 91 25 127 31 64 11 195 48 340 96 120 40
208 64 233 64 13 0 32 -9 42 -20 17 -19 18 -28 6 -133 -7 -61 -24 -164 -37
-228 -13 -64 -31 -170 -39 -235 -9 -66 -26 -168 -40 -229 -13 -60 -29 -157
-35 -215 -6 -58 -22 -154 -35 -215 -12 -60 -28 -157 -35 -215 -6 -58 -25 -168
-41 -245 -32 -158 -45 -178 -121 -190 -24 -3 -81 -17 -128 -30 -47 -13 -125
-31 -175 -39 -49 -9 -119 -25 -155 -36 -36 -10 -110 -26 -165 -35 -54 -9 -129
-25 -165 -35 -36 -11 -112 -27 -170 -35 -58 -9 -135 -25 -171 -35 -37 -11
-117 -27 -177 -35 -61 -8 -155 -25 -209 -39 -54 -14 -127 -28 -163 -31 -36 -4
-114 -18 -174 -31 -61 -13 -168 -31 -239 -39 -71 -9 -171 -24 -221 -35 -50
-11 -154 -26 -231 -35 -77 -8 -185 -24 -240 -35 -55 -11 -170 -28 -255 -36
-85 -8 -218 -26 -296 -39 -77 -13 -187 -27 -245 -30 -57 -4 -183 -18 -279 -31
-96 -12 -238 -28 -315 -34 -234 -17 -373 -30 -535 -50 -85 -10 -249 -24 -365
-30 -115 -6 -304 -20 -420 -30 -220 -20 -420 -32 -820 -50 -132 -6 -368 -17
-525 -25 -157 -8 -402 -20 -545 -25 -333 -14 -2433 -14 -2755 0 -684 28 -1555
76 -1819 100 -119 11 -314 24 -433 30 -119 6 -308 22 -420 35 -112 14 -288 30
-393 35 -104 6 -260 20 -345 30 -85 11 -237 29 -338 40 -101 11 -233 29 -295
40 -62 10 -175 24 -252 30 -149 12 -226 22 -334 45 -37 8 -125 21 -196 30 -71
9 -183 26 -249 39 -67 13 -159 27 -206 30 -82 7 -243 36 -535 96 -77 16 -185
36 -240 45 -55 8 -134 25 -175 36 -41 11 -127 27 -190 35 -63 8 -153 25 -200
38 -47 14 -116 30 -155 36 -38 6 -98 20 -133 30 -34 11 -93 25 -130 31 -37 6
-106 22 -153 35 -47 13 -128 31 -179 40 -114 19 -135 27 -154 56 -19 29 -71
280 -86 419 -7 57 -22 154 -35 214 -13 61 -29 157 -35 215 -7 58 -22 155 -35
216 -13 61 -31 166 -40 234 -9 68 -23 153 -31 189 -17 71 -54 312 -54 349 0
26 33 62 58 62 9 0 30 -7 47 -16z m1281 -2819 c27 -8 96 -22 154 -30 58 -9
150 -26 206 -40 55 -13 141 -29 190 -35 49 -7 136 -22 194 -35 58 -13 152 -29
210 -35 58 -7 157 -23 220 -36 63 -14 165 -29 225 -35 61 -5 171 -20 245 -34
74 -13 182 -29 240 -35 58 -6 173 -22 255 -35 83 -13 224 -31 315 -39 91 -9
219 -25 285 -36 66 -11 203 -25 305 -30 102 -6 277 -22 390 -35 113 -14 295
-31 405 -40 110 -8 265 -21 345 -29 150 -15 343 -28 680 -46 107 -6 265 -17
350 -25 160 -15 514 -30 915 -40 127 -3 275 -8 330 -10 303 -16 1453 -24 1985
-15 1080 18 1681 39 2130 75 102 8 282 19 400 25 231 11 383 23 605 45 77 8
221 19 320 25 99 5 212 14 250 19 130 19 249 31 448 46 109 8 253 24 320 35
67 11 196 27 287 35 91 9 233 27 315 40 83 13 197 29 255 35 58 6 166 22 240
35 74 13 185 29 245 34 61 6 162 21 225 35 63 13 162 29 220 36 58 6 152 22
210 35 58 13 146 28 195 35 50 6 146 24 215 40 69 15 150 31 180 34 30 4 95
16 144 28 l89 22 20 -25 c17 -21 19 -34 13 -111 -3 -48 -19 -154 -35 -235 -16
-81 -35 -195 -41 -253 -7 -58 -21 -142 -31 -187 -10 -46 -26 -139 -34 -209 -9
-69 -25 -169 -36 -222 -11 -54 -27 -149 -35 -212 -8 -63 -25 -167 -39 -230
-13 -63 -26 -144 -30 -179 -6 -52 -13 -70 -35 -93 l-28 -28 -329 0 c-335 0
-372 -4 -464 -42 -89 -38 -165 -151 -176 -264 -6 -61 21 -162 62 -229 14 -22
34 -60 45 -85 12 -25 27 -52 35 -60 7 -8 30 -43 49 -77 20 -35 52 -91 73 -125
20 -35 48 -85 63 -113 15 -27 43 -78 63 -112 21 -35 53 -90 72 -123 58 -100
106 -182 146 -250 21 -36 49 -85 62 -110 12 -25 34 -63 48 -85 14 -22 45 -74
69 -115 24 -41 56 -96 72 -121 15 -25 28 -50 28 -55 0 -5 15 -32 33 -59 73
-109 70 -156 -13 -218 -65 -48 -201 -205 -249 -287 -200 -338 -221 -721 -60
-1067 27 -58 49 -118 49 -133 0 -34 -13 -51 -185 -235 -154 -165 -241 -264
-355 -400 -46 -55 -122 -143 -170 -195 -47 -52 -121 -140 -165 -195 -43 -55
-109 -134 -145 -175 -36 -41 -106 -128 -155 -192 -50 -65 -107 -139 -128 -165
-34 -43 -111 -144 -163 -214 -10 -15 -59 -80 -108 -145 -135 -180 -137 -183
-200 -274 -32 -47 -80 -114 -107 -150 -27 -36 -58 -81 -69 -100 -28 -46 -142
-221 -239 -365 -15 -22 -49 -78 -76 -124 -51 -87 -83 -118 -111 -107 -14 6
-16 17 -11 79 12 138 27 253 52 377 13 69 31 184 40 255 8 72 23 171 35 221
11 50 26 151 34 225 9 74 25 179 36 234 11 55 25 147 31 205 6 58 21 161 34
230 14 69 31 182 40 251 8 69 24 168 34 220 11 52 27 155 36 229 9 74 25 176
36 225 10 50 26 153 35 230 8 77 24 181 35 230 10 50 26 151 34 225 8 74 23
178 34 230 11 52 27 152 35 221 9 69 25 170 36 224 11 54 27 155 35 225 8 70
24 172 35 226 12 54 27 158 36 229 8 72 25 186 39 255 13 69 28 174 35 234 6
61 20 151 30 202 11 51 26 150 35 221 8 70 26 184 40 253 13 69 29 170 34 225
6 55 23 159 38 230 18 90 27 163 27 235 1 97 -1 109 -26 152 -47 80 -80 110
-153 143 -95 44 -140 50 -214 31 -110 -28 -174 -72 -217 -149 -21 -39 -70
-277 -89 -437 -9 -74 -25 -177 -36 -229 -10 -52 -26 -151 -34 -220 -9 -69 -26
-180 -39 -246 -14 -66 -30 -169 -36 -230 -6 -60 -22 -164 -35 -230 -13 -66
-28 -170 -34 -231 -6 -61 -20 -152 -31 -201 -11 -49 -26 -148 -35 -219 -8 -71
-26 -185 -39 -254 -14 -69 -30 -172 -36 -230 -6 -58 -22 -157 -35 -220 -13
-63 -28 -167 -35 -230 -7 -63 -23 -168 -36 -233 -13 -65 -28 -166 -34 -224 -5
-58 -21 -162 -34 -232 -14 -69 -30 -170 -35 -224 -6 -54 -22 -155 -36 -225
-13 -70 -29 -172 -35 -227 -6 -55 -22 -156 -35 -225 -14 -69 -31 -184 -40
-256 -8 -72 -24 -176 -35 -230 -12 -54 -25 -146 -31 -204 -6 -58 -21 -161 -34
-230 -14 -69 -31 -181 -39 -250 -9 -69 -24 -168 -35 -220 -11 -52 -27 -154
-35 -227 -9 -72 -25 -172 -36 -222 -11 -49 -27 -154 -35 -233 -9 -79 -25 -183
-36 -231 -11 -49 -26 -151 -34 -227 -8 -76 -23 -178 -34 -227 -11 -48 -26
-147 -35 -218 -9 -72 -25 -174 -35 -228 -11 -53 -27 -155 -36 -226 -8 -72 -26
-186 -39 -253 -14 -68 -30 -172 -36 -232 -6 -61 -20 -153 -31 -205 -11 -53
-27 -154 -35 -226 -8 -71 -23 -175 -34 -230 -11 -55 -29 -167 -40 -250 -10
-82 -28 -202 -40 -265 -40 -222 -56 -718 -36 -1090 l9 -166 -24 -26 c-23 -25
-31 -26 -182 -37 -87 -6 -235 -22 -330 -35 -94 -14 -260 -30 -367 -36 -107 -6
-276 -19 -375 -30 -264 -28 -284 -29 -595 -40 -157 -6 -395 -17 -530 -25 -560
-34 -1731 -41 -2270 -15 -187 10 -354 17 -850 40 -272 12 -462 26 -635 45 -71
8 -231 22 -355 30 -124 8 -310 26 -415 39 -104 14 -233 27 -285 31 -52 3 -165
17 -250 30 -85 14 -200 29 -255 35 -55 6 -156 22 -225 35 -69 14 -170 29 -225
36 -55 6 -156 23 -225 39 -69 16 -154 31 -190 35 -36 4 -121 19 -190 35 -69
16 -150 31 -180 35 -30 4 -104 19 -165 35 -60 16 -130 31 -155 35 -76 11 -270
67 -291 84 -15 12 -23 36 -30 96 -5 44 -19 118 -30 165 -11 47 -27 137 -35
200 -8 63 -26 162 -39 220 -13 58 -29 150 -35 205 -6 55 -22 150 -35 210 -13
61 -31 166 -40 235 -9 69 -25 164 -35 212 -11 48 -24 131 -30 185 -6 54 -21
150 -35 213 -13 63 -29 160 -35 215 -6 55 -22 150 -35 210 -13 61 -29 155 -35
210 -6 55 -23 152 -36 217 -13 64 -31 168 -39 230 -8 63 -26 168 -39 234 -13
65 -27 153 -31 194 -4 41 -18 125 -30 185 -13 61 -31 166 -39 235 -9 69 -27
177 -40 240 -13 63 -27 147 -31 185 -3 39 -19 133 -35 210 -15 77 -31 169 -35
205 -4 36 -19 130 -35 210 -16 80 -32 179 -35 220 -4 41 -18 125 -31 186 -12
61 -30 168 -39 237 -8 69 -26 177 -39 239 -14 62 -27 145 -31 183 -4 39 -20
133 -35 210 -16 77 -33 183 -40 235 -6 52 -20 136 -31 185 -11 50 -26 149 -35
220 -8 72 -24 169 -34 216 -11 48 -26 143 -35 213 -9 70 -26 179 -40 244 -13
64 -29 160 -35 212 -6 52 -22 149 -35 215 -13 66 -31 172 -40 236 -8 64 -24
156 -35 205 -10 49 -24 136 -30 194 -6 58 -22 157 -35 220 -13 63 -29 162 -35
220 -6 58 -22 155 -35 215 -13 61 -28 153 -35 205 -6 52 -22 149 -35 215 -13
66 -31 172 -39 235 -8 63 -24 156 -35 205 -11 50 -25 140 -31 200 -7 61 -22
160 -35 220 -13 61 -29 157 -35 215 -6 58 -22 155 -35 215 -13 61 -30 166 -39
236 -9 69 -25 165 -35 215 -11 49 -27 144 -36 210 -8 67 -24 162 -35 211 -11
49 -26 149 -35 221 -8 73 -24 169 -34 215 -25 106 -52 335 -44 367 6 26 29 50
48 50 7 0 34 -7 61 -15z m19554 -2645 c27 -15 25 -56 -4 -94 -13 -17 -35 -53
-50 -81 -15 -27 -43 -77 -63 -110 -50 -83 -112 -192 -137 -240 -12 -22 -33
-59 -49 -82 -15 -24 -27 -45 -27 -48 0 -3 -16 -29 -35 -58 -19 -28 -35 -56
-35 -62 0 -5 -16 -32 -35 -59 -19 -27 -35 -54 -35 -59 0 -5 -15 -34 -34 -65
-18 -32 -53 -91 -76 -132 -62 -108 -112 -180 -139 -201 -23 -18 -68 -19 -1353
-19 l-1328 0 -44 40 c-24 22 -50 55 -57 73 -7 17 -20 43 -30 57 -9 14 -28 46
-42 70 -23 43 -55 99 -134 233 -20 34 -54 94 -75 132 -22 39 -57 99 -79 135
-21 36 -53 90 -70 120 -16 30 -48 84 -69 120 -21 36 -50 85 -63 110 -14 25
-41 72 -61 104 -50 82 -47 112 13 124 56 12 4090 3 4111 -8z m-439 -2017 c96
-48 159 -104 208 -188 83 -138 79 -356 -8 -482 -73 -107 -178 -186 -273 -203
-35 -7 -582 -9 -1574 -8 l-1520 3 -68 35 c-93 47 -153 103 -203 191 -50 87
-68 181 -57 294 8 84 62 196 127 263 47 49 180 122 242 133 22 4 715 6 1541 5
l1501 -1 84 -42z m-3281 -1524 l135 -32 1425 -4 c1451 -5 1613 -2 1741 33 30
7 76 14 103 14 45 0 53 -4 90 -43 56 -58 299 -338 421 -484 240 -288 409 -503
668 -850 15 -21 45 -63 65 -93 20 -30 63 -90 96 -134 32 -43 78 -108 102 -145
24 -36 52 -79 64 -96 11 -16 57 -86 102 -155 45 -69 94 -144 110 -167 15 -23
28 -45 28 -50 0 -4 17 -34 38 -65 20 -31 47 -74 60 -95 12 -21 38 -65 58 -98
44 -74 88 -152 127 -225 16 -30 33 -59 37 -65 20 -24 320 -634 320 -650 0 -5
13 -37 30 -70 42 -86 134 -316 172 -430 11 -33 30 -85 43 -115 13 -30 28 -80
34 -110 7 -30 23 -83 36 -117 14 -33 32 -94 40 -135 9 -40 24 -97 35 -125 11
-29 24 -83 30 -120 6 -38 21 -111 35 -163 13 -52 29 -140 34 -195 6 -55 21
-165 33 -245 20 -129 23 -183 22 -480 0 -192 -5 -361 -11 -395 -6 -33 -18
-118 -27 -190 -10 -71 -29 -177 -43 -235 -14 -58 -32 -134 -39 -170 -8 -36
-28 -100 -44 -142 -17 -43 -30 -85 -30 -94 0 -10 -13 -47 -29 -83 -17 -36 -41
-93 -54 -126 -71 -174 -159 -343 -251 -485 -16 -25 -46 -70 -65 -100 -149
-228 -428 -543 -656 -739 -201 -173 -467 -366 -660 -479 -27 -16 -79 -46 -115
-67 -92 -54 -199 -113 -239 -131 -19 -9 -93 -44 -165 -78 -72 -35 -148 -69
-169 -75 -21 -7 -63 -26 -95 -42 -31 -16 -63 -29 -71 -29 -8 0 -44 -13 -80
-29 -73 -32 -152 -60 -281 -97 -47 -14 -107 -34 -135 -45 -27 -11 -88 -28
-136 -39 -47 -10 -103 -25 -123 -34 -21 -9 -77 -23 -124 -32 -48 -9 -127 -27
-177 -40 -49 -13 -129 -28 -178 -34 -48 -6 -140 -21 -205 -34 -64 -13 -155
-27 -202 -30 -47 -4 -195 -19 -330 -33 -219 -24 -283 -27 -605 -26 -316 0
-390 3 -605 26 -135 14 -281 28 -325 32 -44 3 -134 17 -200 30 -66 14 -168 31
-227 40 -59 9 -127 23 -150 31 -24 8 -88 24 -142 35 -55 11 -108 25 -118 30
-10 5 -67 23 -126 38 -59 16 -132 38 -162 49 -30 11 -82 29 -115 40 -133 45
-331 123 -404 161 -20 10 -92 46 -161 80 -69 33 -136 67 -150 75 -106 60 -181
104 -215 126 -22 15 -74 49 -115 76 -277 181 -601 476 -785 714 -96 124 -217
301 -237 347 -7 15 -22 42 -33 58 -40 57 -166 330 -181 390 -4 17 -17 53 -29
80 -13 28 -25 66 -29 85 -4 19 -22 87 -41 150 -33 116 -64 285 -92 505 -19
156 -12 682 11 820 9 50 25 154 36 232 11 78 30 174 41 215 11 40 27 111 35
158 9 47 26 117 39 155 13 39 28 95 34 125 7 30 22 84 35 120 14 36 34 94 46
130 50 148 80 231 95 261 9 17 27 61 39 97 32 92 72 188 100 242 13 25 27 56
31 70 10 33 221 462 281 570 26 47 61 111 78 142 75 137 109 197 146 258 22
36 51 85 65 110 15 25 44 72 65 105 22 33 68 107 103 165 35 58 83 132 106
165 23 33 75 110 116 170 128 190 185 271 369 520 164 222 440 574 581 741 91
108 135 162 202 245 34 41 89 106 124 145 34 38 95 105 134 149 40 44 97 109
126 145 30 36 85 99 124 140 39 41 102 111 140 154 39 44 88 92 110 108 46 34
37 34 235 -13z m-13580 -7224 c30 -8 97 -20 148 -26 51 -5 121 -19 155 -30 34
-11 121 -29 192 -40 72 -10 157 -25 190 -33 33 -8 110 -22 170 -30 61 -9 166
-27 235 -41 69 -13 175 -29 235 -36 61 -6 166 -21 235 -34 69 -14 204 -31 300
-40 96 -8 231 -24 300 -35 69 -11 206 -24 305 -30 179 -11 250 -17 480 -45 66
-8 215 -19 330 -25 247 -12 314 -16 535 -35 281 -25 647 -36 1385 -42 776 -6
1660 8 1990 31 116 9 370 24 565 36 195 11 418 27 495 35 243 26 336 34 483
45 79 6 222 22 319 35 96 14 220 26 275 28 98 2 100 1 123 -26 13 -15 34 -60
45 -100 12 -39 27 -81 34 -92 7 -11 23 -47 34 -80 12 -33 44 -103 72 -155 28
-52 65 -122 81 -155 16 -33 44 -83 62 -112 157 -250 249 -380 349 -493 60 -67
71 -99 46 -133 -17 -22 -189 -115 -256 -138 -29 -10 -65 -25 -80 -33 -40 -23
-254 -91 -346 -111 -44 -9 -97 -23 -119 -31 -22 -8 -93 -21 -159 -29 -65 -8
-154 -21 -196 -30 -196 -39 -165 -38 -3282 -42 -3091 -4 -3297 -3 -3495 32
-44 8 -132 22 -195 31 -63 9 -149 25 -190 35 -41 11 -117 28 -169 40 -52 11
-106 26 -120 33 -14 8 -60 24 -101 36 -41 12 -93 32 -115 45 -22 13 -56 28
-76 34 -32 10 -103 47 -259 133 -183 101 -433 323 -591 524 -55 70 -159 222
-159 233 0 5 -12 26 -28 47 -24 34 -68 121 -158 309 -32 67 -72 169 -91 230
-8 28 -28 84 -43 125 -39 106 -45 146 -25 176 18 28 15 28 85 9z"/>
<path d="M29343 39112 c-28 -10 -70 -30 -92 -45 -49 -32 -114 -118 -131 -171
-18 -56 -7 -225 24 -368 14 -65 31 -159 37 -210 6 -51 23 -158 39 -238 15 -80
31 -179 35 -220 3 -41 17 -124 30 -185 13 -60 28 -155 35 -210 6 -55 24 -165
40 -245 15 -80 31 -176 35 -215 4 -38 17 -120 30 -181 13 -61 31 -166 40 -235
9 -68 25 -162 35 -209 10 -47 26 -144 34 -216 9 -71 25 -170 35 -220 11 -49
27 -146 35 -216 9 -70 25 -164 36 -210 10 -46 26 -139 34 -208 9 -69 25 -165
35 -215 11 -49 27 -144 36 -210 9 -66 26 -163 36 -215 11 -52 27 -151 35 -219
8 -68 23 -163 34 -211 11 -48 27 -145 35 -215 9 -70 27 -178 40 -239 13 -61
26 -142 30 -181 4 -38 20 -135 35 -215 16 -80 34 -185 40 -235 6 -49 22 -144
35 -210 13 -66 29 -167 35 -225 6 -58 20 -141 30 -186 11 -44 28 -152 39 -240
12 -87 28 -184 36 -214 8 -30 22 -109 30 -175 9 -66 27 -176 40 -245 14 -69
32 -179 40 -245 9 -66 24 -157 35 -201 10 -45 24 -130 30 -189 6 -60 22 -158
35 -219 13 -61 29 -158 35 -216 6 -58 22 -154 35 -215 13 -60 29 -153 35 -205
6 -52 22 -147 35 -210 13 -63 31 -171 40 -239 8 -68 24 -163 35 -212 11 -48
24 -132 30 -186 21 -198 114 -310 284 -344 103 -21 205 13 292 99 54 53 73 97
81 192 6 62 -28 339 -57 469 -10 47 -26 142 -35 211 -8 69 -24 165 -35 214
-11 48 -27 143 -35 210 -9 66 -25 160 -35 207 -11 48 -26 142 -34 210 -8 68
-24 167 -35 219 -11 52 -28 153 -36 223 -9 71 -24 166 -35 210 -11 45 -26 137
-35 205 -9 68 -26 176 -40 240 -13 64 -28 160 -35 212 -6 52 -20 136 -31 185
-11 50 -26 149 -35 220 -8 72 -24 169 -34 216 -11 48 -27 144 -35 215 -9 71
-25 169 -36 218 -11 49 -28 152 -39 230 -10 77 -28 182 -39 231 -11 50 -25
135 -31 190 -6 55 -22 150 -35 210 -13 61 -28 157 -35 215 -6 58 -22 155 -35
215 -13 61 -28 156 -34 212 -6 57 -22 154 -35 215 -13 62 -30 158 -36 213 -6
55 -22 152 -35 215 -13 63 -29 158 -35 210 -7 52 -22 145 -35 205 -13 61 -26
137 -30 170 -13 119 -27 211 -41 268 -8 32 -23 126 -34 210 -11 84 -28 193
-39 242 -11 50 -25 133 -31 185 -6 52 -22 147 -35 211 -13 64 -29 156 -35 205
-6 49 -24 157 -40 239 -15 83 -31 184 -35 225 -3 41 -17 122 -30 180 -13 58
-29 155 -35 215 -6 61 -22 160 -35 221 -13 61 -31 166 -40 235 -20 150 -70
390 -89 427 -71 135 -249 212 -383 164z"/>
<path d="M34900 38666 c-25 -7 -59 -20 -76 -29 -43 -22 -120 -110 -136 -155
-11 -30 -13 -864 -13 -4662 0 -4280 1 -4628 17 -4661 59 -132 213 -208 364
-180 37 6 84 21 104 31 55 28 136 123 149 175 15 59 16 9233 1 9287 -6 22 -35
63 -73 103 -57 61 -68 68 -132 86 -79 22 -139 23 -205 5z"/>
</g>
</svg>
