<svg xmlns="http://www.w3.org/2000/svg" xmlns:xlink="http://www.w3.org/1999/xlink" width="500" zoomAndPan="magnify" viewBox="0 0 375 374.999991" height="500" preserveAspectRatio="xMidYMid meet" version="1.2"><defs><clipPath id="5a83660430"><path d="M 71.0625 66.839844 L 304 66.839844 L 304 308.339844 L 71.0625 308.339844 Z M 71.0625 66.839844 "/></clipPath></defs><g id="8a4c1e5b18"><g clip-rule="nonzero" clip-path="url(#5a83660430)"><path style=" stroke:none;fill-rule:nonzero;fill:#f4f6fc;fill-opacity:1;" d="M 303.9375 176.652344 L 303.9375 272.316406 C 303.9375 292.101562 287.898438 308.136719 268.113281 308.136719 L 232.289062 308.136719 C 217.507812 308.136719 205.425781 296.136719 205.425781 281.355469 L 205.425781 263.355469 C 205.425781 258.433594 201.390625 254.492188 196.464844 254.492188 L 178.546875 254.492188 C 173.625 254.492188 169.585938 258.433594 169.585938 263.355469 L 169.585938 281.355469 C 169.585938 296.136719 157.492188 308.136719 142.722656 308.136719 L 106.882812 308.136719 C 87.097656 308.136719 71.0625 292.101562 71.0625 272.316406 L 71.0625 176.652344 C 71.0625 166.710938 75.277344 157.042969 82.707031 150.320312 L 163.3125 76.4375 C 170.214844 70.066406 178.902344 66.851562 187.507812 66.851562 C 196.113281 66.851562 204.800781 70.066406 211.683594 76.4375 L 292.289062 150.335938 C 299.722656 157.042969 303.9375 166.710938 303.9375 176.652344 Z M 303.9375 176.652344 "/></g></g></svg>