<?xml version="1.0" standalone="no"?>
<!DOCTYPE svg PUBLIC "-//W3C//DTD SVG 20010904//EN"
 "http://www.w3.org/TR/2001/REC-SVG-20010904/DTD/svg10.dtd">
<svg version="1.0" xmlns="http://www.w3.org/2000/svg"
 width="7200.000000pt" height="7200.000000pt" viewBox="0 0 7200.000000 7200.000000"
 preserveAspectRatio="xMidYMid meet">

<g transform="translate(0.000000,7200.000000) scale(0.100000,-0.100000)"
fill="#000000" stroke="none">
<path d="M35370 58809 c-1116 -36 -2280 -177 -3370 -410 -257 -55 -1435 -330
-1755 -410 -2152 -537 -4184 -1445 -6037 -2695 -291 -196 -1103 -776 -1411
-1007 -1456 -1092 -2752 -2389 -3846 -3846 -229 -306 -809 -1118 -1005 -1409
-1136 -1683 -1983 -3501 -2536 -5442 -122 -429 -433 -1715 -569 -2350 -560
-2626 -560 -5374 0 -8000 136 -635 447 -1921 569 -2350 511 -1792 1287 -3511
2291 -5072 265 -412 868 -1270 1252 -1781 1090 -1452 2392 -2754 3844 -3844
308 -231 1120 -811 1411 -1007 1854 -1251 3884 -2157 6037 -2695 322 -80 1499
-355 1755 -410 2626 -560 5374 -560 8000 0 256 55 1433 330 1755 410 2004 501
3931 1334 5667 2450 412 265 1270 868 1781 1252 1452 1090 2754 2392 3844
3844 224 299 804 1111 996 1394 1182 1749 2064 3667 2605 5669 105 387 406
1647 511 2140 560 2626 560 5374 0 8000 -69 323 -344 1491 -434 1845 -504
1977 -1325 3865 -2426 5577 -265 412 -867 1268 -1253 1783 -1088 1450 -2389
2751 -3843 3842 -308 231 -1120 811 -1411 1007 -1855 1252 -3871 2152 -6037
2695 -284 71 -1480 351 -1730 405 -1500 323 -3094 465 -4655 415z m1265 -1409
c1220 -43 2380 -190 3549 -450 1533 -341 2631 -685 3821 -1195 1464 -628 2749
-1382 4175 -2451 1083 -812 2067 -1722 2945 -2725 811 -925 1670 -2112 2287
-3159 916 -1555 1604 -3216 2043 -4931 433 -1696 615 -2835 697 -4369 17 -311
17 -1449 0 -1760 -82 -1535 -264 -2672 -697 -4369 -439 -1715 -1127 -3376
-2043 -4931 -527 -894 -1273 -1950 -1970 -2789 -625 -752 -1362 -1507 -2103
-2156 -852 -747 -1932 -1540 -2912 -2139 -1615 -986 -3366 -1727 -5182 -2191
-1696 -434 -2833 -616 -4365 -697 -310 -17 -1450 -17 -1760 0 -1532 81 -2669
263 -4365 697 -1957 500 -3844 1324 -5557 2426 -701 451 -1535 1062 -2167
1587 -751 624 -1508 1363 -2156 2103 -811 925 -1671 2113 -2287 3159 -916
1555 -1604 3216 -2043 4931 -433 1696 -615 2835 -697 4369 -17 311 -17 1449 0
1760 82 1534 264 2673 697 4369 439 1715 1127 3376 2043 4931 527 894 1273
1950 1970 2789 624 750 1363 1508 2102 2156 894 782 2019 1603 3038 2214 1587
952 3291 1665 5053 2116 1593 407 2734 597 4084 680 545 34 1262 44 1800 25z"/>
<path d="M35370 56309 c-4840 -155 -9425 -2144 -12860 -5579 -2677 -2677
-4490 -6063 -5224 -9760 -423 -2132 -479 -4383 -160 -6535 705 -4764 3180
-9066 6962 -12098 2803 -2248 6208 -3662 9767 -4056 4527 -502 9006 588 12760
3104 3366 2256 5938 5536 7320 9335 1544 4245 1525 8963 -55 13190 -1397 3738
-3945 6960 -7265 9185 -3323 2227 -7225 3343 -11245 3214z m-9580 -6042 c-241
-238 -585 -601 -757 -800 -54 -62 -168 -194 -253 -293 -137 -158 -242 -286
-399 -488 -25 -32 -67 -83 -92 -115 -71 -88 -200 -259 -259 -344 -41 -59 -56
-74 -62 -62 -10 17 12 64 51 111 14 18 42 55 61 84 19 29 62 85 95 124 33 39
78 96 100 126 22 30 49 67 60 82 11 15 75 96 143 180 68 84 139 173 158 198
20 25 75 88 124 140 48 52 125 140 171 195 130 156 205 240 339 380 69 71 178
186 243 255 217 228 368 370 396 370 22 0 5 -21 -119 -143z m1093 -1220 c26
-28 165 -189 308 -357 144 -168 291 -338 328 -379 36 -41 75 -86 86 -100 10
-14 101 -120 200 -236 100 -115 233 -271 295 -345 109 -128 436 -508 696 -809
43 -49 269 -312 439 -511 77 -89 228 -265 335 -389 107 -124 215 -251 240
-281 25 -30 91 -107 146 -170 56 -63 113 -128 127 -145 14 -16 112 -131 219
-254 106 -123 216 -252 243 -286 28 -34 134 -158 236 -276 103 -118 225 -259
271 -314 46 -54 115 -123 153 -152 39 -28 101 -76 139 -105 38 -29 83 -62 100
-73 17 -11 72 -50 121 -87 50 -37 108 -80 130 -96 22 -16 101 -73 175 -128 74
-55 145 -107 156 -115 12 -7 57 -41 100 -73 99 -74 138 -103 259 -191 53 -38
157 -115 230 -170 74 -55 177 -131 230 -170 53 -38 115 -84 138 -101 23 -17
107 -79 187 -137 80 -59 162 -119 183 -134 20 -16 55 -41 76 -58 21 -16 64
-48 95 -70 32 -22 103 -74 159 -115 177 -129 373 -273 442 -325 37 -27 86 -62
109 -77 24 -15 51 -44 62 -63 19 -35 19 -36 0 -68 -10 -18 -47 -86 -80 -152
-34 -66 -67 -129 -74 -140 -6 -11 -20 -40 -32 -65 -11 -25 -27 -56 -35 -70 -7
-14 -22 -43 -33 -65 -22 -46 -217 -428 -238 -465 -7 -14 -23 -45 -34 -70 -11
-25 -30 -63 -42 -85 -11 -22 -28 -53 -36 -70 -9 -16 -32 -61 -52 -100 -19 -38
-41 -79 -48 -90 -6 -11 -18 -36 -26 -55 -8 -19 -22 -46 -30 -60 -8 -14 -26
-47 -39 -75 -13 -27 -31 -65 -40 -82 -42 -81 -55 -106 -120 -233 -38 -74 -78
-153 -88 -175 -11 -22 -27 -51 -35 -65 -8 -14 -24 -45 -35 -70 -11 -25 -25
-54 -32 -65 -6 -11 -55 -105 -108 -210 -53 -104 -104 -203 -113 -220 -8 -16
-24 -48 -35 -70 -71 -151 -125 -221 -216 -281 l-60 -39 -195 -3 c-221 -4 -839
14 -945 28 -99 12 -460 28 -950 40 -483 13 -570 7 -672 -41 -34 -16 -68 -29
-76 -29 -8 0 -40 -13 -70 -29 -30 -16 -72 -34 -93 -41 -22 -7 -63 -26 -93 -41
-30 -16 -61 -29 -69 -29 -9 0 -38 -13 -66 -29 -28 -15 -76 -36 -107 -45 -31
-8 -62 -22 -68 -30 -6 -7 -32 -19 -57 -25 -25 -7 -69 -25 -98 -41 -29 -17 -59
-30 -67 -30 -8 0 -45 -16 -83 -35 -39 -19 -77 -35 -85 -35 -9 0 -40 -14 -70
-30 -30 -17 -73 -35 -95 -41 -23 -6 -52 -19 -66 -29 -14 -9 -43 -23 -65 -30
-22 -7 -59 -23 -83 -37 -24 -13 -65 -31 -92 -39 -27 -8 -68 -25 -92 -39 -24
-14 -50 -25 -59 -25 -8 0 -46 -16 -85 -35 -38 -19 -75 -35 -81 -35 -7 0 -42
-16 -79 -35 -36 -19 -73 -35 -82 -35 -8 0 -38 -13 -66 -29 -28 -15 -67 -32
-86 -36 -19 -4 -63 -23 -98 -41 -35 -19 -70 -34 -78 -34 -8 0 -38 -13 -67 -30
-30 -16 -61 -30 -69 -30 -9 0 -46 -16 -82 -35 -37 -19 -74 -35 -83 -35 -9 0
-40 -13 -68 -29 -29 -16 -71 -35 -95 -41 -23 -6 -59 -22 -79 -34 -36 -23 -164
-66 -195 -66 -9 0 -21 12 -26 26 -6 16 -10 2104 -10 5861 0 5468 1 5837 17
5855 23 25 39 17 96 -45z m2412 -42 c141 -30 284 -69 330 -90 28 -13 68 -27
90 -30 22 -4 65 -20 95 -35 104 -53 225 -110 234 -110 5 0 23 -11 41 -24 17
-13 47 -31 66 -40 56 -26 176 -102 310 -198 361 -258 734 -654 951 -1007 92
-151 181 -327 198 -392 16 -60 55 -108 104 -130 23 -10 91 -25 152 -33 60 -8
130 -24 155 -35 25 -11 76 -28 114 -36 37 -9 90 -27 116 -41 27 -13 57 -24 68
-24 10 0 44 -13 74 -29 30 -16 72 -34 93 -41 22 -7 51 -21 66 -32 15 -10 46
-25 69 -33 24 -9 50 -22 59 -29 8 -8 35 -24 60 -36 24 -13 56 -30 70 -40 14
-10 47 -30 74 -46 51 -31 72 -44 213 -139 243 -164 558 -455 807 -745 142
-165 177 -210 228 -285 15 -22 38 -54 50 -71 35 -48 140 -208 171 -261 15 -26
43 -73 60 -103 18 -30 39 -71 47 -90 7 -19 24 -51 36 -70 12 -19 28 -53 34
-75 7 -22 21 -51 30 -65 10 -14 25 -51 34 -82 9 -32 25 -72 36 -90 10 -19 26
-64 35 -102 9 -38 23 -83 32 -99 8 -16 23 -75 34 -131 10 -55 28 -135 40 -176
18 -64 22 -110 26 -315 6 -258 -3 -372 -37 -471 -11 -32 -25 -87 -31 -123 -5
-36 -18 -79 -29 -96 -10 -16 -25 -54 -34 -83 -8 -29 -24 -66 -36 -82 -11 -16
-27 -48 -36 -72 -8 -23 -23 -52 -33 -63 -10 -11 -26 -35 -35 -53 -10 -18 -38
-61 -64 -94 -26 -33 -57 -75 -69 -93 -12 -18 -29 -35 -39 -39 -24 -9 -83 12
-120 43 -17 14 -57 44 -89 66 -32 22 -72 52 -89 66 -29 24 -291 216 -340 249
-12 8 -58 42 -101 74 -126 94 -444 328 -500 368 -22 16 -76 56 -120 89 -44 34
-96 72 -115 85 -41 27 -192 139 -278 206 -33 25 -70 52 -82 58 -13 7 -47 32
-77 56 -29 24 -77 59 -106 79 -28 19 -68 48 -88 63 -57 43 -200 149 -243 179
-21 16 -56 42 -76 58 -21 17 -63 48 -95 70 -31 22 -96 69 -144 105 -47 36 -97
73 -111 82 -14 10 -46 33 -71 50 -42 31 -125 120 -244 263 -27 33 -54 65 -60
71 -5 6 -30 35 -55 64 -25 30 -93 108 -151 175 -58 66 -151 172 -205 236 -150
177 -348 407 -569 663 -110 128 -220 256 -245 286 -40 50 -141 166 -211 245
-25 28 -238 276 -452 526 -304 355 -722 842 -956 1114 -80 94 -193 224 -251
290 -146 166 -190 223 -190 248 0 24 91 116 189 190 115 88 296 186 381 207
25 6 74 23 110 37 52 21 90 27 195 33 165 9 422 2 500 -15z m10025 -4556 c41
-5 95 -16 120 -24 25 -8 86 -19 135 -24 50 -5 119 -21 155 -34 36 -14 92 -30
125 -37 33 -6 75 -20 93 -31 18 -10 54 -24 80 -30 26 -6 70 -24 97 -39 28 -15
64 -30 82 -34 18 -4 43 -16 56 -26 13 -10 48 -30 78 -45 30 -14 83 -43 119
-65 36 -21 79 -46 95 -56 17 -9 99 -69 184 -133 142 -106 301 -252 427 -391
83 -91 239 -304 309 -422 11 -18 35 -58 53 -88 17 -30 39 -71 47 -90 8 -19 31
-66 50 -105 51 -103 81 -176 100 -241 9 -32 26 -76 37 -98 11 -21 26 -76 33
-122 8 -45 21 -96 29 -112 17 -33 36 -136 36 -197 0 -22 6 -78 14 -125 38
-223 39 -386 1 -665 -8 -60 -19 -149 -25 -197 -5 -48 -16 -101 -25 -118 -9
-17 -22 -69 -30 -114 -7 -46 -21 -98 -30 -117 -10 -18 -30 -70 -45 -114 -42
-123 -73 -197 -97 -236 -13 -20 -29 -54 -37 -75 -7 -22 -25 -57 -40 -78 -14
-21 -26 -43 -26 -49 0 -6 -11 -24 -24 -41 -12 -17 -31 -46 -40 -64 -44 -86
-208 -299 -349 -455 -110 -121 -335 -316 -452 -394 -22 -14 -59 -39 -82 -55
-23 -15 -45 -28 -49 -28 -4 0 -21 -11 -38 -24 -17 -13 -51 -33 -76 -46 -25
-12 -52 -28 -60 -35 -8 -6 -35 -19 -59 -29 -23 -9 -59 -28 -79 -41 -20 -14
-43 -25 -52 -25 -8 0 -40 -12 -70 -26 -30 -14 -85 -34 -122 -45 -36 -10 -81
-27 -100 -38 -18 -10 -67 -24 -108 -30 -42 -5 -97 -20 -123 -31 -27 -12 -88
-25 -140 -31 -50 -5 -144 -17 -207 -27 -156 -23 -477 -23 -610 0 -52 10 -133
20 -180 23 -54 4 -116 16 -170 35 -47 15 -109 31 -139 35 -30 4 -81 20 -115
36 -34 16 -70 29 -81 29 -11 0 -45 12 -75 26 -30 14 -72 32 -93 40 -21 7 -50
22 -65 33 -15 10 -49 26 -77 35 -27 10 -66 28 -85 40 -50 33 -98 61 -153 91
-26 14 -75 47 -108 73 -34 26 -71 53 -82 61 -162 108 -494 430 -573 556 -10
17 -44 63 -76 103 -33 40 -63 83 -68 95 -5 12 -30 54 -54 92 -48 74 -156 284
-156 302 0 6 -9 22 -21 36 -11 15 -29 59 -40 99 -11 40 -29 87 -39 104 -10 18
-25 66 -34 108 -9 42 -23 90 -31 106 -9 17 -21 68 -27 113 -6 45 -22 129 -35
187 -49 203 -49 677 0 880 13 58 30 146 36 195 7 50 19 100 27 112 8 13 22 58
30 100 9 42 29 102 44 132 15 31 31 74 35 96 4 21 15 52 26 67 11 14 26 44 33
66 8 21 28 63 45 94 17 30 31 59 31 65 0 6 15 34 33 62 17 27 50 78 72 113
116 186 252 356 410 513 86 86 246 229 279 249 17 11 45 31 63 45 49 40 112
85 143 101 15 8 59 34 96 58 97 60 90 56 189 102 50 23 121 58 159 76 37 19
78 34 90 34 11 0 42 11 68 25 26 14 78 32 115 39 37 8 97 26 133 39 36 13 99
27 141 31 42 4 91 11 110 17 79 23 143 32 284 39 171 8 414 3 525 -11z m14459
-735 c21 -44 42 -96 46 -115 4 -18 14 -43 21 -54 11 -17 45 -218 44 -260 -1
-25 -20 28 -33 91 -8 38 -24 85 -35 104 -11 19 -25 61 -31 92 -6 32 -22 83
-36 113 -14 31 -29 74 -34 97 -8 35 -8 39 5 27 7 -8 31 -51 53 -95z m-9353
-238 c19 -14 19 -45 22 -1736 1 -1181 -1 -1727 -8 -1740 -13 -24 -66 -27 -90
-5 -27 24 -146 96 -278 166 -29 16 -69 40 -90 54 -20 14 -41 25 -45 25 -5 0
-23 10 -40 23 -39 28 -127 78 -192 110 -27 13 -59 34 -69 46 -20 22 -60 28
-71 11 -3 -5 -6 -453 -5 -994 0 -976 0 -986 -20 -1006 -26 -26 -27 -26 -80 10
-25 16 -50 30 -57 30 -6 0 -24 11 -40 24 -15 13 -50 36 -78 50 -106 58 -177
98 -337 193 -35 20 -90 52 -123 71 -33 18 -89 51 -125 73 -36 21 -85 49 -110
61 -26 13 -59 33 -74 46 -16 12 -34 22 -41 22 -6 0 -34 16 -61 35 -27 19 -54
35 -60 35 -6 0 -28 13 -50 30 -21 16 -47 30 -56 30 -17 0 -58 -44 -58 -62 0
-6 -10 -23 -21 -40 -12 -16 -31 -48 -44 -71 -12 -23 -38 -70 -58 -104 -20 -35
-54 -91 -74 -125 -20 -35 -46 -81 -57 -103 -11 -22 -33 -58 -48 -79 -15 -21
-28 -43 -28 -48 0 -6 -9 -22 -19 -37 -11 -15 -33 -52 -49 -82 -30 -55 -63
-112 -133 -229 -21 -36 -50 -89 -64 -117 -15 -29 -31 -56 -37 -59 -6 -4 -19
-27 -30 -52 -12 -25 -34 -64 -49 -85 -16 -22 -29 -45 -29 -52 0 -7 -13 -29
-30 -50 -16 -21 -30 -43 -30 -50 0 -7 -12 -30 -27 -51 -15 -21 -37 -59 -50
-84 -34 -64 -84 -148 -115 -197 -42 -64 -80 -68 -160 -14 -59 39 -183 111
-192 111 -4 0 -31 18 -61 40 -69 51 -70 70 -10 170 24 41 45 79 45 84 0 5 11
23 24 40 13 17 35 54 50 81 40 73 58 105 84 149 13 21 34 57 47 80 12 22 41
73 63 111 23 39 55 95 72 125 17 30 49 84 70 120 22 36 47 81 57 100 10 19 30
53 45 74 16 21 28 44 28 51 0 7 13 30 28 51 15 21 37 57 48 79 11 22 37 68 57
103 20 34 54 90 74 125 20 34 52 90 72 125 61 106 85 148 108 183 13 19 23 37
23 42 0 7 -18 26 -64 64 -18 15 -26 31 -26 55 0 34 10 53 85 153 25 33 53 76
63 95 9 19 29 53 43 75 56 87 97 162 108 196 6 20 23 51 36 69 14 19 25 41 25
49 0 9 16 47 35 85 19 39 35 78 35 88 0 10 14 46 31 79 16 33 33 84 36 112 3
29 16 73 29 99 13 26 31 89 39 140 9 51 27 134 40 183 20 73 27 135 36 330 16
311 0 744 -32 871 -19 77 -20 84 -4 113 9 18 28 37 43 44 15 6 49 26 76 44 26
18 53 33 60 33 6 0 29 14 50 30 22 17 45 30 51 30 6 0 27 12 46 26 19 14 57
37 84 50 28 13 75 39 105 58 88 53 181 107 235 136 28 15 68 39 89 53 21 15
43 27 47 27 5 0 28 14 51 30 22 17 46 30 53 30 7 0 30 13 53 30 22 16 56 36
74 45 18 8 62 33 98 54 36 21 93 54 128 74 34 21 90 53 125 74 74 43 136 78
208 117 30 15 61 34 69 41 8 7 40 26 70 42 59 32 140 79 234 137 68 41 66 41
92 22z m-9718 -2093 c11 -10 51 -56 88 -103 37 -47 113 -137 168 -200 56 -63
124 -142 151 -175 28 -33 131 -154 230 -269 99 -115 218 -255 265 -311 87
-105 212 -251 546 -639 104 -121 212 -248 239 -281 26 -33 117 -139 201 -235
83 -96 205 -239 270 -316 66 -78 173 -205 239 -282 66 -77 152 -177 191 -223
39 -46 131 -154 205 -240 74 -86 217 -254 319 -374 102 -120 257 -301 345
-404 89 -102 212 -247 275 -322 63 -75 184 -217 268 -315 85 -98 238 -277 340
-398 103 -120 232 -271 287 -335 55 -64 110 -127 121 -141 12 -14 66 -77 120
-140 455 -530 565 -664 591 -717 12 -24 28 -51 34 -59 7 -8 23 -36 36 -62 13
-26 41 -78 63 -117 21 -38 49 -90 61 -115 12 -25 31 -58 44 -75 12 -16 26 -41
30 -55 4 -14 20 -43 34 -65 15 -22 34 -56 44 -75 10 -19 35 -66 57 -105 21
-38 49 -90 62 -115 13 -25 33 -58 44 -75 12 -16 25 -41 29 -55 4 -14 17 -38
29 -55 13 -16 35 -55 50 -85 15 -30 42 -82 61 -115 18 -33 47 -85 63 -115 16
-30 48 -86 70 -125 23 -38 53 -92 67 -120 14 -27 43 -81 64 -120 22 -38 53
-95 69 -125 16 -30 48 -89 72 -130 23 -41 56 -100 73 -130 16 -30 45 -82 63
-115 18 -33 47 -87 64 -120 17 -33 49 -91 71 -130 23 -38 57 -99 76 -135 19
-36 48 -89 64 -117 66 -120 94 -171 119 -218 14 -27 34 -62 43 -76 22 -33 68
-119 102 -189 15 -30 33 -62 40 -70 7 -8 36 -60 65 -115 28 -55 60 -111 70
-125 9 -14 27 -45 39 -70 12 -25 40 -76 61 -115 21 -38 48 -89 60 -112 21 -42
62 -83 85 -83 7 0 18 -7 26 -16 7 -8 33 -26 58 -40 25 -13 75 -42 111 -64 36
-21 88 -51 115 -66 28 -15 61 -35 74 -46 14 -10 43 -27 65 -38 23 -11 68 -37
101 -59 33 -22 80 -51 105 -64 25 -12 59 -32 75 -44 31 -21 108 -68 154 -92
14 -8 44 -27 65 -43 21 -15 45 -28 52 -28 7 0 25 -11 41 -24 15 -13 51 -35 78
-50 28 -15 75 -42 105 -61 30 -19 71 -43 90 -53 19 -11 58 -35 87 -53 59 -39
106 -67 213 -129 41 -24 91 -53 110 -65 19 -12 55 -34 80 -48 25 -15 70 -43
100 -62 30 -19 78 -46 105 -61 28 -15 63 -37 78 -50 16 -13 34 -24 40 -24 7
-1 50 -25 97 -55 47 -30 103 -64 126 -75 22 -11 51 -28 65 -38 13 -11 47 -31
74 -46 28 -14 82 -46 120 -71 39 -25 80 -50 93 -55 13 -6 38 -21 55 -34 18
-13 50 -33 72 -45 22 -12 65 -37 95 -56 30 -19 78 -46 105 -61 28 -15 63 -37
78 -50 16 -13 34 -24 41 -24 8 0 25 -9 39 -20 33 -26 129 -84 184 -110 23 -11
45 -25 48 -30 4 -6 30 -22 58 -37 29 -14 66 -36 83 -49 17 -13 35 -24 40 -24
5 0 31 -16 58 -35 27 -19 55 -35 61 -35 7 0 24 -9 38 -20 14 -11 48 -32 76
-47 27 -16 92 -54 144 -85 52 -32 98 -58 104 -58 6 0 16 -7 24 -16 7 -9 38
-29 68 -45 31 -16 83 -47 116 -69 33 -21 80 -50 105 -63 25 -12 59 -32 75 -44
17 -11 86 -53 155 -93 69 -40 148 -88 175 -105 57 -37 190 -116 268 -160 29
-16 66 -40 82 -52 15 -13 33 -23 40 -23 7 0 30 -12 51 -28 40 -28 102 -66 234
-142 41 -23 86 -50 100 -60 48 -33 179 -110 186 -110 4 0 21 -11 38 -24 17
-13 54 -35 81 -50 68 -37 124 -71 137 -84 7 -7 -6 -38 -48 -106 l-58 -96
-5469 0 c-4687 0 -5472 2 -5495 14 -15 8 -70 60 -122 117 -52 56 -104 112
-116 123 -12 12 -119 125 -239 251 -120 127 -271 284 -335 350 -64 66 -188
197 -275 290 -87 94 -166 177 -174 186 -47 49 -181 189 -376 394 -120 127
-258 271 -305 320 -131 136 -487 512 -645 679 -129 137 -261 258 -360 331 -22
16 -45 34 -51 40 -7 5 -35 28 -64 50 -29 22 -69 54 -90 70 -21 17 -61 48 -90
70 -28 22 -89 69 -135 105 -45 36 -106 83 -135 105 -28 22 -90 70 -136 107
-83 65 -209 163 -263 203 -15 11 -72 56 -126 100 -55 44 -111 88 -125 98 -14
10 -47 36 -75 58 -27 22 -92 73 -143 112 -51 40 -110 86 -131 102 -77 61 -220
172 -444 344 -67 52 -168 131 -224 175 -56 45 -125 99 -153 121 -28 22 -91 71
-138 108 -48 37 -106 82 -130 100 -24 18 -58 43 -75 57 -63 50 -155 100 -253
136 l-99 36 -240 9 c-132 5 -325 18 -430 29 -252 26 -424 38 -630 45 -190 6
-344 18 -545 40 -74 8 -281 19 -460 25 -179 5 -381 16 -450 24 -174 21 -208
24 -435 35 -497 26 -607 33 -710 47 -60 8 -211 18 -334 22 -218 7 -224 8 -242
31 -19 23 -19 73 -19 1941 0 1247 3 1928 10 1945 6 16 24 31 47 40 21 8 64 28
95 45 31 16 63 30 71 30 8 0 36 12 63 26 27 15 73 35 103 45 29 10 67 27 85
38 17 10 47 22 66 26 19 4 63 23 98 41 35 19 71 34 80 34 9 0 40 14 67 30 28
16 57 30 66 30 10 0 42 13 74 30 31 16 75 34 98 40 23 6 54 20 68 30 14 10 48
26 75 35 27 9 67 27 89 39 22 13 56 27 75 31 19 4 58 20 85 35 28 15 68 33 90
40 22 7 52 21 66 31 14 10 48 23 75 30 27 7 60 20 74 29 14 10 45 25 70 33 25
8 77 30 115 47 39 17 104 47 145 66 42 19 82 34 90 34 8 0 38 14 65 30 28 16
57 30 65 30 9 0 47 15 85 33 39 19 88 40 110 47 22 7 47 19 56 26 9 8 40 21
69 30 29 9 77 29 105 45 28 16 60 29 70 29 10 0 42 14 72 30 29 17 58 30 65
30 7 0 44 16 81 35 38 19 74 35 82 35 7 0 38 13 68 29 31 16 97 41 149 56 l93
27 210 -11 c116 -7 233 -14 260 -16 28 -3 226 -9 440 -15 380 -10 828 -31
1050 -50 61 -5 201 -9 312 -9 176 -1 209 2 255 18 29 11 79 27 111 36 116 33
287 160 363 270 51 73 89 141 168 300 36 72 72 141 80 155 8 14 24 44 35 68
12 23 30 61 42 85 11 23 27 53 35 67 8 14 44 84 80 155 36 72 71 141 79 155 8
14 22 43 33 65 17 36 204 401 237 465 8 14 23 43 33 65 52 106 75 151 83 165
4 8 38 74 74 145 36 72 72 141 80 155 8 14 23 45 35 70 11 25 30 63 42 85 36
68 51 98 81 160 16 33 37 71 47 85 9 14 23 42 29 62 7 20 20 47 30 60 10 13
26 44 36 70 10 26 24 53 31 59 7 6 23 36 34 66 26 69 86 151 111 153 4 0 16
-8 27 -17z m7372 -4584 c110 -9 148 -17 204 -40 37 -16 75 -29 84 -29 18 0
193 -86 262 -129 209 -128 417 -358 510 -561 11 -25 32 -67 45 -95 14 -27 30
-71 35 -97 5 -26 22 -82 37 -125 27 -76 27 -83 27 -308 l0 -230 -31 -90 c-17
-49 -35 -106 -38 -125 -4 -19 -15 -49 -24 -65 -10 -17 -25 -51 -34 -77 -8 -26
-27 -62 -41 -80 -13 -18 -29 -45 -35 -60 -25 -67 -218 -284 -325 -366 -76 -59
-187 -132 -200 -132 -5 0 -30 -13 -55 -29 -25 -16 -59 -32 -76 -36 -16 -3 -59
-19 -95 -35 -36 -15 -92 -31 -125 -35 -33 -4 -100 -16 -150 -26 -98 -20 -227
-24 -290 -9 -22 6 -93 19 -158 29 -65 11 -136 29 -157 40 -21 11 -58 25 -82
31 -23 7 -64 25 -89 41 -25 16 -50 29 -54 29 -5 0 -47 26 -93 58 -46 31 -95
64 -109 73 -37 25 -131 117 -194 189 -90 105 -183 251 -217 343 -12 30 -30 70
-41 88 -12 19 -21 48 -21 65 0 17 -12 68 -27 115 -45 145 -44 481 2 593 7 17
16 54 20 81 3 28 19 79 35 115 16 36 38 85 49 110 64 142 212 335 342 447 103
88 229 176 272 188 12 4 45 20 72 35 28 15 77 35 110 45 33 9 73 24 90 33 32
17 219 39 350 41 44 0 141 -4 215 -10z m4403 -69 c29 -34 52 -100 66 -186 5
-34 19 -84 30 -110 11 -27 25 -80 31 -119 6 -38 22 -96 35 -130 13 -33 29 -91
36 -130 6 -38 22 -97 34 -130 12 -33 28 -90 34 -127 6 -36 23 -96 36 -133 14
-36 29 -95 34 -130 5 -36 17 -79 25 -97 9 -18 26 -77 37 -131 11 -55 30 -125
43 -156 13 -31 26 -83 29 -116 4 -34 16 -82 28 -109 11 -26 29 -90 40 -142 10
-52 26 -108 34 -125 9 -17 23 -68 31 -114 8 -46 25 -112 38 -147 13 -35 29
-93 35 -130 6 -37 20 -88 31 -113 11 -26 25 -76 30 -113 6 -37 22 -96 35 -133
14 -36 32 -102 40 -146 7 -45 21 -96 30 -113 14 -27 28 -83 51 -207 4 -20 2
-39 -6 -48 -20 -24 -105 -19 -175 10 -33 14 -98 32 -145 41 -47 9 -110 26
-140 39 -30 12 -80 25 -110 29 -30 4 -95 20 -145 36 -111 36 -198 55 -219 47
-23 -9 -21 -74 4 -122 11 -22 27 -77 35 -123 8 -46 25 -111 39 -145 13 -34 29
-95 35 -135 6 -41 20 -90 30 -110 10 -20 24 -71 31 -112 7 -41 23 -102 36
-135 12 -33 28 -91 34 -130 6 -38 21 -97 34 -130 13 -33 29 -91 35 -129 7 -38
23 -95 35 -125 13 -31 27 -81 31 -111 3 -30 19 -95 35 -145 15 -49 38 -131 49
-182 32 -134 13 -157 -96 -114 -26 10 -83 26 -126 35 -43 8 -99 25 -125 36
-26 11 -77 24 -115 30 -37 6 -91 20 -119 31 -28 11 -96 29 -151 40 -55 11
-109 26 -121 34 -11 8 -62 21 -113 29 -50 8 -106 22 -124 31 -17 9 -74 25
-125 36 -52 10 -112 28 -134 39 -21 11 -45 20 -51 20 -22 0 -49 -33 -49 -59 0
-14 -9 -45 -20 -68 -10 -24 -28 -88 -40 -143 -12 -55 -30 -119 -40 -143 -11
-24 -22 -70 -26 -103 -4 -32 -13 -75 -21 -94 -22 -53 -41 -118 -53 -190 -6
-36 -20 -85 -31 -109 -11 -24 -24 -76 -30 -115 -6 -39 -22 -98 -35 -131 -12
-33 -30 -97 -39 -143 -9 -46 -25 -102 -35 -125 -10 -23 -23 -76 -29 -116 -7
-41 -21 -95 -31 -119 -11 -24 -27 -81 -36 -126 -21 -109 -32 -135 -60 -142
-36 -9 -61 1 -151 58 -45 29 -105 67 -133 83 -109 64 -130 80 -146 114 -14 29
-15 42 -4 90 6 31 20 76 31 99 10 24 25 80 33 125 8 45 24 102 35 127 11 25
25 76 31 113 6 38 18 87 26 110 31 85 44 131 44 159 0 17 13 69 30 116 16 48
36 122 44 164 8 42 22 90 30 106 8 15 21 66 30 113 8 46 24 107 36 134 12 28
28 88 36 135 8 47 24 102 35 123 37 73 24 98 -58 111 -23 3 -62 15 -87 26 -26
11 -86 27 -134 36 -48 9 -99 22 -114 30 -15 8 -62 22 -105 30 -42 9 -105 27
-140 40 -34 13 -96 29 -135 35 -40 6 -89 19 -108 29 -19 10 -75 25 -124 34
-49 10 -118 28 -154 42 -35 13 -96 27 -135 31 -85 8 -110 26 -101 75 5 27 129
156 690 718 376 377 684 693 684 702 0 28 -38 46 -131 62 -47 8 -113 26 -145
39 -32 14 -86 28 -119 32 -33 4 -76 15 -96 25 -20 10 -81 28 -135 40 -120 26
-253 68 -277 89 -10 8 -17 23 -15 33 4 25 2428 2448 2449 2448 10 0 28 -13 42
-30z m-19201 -4290 c335 -16 411 -20 417 -25 17 -10 234 -26 486 -35 154 -5
390 -21 525 -34 137 -14 414 -32 630 -41 212 -8 432 -22 490 -30 58 -8 227
-19 375 -25 149 -5 295 -12 325 -15 30 -3 152 -14 270 -25 118 -12 262 -25
320 -30 97 -8 111 -12 160 -44 66 -42 135 -92 255 -186 50 -39 110 -85 135
-102 25 -17 72 -54 105 -83 33 -28 95 -78 139 -110 43 -33 97 -75 120 -93 22
-17 60 -47 82 -65 23 -17 77 -59 120 -92 44 -33 127 -98 186 -145 58 -47 130
-103 158 -125 29 -22 107 -83 174 -135 66 -53 137 -107 156 -120 19 -14 42
-32 51 -40 9 -8 40 -33 69 -55 29 -22 69 -53 90 -70 21 -16 61 -48 90 -70 28
-22 97 -76 153 -120 56 -45 118 -92 137 -105 19 -13 65 -49 101 -80 36 -30 90
-73 119 -95 53 -41 100 -77 180 -140 25 -19 86 -67 135 -105 172 -133 198
-156 353 -320 86 -91 195 -205 242 -255 47 -49 120 -126 161 -170 65 -69 159
-169 584 -615 44 -47 135 -141 200 -210 173 -181 270 -283 371 -390 212 -226
426 -452 521 -550 56 -58 111 -117 122 -132 25 -31 27 -73 5 -82 -9 -3 -2211
-6 -4895 -6 l-4880 0 -24 25 -25 24 0 2550 c0 2304 2 2551 16 2565 19 19 182
21 496 6z"/>
</g>
</svg>
