<svg xmlns="http://www.w3.org/2000/svg" xmlns:xlink="http://www.w3.org/1999/xlink" width="500" zoomAndPan="magnify" viewBox="0 0 375 374.999991" height="500" preserveAspectRatio="xMidYMid meet" version="1.2"><defs><clipPath id="d661303fa7"><path d="M 57 57.605469 L 318.820312 57.605469 L 318.820312 319.425781 L 57 319.425781 Z M 57 57.605469 "/></clipPath><clipPath id="9a5ab6dfa3"><path d="M 187.910156 57.605469 C 115.609375 57.605469 57 116.214844 57 188.515625 C 57 260.816406 115.609375 319.425781 187.910156 319.425781 C 260.210938 319.425781 318.820312 260.816406 318.820312 188.515625 C 318.820312 116.214844 260.210938 57.605469 187.910156 57.605469 Z M 187.910156 57.605469 "/></clipPath></defs><g id="0544dfbcb4"><g clip-rule="nonzero" clip-path="url(#d661303fa7)"><g clip-rule="nonzero" clip-path="url(#9a5ab6dfa3)"><path style=" stroke:none;fill-rule:nonzero;fill:#ffffff;fill-opacity:1;" d="M 57 57.605469 L 318.820312 57.605469 L 318.820312 319.425781 L 57 319.425781 Z M 57 57.605469 "/></g></g><path style=" stroke:none;fill-rule:nonzero;fill:#e9403e;fill-opacity:1;" d="M 183.570312 54.171875 C 176.613281 54.394531 169.355469 55.273438 162.558594 56.726562 C 160.957031 57.070312 153.613281 58.785156 151.617188 59.28125 C 138.199219 62.632812 125.53125 68.292969 113.980469 76.085938 C 112.164062 77.308594 107.101562 80.921875 105.183594 82.363281 C 96.105469 89.171875 88.023438 97.257812 81.203125 106.34375 C 79.777344 108.25 76.160156 113.3125 74.9375 115.128906 C 67.855469 125.621094 62.574219 136.953125 59.125 149.054688 C 58.367188 151.730469 56.425781 159.75 55.578125 163.707031 C 52.085938 180.082031 52.085938 197.214844 55.578125 213.585938 C 56.425781 217.542969 58.367188 225.5625 59.125 228.238281 C 62.3125 239.410156 67.152344 250.128906 73.410156 259.859375 C 75.0625 262.429688 78.820312 267.777344 81.214844 270.964844 C 88.011719 280.015625 96.128906 288.132812 105.183594 294.929688 C 107.101562 296.371094 112.164062 299.984375 113.980469 301.207031 C 125.539062 309.007812 138.195312 314.65625 151.617188 318.011719 C 153.625 318.507812 160.964844 320.222656 162.558594 320.566406 C 178.933594 324.058594 196.066406 324.058594 212.4375 320.566406 C 214.035156 320.222656 221.371094 318.507812 223.378906 318.011719 C 235.875 314.886719 247.886719 309.695312 258.710938 302.734375 C 261.28125 301.082031 266.628906 297.324219 269.816406 294.929688 C 278.867188 288.132812 286.984375 280.015625 293.78125 270.964844 C 295.179688 269.097656 298.792969 264.035156 299.992188 262.273438 C 307.359375 251.367188 312.859375 239.410156 316.234375 226.929688 C 316.886719 224.515625 318.765625 216.660156 319.417969 213.585938 C 322.910156 197.214844 322.910156 180.082031 319.417969 163.707031 C 318.988281 161.695312 317.273438 154.414062 316.714844 152.203125 C 313.570312 139.878906 308.453125 128.109375 301.585938 117.433594 C 299.933594 114.867188 296.183594 109.527344 293.777344 106.316406 C 286.992188 97.277344 278.882812 89.164062 269.816406 82.363281 C 267.894531 80.921875 262.832031 77.308594 261.019531 76.085938 C 249.453125 68.28125 236.882812 62.667969 223.378906 59.28125 C 221.609375 58.839844 214.152344 57.09375 212.59375 56.757812 C 203.242188 54.746094 193.304688 53.859375 183.570312 54.171875 Z M 191.457031 62.957031 C 199.0625 63.222656 206.296875 64.140625 213.585938 65.761719 C 223.144531 67.886719 229.988281 70.03125 237.40625 73.210938 C 246.535156 77.125 254.546875 81.828125 263.4375 88.492188 C 270.191406 93.554688 276.324219 99.230469 281.796875 105.480469 C 286.855469 111.25 292.210938 118.648438 296.058594 125.175781 C 301.769531 134.871094 306.058594 145.226562 308.796875 155.921875 C 311.496094 166.496094 312.628906 173.597656 313.140625 183.160156 C 313.246094 185.097656 313.246094 192.195312 313.140625 194.132812 C 312.628906 203.703125 311.496094 210.792969 308.796875 221.371094 C 306.058594 232.066406 301.769531 242.421875 296.058594 252.117188 C 292.773438 257.691406 288.121094 264.273438 283.773438 269.503906 C 279.878906 274.191406 275.285156 278.898438 270.664062 282.945312 C 265.351562 287.605469 258.617188 292.546875 252.507812 296.28125 C 242.4375 302.429688 231.523438 307.050781 220.199219 309.941406 C 209.625 312.648438 202.535156 313.785156 192.984375 314.289062 C 191.050781 314.394531 183.945312 314.394531 182.011719 314.289062 C 172.460938 313.785156 165.371094 312.648438 154.796875 309.941406 C 142.597656 306.824219 130.832031 301.6875 120.152344 294.816406 C 115.78125 292.003906 110.582031 288.195312 106.640625 284.921875 C 101.957031 281.03125 97.238281 276.425781 93.199219 271.8125 C 88.144531 266.042969 82.78125 258.636719 78.941406 252.117188 C 73.230469 242.421875 68.941406 232.066406 66.203125 221.371094 C 63.503906 210.796875 62.367188 203.699219 61.855469 194.132812 C 61.75 192.195312 61.75 185.097656 61.855469 183.160156 C 62.367188 173.597656 63.503906 166.496094 66.203125 155.921875 C 68.941406 145.226562 73.230469 134.871094 78.941406 125.175781 C 82.226562 119.605469 86.878906 113.019531 91.222656 107.789062 C 95.113281 103.113281 99.71875 98.386719 104.328125 94.347656 C 109.902344 89.472656 116.914062 84.351562 123.269531 80.542969 C 133.164062 74.609375 143.789062 70.164062 154.773438 67.351562 C 164.703125 64.8125 171.820312 63.628906 180.234375 63.109375 C 183.632812 62.898438 188.105469 62.835938 191.457031 62.957031 Z M 191.457031 62.957031 "/><path style=" stroke:none;fill-rule:nonzero;fill:#e9403e;fill-opacity:1;" d="M 183.570312 69.757812 C 153.394531 70.722656 124.808594 83.125 103.394531 104.539062 C 86.703125 121.230469 75.398438 142.339844 70.824219 165.390625 C 68.183594 178.683594 67.835938 192.71875 69.824219 206.136719 C 74.21875 235.835938 89.652344 262.660156 113.230469 281.5625 C 130.707031 295.578125 151.9375 304.394531 174.125 306.851562 C 202.351562 309.980469 230.273438 303.183594 253.679688 287.496094 C 274.667969 273.433594 290.703125 252.984375 299.316406 229.296875 C 308.945312 202.832031 308.824219 173.414062 298.976562 147.0625 C 290.265625 123.757812 274.378906 103.667969 253.679688 89.796875 C 232.960938 75.910156 208.632812 68.953125 183.570312 69.757812 Z M 123.84375 107.425781 C 122.339844 108.910156 120.195312 111.175781 119.121094 112.414062 C 118.785156 112.800781 118.074219 113.625 117.546875 114.242188 C 116.691406 115.226562 116.035156 116.023438 115.058594 117.285156 C 114.902344 117.484375 114.640625 117.800781 114.484375 118 C 114.042969 118.550781 113.238281 119.617188 112.871094 120.144531 C 112.613281 120.515625 112.519531 120.609375 112.484375 120.53125 C 112.421875 120.425781 112.558594 120.132812 112.800781 119.839844 C 112.886719 119.726562 113.0625 119.496094 113.179688 119.316406 C 113.300781 119.136719 113.566406 118.785156 113.773438 118.542969 C 113.980469 118.300781 114.261719 117.945312 114.398438 117.757812 C 114.535156 117.570312 114.703125 117.339844 114.769531 117.246094 C 114.839844 117.152344 115.238281 116.648438 115.664062 116.125 C 116.085938 115.601562 116.527344 115.046875 116.648438 114.890625 C 116.773438 114.734375 117.117188 114.339844 117.421875 114.015625 C 117.71875 113.691406 118.199219 113.144531 118.488281 112.800781 C 119.296875 111.828125 119.765625 111.304688 120.601562 110.433594 C 121.03125 109.988281 121.710938 109.273438 122.117188 108.84375 C 123.46875 107.421875 124.410156 106.535156 124.585938 106.535156 C 124.722656 106.535156 124.617188 106.667969 123.84375 107.425781 Z M 130.65625 115.035156 C 130.820312 115.207031 131.6875 116.210938 132.578125 117.257812 C 133.476562 118.308594 134.390625 119.367188 134.621094 119.621094 C 134.847656 119.878906 135.089844 120.160156 135.160156 120.246094 C 135.222656 120.332031 135.789062 120.992188 136.40625 121.71875 C 137.027344 122.433594 137.859375 123.40625 138.246094 123.867188 C 138.925781 124.667969 140.964844 127.035156 142.585938 128.914062 C 142.851562 129.21875 144.261719 130.855469 145.320312 132.097656 C 145.800781 132.652344 146.742188 133.75 147.410156 134.523438 C 148.078125 135.296875 148.75 136.089844 148.90625 136.273438 C 149.0625 136.460938 149.472656 136.941406 149.816406 137.335938 C 150.164062 137.726562 150.519531 138.132812 150.609375 138.238281 C 150.695312 138.339844 151.304688 139.054688 151.972656 139.824219 C 152.632812 140.589844 153.320312 141.394531 153.488281 141.605469 C 153.664062 141.816406 154.324219 142.589844 154.960938 143.328125 C 155.601562 144.0625 156.363281 144.941406 156.648438 145.285156 C 156.9375 145.621094 157.367188 146.050781 157.601562 146.230469 C 157.847656 146.40625 158.234375 146.707031 158.46875 146.886719 C 158.707031 147.066406 158.988281 147.273438 159.09375 147.34375 C 159.199219 147.410156 159.542969 147.652344 159.847656 147.882812 C 160.160156 148.113281 160.519531 148.382812 160.660156 148.484375 C 160.796875 148.582031 161.289062 148.9375 161.75 149.28125 C 162.210938 149.625 162.652344 149.949219 162.722656 149.996094 C 162.796875 150.042969 163.078125 150.253906 163.34375 150.453125 C 163.960938 150.914062 164.207031 151.09375 164.960938 151.644531 C 165.289062 151.878906 165.9375 152.359375 166.394531 152.703125 C 166.855469 153.046875 167.496094 153.519531 167.828125 153.765625 C 168.160156 154 168.546875 154.289062 168.6875 154.394531 C 168.832031 154.5 169.355469 154.886719 169.855469 155.246094 C 170.351562 155.617188 170.863281 155.988281 170.996094 156.082031 C 171.121094 156.183594 171.339844 156.339844 171.46875 156.445312 C 171.601562 156.542969 171.867188 156.742188 172.0625 156.882812 C 172.261719 157.019531 172.703125 157.34375 173.054688 157.597656 C 174.15625 158.402344 175.378906 159.300781 175.808594 159.625 C 176.039062 159.792969 176.34375 160.011719 176.488281 160.105469 C 176.636719 160.199219 176.804688 160.378906 176.875 160.496094 C 176.992188 160.714844 176.992188 160.722656 176.875 160.921875 C 176.8125 161.035156 176.582031 161.457031 176.375 161.867188 C 176.164062 162.28125 175.957031 162.671875 175.914062 162.742188 C 175.878906 162.808594 175.789062 162.992188 175.714844 163.148438 C 175.648438 163.304688 175.546875 163.496094 175.496094 163.582031 C 175.453125 163.671875 175.359375 163.851562 175.292969 163.988281 C 175.152344 164.277344 173.9375 166.65625 173.808594 166.886719 C 173.765625 166.976562 173.664062 167.167969 173.59375 167.324219 C 173.527344 167.480469 173.410156 167.71875 173.332031 167.855469 C 173.265625 167.992188 173.160156 168.183594 173.109375 168.289062 C 173.054688 168.390625 172.910156 168.671875 172.785156 168.914062 C 172.667969 169.152344 172.53125 169.40625 172.484375 169.476562 C 172.449219 169.542969 172.375 169.699219 172.324219 169.816406 C 172.273438 169.9375 172.1875 170.105469 172.136719 170.191406 C 172.085938 170.28125 171.972656 170.484375 171.894531 170.660156 C 171.8125 170.828125 171.699219 171.066406 171.644531 171.171875 C 171.382812 171.675781 171.300781 171.832031 170.894531 172.625 C 170.660156 173.085938 170.410156 173.578125 170.347656 173.714844 C 170.277344 173.851562 170.179688 174.03125 170.128906 174.121094 C 170.078125 174.207031 169.980469 174.402344 169.910156 174.554688 C 169.84375 174.710938 169.753906 174.894531 169.710938 174.960938 C 169.675781 175.03125 169.367188 175.617188 169.039062 176.269531 C 168.707031 176.917969 168.390625 177.535156 168.332031 177.644531 C 168.285156 177.742188 168.183594 177.941406 168.113281 178.078125 C 167.671875 179.019531 167.335938 179.457031 166.769531 179.832031 L 166.394531 180.074219 L 165.179688 180.09375 C 163.800781 180.117188 159.949219 180.003906 159.285156 179.917969 C 158.667969 179.84375 156.417969 179.742188 153.363281 179.667969 C 150.351562 179.585938 149.808594 179.625 149.175781 179.925781 C 148.960938 180.023438 148.75 180.105469 148.699219 180.105469 C 148.652344 180.105469 148.449219 180.1875 148.265625 180.285156 C 148.078125 180.386719 147.816406 180.5 147.683594 180.542969 C 147.546875 180.585938 147.292969 180.703125 147.105469 180.796875 C 146.917969 180.898438 146.722656 180.976562 146.675781 180.976562 C 146.617188 180.976562 146.4375 181.058594 146.261719 181.160156 C 146.089844 181.253906 145.789062 181.382812 145.59375 181.441406 C 145.402344 181.488281 145.207031 181.578125 145.171875 181.625 C 145.132812 181.671875 144.972656 181.746094 144.816406 181.78125 C 144.660156 181.824219 144.386719 181.9375 144.207031 182.039062 C 144.023438 182.144531 143.835938 182.226562 143.789062 182.226562 C 143.738281 182.226562 143.507812 182.324219 143.269531 182.441406 C 143.027344 182.5625 142.789062 182.660156 142.738281 182.660156 C 142.683594 182.660156 142.492188 182.75 142.304688 182.847656 C 142.117188 182.953125 141.847656 183.066406 141.710938 183.105469 C 141.566406 183.140625 141.386719 183.222656 141.300781 183.285156 C 141.210938 183.339844 141.03125 183.429688 140.894531 183.472656 C 140.757812 183.515625 140.527344 183.617188 140.378906 183.703125 C 140.226562 183.785156 139.972656 183.894531 139.804688 183.945312 C 139.636719 183.996094 139.378906 184.101562 139.230469 184.1875 C 139.082031 184.277344 138.917969 184.34375 138.863281 184.34375 C 138.8125 184.34375 138.574219 184.445312 138.332031 184.5625 C 138.09375 184.679688 137.863281 184.78125 137.828125 184.78125 C 137.785156 184.78125 137.566406 184.882812 137.335938 185 C 137.109375 185.117188 136.878906 185.21875 136.824219 185.21875 C 136.773438 185.21875 136.585938 185.296875 136.410156 185.398438 C 136.238281 185.492188 135.992188 185.597656 135.875 185.621094 C 135.757812 185.648438 135.484375 185.765625 135.265625 185.878906 C 135.046875 185.996094 134.828125 186.089844 134.777344 186.089844 C 134.726562 186.089844 134.542969 186.171875 134.359375 186.277344 C 134.171875 186.378906 133.980469 186.464844 133.929688 186.464844 C 133.875 186.464844 133.644531 186.566406 133.417969 186.683594 C 133.1875 186.800781 132.957031 186.902344 132.902344 186.902344 C 132.84375 186.902344 132.652344 186.980469 132.476562 187.082031 C 132.296875 187.183594 132.035156 187.300781 131.886719 187.335938 C 131.742188 187.375 131.515625 187.476562 131.394531 187.550781 C 131.167969 187.691406 130.371094 187.960938 130.175781 187.960938 C 130.121094 187.960938 130.046875 187.886719 130.015625 187.800781 C 129.976562 187.699219 129.953125 174.679688 129.953125 151.257812 C 129.953125 117.164062 129.957031 114.867188 130.058594 114.753906 C 130.203125 114.597656 130.300781 114.648438 130.65625 115.035156 Z M 145.695312 115.296875 C 146.574219 115.484375 147.464844 115.726562 147.753906 115.855469 C 147.925781 115.9375 148.175781 116.023438 148.3125 116.042969 C 148.449219 116.070312 148.71875 116.167969 148.90625 116.261719 C 149.554688 116.59375 150.308594 116.949219 150.363281 116.949219 C 150.394531 116.949219 150.507812 117.015625 150.621094 117.097656 C 150.726562 117.179688 150.914062 117.289062 151.03125 117.347656 C 151.382812 117.507812 152.128906 117.984375 152.964844 118.582031 C 155.214844 120.191406 157.542969 122.660156 158.894531 124.859375 C 159.46875 125.800781 160.023438 126.898438 160.128906 127.304688 C 160.226562 127.675781 160.472656 127.976562 160.777344 128.113281 C 160.921875 128.175781 161.34375 128.269531 161.726562 128.320312 C 162.097656 128.371094 162.535156 128.46875 162.691406 128.539062 C 162.847656 128.605469 163.164062 128.710938 163.402344 128.761719 C 163.632812 128.820312 163.960938 128.929688 164.125 129.019531 C 164.292969 129.097656 164.480469 129.167969 164.550781 129.167969 C 164.609375 129.167969 164.824219 129.25 165.011719 129.347656 C 165.199219 129.449219 165.460938 129.5625 165.589844 129.605469 C 165.726562 129.648438 165.90625 129.734375 166 129.804688 C 166.09375 129.867188 166.289062 129.960938 166.433594 130.007812 C 166.582031 130.066406 166.742188 130.148438 166.800781 130.191406 C 166.847656 130.238281 167.019531 130.339844 167.171875 130.414062 C 167.324219 130.496094 167.523438 130.601562 167.609375 130.664062 C 167.699219 130.726562 167.902344 130.851562 168.070312 130.949219 C 168.390625 131.144531 168.519531 131.226562 169.398438 131.816406 C 170.914062 132.839844 172.878906 134.65625 174.429688 136.460938 C 175.316406 137.492188 175.535156 137.773438 175.851562 138.238281 C 175.945312 138.375 176.089844 138.574219 176.164062 138.683594 C 176.382812 138.980469 177.035156 139.980469 177.230469 140.308594 C 177.324219 140.472656 177.5 140.765625 177.605469 140.953125 C 177.714844 141.136719 177.847656 141.394531 177.898438 141.511719 C 177.941406 141.632812 178.046875 141.832031 178.121094 141.949219 C 178.195312 142.066406 178.296875 142.28125 178.332031 142.417969 C 178.378906 142.554688 178.464844 142.734375 178.519531 142.820312 C 178.582031 142.910156 178.675781 143.140625 178.734375 143.332031 C 178.789062 143.53125 178.890625 143.78125 178.957031 143.894531 C 179.019531 144.011719 179.121094 144.292969 179.175781 144.53125 C 179.230469 144.765625 179.320312 145.046875 179.375 145.148438 C 179.425781 145.246094 179.519531 145.613281 179.585938 145.964844 C 179.648438 146.308594 179.761719 146.804688 179.835938 147.0625 C 179.949219 147.460938 179.972656 147.746094 180 149.023438 C 180.035156 150.632812 179.980469 151.34375 179.769531 151.960938 C 179.699219 152.160156 179.613281 152.503906 179.574219 152.730469 C 179.542969 152.953125 179.460938 153.222656 179.394531 153.328125 C 179.332031 153.425781 179.238281 153.664062 179.183594 153.84375 C 179.132812 154.027344 179.03125 154.257812 178.957031 154.355469 C 178.890625 154.457031 178.789062 154.65625 178.734375 154.804688 C 178.683594 154.949219 178.589844 155.128906 178.527344 155.199219 C 178.464844 155.265625 178.363281 155.414062 178.308594 155.527344 C 178.246094 155.640625 178.070312 155.910156 177.910156 156.113281 C 177.746094 156.320312 177.554688 156.582031 177.480469 156.695312 C 177.40625 156.804688 177.300781 156.914062 177.238281 156.9375 C 177.085938 156.992188 176.71875 156.863281 176.488281 156.667969 C 176.382812 156.582031 176.132812 156.394531 175.933594 156.257812 C 175.734375 156.121094 175.484375 155.933594 175.378906 155.847656 C 175.199219 155.695312 173.5625 154.5 173.257812 154.292969 C 173.183594 154.242188 172.898438 154.03125 172.628906 153.832031 C 171.84375 153.246094 169.859375 151.789062 169.511719 151.539062 C 169.375 151.4375 169.039062 151.1875 168.761719 150.984375 C 168.488281 150.769531 168.164062 150.535156 168.046875 150.453125 C 167.789062 150.285156 166.847656 149.585938 166.3125 149.167969 C 166.109375 149.011719 165.875 148.84375 165.800781 148.808594 C 165.722656 148.761719 165.507812 148.609375 165.320312 148.457031 C 165.140625 148.308594 164.84375 148.089844 164.660156 147.964844 C 164.488281 147.847656 164.238281 147.667969 164.113281 147.574219 C 163.757812 147.304688 162.867188 146.644531 162.597656 146.457031 C 162.464844 146.355469 162.25 146.195312 162.125 146.09375 C 161.992188 145.988281 161.730469 145.796875 161.53125 145.660156 C 161.339844 145.519531 160.933594 145.226562 160.632812 145.003906 C 160.339844 144.78125 160.027344 144.546875 159.941406 144.492188 C 159.855469 144.429688 159.65625 144.285156 159.5 144.179688 C 159.238281 143.988281 158.71875 143.433594 157.976562 142.542969 C 157.808594 142.335938 157.640625 142.136719 157.601562 142.097656 C 157.574219 142.0625 157.417969 141.878906 157.261719 141.699219 C 157.105469 141.511719 156.679688 141.027344 156.320312 140.609375 C 155.957031 140.195312 155.378906 139.535156 155.042969 139.136719 C 154.105469 138.035156 152.871094 136.597656 151.492188 135.003906 C 150.808594 134.207031 150.121094 133.40625 149.964844 133.21875 C 149.714844 132.910156 149.085938 132.183594 148.652344 131.691406 C 148.496094 131.519531 147.167969 129.972656 145.832031 128.414062 C 143.9375 126.199219 141.332031 123.164062 139.871094 121.46875 C 139.375 120.882812 138.667969 120.070312 138.308594 119.660156 C 137.398438 118.625 137.121094 118.269531 137.121094 118.113281 C 137.121094 117.964844 137.691406 117.390625 138.300781 116.929688 C 139.019531 116.378906 140.144531 115.769531 140.675781 115.636719 C 140.832031 115.601562 141.136719 115.496094 141.363281 115.40625 C 141.6875 115.277344 141.921875 115.238281 142.578125 115.203125 C 143.605469 115.144531 145.207031 115.191406 145.695312 115.296875 Z M 208.199219 143.699219 C 208.453125 143.730469 208.789062 143.800781 208.945312 143.851562 C 209.101562 143.902344 209.484375 143.96875 209.789062 144 C 210.101562 144.03125 210.53125 144.132812 210.753906 144.210938 C 210.980469 144.300781 211.328125 144.398438 211.535156 144.441406 C 211.738281 144.480469 212 144.566406 212.113281 144.636719 C 212.226562 144.699219 212.449219 144.785156 212.613281 144.824219 C 212.773438 144.859375 213.046875 144.972656 213.21875 145.066406 C 213.390625 145.160156 213.617188 145.253906 213.726562 145.277344 C 213.839844 145.304688 213.996094 145.378906 214.078125 145.441406 C 214.160156 145.503906 214.375 145.628906 214.5625 145.722656 C 214.75 145.808594 215.082031 145.988281 215.304688 146.125 C 215.53125 146.257812 215.796875 146.414062 215.898438 146.476562 C 216.003906 146.53125 216.515625 146.90625 217.046875 147.304688 C 217.929688 147.964844 218.921875 148.875 219.707031 149.742188 C 220.226562 150.308594 221.199219 151.636719 221.632812 152.375 C 221.703125 152.484375 221.851562 152.734375 221.964844 152.921875 C 222.070312 153.109375 222.207031 153.363281 222.257812 153.484375 C 222.308594 153.601562 222.449219 153.894531 222.570312 154.136719 C 222.886719 154.78125 223.074219 155.234375 223.191406 155.640625 C 223.25 155.839844 223.355469 156.113281 223.421875 156.25 C 223.492188 156.382812 223.585938 156.726562 223.628906 157.011719 C 223.679688 157.292969 223.761719 157.609375 223.808594 157.710938 C 223.914062 157.914062 224.035156 158.558594 224.035156 158.9375 C 224.035156 159.074219 224.070312 159.425781 224.121094 159.71875 C 224.359375 161.109375 224.363281 162.125 224.128906 163.863281 C 224.078125 164.238281 224.007812 164.792969 223.972656 165.09375 C 223.941406 165.390625 223.871094 165.722656 223.816406 165.828125 C 223.761719 165.933594 223.679688 166.257812 223.628906 166.539062 C 223.585938 166.824219 223.496094 167.148438 223.441406 167.269531 C 223.378906 167.378906 223.253906 167.703125 223.160156 167.980469 C 222.898438 168.746094 222.707031 169.207031 222.554688 169.449219 C 222.476562 169.574219 222.375 169.785156 222.324219 169.917969 C 222.28125 170.054688 222.171875 170.273438 222.078125 170.402344 C 221.988281 170.535156 221.914062 170.671875 221.914062 170.710938 C 221.914062 170.746094 221.847656 170.859375 221.765625 170.964844 C 221.691406 171.070312 221.570312 171.253906 221.515625 171.363281 C 221.242188 171.902344 220.21875 173.226562 219.339844 174.199219 C 218.652344 174.957031 217.25 176.171875 216.519531 176.65625 C 216.382812 176.746094 216.152344 176.902344 216.011719 177 C 215.867188 177.09375 215.730469 177.175781 215.703125 177.175781 C 215.679688 177.175781 215.574219 177.242188 215.46875 177.324219 C 215.363281 177.40625 215.148438 177.53125 214.992188 177.613281 C 214.839844 177.6875 214.667969 177.785156 214.621094 177.828125 C 214.570312 177.867188 214.402344 177.949219 214.253906 178.011719 C 214.109375 178.066406 213.882812 178.183594 213.757812 178.265625 C 213.632812 178.351562 213.492188 178.421875 213.433594 178.421875 C 213.386719 178.421875 213.1875 178.496094 213 178.585938 C 212.8125 178.671875 212.46875 178.796875 212.238281 178.863281 C 212.015625 178.925781 211.734375 179.03125 211.613281 179.101562 C 211.503906 179.164062 211.195312 179.25 210.941406 179.289062 C 210.679688 179.320312 210.335938 179.414062 210.175781 179.480469 C 210.007812 179.558594 209.625 179.636719 209.300781 179.675781 C 208.988281 179.707031 208.402344 179.78125 208.011719 179.84375 C 207.039062 179.988281 205.035156 179.988281 204.207031 179.84375 C 203.882812 179.78125 203.378906 179.71875 203.085938 179.699219 C 202.75 179.675781 202.363281 179.601562 202.027344 179.480469 C 201.734375 179.386719 201.347656 179.289062 201.160156 179.261719 C 200.972656 179.238281 200.652344 179.140625 200.441406 179.039062 C 200.230469 178.9375 200.003906 178.859375 199.9375 178.859375 C 199.867188 178.859375 199.65625 178.785156 199.46875 178.695312 C 199.28125 178.609375 199.019531 178.496094 198.890625 178.445312 C 198.757812 178.402344 198.578125 178.308594 198.484375 178.242188 C 198.390625 178.179688 198.179688 178.078125 198.003906 178.023438 C 197.835938 177.960938 197.59375 177.847656 197.472656 177.773438 C 197.164062 177.566406 196.863281 177.394531 196.519531 177.207031 C 196.359375 177.117188 196.054688 176.914062 195.847656 176.75 C 195.636719 176.589844 195.40625 176.421875 195.335938 176.371094 C 194.324219 175.699219 192.257812 173.691406 191.761719 172.902344 C 191.699219 172.796875 191.488281 172.511719 191.289062 172.261719 C 191.082031 172.011719 190.898438 171.746094 190.867188 171.667969 C 190.835938 171.59375 190.679688 171.332031 190.527344 171.097656 C 190.230469 170.636719 189.554688 169.324219 189.554688 169.214844 C 189.554688 169.175781 189.5 169.074219 189.425781 168.988281 C 189.355469 168.894531 189.246094 168.621094 189.175781 168.371094 C 189.105469 168.121094 188.996094 167.828125 188.933594 167.722656 C 188.871094 167.609375 188.777344 167.3125 188.722656 167.050781 C 188.664062 166.789062 188.578125 166.488281 188.527344 166.390625 C 188.472656 166.28125 188.398438 165.964844 188.359375 165.683594 C 188.320312 165.402344 188.222656 164.878906 188.140625 164.519531 C 187.835938 163.253906 187.835938 160.296875 188.140625 159.03125 C 188.222656 158.671875 188.328125 158.121094 188.367188 157.816406 C 188.410156 157.503906 188.484375 157.191406 188.535156 157.117188 C 188.582031 157.035156 188.671875 156.757812 188.722656 156.496094 C 188.777344 156.234375 188.902344 155.859375 188.996094 155.671875 C 189.089844 155.476562 189.1875 155.210938 189.214844 155.074219 C 189.238281 154.941406 189.308594 154.75 189.375 154.65625 C 189.445312 154.566406 189.539062 154.382812 189.582031 154.242188 C 189.632812 154.113281 189.753906 153.851562 189.863281 153.65625 C 189.96875 153.46875 190.054688 153.289062 190.054688 153.253906 C 190.054688 153.214844 190.148438 153.039062 190.261719 152.867188 C 190.367188 152.699219 190.574219 152.378906 190.710938 152.160156 C 191.433594 151 192.28125 149.941406 193.265625 148.964844 C 193.800781 148.425781 194.800781 147.535156 195.003906 147.410156 C 195.113281 147.34375 195.285156 147.21875 195.398438 147.128906 C 195.703125 146.878906 196.097656 146.601562 196.289062 146.5 C 196.382812 146.449219 196.65625 146.289062 196.886719 146.136719 C 197.492188 145.765625 197.449219 145.789062 198.066406 145.503906 C 198.378906 145.359375 198.820312 145.140625 199.058594 145.027344 C 199.289062 144.910156 199.542969 144.816406 199.617188 144.816406 C 199.6875 144.816406 199.882812 144.75 200.042969 144.660156 C 200.207031 144.574219 200.53125 144.460938 200.761719 144.417969 C 200.992188 144.367188 201.363281 144.253906 201.589844 144.175781 C 201.8125 144.09375 202.207031 144.007812 202.46875 143.980469 C 202.730469 143.957031 203.035156 143.914062 203.152344 143.875 C 203.648438 143.730469 204.046875 143.675781 204.925781 143.632812 C 205.992188 143.582031 207.507812 143.613281 208.199219 143.699219 Z M 298.34375 148.285156 C 298.476562 148.558594 298.609375 148.882812 298.632812 149 C 298.65625 149.113281 298.71875 149.269531 298.761719 149.335938 C 298.832031 149.441406 299.042969 150.695312 299.039062 150.957031 C 299.03125 151.113281 298.914062 150.785156 298.832031 150.390625 C 298.78125 150.152344 298.683594 149.859375 298.613281 149.742188 C 298.546875 149.625 298.457031 149.363281 298.421875 149.167969 C 298.382812 148.96875 298.285156 148.652344 298.195312 148.464844 C 298.109375 148.269531 298.015625 148.003906 297.984375 147.859375 C 297.933594 147.640625 297.933594 147.617188 298.015625 147.691406 C 298.058594 147.742188 298.207031 148.007812 298.34375 148.285156 Z M 240.03125 149.765625 C 240.152344 149.855469 240.152344 150.046875 240.167969 160.589844 C 240.175781 167.953125 240.164062 171.359375 240.121094 171.4375 C 240.039062 171.589844 239.707031 171.605469 239.558594 171.46875 C 239.390625 171.320312 238.648438 170.871094 237.824219 170.433594 C 237.644531 170.335938 237.394531 170.1875 237.265625 170.097656 C 237.140625 170.011719 237.007812 169.941406 236.984375 169.941406 C 236.953125 169.941406 236.839844 169.878906 236.734375 169.800781 C 236.492188 169.625 235.941406 169.3125 235.539062 169.113281 C 235.367188 169.03125 235.167969 168.902344 235.105469 168.828125 C 234.980469 168.691406 234.734375 168.652344 234.664062 168.757812 C 234.644531 168.789062 234.628906 171.582031 234.632812 174.957031 C 234.632812 181.039062 234.632812 181.101562 234.507812 181.226562 C 234.347656 181.390625 234.339844 181.390625 234.007812 181.164062 C 233.855469 181.066406 233.699219 180.976562 233.65625 180.976562 C 233.617188 180.976562 233.503906 180.910156 233.40625 180.828125 C 233.3125 180.746094 233.09375 180.605469 232.917969 180.515625 C 232.257812 180.15625 231.816406 179.90625 230.816406 179.3125 C 230.597656 179.1875 230.257812 178.988281 230.050781 178.871094 C 229.84375 178.757812 229.496094 178.554688 229.269531 178.414062 C 229.046875 178.285156 228.742188 178.109375 228.585938 178.035156 C 228.421875 177.953125 228.21875 177.828125 228.125 177.75 C 228.023438 177.671875 227.914062 177.613281 227.867188 177.613281 C 227.832031 177.613281 227.65625 177.511719 227.488281 177.394531 C 227.320312 177.273438 227.152344 177.175781 227.113281 177.175781 C 227.078125 177.175781 226.941406 177.09375 226.800781 176.988281 C 226.671875 176.886719 226.507812 176.800781 226.453125 176.800781 C 226.347656 176.800781 226.089844 177.074219 226.089844 177.1875 C 226.089844 177.226562 226.03125 177.332031 225.960938 177.4375 C 225.886719 177.535156 225.765625 177.734375 225.6875 177.878906 C 225.613281 178.023438 225.449219 178.316406 225.324219 178.527344 C 225.199219 178.746094 224.988281 179.09375 224.863281 179.308594 C 224.738281 179.527344 224.578125 179.8125 224.507812 179.949219 C 224.441406 180.085938 224.300781 180.3125 224.207031 180.441406 C 224.117188 180.574219 224.035156 180.710938 224.035156 180.742188 C 224.035156 180.777344 223.976562 180.878906 223.914062 180.972656 C 223.847656 181.066406 223.710938 181.296875 223.609375 181.484375 C 223.421875 181.824219 223.21875 182.179688 222.78125 182.910156 C 222.648438 183.136719 222.46875 183.464844 222.382812 183.640625 C 222.289062 183.820312 222.1875 183.988281 222.152344 184.007812 C 222.113281 184.03125 222.03125 184.175781 221.964844 184.332031 C 221.890625 184.488281 221.753906 184.730469 221.660156 184.863281 C 221.558594 185 221.476562 185.144531 221.476562 185.1875 C 221.476562 185.230469 221.398438 185.367188 221.289062 185.5 C 221.191406 185.628906 221.105469 185.765625 221.105469 185.808594 C 221.105469 185.855469 221.027344 185.996094 220.9375 186.128906 C 220.84375 186.257812 220.703125 186.496094 220.625 186.652344 C 220.410156 187.050781 220.101562 187.574219 219.90625 187.878906 C 219.644531 188.277344 219.40625 188.304688 218.910156 187.96875 C 218.542969 187.722656 217.769531 187.273438 217.710938 187.273438 C 217.6875 187.273438 217.519531 187.164062 217.332031 187.027344 C 216.902344 186.707031 216.894531 186.589844 217.269531 185.964844 C 217.417969 185.710938 217.550781 185.472656 217.550781 185.441406 C 217.550781 185.410156 217.617188 185.296875 217.699219 185.191406 C 217.78125 185.085938 217.917969 184.855469 218.011719 184.6875 C 218.261719 184.234375 218.375 184.03125 218.535156 183.757812 C 218.617188 183.628906 218.746094 183.402344 218.828125 183.261719 C 218.902344 183.121094 219.082031 182.804688 219.222656 182.566406 C 219.363281 182.324219 219.5625 181.976562 219.671875 181.789062 C 219.777344 181.601562 219.976562 181.265625 220.105469 181.039062 C 220.242188 180.816406 220.398438 180.535156 220.460938 180.417969 C 220.523438 180.296875 220.648438 180.085938 220.742188 179.957031 C 220.84375 179.824219 220.917969 179.679688 220.917969 179.636719 C 220.917969 179.59375 220.996094 179.449219 221.089844 179.320312 C 221.183594 179.1875 221.320312 178.964844 221.390625 178.828125 C 221.460938 178.691406 221.621094 178.402344 221.746094 178.183594 C 221.871094 177.972656 222.082031 177.625 222.207031 177.40625 C 222.332031 177.195312 222.53125 176.84375 222.65625 176.625 C 223.035156 175.964844 223.1875 175.703125 223.328125 175.484375 C 223.410156 175.367188 223.472656 175.253906 223.472656 175.222656 C 223.472656 175.179688 223.359375 175.0625 223.074219 174.824219 C 222.960938 174.730469 222.910156 174.632812 222.910156 174.480469 C 222.910156 174.269531 222.972656 174.152344 223.441406 173.527344 C 223.597656 173.320312 223.773438 173.054688 223.835938 172.933594 C 223.890625 172.816406 224.015625 172.605469 224.101562 172.46875 C 224.453125 171.925781 224.707031 171.457031 224.777344 171.246094 C 224.8125 171.121094 224.917969 170.929688 225 170.816406 C 225.085938 170.695312 225.15625 170.558594 225.15625 170.511719 C 225.15625 170.453125 225.257812 170.21875 225.375 169.980469 C 225.492188 169.738281 225.59375 169.492188 225.59375 169.429688 C 225.59375 169.371094 225.679688 169.144531 225.785156 168.9375 C 225.886719 168.734375 225.992188 168.414062 226.011719 168.242188 C 226.03125 168.058594 226.109375 167.785156 226.191406 167.625 C 226.273438 167.460938 226.382812 167.070312 226.433594 166.75 C 226.492188 166.433594 226.601562 165.914062 226.683594 165.609375 C 226.808594 165.15625 226.851562 164.769531 226.910156 163.550781 C 227.007812 161.613281 226.910156 158.914062 226.707031 158.121094 C 226.589844 157.640625 226.585938 157.597656 226.683594 157.417969 C 226.738281 157.304688 226.859375 157.1875 226.953125 157.144531 C 227.046875 157.105469 227.257812 156.980469 227.425781 156.867188 C 227.589844 156.757812 227.757812 156.664062 227.800781 156.664062 C 227.835938 156.664062 227.980469 156.574219 228.113281 156.476562 C 228.25 156.371094 228.390625 156.289062 228.429688 156.289062 C 228.46875 156.289062 228.597656 156.214844 228.714844 156.125 C 228.835938 156.039062 229.070312 155.894531 229.238281 155.816406 C 229.414062 155.734375 229.707031 155.570312 229.894531 155.453125 C 230.445312 155.121094 231.023438 154.785156 231.359375 154.605469 C 231.535156 154.511719 231.785156 154.363281 231.914062 154.273438 C 232.046875 154.179688 232.183594 154.105469 232.207031 154.105469 C 232.238281 154.105469 232.382812 154.019531 232.527344 153.917969 C 232.664062 153.8125 232.8125 153.734375 232.855469 153.734375 C 232.898438 153.734375 233.042969 153.652344 233.1875 153.546875 C 233.324219 153.445312 233.535156 153.320312 233.648438 153.265625 C 233.761719 153.214844 234.035156 153.058594 234.257812 152.929688 C 234.484375 152.796875 234.839844 152.589844 235.058594 152.46875 C 235.269531 152.335938 235.617188 152.136719 235.835938 152.003906 C 236.296875 151.738281 236.683594 151.519531 237.132812 151.277344 C 237.320312 151.183594 237.511719 151.0625 237.5625 151.019531 C 237.613281 150.976562 237.8125 150.859375 238 150.757812 C 238.367188 150.558594 238.871094 150.265625 239.457031 149.90625 C 239.882812 149.648438 239.871094 149.648438 240.03125 149.765625 Z M 179.445312 162.816406 C 179.511719 162.878906 179.761719 163.164062 179.992188 163.457031 C 180.222656 163.75 180.695312 164.3125 181.039062 164.707031 C 181.390625 165.097656 181.8125 165.589844 181.980469 165.796875 C 182.15625 166.003906 182.796875 166.757812 183.414062 167.472656 C 184.03125 168.191406 184.773438 169.0625 185.066406 169.414062 C 185.609375 170.066406 186.390625 170.976562 188.472656 173.398438 C 189.121094 174.152344 189.792969 174.941406 189.960938 175.148438 C 190.125 175.355469 190.691406 176.015625 191.214844 176.613281 C 191.730469 177.210938 192.492188 178.105469 192.898438 178.585938 C 193.308594 179.070312 193.976562 179.863281 194.386719 180.34375 C 194.800781 180.824219 195.335938 181.445312 195.578125 181.734375 C 195.820312 182.019531 196.394531 182.691406 196.855469 183.230469 C 197.320312 183.765625 198.210938 184.8125 198.847656 185.5625 C 199.480469 186.308594 200.449219 187.4375 200.996094 188.078125 C 201.550781 188.714844 202.320312 189.621094 202.710938 190.085938 C 203.105469 190.554688 203.859375 191.441406 204.382812 192.050781 C 204.914062 192.660156 205.867188 193.777344 206.503906 194.53125 C 207.144531 195.28125 207.949219 196.222656 208.292969 196.621094 C 208.632812 197.019531 208.976562 197.414062 209.046875 197.5 C 209.121094 197.585938 209.457031 197.980469 209.792969 198.371094 C 212.632812 201.675781 213.316406 202.511719 213.480469 202.84375 C 213.554688 202.992188 213.652344 203.160156 213.691406 203.210938 C 213.734375 203.261719 213.835938 203.4375 213.914062 203.597656 C 213.996094 203.757812 214.171875 204.082031 214.308594 204.328125 C 214.4375 204.5625 214.613281 204.886719 214.6875 205.042969 C 214.761719 205.199219 214.882812 205.40625 214.960938 205.511719 C 215.039062 205.613281 215.125 205.765625 215.148438 205.855469 C 215.175781 205.941406 215.273438 206.121094 215.363281 206.261719 C 215.457031 206.398438 215.574219 206.609375 215.636719 206.726562 C 215.699219 206.847656 215.855469 207.140625 215.992188 207.382812 C 216.121094 207.617188 216.296875 207.941406 216.378906 208.097656 C 216.460938 208.253906 216.582031 208.460938 216.652344 208.566406 C 216.726562 208.667969 216.808594 208.824219 216.832031 208.910156 C 216.859375 208.996094 216.9375 209.148438 217.015625 209.253906 C 217.09375 209.351562 217.230469 209.59375 217.324219 209.78125 C 217.417969 209.96875 217.585938 210.292969 217.707031 210.5 C 217.816406 210.707031 218 211.03125 218.097656 211.214844 C 218.199219 211.402344 218.398438 211.753906 218.535156 211.996094 C 218.679688 212.234375 218.867188 212.570312 218.953125 212.742188 C 219.039062 212.914062 219.222656 213.25 219.351562 213.492188 C 219.488281 213.730469 219.683594 214.085938 219.78125 214.269531 C 219.882812 214.457031 220.082031 214.828125 220.230469 215.082031 C 220.375 215.335938 220.582031 215.707031 220.6875 215.890625 C 220.785156 216.078125 220.964844 216.402344 221.078125 216.609375 C 221.191406 216.816406 221.371094 217.152344 221.476562 217.359375 C 221.582031 217.5625 221.785156 217.925781 221.921875 218.167969 C 222.0625 218.40625 222.277344 218.785156 222.394531 219.011719 C 222.511719 219.234375 222.695312 219.566406 222.792969 219.738281 C 223.203125 220.488281 223.378906 220.804688 223.535156 221.097656 C 223.621094 221.265625 223.746094 221.484375 223.804688 221.574219 C 223.941406 221.777344 224.226562 222.3125 224.441406 222.75 C 224.53125 222.9375 224.644531 223.136719 224.6875 223.1875 C 224.734375 223.238281 224.914062 223.5625 225.09375 223.902344 C 225.269531 224.246094 225.46875 224.597656 225.53125 224.683594 C 225.585938 224.769531 225.699219 224.964844 225.773438 225.121094 C 225.847656 225.277344 226.023438 225.59375 226.152344 225.835938 C 226.285156 226.074219 226.453125 226.390625 226.527344 226.535156 C 226.660156 226.796875 226.914062 227.050781 227.058594 227.050781 C 227.101562 227.050781 227.171875 227.097656 227.21875 227.152344 C 227.265625 227.203125 227.425781 227.316406 227.582031 227.402344 C 227.738281 227.484375 228.050781 227.664062 228.273438 227.800781 C 228.5 227.933594 228.824219 228.117188 228.992188 228.210938 C 229.164062 228.304688 229.371094 228.429688 229.453125 228.5 C 229.539062 228.5625 229.71875 228.667969 229.859375 228.734375 C 230 228.804688 230.28125 228.964844 230.488281 229.105469 C 230.691406 229.242188 230.984375 229.421875 231.140625 229.503906 C 231.296875 229.578125 231.507812 229.703125 231.609375 229.777344 C 231.800781 229.90625 232.28125 230.199219 232.570312 230.351562 C 232.65625 230.402344 232.84375 230.519531 232.976562 230.617188 C 233.105469 230.710938 233.253906 230.792969 233.300781 230.792969 C 233.34375 230.792969 233.453125 230.863281 233.554688 230.941406 C 233.648438 231.023438 233.871094 231.160156 234.039062 231.253906 C 234.214844 231.347656 234.507812 231.515625 234.695312 231.636719 C 234.882812 231.753906 235.136719 231.902344 235.257812 231.964844 C 235.375 232.035156 235.617188 232.183594 235.800781 232.296875 C 236.167969 232.539062 236.460938 232.714844 237.128906 233.101562 C 237.382812 233.25 237.695312 233.429688 237.8125 233.503906 C 237.929688 233.582031 238.15625 233.71875 238.3125 233.804688 C 238.46875 233.898438 238.75 234.074219 238.933594 234.191406 C 239.121094 234.308594 239.421875 234.476562 239.589844 234.570312 C 239.765625 234.664062 239.984375 234.800781 240.074219 234.882812 C 240.175781 234.964844 240.289062 235.03125 240.324219 235.03125 C 240.367188 235.039062 240.636719 235.1875 240.929688 235.375 C 241.222656 235.5625 241.574219 235.773438 241.714844 235.84375 C 241.851562 235.914062 242.035156 236.019531 242.121094 236.082031 C 242.203125 236.148438 242.414062 236.273438 242.582031 236.367188 C 242.757812 236.453125 243.09375 236.652344 243.332031 236.808594 C 243.574219 236.964844 243.828125 237.121094 243.910156 237.152344 C 243.992188 237.191406 244.148438 237.285156 244.253906 237.363281 C 244.367188 237.445312 244.566406 237.570312 244.703125 237.644531 C 244.839844 237.71875 245.109375 237.875 245.292969 237.996094 C 245.480469 238.113281 245.78125 238.28125 245.949219 238.375 C 246.125 238.46875 246.34375 238.605469 246.433594 238.6875 C 246.535156 238.769531 246.648438 238.835938 246.691406 238.835938 C 246.742188 238.835938 246.847656 238.890625 246.933594 238.960938 C 247.140625 239.121094 247.738281 239.484375 248.082031 239.648438 C 248.226562 239.714844 248.363281 239.800781 248.378906 239.832031 C 248.40625 239.871094 248.566406 239.972656 248.742188 240.0625 C 248.921875 240.152344 249.152344 240.289062 249.261719 240.371094 C 249.367188 240.449219 249.476562 240.519531 249.507812 240.519531 C 249.539062 240.519531 249.703125 240.621094 249.871094 240.738281 C 250.039062 240.855469 250.214844 240.957031 250.25 240.957031 C 250.292969 240.957031 250.402344 241.011719 250.488281 241.082031 C 250.574219 241.148438 250.789062 241.28125 250.960938 241.375 C 251.128906 241.472656 251.535156 241.710938 251.859375 241.902344 C 252.183594 242.101562 252.46875 242.265625 252.507812 242.265625 C 252.546875 242.265625 252.609375 242.308594 252.65625 242.363281 C 252.703125 242.421875 252.894531 242.546875 253.082031 242.644531 C 253.273438 242.746094 253.597656 242.9375 253.804688 243.074219 C 254.011719 243.207031 254.304688 243.386719 254.460938 243.46875 C 254.617188 243.542969 254.828125 243.667969 254.925781 243.742188 C 255.03125 243.8125 255.464844 244.074219 255.894531 244.324219 C 256.324219 244.570312 256.816406 244.871094 256.984375 244.976562 C 257.339844 245.207031 258.167969 245.699219 258.65625 245.976562 C 258.835938 246.074219 259.066406 246.222656 259.167969 246.300781 C 259.261719 246.378906 259.371094 246.441406 259.417969 246.441406 C 259.460938 246.441406 259.601562 246.515625 259.734375 246.617188 C 259.984375 246.792969 260.371094 247.027344 261.191406 247.503906 C 261.449219 247.644531 261.730469 247.8125 261.816406 247.875 C 262.117188 248.082031 262.933594 248.5625 262.976562 248.5625 C 263 248.5625 263.105469 248.632812 263.214844 248.710938 C 263.320312 248.792969 263.550781 248.929688 263.71875 249.023438 C 264.140625 249.253906 264.492188 249.464844 264.570312 249.546875 C 264.617188 249.589844 264.535156 249.785156 264.273438 250.207031 L 263.910156 250.808594 L 229.8125 250.808594 C 200.589844 250.808594 195.699219 250.792969 195.554688 250.71875 C 195.460938 250.667969 195.117188 250.34375 194.792969 249.988281 C 194.46875 249.640625 194.144531 249.292969 194.070312 249.222656 C 193.996094 249.148438 193.328125 248.445312 192.582031 247.660156 C 191.832031 246.867188 190.890625 245.886719 190.492188 245.476562 C 190.09375 245.066406 189.320312 244.246094 188.777344 243.667969 C 188.234375 243.082031 187.742188 242.566406 187.691406 242.507812 C 187.398438 242.203125 186.5625 241.328125 185.347656 240.050781 C 184.601562 239.261719 183.738281 238.363281 183.445312 238.058594 C 182.628906 237.207031 180.410156 234.863281 179.425781 233.824219 C 178.621094 232.96875 177.796875 232.214844 177.179688 231.761719 C 177.042969 231.660156 176.898438 231.546875 176.863281 231.511719 C 176.820312 231.480469 176.644531 231.335938 176.464844 231.199219 C 176.28125 231.0625 176.035156 230.863281 175.902344 230.761719 C 175.769531 230.65625 175.523438 230.464844 175.339844 230.324219 C 175.167969 230.1875 174.785156 229.894531 174.5 229.671875 C 174.21875 229.445312 173.839844 229.152344 173.65625 229.015625 C 173.484375 228.878906 173.097656 228.582031 172.808594 228.347656 C 172.292969 227.945312 171.507812 227.332031 171.171875 227.082031 C 171.078125 227.015625 170.722656 226.734375 170.382812 226.460938 C 170.042969 226.1875 169.691406 225.910156 169.605469 225.847656 C 169.519531 225.785156 169.3125 225.625 169.136719 225.488281 C 168.96875 225.351562 168.5625 225.03125 168.246094 224.789062 C 167.929688 224.539062 167.558594 224.253906 167.429688 224.152344 C 166.949219 223.773438 166.058594 223.082031 164.660156 222.007812 C 164.242188 221.683594 163.613281 221.191406 163.265625 220.917969 C 162.914062 220.636719 162.484375 220.300781 162.3125 220.164062 C 162.136719 220.027344 161.742188 219.71875 161.449219 219.488281 C 161.152344 219.257812 160.789062 218.980469 160.640625 218.867188 C 160.488281 218.753906 160.277344 218.597656 160.171875 218.511719 C 159.78125 218.199219 159.207031 217.886719 158.59375 217.664062 L 157.976562 217.4375 L 156.480469 217.382812 C 155.660156 217.351562 154.453125 217.269531 153.800781 217.203125 C 152.230469 217.039062 151.15625 216.964844 149.871094 216.921875 C 148.6875 216.882812 147.726562 216.808594 146.472656 216.671875 C 146.011719 216.621094 144.722656 216.554688 143.605469 216.515625 C 142.492188 216.484375 141.230469 216.417969 140.800781 216.367188 C 139.714844 216.234375 139.503906 216.214844 138.089844 216.148438 C 134.988281 215.984375 134.304688 215.941406 133.664062 215.855469 C 133.289062 215.804688 132.347656 215.742188 131.578125 215.71875 C 130.21875 215.675781 130.183594 215.667969 130.070312 215.523438 C 129.953125 215.382812 129.953125 215.070312 129.953125 203.421875 C 129.953125 195.648438 129.972656 191.402344 130.015625 191.296875 C 130.050781 191.195312 130.164062 191.101562 130.308594 191.046875 C 130.4375 190.996094 130.707031 190.871094 130.898438 190.765625 C 131.09375 190.667969 131.292969 190.578125 131.34375 190.578125 C 131.394531 190.578125 131.566406 190.503906 131.734375 190.417969 C 131.902344 190.324219 132.191406 190.199219 132.378906 190.136719 C 132.558594 190.074219 132.796875 189.96875 132.90625 189.898438 C 133.015625 189.835938 133.199219 189.761719 133.320312 189.738281 C 133.4375 189.714844 133.710938 189.59375 133.929688 189.480469 C 134.148438 189.363281 134.371094 189.269531 134.429688 189.269531 C 134.484375 189.269531 134.679688 189.183594 134.847656 189.082031 C 135.019531 188.984375 135.203125 188.894531 135.257812 188.894531 C 135.320312 188.894531 135.519531 188.816406 135.71875 188.710938 C 135.914062 188.609375 136.1875 188.496094 136.332031 188.460938 C 136.472656 188.421875 136.667969 188.335938 136.753906 188.273438 C 136.84375 188.210938 137.054688 188.109375 137.222656 188.054688 C 137.390625 188 137.640625 187.886719 137.777344 187.8125 C 137.914062 187.730469 138.125 187.644531 138.246094 187.617188 C 138.363281 187.59375 138.605469 187.492188 138.773438 187.398438 C 138.949219 187.304688 139.199219 187.195312 139.335938 187.152344 C 139.472656 187.105469 139.660156 187.019531 139.746094 186.957031 C 139.835938 186.894531 140.046875 186.8125 140.214844 186.769531 C 140.382812 186.726562 140.589844 186.644531 140.675781 186.589844 C 140.761719 186.527344 140.957031 186.433594 141.113281 186.382812 C 141.269531 186.332031 141.59375 186.195312 141.828125 186.089844 C 142.074219 185.984375 142.476562 185.796875 142.734375 185.679688 C 142.996094 185.5625 143.246094 185.46875 143.292969 185.46875 C 143.34375 185.46875 143.53125 185.378906 143.699219 185.28125 C 143.875 185.179688 144.054688 185.09375 144.105469 185.09375 C 144.160156 185.09375 144.398438 185 144.636719 184.886719 C 144.878906 184.769531 145.183594 184.636719 145.320312 184.59375 C 145.457031 184.550781 145.613281 184.476562 145.671875 184.433594 C 145.726562 184.382812 145.917969 184.300781 146.101562 184.246094 C 146.28125 184.1875 146.582031 184.0625 146.753906 183.964844 C 146.929688 183.863281 147.128906 183.785156 147.191406 183.785156 C 147.253906 183.785156 147.453125 183.695312 147.640625 183.597656 C 147.820312 183.492188 148.003906 183.410156 148.046875 183.410156 C 148.089844 183.410156 148.320312 183.308594 148.550781 183.191406 C 148.789062 183.074219 149.011719 182.972656 149.0625 182.972656 C 149.105469 182.972656 149.300781 182.890625 149.484375 182.792969 C 149.679688 182.691406 150.089844 182.535156 150.414062 182.441406 L 150.996094 182.273438 L 152.304688 182.34375 C 153.027344 182.386719 153.757812 182.429688 153.925781 182.441406 C 154.097656 182.460938 155.335938 182.5 156.667969 182.535156 C 159.039062 182.597656 161.832031 182.730469 163.214844 182.847656 C 163.59375 182.878906 164.46875 182.90625 165.160156 182.90625 C 166.257812 182.910156 166.464844 182.890625 166.75 182.792969 C 166.929688 182.722656 167.242188 182.625 167.441406 182.566406 C 168.164062 182.363281 169.230469 181.570312 169.703125 180.882812 C 170.023438 180.429688 170.261719 180.003906 170.753906 179.015625 C 170.976562 178.566406 171.203125 178.136719 171.25 178.046875 C 171.300781 177.960938 171.402344 177.773438 171.46875 177.625 C 171.542969 177.480469 171.65625 177.242188 171.730469 177.09375 C 171.800781 176.949219 171.898438 176.761719 171.949219 176.675781 C 172 176.589844 172.222656 176.152344 172.449219 175.710938 C 172.671875 175.261719 172.890625 174.832031 172.941406 174.742188 C 172.992188 174.65625 173.078125 174.476562 173.148438 174.339844 C 173.253906 174.113281 174.417969 171.839844 174.625 171.4375 C 174.675781 171.351562 174.769531 171.171875 174.828125 171.035156 C 175.152344 170.371094 175.296875 170.09375 175.347656 170.003906 C 175.371094 169.957031 175.585938 169.542969 175.808594 169.101562 C 176.035156 168.652344 176.257812 168.222656 176.308594 168.132812 C 176.359375 168.046875 176.449219 167.855469 176.527344 167.699219 C 176.59375 167.542969 176.710938 167.304688 176.789062 167.167969 C 177.011719 166.746094 177.105469 166.558594 177.292969 166.171875 C 177.390625 165.964844 177.523438 165.726562 177.585938 165.640625 C 177.640625 165.554688 177.730469 165.378906 177.765625 165.253906 C 177.808594 165.128906 177.890625 164.960938 177.953125 164.878906 C 178.015625 164.800781 178.117188 164.605469 178.179688 164.445312 C 178.242188 164.28125 178.328125 164.113281 178.371094 164.074219 C 178.414062 164.039062 178.515625 163.851562 178.582031 163.664062 C 178.746094 163.234375 179.121094 162.722656 179.273438 162.710938 C 179.300781 162.710938 179.375 162.761719 179.445312 162.816406 Z M 225.40625 191.394531 C 226.089844 191.453125 226.328125 191.503906 226.675781 191.644531 C 226.910156 191.746094 227.144531 191.828125 227.203125 191.828125 C 227.3125 191.828125 228.40625 192.363281 228.835938 192.628906 C 230.136719 193.429688 231.433594 194.863281 232.015625 196.128906 C 232.082031 196.285156 232.214844 196.546875 232.296875 196.722656 C 232.382812 196.890625 232.480469 197.164062 232.511719 197.324219 C 232.542969 197.488281 232.652344 197.835938 232.742188 198.105469 C 232.914062 198.578125 232.914062 198.621094 232.914062 200.023438 L 232.914062 201.460938 L 232.71875 202.019531 C 232.613281 202.324219 232.5 202.679688 232.480469 202.800781 C 232.457031 202.917969 232.390625 203.105469 232.332031 203.203125 C 232.269531 203.3125 232.175781 203.523438 232.121094 203.683594 C 232.070312 203.847656 231.953125 204.070312 231.863281 204.183594 C 231.785156 204.296875 231.683594 204.464844 231.648438 204.558594 C 231.492188 204.976562 230.289062 206.328125 229.621094 206.839844 C 229.148438 207.207031 228.453125 207.664062 228.375 207.664062 C 228.34375 207.664062 228.1875 207.742188 228.03125 207.84375 C 227.875 207.941406 227.664062 208.042969 227.558594 208.066406 C 227.457031 208.085938 227.1875 208.1875 226.964844 208.285156 C 226.738281 208.378906 226.390625 208.480469 226.183594 208.503906 C 225.980469 208.53125 225.5625 208.605469 225.25 208.667969 C 224.640625 208.792969 223.835938 208.816406 223.441406 208.722656 C 223.304688 208.683594 222.863281 208.605469 222.457031 208.542969 C 222.050781 208.472656 221.609375 208.359375 221.476562 208.292969 C 221.347656 208.222656 221.117188 208.136719 220.964844 208.097656 C 220.824219 208.054688 220.566406 207.941406 220.410156 207.84375 C 220.257812 207.742188 220.101562 207.664062 220.074219 207.664062 C 220.042969 207.664062 219.78125 207.5 219.496094 207.300781 C 219.207031 207.109375 218.902344 206.902344 218.816406 206.847656 C 218.585938 206.691406 218 206.117188 217.605469 205.667969 C 217.046875 205.011719 216.464844 204.101562 216.253906 203.527344 C 216.179688 203.34375 216.066406 203.09375 215.996094 202.980469 C 215.921875 202.863281 215.867188 202.679688 215.867188 202.574219 C 215.867188 202.46875 215.792969 202.152344 215.699219 201.859375 C 215.417969 200.953125 215.425781 198.859375 215.710938 198.160156 C 215.753906 198.054688 215.8125 197.824219 215.835938 197.65625 C 215.855469 197.480469 215.953125 197.164062 216.054688 196.9375 C 216.152344 196.714844 216.289062 196.410156 216.359375 196.253906 C 216.757812 195.367188 217.679688 194.164062 218.492188 193.464844 C 219.132812 192.917969 219.917969 192.367188 220.1875 192.292969 C 220.261719 192.269531 220.46875 192.167969 220.636719 192.074219 C 220.8125 191.980469 221.117188 191.859375 221.320312 191.796875 C 221.527344 191.738281 221.777344 191.644531 221.882812 191.589844 C 222.082031 191.484375 223.25 191.347656 224.066406 191.335938 C 224.339844 191.335938 224.945312 191.359375 225.40625 191.394531 Z M 252.855469 191.828125 C 253.039062 192.039062 253.179688 192.449219 253.269531 192.984375 C 253.300781 193.199219 253.386719 193.511719 253.457031 193.671875 C 253.523438 193.839844 253.613281 194.171875 253.648438 194.414062 C 253.6875 194.652344 253.785156 195.011719 253.867188 195.222656 C 253.949219 195.429688 254.046875 195.792969 254.089844 196.035156 C 254.128906 196.273438 254.230469 196.640625 254.304688 196.84375 C 254.378906 197.050781 254.476562 197.40625 254.515625 197.636719 C 254.554688 197.863281 254.660156 198.234375 254.738281 198.464844 C 254.828125 198.691406 254.921875 199.058594 254.953125 199.277344 C 254.984375 199.5 255.058594 199.769531 255.109375 199.882812 C 255.164062 199.992188 255.269531 200.363281 255.339844 200.699219 C 255.40625 201.042969 255.527344 201.476562 255.605469 201.671875 C 255.6875 201.863281 255.769531 202.1875 255.789062 202.394531 C 255.8125 202.605469 255.886719 202.90625 255.960938 203.074219 C 256.03125 203.234375 256.144531 203.636719 256.210938 203.960938 C 256.273438 204.285156 256.375 204.632812 256.421875 204.738281 C 256.480469 204.84375 256.566406 205.164062 256.617188 205.449219 C 256.667969 205.734375 256.773438 206.148438 256.855469 206.367188 C 256.933594 206.585938 257.035156 206.945312 257.070312 207.175781 C 257.109375 207.40625 257.195312 207.726562 257.265625 207.882812 C 257.332031 208.042969 257.421875 208.355469 257.453125 208.585938 C 257.488281 208.816406 257.589844 209.183594 257.671875 209.414062 C 257.757812 209.640625 257.871094 210.050781 257.917969 210.324219 C 257.964844 210.605469 258.050781 210.921875 258.105469 211.03125 C 258.195312 211.199219 258.28125 211.546875 258.425781 212.320312 C 258.449219 212.445312 258.4375 212.5625 258.386719 212.621094 C 258.261719 212.769531 257.734375 212.738281 257.296875 212.558594 C 257.089844 212.46875 256.683594 212.355469 256.390625 212.300781 C 256.097656 212.246094 255.707031 212.140625 255.519531 212.058594 C 255.332031 211.984375 255.019531 211.902344 254.832031 211.878906 C 254.648438 211.851562 254.242188 211.753906 253.929688 211.652344 C 253.238281 211.429688 252.695312 211.308594 252.5625 211.359375 C 252.421875 211.414062 252.433594 211.820312 252.589844 212.121094 C 252.65625 212.257812 252.757812 212.601562 252.808594 212.886719 C 252.855469 213.175781 252.964844 213.578125 253.050781 213.792969 C 253.132812 214.003906 253.230469 214.382812 253.269531 214.632812 C 253.304688 214.890625 253.394531 215.195312 253.457031 215.320312 C 253.519531 215.445312 253.605469 215.761719 253.648438 216.015625 C 253.691406 216.273438 253.792969 216.652344 253.875 216.859375 C 253.949219 217.066406 254.046875 217.425781 254.085938 217.667969 C 254.121094 217.90625 254.214844 218.273438 254.296875 218.480469 C 254.378906 218.6875 254.476562 219.046875 254.515625 219.285156 C 254.558594 219.519531 254.660156 219.875 254.734375 220.0625 C 254.816406 220.257812 254.902344 220.570312 254.925781 220.753906 C 254.945312 220.941406 255.046875 221.347656 255.144531 221.660156 C 255.238281 221.964844 255.382812 222.476562 255.449219 222.792969 C 255.648438 223.628906 255.53125 223.773438 254.851562 223.503906 C 254.691406 223.441406 254.335938 223.34375 254.066406 223.285156 C 253.796875 223.238281 253.449219 223.132812 253.289062 223.0625 C 253.125 222.992188 252.808594 222.914062 252.570312 222.875 C 252.339844 222.839844 252.003906 222.75 251.828125 222.683594 C 251.652344 222.613281 251.230469 222.5 250.886719 222.433594 C 250.542969 222.363281 250.207031 222.269531 250.132812 222.222656 C 250.0625 222.171875 249.746094 222.089844 249.429688 222.039062 C 249.117188 221.988281 248.765625 221.902344 248.65625 221.847656 C 248.550781 221.789062 248.195312 221.691406 247.875 221.621094 C 247.550781 221.558594 247.175781 221.449219 247.039062 221.378906 C 246.910156 221.308594 246.757812 221.253906 246.722656 221.253906 C 246.585938 221.253906 246.417969 221.460938 246.417969 221.621094 C 246.417969 221.710938 246.359375 221.902344 246.292969 222.046875 C 246.230469 222.195312 246.117188 222.59375 246.042969 222.9375 C 245.96875 223.28125 245.855469 223.679688 245.792969 223.828125 C 245.726562 223.980469 245.65625 224.265625 245.632812 224.472656 C 245.605469 224.671875 245.550781 224.9375 245.5 225.058594 C 245.363281 225.386719 245.246094 225.792969 245.167969 226.242188 C 245.132812 226.464844 245.046875 226.773438 244.976562 226.921875 C 244.90625 227.070312 244.828125 227.394531 244.789062 227.636719 C 244.753906 227.882812 244.652344 228.25 244.570312 228.457031 C 244.496094 228.660156 244.382812 229.058594 244.328125 229.347656 C 244.273438 229.632812 244.171875 229.984375 244.109375 230.125 C 244.046875 230.269531 243.964844 230.601562 243.929688 230.847656 C 243.886719 231.105469 243.796875 231.441406 243.734375 231.589844 C 243.667969 231.742188 243.566406 232.097656 243.511719 232.378906 C 243.378906 233.054688 243.3125 233.21875 243.136719 233.261719 C 242.914062 233.320312 242.757812 233.257812 242.195312 232.902344 C 241.914062 232.71875 241.542969 232.484375 241.367188 232.382812 C 240.6875 231.984375 240.554688 231.882812 240.457031 231.671875 C 240.367188 231.492188 240.363281 231.410156 240.429688 231.113281 C 240.46875 230.917969 240.554688 230.636719 240.625 230.496094 C 240.6875 230.34375 240.78125 229.996094 240.832031 229.714844 C 240.878906 229.433594 240.980469 229.078125 241.046875 228.921875 C 241.117188 228.765625 241.203125 228.449219 241.242188 228.21875 C 241.28125 227.980469 241.355469 227.675781 241.402344 227.53125 C 241.597656 227.003906 241.679688 226.714844 241.679688 226.542969 C 241.679688 226.433594 241.757812 226.109375 241.867188 225.816406 C 241.964844 225.519531 242.089844 225.058594 242.140625 224.796875 C 242.191406 224.535156 242.277344 224.234375 242.328125 224.132812 C 242.375 224.042969 242.457031 223.722656 242.515625 223.429688 C 242.5625 223.144531 242.664062 222.761719 242.738281 222.59375 C 242.8125 222.421875 242.914062 222.046875 242.960938 221.753906 C 243.011719 221.460938 243.113281 221.117188 243.179688 220.984375 C 243.410156 220.53125 243.332031 220.375 242.820312 220.292969 C 242.675781 220.277344 242.433594 220.199219 242.277344 220.132812 C 242.113281 220.0625 241.742188 219.964844 241.441406 219.90625 C 241.140625 219.851562 240.824219 219.769531 240.730469 219.71875 C 240.636719 219.671875 240.34375 219.582031 240.074219 219.535156 C 239.8125 219.476562 239.421875 219.363281 239.203125 219.285156 C 238.992188 219.203125 238.605469 219.101562 238.363281 219.066406 C 238.113281 219.027344 237.808594 218.949219 237.6875 218.886719 C 237.570312 218.824219 237.21875 218.730469 236.914062 218.671875 C 236.609375 218.609375 236.179688 218.5 235.953125 218.410156 C 235.738281 218.332031 235.355469 218.242188 235.113281 218.21875 C 234.582031 218.167969 234.425781 218.054688 234.484375 217.75 C 234.515625 217.582031 235.289062 216.777344 238.785156 213.273438 C 241.128906 210.921875 243.050781 208.953125 243.050781 208.898438 C 243.050781 208.722656 242.8125 208.609375 242.234375 208.511719 C 241.941406 208.460938 241.527344 208.347656 241.328125 208.265625 C 241.128906 208.179688 240.792969 208.09375 240.585938 208.066406 C 240.382812 208.042969 240.113281 207.972656 239.988281 207.910156 C 239.863281 207.851562 239.484375 207.738281 239.148438 207.664062 C 238.398438 207.5 237.570312 207.238281 237.421875 207.109375 C 237.359375 207.058594 237.3125 206.964844 237.328125 206.902344 C 237.351562 206.746094 252.464844 191.640625 252.59375 191.640625 C 252.65625 191.640625 252.769531 191.71875 252.855469 191.828125 Z M 133.144531 218.574219 C 135.234375 218.671875 135.707031 218.699219 135.746094 218.730469 C 135.851562 218.792969 137.203125 218.890625 138.773438 218.949219 C 139.734375 218.980469 141.207031 219.078125 142.046875 219.160156 C 142.902344 219.246094 144.628906 219.359375 145.976562 219.414062 C 147.296875 219.464844 148.667969 219.550781 149.03125 219.601562 C 149.390625 219.652344 150.445312 219.71875 151.367188 219.757812 C 152.296875 219.789062 153.207031 219.832031 153.394531 219.851562 C 153.582031 219.871094 154.34375 219.9375 155.078125 220.007812 C 155.8125 220.082031 156.710938 220.164062 157.074219 220.195312 C 157.679688 220.246094 157.765625 220.269531 158.070312 220.46875 C 158.484375 220.730469 158.914062 221.042969 159.660156 221.628906 C 159.972656 221.871094 160.347656 222.160156 160.503906 222.265625 C 160.660156 222.371094 160.953125 222.601562 161.15625 222.78125 C 161.363281 222.957031 161.75 223.269531 162.023438 223.46875 C 162.292969 223.671875 162.628906 223.933594 162.773438 224.046875 C 162.910156 224.152344 163.144531 224.339844 163.285156 224.453125 C 163.425781 224.558594 163.761719 224.820312 164.03125 225.027344 C 164.304688 225.230469 164.824219 225.636719 165.191406 225.929688 C 165.550781 226.222656 166 226.574219 166.175781 226.710938 C 166.355469 226.847656 166.84375 227.226562 167.261719 227.550781 C 167.671875 227.882812 168.113281 228.21875 168.234375 228.300781 C 168.351562 228.386719 168.496094 228.5 168.550781 228.550781 C 168.609375 228.597656 168.800781 228.753906 168.980469 228.890625 C 169.164062 229.027344 169.410156 229.222656 169.542969 229.328125 C 169.675781 229.429688 169.921875 229.628906 170.105469 229.765625 C 170.277344 229.902344 170.707031 230.238281 171.058594 230.511719 C 171.40625 230.792969 171.792969 231.085938 171.914062 231.167969 C 172.03125 231.25 172.316406 231.472656 172.542969 231.667969 C 172.765625 231.851562 173.101562 232.121094 173.285156 232.257812 C 173.613281 232.515625 173.90625 232.738281 174.40625 233.132812 C 174.5625 233.25 174.941406 233.550781 175.246094 233.785156 C 176.320312 234.617188 176.480469 234.757812 177.449219 235.78125 C 177.984375 236.347656 178.664062 237.058594 178.957031 237.371094 C 179.25 237.675781 179.707031 238.15625 179.960938 238.429688 C 180.367188 238.859375 180.953125 239.484375 183.601562 242.265625 C 183.875 242.558594 184.445312 243.144531 184.847656 243.574219 C 185.925781 244.703125 186.53125 245.339844 187.164062 246.007812 C 188.484375 247.414062 189.816406 248.824219 190.410156 249.433594 C 190.757812 249.796875 191.101562 250.164062 191.171875 250.257812 C 191.328125 250.453125 191.339844 250.714844 191.203125 250.769531 C 191.144531 250.789062 177.417969 250.808594 160.683594 250.808594 L 130.257812 250.808594 L 130.109375 250.652344 L 129.953125 250.5 L 129.953125 234.601562 C 129.953125 220.238281 129.964844 218.699219 130.050781 218.609375 C 130.171875 218.492188 131.1875 218.480469 133.144531 218.574219 Z M 133.144531 218.574219 "/></g></svg>