<?xml version="1.0" standalone="no"?>
<!DOCTYPE svg PUBLIC "-//W3C//DTD SVG 20010904//EN"
 "http://www.w3.org/TR/2001/REC-SVG-20010904/DTD/svg10.dtd">
<svg version="1.0" xmlns="http://www.w3.org/2000/svg"
 width="7200.000000pt" height="7200.000000pt" viewBox="0 0 7200.000000 7200.000000"
 preserveAspectRatio="xMidYMid meet">

<g transform="translate(0.000000,7200.000000) scale(0.100000,-0.100000)"
fill="#000000" stroke="none">
<path d="M35370 58809 c-1116 -36 -2280 -177 -3370 -410 -257 -55 -1435 -330
-1755 -410 -2152 -537 -4184 -1445 -6037 -2695 -291 -196 -1103 -776 -1411
-1007 -1456 -1092 -2752 -2389 -3846 -3846 -229 -306 -809 -1118 -1005 -1409
-1136 -1683 -1983 -3501 -2536 -5442 -122 -429 -433 -1715 -569 -2350 -560
-2626 -560 -5374 0 -8000 136 -635 447 -1921 569 -2350 511 -1792 1287 -3511
2291 -5072 265 -412 868 -1270 1252 -1781 1090 -1452 2392 -2754 3844 -3844
308 -231 1120 -811 1411 -1007 1854 -1251 3884 -2157 6037 -2695 322 -80 1499
-355 1755 -410 2626 -560 5374 -560 8000 0 256 55 1433 330 1755 410 2004 501
3931 1334 5667 2450 412 265 1270 868 1781 1252 1452 1090 2754 2392 3844
3844 224 299 804 1111 996 1394 1182 1749 2064 3667 2605 5669 105 387 406
1647 511 2140 560 2626 560 5374 0 8000 -69 323 -344 1491 -434 1845 -504
1977 -1325 3865 -2426 5577 -265 412 -867 1268 -1253 1783 -1088 1450 -2389
2751 -3843 3842 -308 231 -1120 811 -1411 1007 -1855 1252 -3871 2152 -6037
2695 -284 71 -1480 351 -1730 405 -1500 323 -3094 465 -4655 415z m1265 -1409
c1220 -43 2380 -190 3549 -450 1533 -341 2631 -685 3821 -1195 1464 -628 2749
-1382 4175 -2451 1083 -812 2067 -1722 2945 -2725 811 -925 1670 -2112 2287
-3159 916 -1555 1604 -3216 2043 -4931 433 -1696 615 -2835 697 -4369 17 -311
17 -1449 0 -1760 -82 -1535 -264 -2672 -697 -4369 -439 -1715 -1127 -3376
-2043 -4931 -527 -894 -1273 -1950 -1970 -2789 -625 -752 -1362 -1507 -2103
-2156 -852 -747 -1932 -1540 -2912 -2139 -1615 -986 -3366 -1727 -5182 -2191
-1696 -434 -2833 -616 -4365 -697 -310 -17 -1450 -17 -1760 0 -1532 81 -2669
263 -4365 697 -1957 500 -3844 1324 -5557 2426 -701 451 -1535 1062 -2167
1587 -751 624 -1508 1363 -2156 2103 -811 925 -1671 2113 -2287 3159 -916
1555 -1604 3216 -2043 4931 -433 1696 -615 2835 -697 4369 -17 311 -17 1449 0
1760 82 1534 264 2673 697 4369 439 1715 1127 3376 2043 4931 527 894 1273
1950 1970 2789 624 750 1363 1508 2102 2156 894 782 2019 1603 3038 2214 1587
952 3291 1665 5053 2116 1593 407 2734 597 4084 680 545 34 1262 44 1800 25z"/>
<path d="M35370 56309 c-4840 -155 -9425 -2144 -12860 -5579 -2677 -2677
-4490 -6063 -5224 -9760 -423 -2132 -479 -4383 -160 -6535 705 -4764 3180
-9066 6962 -12098 2803 -2248 6208 -3662 9767 -4056 4527 -502 9006 588 12760
3104 3366 2256 5938 5536 7320 9335 1544 4245 1525 8963 -55 13190 -1397 3738
-3945 6960 -7265 9185 -3323 2227 -7225 3343 -11245 3214z m955 -6249 c94 -6
285 -15 425 -20 192 -8 288 -16 390 -34 74 -14 158 -28 185 -31 28 -4 127 -19
220 -35 94 -16 195 -31 225 -35 105 -13 201 -35 980 -227 119 -29 290 -86 615
-205 248 -91 470 -175 495 -188 25 -13 227 -114 450 -224 223 -111 430 -216
461 -233 100 -59 153 -91 189 -113 19 -12 64 -40 100 -61 36 -21 84 -49 107
-63 23 -14 65 -39 93 -56 28 -16 73 -45 101 -62 28 -18 54 -33 59 -33 4 0 50
-31 101 -69 52 -39 109 -80 127 -93 18 -13 45 -34 61 -48 35 -31 147 -118 257
-200 26 -19 63 -49 83 -66 20 -17 59 -46 86 -65 59 -40 154 -119 245 -203 184
-170 220 -203 253 -231 21 -16 50 -41 66 -55 15 -14 59 -52 97 -85 85 -74 200
-189 279 -281 33 -38 74 -82 90 -99 17 -16 60 -64 95 -105 35 -41 123 -138
195 -215 156 -167 235 -259 235 -273 0 -9 105 -147 165 -216 14 -15 25 -32 25
-37 0 -4 30 -47 68 -93 37 -47 77 -100 90 -118 13 -18 52 -72 87 -119 36 -48
69 -97 75 -110 5 -13 30 -55 55 -94 25 -38 50 -81 55 -94 6 -13 21 -37 33 -54
12 -17 31 -48 42 -69 11 -21 52 -89 90 -153 39 -63 77 -129 86 -146 9 -16 28
-46 41 -67 13 -20 81 -152 150 -292 69 -140 167 -338 218 -440 50 -102 95
-196 100 -210 5 -14 29 -81 55 -150 26 -69 55 -150 65 -180 11 -30 42 -118 70
-195 28 -77 60 -165 70 -195 10 -30 27 -79 39 -108 25 -62 35 -98 176 -632 81
-305 105 -405 115 -488 7 -48 22 -154 36 -237 13 -82 28 -188 33 -235 6 -47
21 -155 35 -240 15 -86 26 -195 26 -245 0 -49 10 -263 21 -475 20 -350 21
-415 11 -715 -6 -181 -16 -379 -21 -440 -6 -60 -15 -172 -20 -247 -6 -75 -19
-192 -30 -260 -11 -68 -24 -166 -30 -218 -12 -97 -44 -274 -83 -455 -11 -55
-29 -143 -38 -195 -10 -52 -38 -183 -64 -290 -26 -107 -53 -226 -62 -265 -19
-89 -187 -592 -266 -795 -33 -85 -76 -195 -95 -245 -19 -49 -50 -121 -68 -160
-31 -65 -76 -163 -130 -280 -13 -27 -44 -97 -70 -155 -26 -58 -51 -109 -55
-115 -4 -5 -23 -39 -42 -75 -19 -36 -50 -92 -68 -125 -18 -33 -44 -80 -57
-105 -13 -25 -35 -65 -49 -90 -15 -25 -43 -76 -64 -115 -20 -38 -54 -101 -75
-140 -21 -38 -61 -113 -89 -166 -50 -94 -121 -223 -166 -304 -54 -96 -99 -179
-208 -385 -60 -113 -102 -191 -154 -283 -55 -98 -62 -111 -87 -150 -13 -21
-34 -59 -48 -85 -37 -69 -70 -127 -147 -258 -38 -65 -79 -136 -91 -158 -12
-23 -39 -70 -60 -106 -37 -63 -74 -127 -124 -214 -13 -22 -36 -63 -50 -91 -15
-27 -39 -69 -54 -92 -15 -24 -27 -46 -27 -51 0 -4 -8 -18 -17 -32 -20 -27 -76
-122 -95 -160 -7 -14 -23 -43 -37 -65 -13 -22 -38 -65 -54 -95 -34 -64 -48
-88 -141 -246 -38 -65 -79 -136 -91 -158 -12 -23 -53 -94 -91 -160 -111 -190
-133 -229 -149 -263 -8 -17 -28 -52 -45 -76 -16 -25 -30 -48 -30 -52 0 -5 -15
-31 -34 -59 -18 -28 -47 -76 -63 -106 -16 -30 -41 -74 -57 -98 -15 -24 -31
-53 -37 -65 -5 -12 -30 -53 -54 -92 -25 -38 -49 -80 -55 -93 -5 -13 -24 -43
-40 -67 -17 -24 -30 -47 -30 -52 0 -5 -16 -32 -35 -60 -19 -29 -35 -55 -35
-59 0 -4 -16 -31 -36 -60 -19 -30 -48 -78 -63 -106 -15 -29 -42 -75 -59 -102
-18 -28 -32 -55 -32 -62 0 -6 -7 -17 -16 -25 -8 -7 -28 -35 -42 -62 -40 -73
-54 -97 -90 -155 -17 -29 -32 -56 -32 -61 0 -4 -8 -19 -18 -32 -11 -13 -30
-45 -44 -70 -14 -25 -46 -80 -72 -122 -25 -42 -49 -84 -53 -94 -4 -10 -16 -31
-29 -48 -12 -16 -32 -50 -45 -74 -28 -52 -34 -61 -76 -127 -18 -28 -33 -55
-33 -60 0 -6 -12 -26 -26 -45 -14 -19 -35 -52 -45 -74 -10 -22 -37 -67 -59
-100 -21 -33 -48 -78 -59 -100 -11 -22 -38 -69 -60 -105 -38 -61 -77 -127
-112 -189 -8 -16 -29 -50 -47 -78 -18 -27 -32 -53 -32 -57 0 -4 -13 -27 -30
-51 -16 -24 -34 -54 -40 -67 -5 -13 -30 -54 -55 -93 -25 -38 -50 -81 -55 -93
-6 -13 -51 -90 -100 -172 -50 -81 -90 -151 -90 -155 0 -5 -6 -16 -14 -24 -8
-9 -27 -41 -44 -71 -16 -30 -48 -84 -71 -120 -22 -36 -45 -75 -51 -87 -5 -12
-22 -41 -37 -65 -15 -24 -35 -56 -44 -73 -31 -56 -80 -140 -129 -220 -27 -44
-49 -83 -50 -87 0 -4 -13 -27 -30 -51 -16 -24 -34 -55 -40 -68 -6 -13 -31 -55
-55 -94 -25 -38 -49 -80 -55 -93 -5 -13 -23 -42 -38 -65 -15 -23 -33 -53 -40
-67 -6 -14 -29 -53 -49 -87 -80 -132 -133 -223 -133 -227 0 -2 -16 -28 -35
-57 -19 -30 -35 -58 -35 -63 0 -5 -8 -19 -18 -30 -22 -25 -92 -141 -92 -152 0
-4 -14 -30 -32 -57 -18 -28 -39 -63 -47 -78 -9 -16 -45 -77 -80 -136 -36 -59
-74 -127 -86 -150 -13 -23 -31 -54 -42 -70 -11 -15 -31 -48 -44 -72 -29 -52
-34 -62 -76 -127 -18 -28 -33 -55 -33 -61 0 -6 -9 -22 -20 -36 -11 -13 -31
-47 -45 -73 -14 -27 -43 -76 -65 -109 -22 -33 -48 -78 -60 -100 -18 -36 -43
-79 -105 -184 -11 -18 -32 -52 -47 -75 -15 -22 -28 -45 -28 -49 0 -4 -16 -31
-35 -60 -19 -28 -35 -57 -35 -63 0 -6 -9 -22 -19 -36 -11 -13 -29 -42 -41 -63
-11 -22 -41 -71 -66 -110 -24 -38 -51 -83 -59 -100 -8 -16 -32 -58 -52 -92
-21 -35 -78 -131 -127 -215 -49 -84 -95 -160 -101 -168 -7 -8 -26 -39 -41 -68
-16 -29 -39 -69 -51 -90 -23 -38 -45 -75 -73 -124 -8 -15 -33 -57 -55 -93 -22
-37 -44 -74 -50 -84 -5 -9 -25 -40 -42 -67 -18 -28 -33 -55 -33 -61 0 -6 -8
-21 -19 -34 -10 -13 -27 -40 -37 -59 -11 -19 -40 -68 -64 -108 -25 -40 -51
-85 -59 -100 -8 -15 -54 -94 -104 -177 -49 -82 -105 -177 -124 -210 -19 -33
-38 -67 -43 -75 -18 -29 -90 -145 -103 -164 -49 -78 -180 -221 -260 -283 -51
-39 -105 -82 -121 -95 -42 -32 -129 -84 -157 -93 -13 -4 -51 -20 -84 -35 -97
-44 -153 -59 -288 -80 -159 -25 -195 -25 -354 0 -135 21 -191 36 -288 80 -33
15 -71 31 -84 35 -28 9 -115 61 -157 93 -16 13 -70 56 -121 95 -80 62 -211
205 -260 283 -13 19 -85 135 -103 164 -5 8 -24 42 -43 75 -19 33 -75 128 -124
210 -50 83 -96 162 -104 177 -8 15 -34 60 -59 100 -24 40 -53 89 -64 108 -10
19 -27 46 -37 59 -11 13 -19 28 -19 34 0 6 -15 33 -32 61 -18 27 -37 58 -43
67 -5 10 -28 47 -50 84 -22 36 -47 78 -55 93 -28 49 -50 86 -73 124 -12 21
-35 61 -51 90 -15 29 -34 60 -41 68 -6 8 -52 84 -101 168 -49 84 -106 180
-127 215 -20 34 -44 76 -52 92 -8 17 -35 62 -59 100 -25 39 -55 88 -66 110
-12 21 -30 50 -41 63 -10 14 -19 30 -19 36 0 6 -16 35 -35 63 -19 29 -35 56
-35 60 0 4 -13 27 -28 49 -15 23 -36 57 -47 75 -62 105 -87 148 -105 184 -12
22 -38 67 -60 100 -22 33 -51 82 -65 109 -14 26 -34 60 -45 73 -11 14 -20 31
-20 37 -1 6 -21 43 -45 81 -25 39 -54 88 -66 110 -12 22 -31 53 -42 68 -11 16
-29 47 -41 70 -37 70 -138 240 -157 266 -11 13 -19 28 -19 33 0 5 -16 33 -35
62 -19 29 -35 56 -35 61 0 10 -71 126 -92 151 -10 11 -18 25 -18 31 0 6 -16
34 -35 63 -19 29 -35 55 -35 59 0 3 -23 42 -50 86 -27 44 -55 91 -60 104 -6
12 -26 47 -45 76 -19 28 -35 55 -35 59 0 4 -14 27 -30 51 -17 24 -34 52 -38
62 -4 10 -27 51 -52 92 -25 41 -58 97 -74 125 -15 28 -34 58 -42 67 -8 8 -14
20 -14 25 -1 5 -23 45 -51 89 -27 44 -56 94 -64 110 -8 17 -28 50 -45 75 -16
25 -30 48 -30 53 0 4 -15 31 -33 60 -18 28 -38 61 -44 72 -7 11 -29 49 -50 84
-21 34 -45 75 -53 90 -8 15 -49 84 -90 154 -41 70 -82 140 -91 155 -8 16 -29
51 -47 79 -18 27 -32 53 -32 57 0 4 -13 26 -28 49 -15 23 -33 53 -40 67 -6 14
-30 54 -53 90 -23 36 -54 88 -69 115 -15 28 -41 73 -58 100 -36 58 -84 141
-119 205 -14 24 -33 57 -44 71 -10 15 -19 30 -19 33 0 7 -70 127 -132 226 -22
36 -50 83 -62 105 -27 48 -79 136 -123 208 -18 29 -40 68 -50 87 -10 19 -30
54 -45 77 -16 23 -28 45 -28 49 0 4 -11 24 -24 43 -22 34 -57 92 -102 170
-108 187 -138 238 -149 251 -7 8 -25 38 -39 65 -38 71 -57 103 -92 160 -17 28
-33 55 -35 60 -2 6 -24 43 -49 83 -25 41 -57 95 -71 120 -49 89 -112 197 -144
247 -56 88 -105 173 -105 181 0 4 -15 30 -32 58 -35 53 -36 55 -84 138 -17 29
-50 87 -74 128 -24 41 -52 91 -62 110 -26 49 -66 119 -92 160 -39 61 -96 158
-96 163 0 7 -141 250 -155 267 -7 8 -19 29 -27 45 -30 59 -75 141 -100 180
-13 22 -31 52 -39 66 -33 61 -82 148 -116 204 -20 33 -48 83 -63 110 -15 28
-56 99 -91 158 -70 118 -103 177 -142 249 -14 26 -35 64 -48 85 -13 21 -31 50
-39 65 -8 15 -33 58 -55 94 -41 68 -76 130 -125 219 -55 100 -84 150 -97 163
-7 7 -13 18 -13 23 0 5 -12 28 -27 52 -15 23 -39 67 -55 97 -15 30 -32 62 -37
70 -6 8 -16 29 -24 45 -7 17 -27 55 -44 85 -16 30 -49 91 -73 135 -23 44 -54
100 -68 125 -56 101 -87 158 -112 205 -15 28 -46 86 -70 130 -23 44 -66 125
-95 180 -51 98 -67 128 -157 290 -25 44 -66 121 -93 170 -26 50 -64 119 -83
155 -84 157 -115 218 -158 314 -26 55 -59 129 -75 164 -16 34 -29 64 -29 66 0
2 -15 37 -34 78 -51 109 -219 539 -254 648 -60 188 -140 465 -191 660 -22 85
-51 198 -66 250 -14 52 -32 133 -41 180 -8 47 -26 135 -39 195 -39 180 -74
374 -86 475 -6 52 -19 150 -30 218 -11 68 -24 185 -30 260 -5 75 -14 187 -20
247 -5 61 -15 259 -21 440 -10 300 -9 365 11 715 11 212 21 426 21 475 0 50
11 159 26 245 14 85 29 193 35 240 5 47 20 153 33 235 14 83 29 189 36 237 10
83 34 183 115 488 141 534 151 570 176 632 12 29 29 78 39 108 10 30 42 118
70 195 28 77 59 165 70 195 10 30 39 111 65 180 26 69 50 136 55 150 5 14 50
108 100 210 51 102 149 300 218 440 69 140 137 272 150 292 13 21 32 51 41 67
9 17 48 83 86 146 39 64 79 132 90 153 11 21 30 52 42 69 12 17 27 41 33 54 5
13 30 56 55 94 25 39 50 81 55 94 6 13 39 62 75 110 35 47 74 101 87 119 13
18 53 71 91 118 37 46 67 89 67 93 0 5 11 22 25 37 60 69 165 207 165 216 0
14 79 106 235 273 72 77 160 174 195 215 35 41 78 89 95 105 16 17 57 61 90
99 79 92 194 207 279 281 38 33 82 71 97 85 16 14 45 39 66 55 33 28 69 61
253 231 91 84 186 163 245 203 28 19 66 48 86 65 20 17 57 47 83 66 110 82
222 169 257 200 16 14 43 35 61 48 18 13 75 54 127 93 51 38 97 69 101 69 5 0
31 15 59 33 28 17 73 46 101 62 28 17 70 42 93 56 23 14 71 42 107 63 36 21
81 49 100 61 36 22 89 54 189 113 31 17 238 122 461 233 223 110 425 211 450
224 25 13 248 97 495 188 325 119 496 176 615 205 779 192 875 214 980 227 30
4 132 19 225 35 94 16 193 31 220 35 28 3 111 17 185 31 101 18 198 26 380 34
285 11 644 29 680 34 28 5 152 0 405 -14z"/>
<path d="M35750 45334 c-441 -37 -612 -63 -905 -136 -195 -48 -493 -147 -675
-223 -149 -63 -485 -227 -510 -250 -9 -8 -20 -15 -24 -15 -12 0 -113 -62 -241
-146 -215 -143 -246 -166 -483 -360 -156 -128 -500 -481 -590 -604 -22 -30
-50 -66 -61 -80 -103 -123 -118 -144 -241 -331 -80 -123 -120 -188 -120 -197
0 -5 -8 -20 -19 -33 -10 -13 -33 -51 -51 -84 -249 -460 -436 -994 -514 -1472
-63 -383 -61 -346 -60 -823 l0 -445 37 -235 c61 -393 143 -707 275 -1045 86
-222 206 -470 314 -650 35 -58 70 -119 79 -136 9 -16 39 -61 65 -100 27 -39
58 -85 68 -102 11 -18 40 -58 65 -91 67 -85 97 -127 125 -166 56 -82 352 -393
547 -574 69 -65 185 -159 272 -223 21 -15 52 -40 70 -54 76 -63 442 -299 463
-299 4 0 15 -6 23 -14 23 -20 310 -165 416 -210 50 -21 113 -49 140 -61 200
-90 602 -208 900 -264 302 -58 510 -75 885 -75 375 0 583 17 885 75 298 56
700 174 900 264 28 12 91 40 140 61 106 45 393 190 416 210 8 8 19 14 23 14
21 0 387 236 463 299 18 14 49 39 70 54 87 64 203 158 272 223 198 184 501
502 542 569 19 31 38 56 98 129 19 22 54 70 77 106 24 36 66 98 94 138 27 41
50 77 50 81 0 5 8 19 19 32 51 66 227 397 309 584 203 461 350 1046 384 1535
14 206 4 796 -17 930 -42 280 -58 372 -86 493 -60 269 -143 527 -254 791 -85
205 -221 477 -266 535 -11 13 -19 28 -19 33 0 5 -17 35 -37 67 -21 33 -50 79
-65 102 -14 24 -59 92 -100 150 -64 92 -90 127 -150 199 -7 8 -38 49 -69 90
-104 138 -453 493 -606 617 -247 200 -256 206 -468 347 -60 40 -139 89 -175
110 -36 21 -72 42 -80 47 -30 19 -148 79 -270 139 -491 241 -1022 395 -1560
451 -183 19 -652 33 -770 23z"/>
</g>
</svg>
