<svg xmlns="http://www.w3.org/2000/svg" xmlns:xlink="http://www.w3.org/1999/xlink" width="500" zoomAndPan="magnify" viewBox="0 0 375 374.999991" height="500" preserveAspectRatio="xMidYMid meet" version="1.2"><defs><clipPath id="0c01c651de"><path d="M 93.773438 67.335938 L 281 67.335938 L 281 300 L 93.773438 300 Z M 93.773438 67.335938 "/></clipPath></defs><g id="2e2fbe36c6"><g clip-rule="nonzero" clip-path="url(#0c01c651de)"><path style=" stroke:none;fill-rule:nonzero;fill:#f4f6fc;fill-opacity:1;" d="M 213.375 238.789062 C 236.097656 203.015625 260.929688 163.304688 260.929688 141.671875 C 260.929688 100.671875 227.578125 67.316406 186.585938 67.316406 C 145.585938 67.316406 112.230469 100.671875 112.230469 141.671875 C 112.230469 162.054688 138.046875 203.929688 160.019531 238.910156 C 127.839844 241.949219 93.878906 251.121094 93.878906 268.445312 C 93.878906 277.875 104.085938 285.835938 123.402344 291.457031 C 177.867188 307.320312 280.859375 298.398438 280.859375 268.445312 C 280.859375 250.839844 246.199219 241.699219 213.375 238.789062 Z M 186.585938 262.761719 C 167.113281 230.070312 122.230469 164.882812 122.230469 141.671875 C 122.230469 106.183594 151.097656 77.3125 186.585938 77.3125 C 222.066406 77.3125 250.933594 106.183594 250.933594 141.671875 C 250.933594 166.40625 206.269531 229.785156 186.585938 262.761719 Z M 186.585938 262.761719 "/></g><path style=" stroke:none;fill-rule:nonzero;fill:#f4f6fc;fill-opacity:1;" d="M 186.585938 103.058594 C 166.738281 103.058594 150.59375 119.207031 150.59375 139.054688 C 150.59375 158.898438 166.738281 175.039062 186.585938 175.039062 C 206.425781 175.039062 222.566406 158.898438 222.566406 139.054688 C 222.566406 119.207031 206.425781 103.058594 186.585938 103.058594 Z M 186.585938 165.039062 C 172.253906 165.039062 160.589844 153.382812 160.589844 139.054688 C 160.589844 124.71875 172.253906 113.054688 186.585938 113.054688 C 200.914062 113.054688 212.570312 124.71875 212.570312 139.054688 C 212.570312 153.382812 200.914062 165.039062 186.585938 165.039062 Z M 186.585938 165.039062 "/></g></svg>