<svg xmlns="http://www.w3.org/2000/svg" xmlns:xlink="http://www.w3.org/1999/xlink" width="500" zoomAndPan="magnify" viewBox="0 0 375 374.999991" height="500" preserveAspectRatio="xMidYMid meet" version="1.2"><defs><clipPath id="40f26269ae"><path d="M 73 85.070312 L 302 85.070312 L 302 289.820312 L 73 289.820312 Z M 73 85.070312 "/></clipPath></defs><g id="e7b9350079"><g clip-rule="nonzero" clip-path="url(#40f26269ae)"><path style=" stroke:none;fill-rule:nonzero;fill:#f4f6fc;fill-opacity:1;" d="M 298.054688 250.410156 L 210.179688 98.214844 C 205.4375 89.996094 196.9375 85.082031 187.445312 85.082031 C 177.949219 85.082031 169.449219 89.988281 164.699219 98.207031 L 76.820312 250.410156 C 72.070312 258.632812 72.078125 268.453125 76.820312 276.671875 C 81.566406 284.894531 90.074219 289.800781 99.566406 289.800781 L 275.308594 289.800781 C 284.800781 289.800781 293.304688 284.894531 298.054688 276.664062 C 302.804688 268.453125 302.804688 258.632812 298.054688 250.410156 Z M 187.4375 256.082031 C 181.707031 256.082031 177.070312 251.441406 177.070312 245.714844 C 177.070312 239.984375 181.714844 235.347656 187.4375 235.347656 C 193.164062 235.347656 197.804688 239.984375 197.804688 245.714844 C 197.804688 251.441406 193.164062 256.082031 187.4375 256.082031 Z M 199.402344 164.550781 L 193.65625 220.242188 C 193.328125 223.425781 190.640625 225.847656 187.4375 225.847656 C 184.234375 225.847656 181.550781 223.425781 181.21875 220.242188 L 175.472656 164.550781 C 174.742188 157.457031 180.304688 151.285156 187.4375 151.285156 C 194.566406 151.285156 200.132812 157.457031 199.402344 164.550781 Z M 199.402344 164.550781 "/></g></g></svg>