<svg xmlns="http://www.w3.org/2000/svg" xmlns:xlink="http://www.w3.org/1999/xlink" width="500" zoomAndPan="magnify" viewBox="0 0 375 374.999991" height="500" preserveAspectRatio="xMidYMid meet" version="1.2"><defs><clipPath id="86fc5a107c"><path d="M 51.792969 52.398438 L 322.109375 52.398438 L 322.109375 322.714844 L 51.792969 322.714844 Z M 51.792969 52.398438 "/></clipPath><clipPath id="6b8bbea48e"><path d="M 186.949219 52.398438 C 112.304688 52.398438 51.792969 112.910156 51.792969 187.554688 C 51.792969 262.203125 112.304688 322.714844 186.949219 322.714844 C 261.597656 322.714844 322.109375 262.203125 322.109375 187.554688 C 322.109375 112.910156 261.597656 52.398438 186.949219 52.398438 Z M 186.949219 52.398438 "/></clipPath></defs><g id="a0692e1389"><g clip-rule="nonzero" clip-path="url(#86fc5a107c)"><g clip-rule="nonzero" clip-path="url(#6b8bbea48e)"><path style=" stroke:none;fill-rule:nonzero;fill:#ffffff;fill-opacity:1;" d="M 51.792969 52.398438 L 322.109375 52.398438 L 322.109375 322.714844 L 51.792969 322.714844 Z M 51.792969 52.398438 "/></g></g><path style=" stroke:none;fill-rule:nonzero;fill:#e9403e;fill-opacity:1;" d="M 183.441406 48.511719 C 176.25 48.742188 168.746094 49.652344 161.722656 51.152344 C 160.066406 51.507812 152.476562 53.28125 150.414062 53.796875 C 136.546875 57.257812 123.453125 63.109375 111.511719 71.164062 C 109.636719 72.425781 104.40625 76.164062 102.421875 77.652344 C 93.039062 84.6875 84.6875 93.046875 77.636719 102.433594 C 76.164062 104.40625 72.425781 109.636719 71.164062 111.511719 C 63.84375 122.359375 58.382812 134.074219 54.820312 146.582031 C 54.035156 149.34375 52.03125 157.632812 51.152344 161.722656 C 47.546875 178.644531 47.546875 196.351562 51.152344 213.273438 C 52.03125 217.367188 54.035156 225.652344 54.820312 228.417969 C 58.113281 239.964844 63.113281 251.042969 69.582031 261.101562 C 71.292969 263.757812 75.175781 269.285156 77.652344 272.578125 C 84.675781 281.933594 93.066406 290.324219 102.421875 297.347656 C 104.40625 298.835938 109.636719 302.574219 111.511719 303.835938 C 123.460938 311.898438 136.542969 317.734375 150.414062 321.203125 C 152.488281 321.71875 160.074219 323.492188 161.722656 323.84375 C 178.644531 327.453125 196.351562 327.453125 213.273438 323.84375 C 214.925781 323.492188 222.507812 321.71875 224.582031 321.203125 C 237.496094 317.972656 249.914062 312.605469 261.101562 305.414062 C 263.757812 303.707031 269.285156 299.820312 272.578125 297.347656 C 281.933594 290.324219 290.324219 281.933594 297.347656 272.578125 C 298.792969 270.652344 302.527344 265.417969 303.765625 263.59375 C 311.382812 252.324219 317.066406 239.964844 320.550781 227.066406 C 321.230469 224.570312 323.167969 216.453125 323.84375 213.273438 C 327.453125 196.351562 327.453125 178.644531 323.84375 161.722656 C 323.398438 159.644531 321.628906 152.117188 321.046875 149.835938 C 317.800781 137.097656 312.511719 124.929688 305.414062 113.898438 C 303.707031 111.242188 299.828125 105.726562 297.339844 102.410156 C 290.332031 93.066406 281.945312 84.679688 272.578125 77.652344 C 270.59375 76.164062 265.359375 72.425781 263.484375 71.164062 C 251.53125 63.09375 238.542969 57.296875 224.582031 53.796875 C 222.753906 53.339844 215.046875 51.535156 213.4375 51.1875 C 203.769531 49.105469 193.5 48.191406 183.441406 48.511719 Z M 191.589844 57.589844 C 199.453125 57.867188 206.925781 58.816406 214.460938 60.492188 C 224.339844 62.6875 231.414062 64.90625 239.082031 68.191406 C 248.515625 72.238281 256.796875 77.097656 265.984375 83.984375 C 272.964844 89.21875 279.304688 95.082031 284.960938 101.546875 C 290.1875 107.503906 295.722656 115.15625 299.699219 121.902344 C 305.601562 131.921875 310.035156 142.625 312.863281 153.675781 C 315.65625 164.605469 316.828125 171.945312 317.355469 181.828125 C 317.464844 183.832031 317.464844 191.167969 317.355469 193.171875 C 316.828125 203.0625 315.65625 210.386719 312.863281 221.324219 C 310.035156 232.375 305.601562 243.078125 299.699219 253.097656 C 296.304688 258.859375 291.496094 265.664062 287.003906 271.070312 C 282.976562 275.914062 278.230469 280.78125 273.453125 284.960938 C 267.964844 289.777344 261.003906 294.886719 254.691406 298.746094 C 244.28125 305.101562 233 309.875 221.296875 312.863281 C 210.367188 315.660156 203.042969 316.832031 193.171875 317.355469 C 191.171875 317.464844 183.828125 317.464844 181.828125 317.355469 C 171.957031 316.832031 164.628906 315.660156 153.703125 312.863281 C 141.089844 309.644531 128.929688 304.332031 117.894531 297.230469 C 113.375 294.324219 108 290.386719 103.929688 287.003906 C 99.089844 282.984375 94.210938 278.222656 90.035156 273.453125 C 84.808594 267.492188 79.269531 259.839844 75.300781 253.097656 C 69.398438 243.078125 64.964844 232.375 62.132812 221.324219 C 59.34375 210.394531 58.171875 203.054688 57.644531 193.171875 C 57.535156 191.167969 57.535156 183.832031 57.644531 181.828125 C 58.171875 171.945312 59.34375 164.605469 62.132812 153.675781 C 64.964844 142.625 69.398438 131.921875 75.300781 121.902344 C 78.695312 116.140625 83.503906 109.335938 87.992188 103.929688 C 92.015625 99.097656 96.777344 94.210938 101.539062 90.035156 C 107.300781 84.996094 114.546875 79.707031 121.113281 75.769531 C 131.339844 69.636719 142.320312 65.039062 153.675781 62.132812 C 163.941406 59.511719 171.292969 58.289062 179.992188 57.753906 C 183.503906 57.535156 188.125 57.46875 191.589844 57.589844 Z M 191.589844 57.589844 "/><path style=" stroke:none;fill-rule:nonzero;fill:#e9403e;fill-opacity:1;" d="M 183.441406 64.621094 C 152.25 65.621094 122.707031 78.4375 100.570312 100.570312 C 83.320312 117.820312 71.640625 139.640625 66.910156 163.464844 C 64.183594 177.203125 63.824219 191.707031 65.878906 205.574219 C 70.421875 236.273438 86.371094 263.996094 110.742188 283.53125 C 128.800781 298.019531 150.742188 307.128906 173.675781 309.667969 C 202.847656 312.902344 231.710938 305.878906 255.902344 289.667969 C 277.589844 275.128906 294.164062 253.992188 303.070312 229.511719 C 313.019531 202.160156 312.898438 171.757812 302.714844 144.519531 C 293.714844 120.433594 277.292969 99.667969 255.902344 85.332031 C 234.488281 70.980469 209.34375 63.789062 183.441406 64.621094 Z M 188.480469 110.132812 C 189.199219 110.378906 189.34375 110.449219 189.664062 110.746094 C 190.191406 111.230469 190.761719 112.15625 190.851562 112.691406 C 190.894531 112.984375 190.914062 115.78125 190.902344 121.996094 C 190.882812 130.246094 190.875 130.910156 190.773438 131.136719 C 190.632812 131.4375 189.953125 132.46875 189.890625 132.46875 C 189.863281 132.46875 189.695312 132.605469 189.523438 132.765625 C 189.125 133.132812 188.960938 133.214844 188.355469 133.378906 C 187.730469 133.53125 187.324219 133.53125 186.617188 133.363281 C 186 133.222656 185.90625 133.171875 185.566406 132.847656 C 185.445312 132.726562 185.269531 132.570312 185.179688 132.5 C 184.941406 132.3125 184.304688 131.316406 184.214844 130.980469 C 184.089844 130.554688 184.109375 112.6875 184.226562 112.363281 C 184.367188 111.976562 184.804688 111.339844 185.246094 110.871094 C 185.664062 110.429688 185.667969 110.425781 186.5 110.140625 C 186.964844 109.980469 187.410156 109.851562 187.5 109.851562 C 187.589844 109.851562 188.027344 109.980469 188.480469 110.132812 Z M 141.265625 122.507812 C 142.605469 122.875 143.371094 123.484375 143.992188 124.671875 C 144.363281 125.378906 144.835938 126.226562 144.90625 126.308594 C 144.945312 126.359375 145.066406 126.578125 145.167969 126.804688 C 145.28125 127.03125 145.441406 127.300781 145.53125 127.410156 C 145.730469 127.648438 146.046875 128.171875 146.363281 128.757812 C 146.492188 129.007812 146.664062 129.316406 146.75 129.453125 C 146.832031 129.589844 146.953125 129.820312 147.011719 129.96875 C 147.070312 130.125 147.199219 130.355469 147.304688 130.484375 C 147.40625 130.613281 147.554688 130.878906 147.636719 131.0625 C 147.722656 131.257812 147.863281 131.496094 147.953125 131.605469 C 148.042969 131.707031 148.179688 131.929688 148.261719 132.082031 C 148.347656 132.242188 148.535156 132.554688 148.6875 132.777344 C 148.84375 133.003906 148.964844 133.214844 148.964844 133.25 C 148.964844 133.289062 149.070312 133.472656 149.191406 133.667969 C 149.320312 133.859375 149.472656 134.171875 149.546875 134.34375 C 149.609375 134.523438 149.730469 134.761719 149.824219 134.871094 C 149.90625 134.988281 150.054688 135.226562 150.144531 135.40625 C 150.234375 135.585938 150.382812 135.820312 150.464844 135.921875 C 150.550781 136.027344 150.707031 136.265625 150.800781 136.457031 C 150.898438 136.652344 151.074219 136.953125 151.195312 137.128906 C 151.316406 137.300781 151.414062 137.480469 151.414062 137.527344 C 151.414062 137.574219 151.523438 137.765625 151.652344 137.953125 C 151.78125 138.144531 151.941406 138.441406 152.011719 138.621094 C 152.078125 138.796875 152.226562 139.117188 152.335938 139.332031 C 152.527344 139.699219 152.542969 139.75 152.542969 140.425781 L 152.535156 141.136719 L 152.207031 141.78125 C 151.742188 142.6875 151.367188 143.070312 150.511719 143.5 C 149.835938 143.84375 149.835938 143.84375 149.222656 143.84375 C 148.625 143.84375 148.597656 143.835938 147.980469 143.53125 C 147.316406 143.210938 146.910156 142.871094 146.335938 142.136719 C 146.027344 141.742188 145.5625 140.941406 145.394531 140.511719 C 145.332031 140.355469 145.203125 140.117188 145.105469 139.976562 C 145.003906 139.835938 144.847656 139.5625 144.75 139.375 C 144.660156 139.195312 144.46875 138.886719 144.324219 138.699219 C 144.183594 138.519531 144.066406 138.332031 144.066406 138.292969 C 144.066406 138.253906 143.953125 138.042969 143.804688 137.816406 C 143.660156 137.59375 143.515625 137.339844 143.480469 137.25 C 143.449219 137.167969 143.332031 136.96875 143.222656 136.8125 C 143.113281 136.652344 142.960938 136.367188 142.871094 136.175781 C 142.785156 135.980469 142.617188 135.671875 142.496094 135.484375 C 142.375 135.296875 142.25 135.066406 142.230469 134.96875 C 142.207031 134.871094 142.078125 134.667969 141.941406 134.519531 C 141.8125 134.363281 141.621094 134.078125 141.523438 133.886719 C 141.425781 133.691406 141.308594 133.488281 141.257812 133.429688 C 141.207031 133.378906 141.058594 133.121094 140.929688 132.863281 C 140.453125 131.953125 140.105469 131.316406 139.9375 131.070312 C 139.847656 130.933594 139.738281 130.734375 139.699219 130.621094 C 139.660156 130.503906 139.539062 130.289062 139.429688 130.136719 C 139.222656 129.847656 138.917969 129.375 138.609375 128.839844 C 138.511719 128.667969 138.332031 128.363281 138.210938 128.164062 C 138.09375 127.964844 137.933594 127.609375 137.851562 127.378906 C 137.773438 127.144531 137.636719 126.824219 137.558594 126.667969 C 137.457031 126.46875 137.398438 126.230469 137.378906 125.890625 C 137.351562 125.457031 137.371094 125.355469 137.539062 124.957031 C 137.648438 124.710938 137.785156 124.367188 137.851562 124.1875 C 138.054688 123.632812 138.785156 122.957031 139.339844 122.808594 C 139.480469 122.769531 139.761719 122.667969 139.976562 122.585938 C 140.414062 122.398438 140.800781 122.378906 141.265625 122.507812 Z M 235.015625 122.578125 C 235.242188 122.667969 235.578125 122.785156 235.769531 122.84375 C 236.253906 122.988281 237 123.707031 237.15625 124.183594 C 237.214844 124.363281 237.347656 124.683594 237.445312 124.902344 C 237.695312 125.4375 237.703125 126.070312 237.464844 126.636719 C 237.375 126.851562 237.246094 127.183594 237.175781 127.378906 C 237.105469 127.570312 236.949219 127.894531 236.828125 128.101562 C 236.703125 128.300781 236.601562 128.488281 236.601562 128.523438 C 236.601562 128.582031 236.433594 128.855469 235.609375 130.125 C 235.449219 130.375 235.3125 130.605469 235.3125 130.644531 C 235.3125 130.675781 235.195312 130.890625 235.054688 131.109375 C 234.914062 131.328125 234.714844 131.695312 234.609375 131.914062 C 234.507812 132.140625 234.390625 132.347656 234.351562 132.371094 C 234.308594 132.398438 234.171875 132.625 234.054688 132.882812 C 233.792969 133.421875 233.40625 134.074219 233.117188 134.433594 C 233.007812 134.574219 232.84375 134.839844 232.761719 135.027344 C 232.683594 135.214844 232.527344 135.492188 232.425781 135.640625 C 232.328125 135.792969 232.199219 136.019531 232.15625 136.140625 C 232.105469 136.265625 231.957031 136.535156 231.820312 136.742188 C 231.691406 136.953125 231.5625 137.1875 231.535156 137.257812 C 231.511719 137.335938 231.414062 137.515625 231.316406 137.65625 C 231.222656 137.796875 231.066406 138.054688 230.976562 138.234375 C 230.886719 138.410156 230.726562 138.675781 230.609375 138.816406 C 230.492188 138.957031 230.332031 139.230469 230.253906 139.410156 C 230.171875 139.597656 230.015625 139.859375 229.914062 139.988281 C 229.808594 140.125 229.675781 140.363281 229.617188 140.523438 C 229.550781 140.683594 229.4375 140.917969 229.359375 141.039062 C 229.273438 141.167969 229.144531 141.394531 229.0625 141.554688 C 228.863281 141.941406 228.300781 142.636719 227.910156 142.980469 C 227.734375 143.132812 227.328125 143.390625 227.019531 143.550781 C 226.460938 143.835938 226.445312 143.84375 225.808594 143.84375 L 225.164062 143.835938 L 224.492188 143.496094 C 223.628906 143.054688 223.261719 142.683594 222.792969 141.753906 L 222.457031 141.085938 L 222.457031 140.402344 C 222.464844 139.78125 222.476562 139.691406 222.632812 139.429688 C 222.726562 139.265625 222.882812 138.933594 222.980469 138.6875 C 223.074219 138.4375 223.230469 138.132812 223.328125 138.011719 C 223.417969 137.886719 223.554688 137.65625 223.617188 137.496094 C 223.683594 137.335938 223.816406 137.101562 223.914062 136.980469 C 224.003906 136.855469 224.160156 136.597656 224.253906 136.414062 C 224.351562 136.226562 224.527344 135.941406 224.648438 135.789062 C 224.765625 135.625 224.886719 135.433594 224.914062 135.355469 C 224.933594 135.273438 225.054688 135.074219 225.171875 134.910156 C 225.292969 134.742188 225.433594 134.484375 225.484375 134.332031 C 225.59375 134.023438 226 133.300781 226.394531 132.699219 C 226.542969 132.476562 226.683594 132.230469 226.710938 132.152344 C 226.730469 132.074219 226.851562 131.890625 226.96875 131.726562 C 227.089844 131.574219 227.285156 131.265625 227.394531 131.039062 C 227.503906 130.820312 227.675781 130.535156 227.773438 130.40625 C 227.871094 130.285156 227.984375 130.078125 228.023438 129.957031 C 228.0625 129.832031 228.210938 129.542969 228.351562 129.3125 C 228.496094 129.078125 228.609375 128.867188 228.609375 128.839844 C 228.609375 128.816406 228.738281 128.589844 228.902344 128.34375 C 229.0625 128.101562 229.21875 127.828125 229.25 127.753906 C 229.28125 127.667969 229.398438 127.488281 229.511719 127.347656 C 229.628906 127.203125 229.789062 126.925781 229.875 126.742188 C 229.964844 126.546875 230.105469 126.289062 230.195312 126.171875 C 230.285156 126.058594 230.429688 125.792969 230.519531 125.59375 C 230.609375 125.394531 230.738281 125.15625 230.808594 125.070312 C 230.878906 124.980469 230.988281 124.78125 231.058594 124.625 C 231.324219 124.035156 231.867188 123.402344 232.4375 123.023438 C 232.625 122.90625 233.40625 122.589844 233.796875 122.480469 C 234.171875 122.378906 234.605469 122.410156 235.015625 122.578125 Z M 192.300781 147.992188 C 192.582031 148.03125 193.152344 148.140625 193.558594 148.222656 C 193.960938 148.3125 194.621094 148.417969 195.007812 148.449219 C 196.042969 148.546875 196.167969 148.566406 196.875 148.804688 C 197.230469 148.921875 197.824219 149.070312 198.195312 149.121094 C 198.726562 149.195312 198.964844 149.269531 199.292969 149.441406 C 199.574219 149.597656 199.878906 149.695312 200.195312 149.738281 C 200.457031 149.785156 200.894531 149.914062 201.160156 150.027344 C 201.425781 150.144531 201.765625 150.273438 201.921875 150.3125 C 202.070312 150.351562 202.3125 150.414062 202.46875 150.453125 C 202.617188 150.492188 202.875 150.589844 203.042969 150.679688 C 203.210938 150.761719 203.558594 150.890625 203.816406 150.960938 C 204.074219 151.035156 204.425781 151.183594 204.609375 151.292969 C 204.78125 151.402344 205.089844 151.542969 205.296875 151.605469 C 205.503906 151.671875 205.820312 151.820312 206.007812 151.941406 C 206.191406 152.070312 206.464844 152.207031 206.605469 152.25 C 206.746094 152.296875 207.039062 152.445312 207.242188 152.582031 C 207.457031 152.722656 207.664062 152.832031 207.707031 152.832031 C 207.835938 152.832031 209.429688 153.667969 209.601562 153.832031 C 209.691406 153.914062 209.890625 154.042969 210.054688 154.121094 C 210.214844 154.203125 210.457031 154.359375 210.601562 154.476562 C 210.742188 154.589844 210.960938 154.734375 211.085938 154.796875 C 211.207031 154.863281 211.414062 154.992188 211.535156 155.085938 C 211.65625 155.183594 211.910156 155.339844 212.082031 155.433594 C 212.261719 155.53125 212.527344 155.699219 212.675781 155.816406 C 212.824219 155.925781 213.070312 156.105469 213.21875 156.214844 C 213.804688 156.640625 214.101562 156.867188 214.203125 156.96875 C 214.261719 157.027344 214.449219 157.1875 214.613281 157.324219 C 214.78125 157.457031 214.949219 157.601562 214.984375 157.640625 C 215.019531 157.675781 215.1875 157.804688 215.371094 157.929688 C 215.789062 158.207031 216.800781 159.09375 217.042969 159.398438 C 217.152344 159.527344 217.558594 159.925781 217.945312 160.273438 C 218.828125 161.074219 219.125 161.371094 219.46875 161.800781 C 219.617188 161.988281 220.117188 162.554688 220.582031 163.0625 C 221.402344 163.960938 221.585938 164.199219 222.082031 164.945312 C 222.207031 165.140625 222.40625 165.410156 222.515625 165.539062 C 222.945312 166.0625 223.410156 166.671875 223.707031 167.136719 C 223.875 167.402344 224.101562 167.75 224.203125 167.898438 C 224.410156 168.207031 224.875 169.011719 225.203125 169.617188 C 225.3125 169.832031 225.519531 170.160156 225.652344 170.351562 C 225.796875 170.546875 225.90625 170.738281 225.90625 170.777344 C 225.90625 170.824219 226.027344 171.042969 226.167969 171.265625 C 226.316406 171.492188 226.492188 171.828125 226.554688 172.015625 C 226.621094 172.203125 226.742188 172.460938 226.839844 172.59375 C 226.929688 172.730469 227.050781 173 227.109375 173.195312 C 227.160156 173.386719 227.324219 173.769531 227.457031 174.03125 C 227.585938 174.296875 227.742188 174.683594 227.800781 174.890625 C 227.851562 175.101562 227.96875 175.378906 228.0625 175.515625 C 228.242188 175.777344 228.480469 176.351562 228.480469 176.53125 C 228.480469 176.597656 228.585938 176.859375 228.707031 177.117188 C 228.835938 177.382812 229.003906 177.886719 229.09375 178.246094 C 229.179688 178.605469 229.308594 179.03125 229.378906 179.195312 C 229.457031 179.359375 229.570312 179.851562 229.640625 180.289062 C 229.714844 180.726562 229.863281 181.320312 229.964844 181.601562 C 230.195312 182.246094 230.203125 182.285156 230.285156 183.183594 C 230.324219 183.664062 230.429688 184.207031 230.570312 184.710938 C 231.074219 186.480469 231.09375 187.46875 231.09375 209.988281 L 231.09375 228.578125 L 230.9375 228.886719 C 230.855469 229.070312 230.699219 229.253906 230.582031 229.328125 C 230.390625 229.441406 229.917969 229.449219 210.664062 229.449219 C 191.628906 229.449219 190.933594 229.441406 190.722656 229.332031 C 190.597656 229.261719 190.445312 229.101562 190.375 228.960938 C 190.238281 228.707031 190.238281 228.6875 190.238281 215.851562 C 190.238281 205.960938 190.257812 202.957031 190.316406 202.824219 C 190.359375 202.726562 190.46875 202.597656 190.574219 202.53125 C 190.742188 202.421875 191.148438 202.417969 197.90625 202.386719 C 206.15625 202.347656 205.195312 202.441406 206.039062 201.574219 C 206.722656 200.871094 206.792969 200.671875 206.753906 199.589844 C 206.734375 198.925781 206.707031 198.761719 206.574219 198.492188 C 206.398438 198.144531 205.710938 197.417969 205.394531 197.242188 C 205.199219 197.140625 204.167969 197.132812 187.636719 197.113281 C 175.023438 197.105469 170.011719 197.121094 169.824219 197.171875 C 169.515625 197.253906 168.683594 198.023438 168.488281 198.390625 C 168.207031 198.945312 168.140625 200.148438 168.367188 200.746094 C 168.476562 201.03125 168.617188 201.226562 169.023438 201.625 C 169.316406 201.90625 169.636719 202.183594 169.746094 202.242188 C 169.921875 202.347656 170.578125 202.351562 177.144531 202.386719 L 184.355469 202.417969 L 184.535156 202.625 C 184.671875 202.769531 184.730469 202.917969 184.761719 203.171875 C 184.78125 203.359375 184.792969 209.195312 184.78125 216.140625 C 184.761719 228.707031 184.761719 228.773438 184.632812 228.996094 C 184.554688 229.121094 184.398438 229.273438 184.277344 229.332031 C 184.066406 229.441406 182.976562 229.449219 164.347656 229.449219 C 142.984375 229.449219 144.414062 229.476562 144.183594 229.113281 C 143.933594 228.722656 143.9375 229.164062 143.9375 209.484375 C 143.9375 199.019531 143.945312 190.4375 143.964844 190.410156 C 143.976562 190.386719 144.011719 189.625 144.03125 188.722656 C 144.101562 186.152344 144.164062 185.546875 144.492188 184.503906 C 144.589844 184.195312 144.691406 183.632812 144.746094 183.085938 C 144.847656 182.117188 144.875 181.984375 145.117188 181.363281 C 145.207031 181.140625 145.3125 180.695312 145.355469 180.378906 C 145.394531 180.058594 145.503906 179.59375 145.589844 179.347656 C 145.679688 179.097656 145.832031 178.574219 145.929688 178.1875 C 146.027344 177.796875 146.1875 177.332031 146.277344 177.152344 C 146.367188 176.96875 146.492188 176.640625 146.550781 176.417969 C 146.664062 175.972656 146.75 175.777344 146.992188 175.417969 C 147.082031 175.289062 147.179688 175.035156 147.226562 174.855469 C 147.265625 174.667969 147.40625 174.300781 147.542969 174.039062 C 147.675781 173.769531 147.835938 173.386719 147.902344 173.195312 C 147.964844 173 148.089844 172.722656 148.179688 172.589844 C 148.261719 172.453125 148.386719 172.1875 148.449219 172.007812 C 148.507812 171.828125 148.683594 171.492188 148.828125 171.265625 C 148.972656 171.042969 149.09375 170.816406 149.09375 170.777344 C 149.09375 170.734375 149.222656 170.519531 149.382812 170.300781 C 149.546875 170.082031 149.675781 169.882812 149.675781 169.855469 C 149.675781 169.824219 149.777344 169.628906 149.90625 169.417969 C 150.042969 169.210938 150.214844 168.894531 150.300781 168.722656 C 150.390625 168.546875 150.570312 168.246094 150.699219 168.046875 C 150.835938 167.847656 151.054688 167.515625 151.195312 167.3125 C 151.332031 167.105469 151.496094 166.839844 151.570312 166.730469 C 151.632812 166.613281 151.78125 166.414062 151.898438 166.285156 C 152.019531 166.15625 152.160156 165.96875 152.226562 165.867188 C 152.289062 165.769531 152.433594 165.582031 152.546875 165.460938 C 152.65625 165.339844 152.953125 164.933594 153.207031 164.558594 C 153.457031 164.1875 154.015625 163.503906 154.449219 163.046875 C 154.875 162.582031 155.34375 162.058594 155.480469 161.886719 C 155.617188 161.703125 156.007812 161.292969 156.355469 160.957031 C 156.703125 160.621094 157.382812 159.972656 157.859375 159.5 C 158.683594 158.6875 159.113281 158.316406 159.695312 157.894531 C 159.835938 157.792969 159.984375 157.675781 160.015625 157.640625 C 160.054688 157.601562 160.210938 157.464844 160.371094 157.34375 C 160.53125 157.226562 160.796875 157.007812 160.964844 156.867188 C 161.433594 156.453125 161.925781 156.078125 162.207031 155.929688 C 162.347656 155.855469 162.730469 155.601562 163.046875 155.375 C 163.367188 155.144531 163.742188 154.898438 163.882812 154.824219 C 164.023438 154.746094 164.257812 154.589844 164.398438 154.476562 C 164.539062 154.359375 164.785156 154.203125 164.945312 154.121094 C 165.105469 154.042969 165.328125 153.914062 165.429688 153.832031 C 165.539062 153.753906 165.75 153.625 165.914062 153.539062 C 166.074219 153.464844 166.363281 153.296875 166.558594 153.179688 C 166.75 153.0625 167.039062 152.921875 167.203125 152.875 C 167.363281 152.832031 167.621094 152.703125 167.78125 152.597656 C 167.941406 152.496094 168.21875 152.355469 168.40625 152.277344 C 168.585938 152.199219 168.863281 152.050781 169.019531 151.941406 C 169.171875 151.839844 169.507812 151.679688 169.765625 151.582031 C 170.03125 151.492188 170.332031 151.34375 170.441406 151.265625 C 170.558594 151.183594 170.878906 151.046875 171.164062 150.96875 C 171.449219 150.890625 171.777344 150.761719 171.898438 150.691406 C 172.019531 150.621094 172.394531 150.492188 172.730469 150.410156 C 173.058594 150.324219 173.523438 150.164062 173.761719 150.054688 C 174 149.9375 174.4375 149.808594 174.734375 149.757812 C 175.089844 149.699219 175.441406 149.582031 175.734375 149.4375 C 176.085938 149.253906 176.359375 149.179688 176.929688 149.09375 C 177.335938 149.03125 177.800781 148.933594 177.960938 148.867188 C 178.644531 148.617188 178.882812 148.566406 179.78125 148.476562 C 180.300781 148.425781 180.925781 148.339844 181.164062 148.289062 C 182.074219 148.082031 182.660156 147.992188 183.375 147.933594 C 184.433594 147.855469 191.664062 147.902344 192.300781 147.992188 Z M 107.632812 156.859375 C 107.808594 156.960938 108.15625 157.140625 108.402344 157.265625 C 108.652344 157.386719 108.898438 157.523438 108.949219 157.574219 C 109.066406 157.671875 109.804688 158.078125 110.535156 158.429688 C 110.816406 158.566406 111.132812 158.753906 111.242188 158.835938 C 111.347656 158.921875 111.558594 159.0625 111.71875 159.140625 C 111.882812 159.222656 112.066406 159.347656 112.144531 159.410156 C 112.292969 159.550781 113.1875 160.054688 113.839844 160.378906 C 114.070312 160.488281 114.347656 160.640625 114.453125 160.726562 C 114.5625 160.808594 114.820312 160.949219 115.019531 161.042969 C 115.226562 161.125 115.484375 161.273438 115.597656 161.355469 C 115.714844 161.445312 115.941406 161.582031 116.101562 161.660156 C 116.261719 161.742188 116.507812 161.898438 116.648438 162.015625 C 116.792969 162.128906 116.972656 162.246094 117.050781 162.265625 C 117.125 162.292969 117.339844 162.40625 117.511719 162.53125 C 117.6875 162.652344 118.003906 162.820312 118.214844 162.910156 C 118.429688 162.992188 118.730469 163.148438 118.886719 163.257812 C 119.039062 163.359375 119.226562 163.46875 119.3125 163.496094 C 119.394531 163.523438 119.644531 163.664062 119.863281 163.816406 C 120.082031 163.964844 120.328125 164.113281 120.40625 164.132812 C 120.484375 164.160156 120.726562 164.300781 120.949219 164.457031 C 121.171875 164.609375 121.457031 164.785156 121.578125 164.847656 C 121.703125 164.90625 121.863281 165.015625 121.933594 165.082031 C 122.003906 165.144531 122.269531 165.292969 122.511719 165.421875 C 123.214844 165.769531 123.679688 166.183594 124.035156 166.78125 C 124.203125 167.066406 124.375 167.441406 124.40625 167.605469 C 124.496094 167.992188 124.496094 168.882812 124.414062 169.328125 C 124.332031 169.785156 123.859375 170.519531 123.351562 170.992188 C 122.984375 171.339844 122.875 171.394531 122.242188 171.609375 C 121.320312 171.917969 121.003906 171.910156 120.078125 171.609375 C 119.691406 171.480469 119.238281 171.28125 119.074219 171.171875 C 118.90625 171.054688 118.640625 170.898438 118.484375 170.816406 C 118.324219 170.738281 118.125 170.605469 118.035156 170.519531 C 117.945312 170.4375 117.640625 170.25 117.359375 170.09375 C 117.074219 169.945312 116.609375 169.703125 116.328125 169.554688 C 115.515625 169.128906 114.898438 168.773438 114.703125 168.617188 C 114.601562 168.542969 114.347656 168.394531 114.136719 168.289062 C 113.921875 168.1875 113.621094 168.011719 113.460938 167.902344 C 112.984375 167.574219 112.511719 167.304688 111.558594 166.816406 C 111.0625 166.5625 110.554688 166.273438 110.429688 166.171875 C 110.300781 166.074219 110.042969 165.914062 109.851562 165.816406 C 109.65625 165.71875 109.4375 165.589844 109.367188 165.527344 C 109.296875 165.460938 109.039062 165.300781 108.789062 165.171875 C 108.542969 165.050781 108.296875 164.902344 108.238281 164.855469 C 108.1875 164.804688 107.957031 164.675781 107.726562 164.558594 C 107.492188 164.445312 107.226562 164.296875 107.136719 164.230469 C 107.046875 164.167969 106.847656 164.0625 106.6875 164.003906 C 106.53125 163.941406 106.269531 163.800781 106.105469 163.683594 C 105.945312 163.566406 105.683594 163.414062 105.527344 163.335938 C 105.371094 163.25 105.113281 163.082031 104.953125 162.953125 C 104.792969 162.820312 104.566406 162.660156 104.453125 162.585938 C 104.285156 162.476562 103.472656 161.640625 103.472656 161.570312 C 103.472656 161.554688 103.402344 161.222656 103.3125 160.820312 C 103.148438 160.113281 103.148438 160.085938 103.246094 159.527344 C 103.296875 159.210938 103.394531 158.8125 103.464844 158.636719 C 103.644531 158.160156 104.1875 157.582031 104.792969 157.21875 C 105.757812 156.640625 105.785156 156.632812 106.667969 156.660156 C 107.246094 156.671875 107.351562 156.699219 107.632812 156.859375 Z M 269.476562 156.800781 C 270.238281 157.195312 270.746094 157.554688 271.082031 157.929688 C 271.554688 158.464844 271.558594 158.484375 271.71875 159.332031 L 271.863281 160.054688 L 271.726562 160.738281 C 271.648438 161.113281 271.546875 161.492188 271.496094 161.589844 C 271.371094 161.820312 270.652344 162.550781 270.308594 162.789062 C 269.316406 163.484375 268.71875 163.863281 268.433594 163.980469 C 268.195312 164.074219 267.746094 164.320312 267.03125 164.746094 C 266.828125 164.867188 266.476562 165.0625 266.242188 165.183594 C 266.011719 165.308594 265.753906 165.472656 265.664062 165.558594 C 265.574219 165.640625 265.375 165.757812 265.210938 165.824219 C 265.050781 165.878906 264.8125 166.015625 264.671875 166.125 C 264.535156 166.226562 264.246094 166.402344 264.027344 166.511719 C 263.8125 166.613281 263.5625 166.75 263.472656 166.808594 C 263.382812 166.867188 263.183594 166.976562 263.019531 167.039062 C 262.859375 167.105469 262.648438 167.21875 262.539062 167.296875 C 262.433594 167.375 262.191406 167.515625 262.003906 167.613281 C 261.816406 167.710938 261.488281 167.917969 261.269531 168.070312 C 261.054688 168.230469 260.84375 168.359375 260.804688 168.359375 C 260.757812 168.359375 260.585938 168.457031 260.40625 168.566406 C 259.953125 168.863281 259.328125 169.21875 258.769531 169.496094 C 258.503906 169.625 258.203125 169.796875 258.09375 169.875 C 257.988281 169.960938 257.757812 170.082031 257.578125 170.160156 C 257.402344 170.238281 257.152344 170.398438 257.027344 170.519531 C 256.90625 170.640625 256.660156 170.796875 256.492188 170.867188 C 256.328125 170.9375 256.0625 171.085938 255.90625 171.191406 C 255.753906 171.300781 255.328125 171.488281 254.960938 171.617188 C 254.070312 171.917969 253.710938 171.917969 252.78125 171.617188 C 252.117188 171.394531 252.058594 171.363281 251.636719 170.953125 C 251.382812 170.714844 251.0625 170.3125 250.90625 170.050781 C 250.667969 169.636719 250.625 169.5 250.566406 169 C 250.488281 168.324219 250.566406 167.550781 250.753906 167.1875 C 251.242188 166.242188 251.707031 165.777344 252.59375 165.378906 C 252.859375 165.253906 253.105469 165.121094 253.125 165.082031 C 253.148438 165.042969 253.316406 164.933594 253.492188 164.84375 C 253.671875 164.753906 254 164.554688 254.230469 164.398438 C 254.464844 164.238281 254.691406 164.109375 254.742188 164.109375 C 254.785156 164.109375 254.964844 164.003906 255.132812 163.875 C 255.300781 163.746094 255.574219 163.578125 255.734375 163.507812 C 255.902344 163.4375 256.121094 163.316406 256.234375 163.230469 C 256.351562 163.140625 256.636719 162.988281 256.867188 162.882812 C 257.097656 162.78125 257.382812 162.621094 257.503906 162.53125 C 257.621094 162.4375 257.75 162.367188 257.789062 162.367188 C 257.828125 162.367188 258.109375 162.195312 258.425781 161.980469 C 258.734375 161.769531 259.011719 161.59375 259.046875 161.59375 C 259.070312 161.59375 259.285156 161.464844 259.523438 161.304688 C 259.753906 161.144531 259.980469 161.015625 260.019531 161.015625 C 260.0625 161.015625 260.269531 160.914062 260.484375 160.785156 C 260.863281 160.542969 261.292969 160.3125 262.175781 159.84375 C 262.441406 159.699219 262.746094 159.519531 262.847656 159.429688 C 262.949219 159.339844 263.15625 159.210938 263.304688 159.132812 C 263.445312 159.0625 263.660156 158.925781 263.773438 158.84375 C 263.957031 158.707031 264.265625 158.535156 265.4375 157.941406 C 265.613281 157.851562 265.875 157.695312 266.019531 157.601562 C 266.160156 157.503906 266.417969 157.363281 266.597656 157.285156 C 266.773438 157.207031 267.0625 157.050781 267.234375 156.941406 C 267.636719 156.683594 267.875 156.632812 268.628906 156.660156 C 269.070312 156.671875 269.304688 156.710938 269.476562 156.800781 Z M 111.242188 203.488281 C 112.0625 203.570312 112.234375 203.628906 112.738281 204.023438 C 113.703125 204.761719 114.199219 205.613281 114.277344 206.652344 C 114.316406 207.128906 114.304688 207.183594 114.039062 207.875 C 113.792969 208.53125 113.722656 208.640625 113.351562 209.027344 C 112.996094 209.394531 112.828125 209.503906 112.183594 209.800781 L 111.429688 210.148438 L 93.453125 210.148438 L 93.097656 209.976562 C 92.902344 209.886719 92.574219 209.730469 92.375 209.640625 C 91.945312 209.453125 91.460938 209.027344 91.144531 208.550781 C 90.976562 208.308594 90.878906 208.050781 90.769531 207.570312 C 90.640625 206.992188 90.636719 206.875 90.699219 206.414062 C 90.835938 205.492188 90.914062 205.285156 91.324219 204.800781 C 91.75 204.296875 92.460938 203.726562 92.800781 203.609375 C 92.921875 203.570312 93.308594 203.511719 93.65625 203.488281 C 94.664062 203.402344 110.410156 203.402344 111.242188 203.488281 Z M 281.21875 203.480469 C 281.636719 203.519531 282.089844 203.570312 282.21875 203.609375 C 282.589844 203.710938 283.242188 204.261719 283.796875 204.929688 C 284.246094 205.476562 284.445312 206.578125 284.261719 207.488281 C 284.132812 208.101562 284.074219 208.253906 283.839844 208.597656 C 283.46875 209.132812 283.121094 209.414062 282.351562 209.789062 L 281.613281 210.148438 L 263.570312 210.148438 L 263.214844 209.976562 C 263.019531 209.886719 262.671875 209.722656 262.441406 209.613281 C 261.917969 209.382812 261.289062 208.746094 261.121094 208.269531 C 261.054688 208.101562 260.945312 207.828125 260.875 207.667969 C 260.703125 207.257812 260.664062 206.617188 260.792969 206.171875 C 261.074219 205.1875 261.507812 204.570312 262.28125 203.996094 C 262.789062 203.628906 262.957031 203.570312 263.738281 203.488281 C 264.496094 203.410156 280.265625 203.402344 281.21875 203.480469 Z M 231.910156 234.863281 C 233.796875 234.933594 234.347656 235.003906 234.894531 235.230469 C 235.105469 235.320312 235.570312 235.441406 235.929688 235.507812 C 236.34375 235.578125 236.722656 235.691406 236.96875 235.820312 C 237.179688 235.925781 237.503906 236.054688 237.671875 236.09375 C 238.0625 236.1875 239.40625 236.886719 239.664062 237.125 C 239.773438 237.21875 239.972656 237.355469 240.113281 237.421875 C 241.246094 237.941406 243.839844 240.222656 244.707031 241.464844 C 244.855469 241.679688 245.132812 242.074219 245.332031 242.335938 C 245.527344 242.601562 245.765625 242.949219 245.863281 243.101562 C 245.964844 243.257812 246.105469 243.476562 246.183594 243.585938 C 246.265625 243.695312 246.402344 243.949219 246.492188 244.140625 C 246.582031 244.335938 246.769531 244.726562 246.910156 245.011719 C 247.046875 245.292969 247.183594 245.628906 247.203125 245.75 C 247.226562 245.875 247.355469 246.222656 247.492188 246.523438 C 247.644531 246.875 247.769531 247.257812 247.8125 247.582031 C 247.859375 247.867188 247.980469 248.308594 248.085938 248.582031 C 248.457031 249.507812 248.464844 249.632812 248.503906 255.867188 C 248.523438 259.585938 248.511719 261.804688 248.472656 262.234375 C 248.398438 262.898438 248.398438 262.910156 248.046875 263.441406 C 247.699219 263.949219 247.207031 264.472656 246.9375 264.621094 C 246.875 264.652344 246.460938 264.800781 246.027344 264.949219 L 245.242188 265.210938 L 187.421875 265.199219 L 129.601562 265.179688 L 128.839844 264.910156 C 128.234375 264.695312 128.011719 264.582031 127.726562 264.34375 C 127.53125 264.175781 127.320312 263.960938 127.261719 263.867188 C 127.203125 263.773438 127.050781 263.550781 126.921875 263.375 C 126.785156 263.195312 126.644531 262.925781 126.605469 262.761719 C 126.546875 262.558594 126.527344 260.914062 126.535156 256.511719 C 126.535156 249.703125 126.554688 249.386719 126.964844 248.445312 C 127.054688 248.238281 127.164062 247.8125 127.222656 247.492188 C 127.28125 247.097656 127.386719 246.761719 127.53125 246.472656 C 127.648438 246.234375 127.796875 245.863281 127.855469 245.640625 C 127.90625 245.417969 128.027344 245.125 128.113281 244.996094 C 128.203125 244.863281 128.339844 244.578125 128.410156 244.367188 C 128.480469 244.152344 128.621094 243.875 128.726562 243.753906 C 128.828125 243.625 128.96875 243.394531 129.054688 243.238281 C 129.132812 243.078125 129.265625 242.878906 129.351562 242.789062 C 129.5 242.625 129.792969 242.214844 130.316406 241.433594 C 130.582031 241.035156 132.628906 238.984375 133.171875 238.574219 C 133.878906 238.03125 134.570312 237.566406 134.847656 237.4375 C 135 237.367188 135.234375 237.214844 135.363281 237.105469 C 135.484375 236.996094 135.773438 236.820312 136 236.71875 C 136.230469 236.613281 136.523438 236.460938 136.652344 236.375 C 136.78125 236.292969 137.089844 236.164062 137.339844 236.09375 C 137.597656 236.015625 137.933594 235.878906 138.101562 235.789062 C 138.28125 235.6875 138.65625 235.578125 139.074219 235.507812 C 139.441406 235.433594 139.886719 235.324219 140.054688 235.253906 C 140.691406 234.992188 141.128906 234.925781 142.871094 234.863281 C 144.816406 234.789062 229.996094 234.789062 231.910156 234.863281 Z M 231.910156 234.863281 "/></g></svg>