<svg xmlns="http://www.w3.org/2000/svg" xmlns:xlink="http://www.w3.org/1999/xlink" width="500" zoomAndPan="magnify" viewBox="0 0 375 374.999991" height="500" preserveAspectRatio="xMidYMid meet" version="1.2"><defs><clipPath id="99335c76e6"><path d="M 46.777344 46.199219 L 328.222656 46.199219 L 328.222656 327.648438 L 46.777344 327.648438 Z M 46.777344 46.199219 "/></clipPath><clipPath id="9731bf01b9"><path d="M 187.5 46.199219 C 109.78125 46.199219 46.777344 109.203125 46.777344 186.921875 C 46.777344 264.644531 109.78125 327.648438 187.5 327.648438 C 265.21875 327.648438 328.222656 264.644531 328.222656 186.921875 C 328.222656 109.203125 265.21875 46.199219 187.5 46.199219 Z M 187.5 46.199219 "/></clipPath><clipPath id="2a13ef71a8"><path d="M 55.851562 55.851562 L 319.148438 55.851562 L 319.148438 319.148438 L 55.851562 319.148438 Z M 55.851562 55.851562 "/></clipPath><clipPath id="7b3931ecea"><path d="M 55.851562 55.851562 L 319.148438 55.851562 L 319.148438 319.148438 L 55.851562 319.148438 Z M 55.851562 55.851562 "/></clipPath><clipPath id="c34e42c873"><path d="M 187.5 55.851562 C 114.792969 55.851562 55.851562 114.792969 55.851562 187.5 C 55.851562 260.207031 114.792969 319.148438 187.5 319.148438 C 260.207031 319.148438 319.148438 260.207031 319.148438 187.5 C 319.148438 114.792969 260.207031 55.851562 187.5 55.851562 Z M 187.5 55.851562 "/></clipPath></defs><g id="ae62a8f970"><g clip-rule="nonzero" clip-path="url(#99335c76e6)"><g clip-rule="nonzero" clip-path="url(#9731bf01b9)"><path style=" stroke:none;fill-rule:nonzero;fill:#e9403e;fill-opacity:1;" d="M 46.777344 46.199219 L 328.222656 46.199219 L 328.222656 327.648438 L 46.777344 327.648438 Z M 46.777344 46.199219 "/></g></g><g clip-rule="nonzero" clip-path="url(#2a13ef71a8)"><path style=" stroke:none;fill-rule:nonzero;fill:#e9403e;fill-opacity:1;" d="M 319.148438 187.5 C 319.148438 189.65625 319.09375 191.808594 318.988281 193.960938 C 318.882812 196.113281 318.726562 198.257812 318.515625 200.402344 C 318.304688 202.546875 318.039062 204.6875 317.722656 206.816406 C 317.40625 208.949219 317.039062 211.070312 316.617188 213.183594 C 316.199219 215.296875 315.726562 217.398438 315.203125 219.488281 C 314.679688 221.578125 314.105469 223.652344 313.480469 225.714844 C 312.855469 227.777344 312.179688 229.824219 311.453125 231.851562 C 310.726562 233.878906 309.953125 235.890625 309.128906 237.878906 C 308.300781 239.871094 307.429688 241.839844 306.507812 243.785156 C 305.585938 245.734375 304.617188 247.660156 303.601562 249.558594 C 302.585938 251.457031 301.527344 253.332031 300.417969 255.179688 C 299.3125 257.027344 298.160156 258.847656 296.960938 260.640625 C 295.765625 262.429688 294.523438 264.191406 293.242188 265.921875 C 291.957031 267.652344 290.632812 269.351562 289.265625 271.015625 C 287.898438 272.683594 286.492188 274.3125 285.046875 275.910156 C 283.597656 277.507812 282.113281 279.066406 280.589844 280.589844 C 279.066406 282.113281 277.507812 283.597656 275.910156 285.042969 C 274.3125 286.492188 272.683594 287.898438 271.015625 289.265625 C 269.351562 290.632812 267.652344 291.957031 265.921875 293.242188 C 264.191406 294.523438 262.429688 295.765625 260.640625 296.960938 C 258.847656 298.160156 257.027344 299.3125 255.179688 300.417969 C 253.332031 301.527344 251.457031 302.585938 249.558594 303.601562 C 247.660156 304.617188 245.734375 305.585938 243.785156 306.507812 C 241.839844 307.429688 239.871094 308.300781 237.878906 309.128906 C 235.890625 309.953125 233.878906 310.726562 231.851562 311.453125 C 229.824219 312.179688 227.777344 312.855469 225.714844 313.480469 C 223.652344 314.105469 221.578125 314.679688 219.488281 315.203125 C 217.398438 315.726562 215.296875 316.199219 213.183594 316.617188 C 211.070312 317.039062 208.949219 317.40625 206.816406 317.722656 C 204.6875 318.039062 202.546875 318.304688 200.402344 318.515625 C 198.257812 318.726562 196.113281 318.882812 193.960938 318.988281 C 191.808594 319.09375 189.65625 319.148438 187.5 319.148438 C 185.34375 319.148438 183.191406 319.09375 181.039062 318.988281 C 178.886719 318.882812 176.742188 318.726562 174.597656 318.515625 C 172.453125 318.304688 170.3125 318.039062 168.183594 317.722656 C 166.050781 317.40625 163.929688 317.039062 161.816406 316.617188 C 159.703125 316.199219 157.601562 315.726562 155.511719 315.203125 C 153.421875 314.679688 151.347656 314.105469 149.285156 313.480469 C 147.222656 312.855469 145.175781 312.179688 143.148438 311.453125 C 141.121094 310.726562 139.109375 309.953125 137.121094 309.128906 C 135.128906 308.300781 133.160156 307.429688 131.214844 306.507812 C 129.265625 305.585938 127.339844 304.617188 125.441406 303.601562 C 123.542969 302.585938 121.667969 301.527344 119.820312 300.417969 C 117.972656 299.3125 116.152344 298.160156 114.359375 296.960938 C 112.570312 295.765625 110.808594 294.523438 109.078125 293.242188 C 107.347656 291.957031 105.648438 290.632812 103.984375 289.265625 C 102.316406 287.898438 100.6875 286.492188 99.089844 285.042969 C 97.492188 283.597656 95.933594 282.113281 94.410156 280.589844 C 92.886719 279.066406 91.402344 277.507812 89.953125 275.910156 C 88.507812 274.3125 87.101562 272.683594 85.734375 271.015625 C 84.367188 269.351562 83.042969 267.652344 81.757812 265.921875 C 80.476562 264.191406 79.234375 262.429688 78.039062 260.640625 C 76.839844 258.847656 75.6875 257.027344 74.582031 255.179688 C 73.472656 253.332031 72.414062 251.457031 71.398438 249.558594 C 70.382812 247.660156 69.414062 245.734375 68.492188 243.785156 C 67.570312 241.839844 66.699219 239.871094 65.871094 237.878906 C 65.046875 235.890625 64.273438 233.878906 63.546875 231.851562 C 62.820312 229.824219 62.144531 227.777344 61.519531 225.714844 C 60.894531 223.652344 60.320312 221.578125 59.796875 219.488281 C 59.273438 217.398438 58.800781 215.296875 58.382812 213.183594 C 57.960938 211.070312 57.59375 208.949219 57.277344 206.816406 C 56.960938 204.6875 56.695312 202.546875 56.484375 200.402344 C 56.273438 198.257812 56.117188 196.113281 56.011719 193.960938 C 55.90625 191.808594 55.851562 189.65625 55.851562 187.5 C 55.851562 185.34375 55.90625 183.191406 56.011719 181.039062 C 56.117188 178.886719 56.273438 176.742188 56.484375 174.597656 C 56.695312 172.453125 56.960938 170.3125 57.277344 168.183594 C 57.59375 166.050781 57.960938 163.929688 58.382812 161.816406 C 58.800781 159.703125 59.273438 157.601562 59.796875 155.511719 C 60.320312 153.421875 60.894531 151.347656 61.519531 149.285156 C 62.144531 147.222656 62.820312 145.175781 63.546875 143.148438 C 64.273438 141.121094 65.046875 139.109375 65.871094 137.121094 C 66.699219 135.128906 67.570312 133.160156 68.492188 131.214844 C 69.414062 129.265625 70.382812 127.339844 71.398438 125.441406 C 72.414062 123.542969 73.472656 121.667969 74.582031 119.820312 C 75.6875 117.972656 76.839844 116.152344 78.039062 114.359375 C 79.234375 112.570312 80.476562 110.808594 81.757812 109.078125 C 83.042969 107.347656 84.367188 105.648438 85.734375 103.984375 C 87.101562 102.316406 88.507812 100.6875 89.953125 99.089844 C 91.402344 97.492188 92.886719 95.933594 94.410156 94.410156 C 95.933594 92.886719 97.492188 91.402344 99.089844 89.953125 C 100.6875 88.507812 102.316406 87.101562 103.984375 85.734375 C 105.648438 84.367188 107.347656 83.042969 109.078125 81.757812 C 110.808594 80.476562 112.570312 79.234375 114.359375 78.039062 C 116.152344 76.839844 117.972656 75.6875 119.820312 74.582031 C 121.667969 73.472656 123.542969 72.414062 125.441406 71.398438 C 127.339844 70.382812 129.265625 69.414062 131.214844 68.492188 C 133.160156 67.570312 135.128906 66.699219 137.121094 65.871094 C 139.109375 65.046875 141.121094 64.273438 143.148438 63.546875 C 145.175781 62.820312 147.222656 62.144531 149.285156 61.519531 C 151.347656 60.894531 153.421875 60.320312 155.511719 59.796875 C 157.601562 59.273438 159.703125 58.800781 161.816406 58.382812 C 163.929688 57.960938 166.050781 57.59375 168.183594 57.277344 C 170.3125 56.960938 172.453125 56.695312 174.597656 56.484375 C 176.742188 56.273438 178.886719 56.117188 181.039062 56.011719 C 183.191406 55.90625 185.34375 55.851562 187.5 55.851562 C 189.65625 55.851562 191.808594 55.90625 193.960938 56.011719 C 196.113281 56.117188 198.257812 56.273438 200.402344 56.484375 C 202.546875 56.695312 204.6875 56.960938 206.816406 57.277344 C 208.949219 57.59375 211.070312 57.960938 213.183594 58.382812 C 215.296875 58.800781 217.398438 59.273438 219.488281 59.796875 C 221.578125 60.320312 223.652344 60.894531 225.714844 61.519531 C 227.777344 62.144531 229.824219 62.820312 231.851562 63.546875 C 233.878906 64.273438 235.890625 65.046875 237.878906 65.871094 C 239.871094 66.699219 241.839844 67.570312 243.785156 68.492188 C 245.734375 69.414062 247.660156 70.382812 249.558594 71.398438 C 251.457031 72.414062 253.332031 73.472656 255.179688 74.582031 C 257.027344 75.6875 258.847656 76.839844 260.640625 78.039062 C 262.429688 79.234375 264.191406 80.476562 265.921875 81.757812 C 267.652344 83.042969 269.351562 84.367188 271.015625 85.734375 C 272.683594 87.101562 274.3125 88.507812 275.910156 89.953125 C 277.507812 91.402344 279.066406 92.886719 280.589844 94.410156 C 282.113281 95.933594 283.597656 97.492188 285.046875 99.089844 C 286.492188 100.6875 287.898438 102.316406 289.265625 103.984375 C 290.632812 105.648438 291.957031 107.347656 293.242188 109.078125 C 294.523438 110.808594 295.765625 112.570312 296.960938 114.359375 C 298.160156 116.152344 299.3125 117.972656 300.417969 119.820312 C 301.527344 121.667969 302.585938 123.542969 303.601562 125.441406 C 304.617188 127.339844 305.585938 129.265625 306.507812 131.214844 C 307.429688 133.160156 308.300781 135.128906 309.128906 137.121094 C 309.953125 139.109375 310.726562 141.121094 311.453125 143.148438 C 312.179688 145.175781 312.855469 147.222656 313.480469 149.285156 C 314.105469 151.347656 314.679688 153.421875 315.203125 155.511719 C 315.726562 157.601562 316.199219 159.703125 316.617188 161.816406 C 317.039062 163.929688 317.40625 166.050781 317.722656 168.183594 C 318.039062 170.3125 318.304688 172.453125 318.515625 174.597656 C 318.726562 176.742188 318.882812 178.886719 318.988281 181.039062 C 319.09375 183.191406 319.148438 185.34375 319.148438 187.5 Z M 319.148438 187.5 "/></g><path style=" stroke:none;fill-rule:nonzero;fill:#ffffff;fill-opacity:1;" d="M 217.441406 154.09375 L 217.441406 163.3125 C 217.4375 165.496094 217.167969 167.652344 216.632812 169.769531 C 216.097656 171.890625 215.308594 173.914062 214.265625 175.835938 C 213.226562 177.761719 211.96875 179.527344 210.488281 181.136719 C 209.007812 182.746094 207.351562 184.152344 205.523438 185.347656 L 202.648438 186.992188 C 199 188.78125 195.144531 189.671875 191.082031 189.667969 L 186.050781 189.667969 C 182.875 189.671875 179.804688 189.113281 176.832031 188 L 173.9375 186.707031 C 172.871094 186.152344 171.847656 185.53125 170.867188 184.835938 C 169.886719 184.140625 168.957031 183.386719 168.082031 182.566406 C 167.203125 181.746094 166.386719 180.867188 165.628906 179.9375 C 164.871094 179.003906 164.179688 178.023438 163.554688 176.996094 C 162.933594 175.972656 162.382812 174.90625 161.902344 173.804688 C 161.425781 172.703125 161.023438 171.574219 160.699219 170.417969 C 160.375 169.261719 160.128906 168.085938 159.964844 166.898438 C 159.800781 165.707031 159.71875 164.511719 159.71875 163.3125 L 159.71875 154.09375 C 160.839844 155.402344 162.089844 156.578125 163.460938 157.617188 C 164.835938 158.65625 166.304688 159.535156 167.871094 160.257812 C 169.433594 160.980469 171.058594 161.527344 172.738281 161.898438 C 174.421875 162.269531 176.125 162.457031 177.847656 162.464844 L 189.433594 162.464844 C 189.523438 162.460938 189.617188 162.457031 189.710938 162.441406 C 189.796875 162.457031 189.882812 162.460938 189.972656 162.464844 L 199.324219 162.464844 C 201.046875 162.457031 202.746094 162.269531 204.429688 161.894531 C 206.109375 161.523438 207.730469 160.976562 209.292969 160.253906 C 210.859375 159.53125 212.324219 158.652344 213.699219 157.613281 C 215.070312 156.574219 216.320312 155.402344 217.441406 154.09375 Z M 217.441406 154.09375 "/><path style=" stroke:none;fill-rule:nonzero;fill:#ffffff;fill-opacity:1;" d="M 215.90625 149.445312 C 215 150.824219 213.945312 152.070312 212.734375 153.183594 C 211.519531 154.296875 210.191406 155.246094 208.742188 156.03125 C 207.296875 156.816406 205.773438 157.414062 204.179688 157.820312 C 202.585938 158.226562 200.964844 158.433594 199.316406 158.4375 L 189.960938 158.4375 C 189.871094 158.4375 189.785156 158.445312 189.695312 158.457031 C 189.605469 158.445312 189.511719 158.4375 189.417969 158.4375 L 177.835938 158.4375 C 176.1875 158.433594 174.566406 158.226562 172.972656 157.820312 C 171.375 157.414062 169.855469 156.816406 168.40625 156.03125 C 166.960938 155.246094 165.628906 154.296875 164.417969 153.183594 C 163.207031 152.070312 162.148438 150.824219 161.246094 149.445312 Z M 215.90625 149.445312 "/><path style=" stroke:none;fill-rule:nonzero;fill:#ffffff;fill-opacity:1;" d="M 226.433594 125.773438 C 226.085938 124.851562 225.636719 123.980469 225.089844 123.160156 C 224.539062 122.339844 223.90625 121.59375 223.1875 120.917969 C 222.46875 120.246094 221.679688 119.660156 220.828125 119.164062 C 219.976562 118.671875 219.078125 118.277344 218.132812 117.988281 C 209.265625 115.296875 197.335938 110.507812 190.90625 103.003906 C 190.761719 102.835938 190.601562 102.683594 190.421875 102.550781 C 190.246094 102.417969 190.054688 102.304688 189.855469 102.210938 C 189.652344 102.117188 189.441406 102.046875 189.226562 102 C 189.007812 101.953125 188.789062 101.929688 188.566406 101.929688 C 188.34375 101.929688 188.125 101.953125 187.90625 102 C 187.691406 102.046875 187.480469 102.117188 187.277344 102.210938 C 187.074219 102.304688 186.886719 102.417969 186.707031 102.550781 C 186.53125 102.683594 186.371094 102.835938 186.226562 103.003906 C 179.796875 110.507812 167.871094 115.296875 159 117.988281 C 157.917969 118.316406 156.898438 118.78125 155.941406 119.375 C 154.984375 119.972656 154.121094 120.683594 153.347656 121.507812 C 152.578125 122.332031 151.925781 123.242188 151.394531 124.238281 C 150.863281 125.234375 150.472656 126.28125 150.214844 127.378906 C 149.960938 128.480469 149.851562 129.59375 149.890625 130.71875 C 149.929688 131.847656 150.113281 132.953125 150.441406 134.03125 C 150.773438 135.109375 151.234375 136.128906 151.832031 137.085938 C 152.429688 138.042969 153.140625 138.90625 153.964844 139.675781 L 156.996094 142.507812 C 157.136719 142.636719 157.257812 142.785156 157.355469 142.949219 L 158.820312 145.417969 L 218.304688 145.417969 L 219.769531 142.949219 C 219.867188 142.785156 219.988281 142.636719 220.128906 142.507812 L 223.160156 139.675781 C 224.089844 138.8125 224.878906 137.828125 225.515625 136.730469 C 226.15625 135.632812 226.621094 134.460938 226.914062 133.222656 C 227.207031 131.984375 227.3125 130.730469 227.230469 129.460938 C 227.148438 128.191406 226.882812 126.964844 226.433594 125.773438 Z M 202.902344 124.871094 L 195.957031 129.917969 L 198.609375 138.078125 C 198.746094 138.492188 198.746094 138.910156 198.609375 139.324219 C 198.476562 139.738281 198.230469 140.074219 197.878906 140.328125 C 197.527344 140.585938 197.132812 140.714844 196.695312 140.714844 C 196.257812 140.714844 195.863281 140.585938 195.511719 140.332031 L 188.566406 135.289062 L 181.625 140.332031 C 181.269531 140.589844 180.875 140.71875 180.441406 140.71875 C 180.003906 140.71875 179.609375 140.589844 179.257812 140.332031 C 178.902344 140.074219 178.660156 139.742188 178.523438 139.324219 C 178.390625 138.910156 178.390625 138.496094 178.523438 138.082031 L 181.175781 129.917969 L 174.230469 124.871094 C 173.875 124.617188 173.632812 124.28125 173.496094 123.863281 C 173.363281 123.449219 173.363281 123.035156 173.496094 122.621094 C 173.632812 122.203125 173.875 121.867188 174.230469 121.613281 C 174.582031 121.355469 174.976562 121.226562 175.414062 121.226562 L 184 121.226562 L 186.652344 113.066406 C 186.785156 112.652344 187.03125 112.316406 187.382812 112.058594 C 187.734375 111.800781 188.128906 111.671875 188.566406 111.671875 C 189.003906 111.671875 189.398438 111.800781 189.75 112.058594 C 190.101562 112.316406 190.347656 112.652344 190.480469 113.066406 L 193.132812 121.226562 L 201.71875 121.226562 C 202.152344 121.226562 202.546875 121.355469 202.902344 121.613281 C 203.253906 121.871094 203.496094 122.207031 203.632812 122.621094 C 203.765625 123.035156 203.765625 123.449219 203.632812 123.867188 C 203.496094 124.28125 203.253906 124.617188 202.898438 124.871094 Z M 202.902344 124.871094 "/><path style=" stroke:none;fill-rule:nonzero;fill:#ffffff;fill-opacity:1;" d="M 207.097656 194.34375 L 188.929688 210.910156 L 172.566406 195.847656 L 175.210938 191.695312 C 178.699219 193.03125 182.3125 193.699219 186.050781 193.691406 L 191.082031 193.691406 C 195.804688 193.695312 200.28125 192.648438 204.511719 190.554688 Z M 207.097656 194.34375 "/><path style=" stroke:none;fill-rule:nonzero;fill:#ffffff;fill-opacity:1;" d="M 185.9375 213.625 L 171.117188 227.125 L 165.472656 210.921875 L 170.644531 199.550781 Z M 185.9375 213.625 "/><path style=" stroke:none;fill-rule:nonzero;fill:#ffffff;fill-opacity:1;" d="M 213.011719 209.898438 L 206.875 227.414062 L 200.964844 221.992188 L 191.898438 213.652344 L 208.699219 198.335938 L 210.671875 205.226562 C 211.046875 206.988281 211.828125 208.542969 213.011719 209.898438 Z M 213.011719 209.898438 "/><path style=" stroke:none;fill-rule:nonzero;fill:#ffffff;fill-opacity:1;" d="M 197.042969 223.839844 L 193.464844 229.832031 L 185.066406 229.832031 L 181.210938 223.375 L 188.910156 216.359375 Z M 197.042969 223.839844 "/><path style=" stroke:none;fill-rule:nonzero;fill:#ffffff;fill-opacity:1;" d="M 200.199219 273.070312 L 175.410156 273.070312 L 185.484375 233.859375 L 192.933594 233.859375 Z M 200.199219 273.070312 "/><path style=" stroke:none;fill-rule:nonzero;fill:#ffffff;fill-opacity:1;" d="M 191.675781 129.769531 L 192.867188 133.433594 L 189.75 131.171875 C 189.398438 130.914062 189.003906 130.785156 188.566406 130.785156 C 188.128906 130.785156 187.734375 130.914062 187.382812 131.171875 L 184.265625 133.433594 L 185.457031 129.769531 C 185.589844 129.355469 185.59375 128.941406 185.457031 128.527344 C 185.324219 128.109375 185.078125 127.773438 184.726562 127.519531 L 181.613281 125.257812 L 185.460938 125.257812 C 185.898438 125.257812 186.292969 125.128906 186.644531 124.871094 C 187 124.613281 187.242188 124.277344 187.375 123.863281 L 188.566406 120.203125 L 189.757812 123.863281 C 189.890625 124.277344 190.132812 124.613281 190.488281 124.871094 C 190.839844 125.128906 191.234375 125.257812 191.671875 125.257812 L 195.523438 125.257812 L 192.40625 127.519531 C 192.054688 127.773438 191.8125 128.109375 191.675781 128.523438 C 191.539062 128.941406 191.539062 129.355469 191.675781 129.769531 Z M 191.675781 129.769531 "/><path style=" stroke:none;fill-rule:nonzero;fill:#ffffff;fill-opacity:1;" d="M 255.289062 220.320312 L 255.050781 221.109375 C 254.9375 221.308594 254.859375 221.519531 254.824219 221.746094 C 254.527344 222.363281 254.09375 222.855469 253.515625 223.222656 C 252.9375 223.589844 252.308594 223.777344 251.625 223.78125 C 251.277344 223.777344 250.9375 223.726562 250.605469 223.625 L 236.539062 219.414062 C 236.113281 219.285156 235.726562 219.085938 235.375 218.8125 C 235.023438 218.539062 234.734375 218.210938 234.507812 217.828125 C 234.28125 217.445312 234.132812 217.03125 234.058594 216.59375 C 233.988281 216.15625 233.996094 215.71875 234.089844 215.28125 C 234.132812 215.1875 234.164062 215.085938 234.191406 214.984375 C 234.207031 214.917969 234.222656 214.847656 234.230469 214.773438 L 234.441406 214.066406 C 234.582031 213.621094 234.796875 213.21875 235.09375 212.855469 C 235.394531 212.496094 235.746094 212.207031 236.160156 211.988281 C 236.570312 211.769531 237.011719 211.636719 237.476562 211.589844 C 237.941406 211.542969 238.394531 211.589844 238.84375 211.722656 L 252.90625 215.9375 C 253.351562 216.070312 253.757812 216.285156 254.121094 216.578125 C 254.484375 216.875 254.777344 217.226562 255 217.636719 C 255.222656 218.046875 255.359375 218.484375 255.410156 218.949219 C 255.460938 219.414062 255.417969 219.871094 255.289062 220.320312 Z M 255.289062 220.320312 "/><path style=" stroke:none;fill-rule:nonzero;fill:#ffffff;fill-opacity:1;" d="M 267.238281 243.582031 L 267.238281 273.070312 L 239.488281 273.070312 L 239.488281 243.496094 C 239.496094 243.226562 239.453125 242.960938 239.355469 242.703125 C 239.257812 242.449219 239.113281 242.222656 238.925781 242.027344 C 238.734375 241.828125 238.515625 241.679688 238.261719 241.570312 C 238.011719 241.464844 237.75 241.410156 237.476562 241.410156 C 237.203125 241.410156 236.9375 241.464844 236.6875 241.570312 C 236.4375 241.679688 236.214844 241.828125 236.023438 242.027344 C 235.835938 242.222656 235.691406 242.449219 235.59375 242.703125 C 235.496094 242.960938 235.453125 243.226562 235.460938 243.496094 L 235.460938 273.070312 L 204.289062 273.070312 L 196.714844 232.226562 L 200.054688 226.625 L 206.375 232.449219 C 206.761719 232.800781 207.214844 232.976562 207.738281 232.972656 C 207.90625 232.976562 208.070312 232.953125 208.230469 232.914062 C 208.558594 232.832031 208.847656 232.675781 209.097656 232.449219 C 209.347656 232.21875 209.527344 231.945312 209.640625 231.625 L 216.363281 212.449219 C 216.992188 212.75 217.640625 212.984375 218.320312 213.148438 L 229.960938 216.046875 C 229.960938 216.863281 230.089844 217.660156 230.347656 218.433594 C 230.601562 219.207031 230.976562 219.921875 231.464844 220.578125 C 231.953125 221.230469 232.53125 221.792969 233.203125 222.257812 C 233.871094 222.726562 234.597656 223.074219 235.378906 223.308594 L 249.445312 227.519531 C 250.164062 227.734375 250.898438 227.839844 251.648438 227.835938 C 252.394531 227.832031 253.128906 227.722656 253.84375 227.5 C 254.558594 227.28125 255.230469 226.960938 255.851562 226.542969 C 256.472656 226.125 257.019531 225.625 257.492188 225.042969 C 258.058594 225.460938 258.609375 225.90625 259.136719 226.359375 C 261.691406 228.570312 263.695312 231.203125 265.140625 234.257812 C 266.539062 237.210938 267.238281 240.316406 267.238281 243.582031 Z M 267.238281 243.582031 "/><path style=" stroke:none;fill-rule:nonzero;fill:#ffffff;fill-opacity:1;" d="M 148.21875 216.199219 C 147.671875 217.011719 146.917969 217.507812 145.957031 217.691406 L 131.539062 220.460938 C 131.078125 220.546875 130.617188 220.542969 130.160156 220.449219 C 129.699219 220.355469 129.273438 220.175781 128.886719 219.914062 C 128.5 219.648438 128.175781 219.324219 127.917969 218.929688 C 127.65625 218.539062 127.484375 218.113281 127.394531 217.652344 L 127.269531 216.992188 C 127.265625 216.949219 127.261719 216.902344 127.253906 216.859375 C 127.238281 216.785156 127.222656 216.714844 127.199219 216.640625 C 127.121094 216.183594 127.128906 215.726562 127.226562 215.273438 C 127.324219 214.820312 127.507812 214.402344 127.769531 214.019531 C 128.035156 213.636719 128.359375 213.320312 128.75 213.066406 C 129.136719 212.8125 129.5625 212.640625 130.015625 212.550781 L 144.433594 209.78125 C 144.894531 209.695312 145.355469 209.699219 145.8125 209.792969 C 146.273438 209.886719 146.699219 210.066406 147.085938 210.332031 C 147.476562 210.59375 147.800781 210.921875 148.058594 211.3125 C 148.316406 211.703125 148.488281 212.132812 148.578125 212.59375 L 148.695312 213.191406 C 148.695312 213.222656 148.695312 213.246094 148.695312 213.277344 C 148.695312 213.304688 148.722656 213.414062 148.738281 213.480469 L 148.738281 213.550781 C 148.933594 214.503906 148.757812 215.386719 148.21875 216.199219 Z M 148.21875 216.199219 "/><path style=" stroke:none;fill-rule:nonzero;fill:#ffffff;fill-opacity:1;" d="M 181.765625 232.15625 L 171.253906 273.070312 L 141.257812 273.070312 L 141.257812 243.496094 C 141.257812 243.230469 141.207031 242.972656 141.105469 242.726562 C 141.003906 242.480469 140.859375 242.261719 140.667969 242.070312 C 140.480469 241.882812 140.261719 241.734375 140.015625 241.632812 C 139.769531 241.53125 139.511719 241.480469 139.242188 241.480469 C 138.976562 241.480469 138.71875 241.53125 138.472656 241.632812 C 138.222656 241.734375 138.007812 241.882812 137.816406 242.070312 C 137.628906 242.261719 137.484375 242.480469 137.382812 242.726562 C 137.277344 242.972656 137.226562 243.230469 137.230469 243.496094 L 137.230469 273.070312 L 107.949219 273.070312 L 110.582031 234.367188 C 110.707031 232.625 111.117188 230.953125 111.8125 229.351562 C 112.507812 227.746094 113.445312 226.304688 114.628906 225.019531 C 116.027344 223.476562 117.648438 222.21875 119.488281 221.242188 C 120.847656 220.515625 122.273438 219.960938 123.765625 219.570312 C 123.914062 219.992188 124.101562 220.394531 124.328125 220.78125 C 124.550781 221.167969 124.804688 221.535156 125.09375 221.875 C 125.382812 222.214844 125.699219 222.53125 126.039062 222.816406 C 126.382812 223.101562 126.75 223.355469 127.140625 223.574219 C 127.527344 223.796875 127.933594 223.980469 128.351562 224.128906 C 128.773438 224.277344 129.207031 224.390625 129.644531 224.460938 C 130.085938 224.535156 130.53125 224.566406 130.976562 224.5625 C 131.425781 224.554688 131.867188 224.507812 132.304688 224.425781 L 146.71875 221.65625 C 147.550781 221.496094 148.332031 221.203125 149.0625 220.78125 C 149.796875 220.359375 150.441406 219.832031 150.996094 219.191406 C 151.550781 218.554688 151.988281 217.84375 152.304688 217.0625 C 152.621094 216.277344 152.800781 215.464844 152.847656 214.621094 L 161.960938 213.089844 L 168.316406 231.332031 C 168.429688 231.652344 168.609375 231.925781 168.859375 232.15625 C 169.109375 232.382812 169.398438 232.539062 169.726562 232.621094 C 169.886719 232.664062 170.050781 232.683594 170.21875 232.683594 C 170.738281 232.683594 171.191406 232.507812 171.574219 232.15625 L 178.171875 226.144531 Z M 181.765625 232.15625 "/><g clip-rule="nonzero" clip-path="url(#7b3931ecea)"><g clip-rule="nonzero" clip-path="url(#c34e42c873)"><path style="fill:none;stroke-width:15.951588;stroke-linecap:butt;stroke-linejoin:miter;stroke:#ffffff;stroke-opacity:1;stroke-miterlimit:4;" d="M 200.000008 -0.000135258 C 89.54356 -0.000135258 -0.000163971 89.543589 -0.000163971 200.000037 C -0.000163971 310.456485 89.54356 400.000209 200.000008 400.000209 C 310.456456 400.000209 400.00018 310.456485 400.00018 200.000037 C 400.00018 89.543589 310.456456 -0.000135258 200.000008 -0.000135258 Z M 200.000008 -0.000135258 " transform="matrix(0.658242,0,0,0.658242,55.85167,55.851652)"/></g></g></g></svg>