<svg xmlns="http://www.w3.org/2000/svg" xmlns:xlink="http://www.w3.org/1999/xlink" width="500" zoomAndPan="magnify" viewBox="0 0 375 374.999991" height="500" preserveAspectRatio="xMidYMid meet" version="1.2"><defs><clipPath id="ff90fab858"><path d="M 72.140625 72.140625 L 303 72.140625 L 303 303 L 72.140625 303 Z M 72.140625 72.140625 "/></clipPath></defs><g id="522ed00350"><g clip-rule="nonzero" clip-path="url(#ff90fab858)"><path style=" stroke:none;fill-rule:nonzero;fill:#ff5757;fill-opacity:1;" d="M 302.859375 187.5 C 302.859375 189.386719 302.8125 191.273438 302.71875 193.160156 C 302.625 195.046875 302.488281 196.925781 302.304688 198.804688 C 302.117188 200.683594 301.886719 202.558594 301.609375 204.425781 C 301.332031 206.292969 301.011719 208.152344 300.640625 210.003906 C 300.273438 211.855469 299.859375 213.699219 299.402344 215.527344 C 298.941406 217.359375 298.4375 219.179688 297.890625 220.984375 C 297.34375 222.792969 296.75 224.585938 296.113281 226.363281 C 295.480469 228.140625 294.800781 229.902344 294.078125 231.644531 C 293.355469 233.390625 292.589844 235.113281 291.78125 236.820312 C 290.976562 238.527344 290.125 240.214844 289.238281 241.878906 C 288.347656 243.542969 287.417969 245.1875 286.445312 246.804688 C 285.476562 248.425781 284.464844 250.019531 283.417969 251.589844 C 282.367188 253.160156 281.28125 254.703125 280.15625 256.21875 C 279.03125 257.734375 277.871094 259.222656 276.671875 260.683594 C 275.476562 262.140625 274.242188 263.570312 272.972656 264.96875 C 271.707031 266.367188 270.40625 267.734375 269.070312 269.070312 C 267.734375 270.40625 266.367188 271.707031 264.96875 272.972656 C 263.570312 274.242188 262.140625 275.476562 260.683594 276.671875 C 259.222656 277.871094 257.734375 279.03125 256.21875 280.15625 C 254.703125 281.28125 253.160156 282.367188 251.589844 283.417969 C 250.019531 284.464844 248.425781 285.476562 246.804688 286.445312 C 245.1875 287.417969 243.542969 288.347656 241.878906 289.238281 C 240.214844 290.125 238.527344 290.976562 236.820312 291.78125 C 235.113281 292.589844 233.390625 293.355469 231.644531 294.078125 C 229.902344 294.800781 228.140625 295.480469 226.363281 296.113281 C 224.585938 296.75 222.792969 297.34375 220.984375 297.890625 C 219.179688 298.4375 217.359375 298.941406 215.527344 299.402344 C 213.699219 299.859375 211.855469 300.273438 210.003906 300.640625 C 208.152344 301.011719 206.292969 301.332031 204.425781 301.609375 C 202.558594 301.886719 200.683594 302.117188 198.804688 302.304688 C 196.925781 302.488281 195.046875 302.625 193.160156 302.71875 C 191.273438 302.8125 189.386719 302.859375 187.5 302.859375 C 185.609375 302.859375 183.722656 302.8125 181.839844 302.71875 C 179.953125 302.625 178.070312 302.488281 176.191406 302.304688 C 174.3125 302.117188 172.441406 301.886719 170.570312 301.609375 C 168.703125 301.332031 166.84375 301.011719 164.992188 300.640625 C 163.140625 300.273438 161.300781 299.859375 159.46875 299.402344 C 157.636719 298.941406 155.820312 298.4375 154.011719 297.890625 C 152.207031 297.34375 150.414062 296.75 148.636719 296.113281 C 146.859375 295.480469 145.097656 294.800781 143.351562 294.078125 C 141.609375 293.355469 139.882812 292.589844 138.175781 291.78125 C 136.46875 290.976562 134.785156 290.125 133.117188 289.238281 C 131.453125 288.347656 129.8125 287.417969 128.191406 286.445312 C 126.574219 285.476562 124.976562 284.464844 123.410156 283.417969 C 121.839844 282.367188 120.296875 281.28125 118.78125 280.15625 C 117.261719 279.03125 115.773438 277.871094 114.316406 276.671875 C 112.855469 275.476562 111.425781 274.242188 110.027344 272.972656 C 108.628906 271.707031 107.261719 270.40625 105.925781 269.070312 C 104.59375 267.734375 103.292969 266.367188 102.023438 264.96875 C 100.753906 263.570312 99.523438 262.140625 98.324219 260.683594 C 97.128906 259.222656 95.964844 257.734375 94.839844 256.21875 C 93.71875 254.703125 92.628906 253.160156 91.582031 251.589844 C 90.53125 250.019531 89.523438 248.425781 88.550781 246.804688 C 87.582031 245.1875 86.652344 243.542969 85.761719 241.878906 C 84.871094 240.214844 84.023438 238.527344 83.214844 236.820312 C 82.40625 235.113281 81.644531 233.390625 80.921875 231.644531 C 80.199219 229.902344 79.519531 228.140625 78.882812 226.363281 C 78.246094 224.585938 77.65625 222.792969 77.105469 220.984375 C 76.558594 219.179688 76.054688 217.359375 75.597656 215.527344 C 75.136719 213.699219 74.722656 211.855469 74.355469 210.003906 C 73.988281 208.152344 73.664062 206.292969 73.386719 204.425781 C 73.109375 202.558594 72.878906 200.683594 72.695312 198.804688 C 72.511719 196.925781 72.371094 195.046875 72.277344 193.160156 C 72.1875 191.273438 72.140625 189.386719 72.140625 187.5 C 72.140625 185.609375 72.1875 183.722656 72.277344 181.839844 C 72.371094 179.953125 72.511719 178.070312 72.695312 176.191406 C 72.878906 174.3125 73.109375 172.441406 73.386719 170.570312 C 73.664062 168.703125 73.988281 166.84375 74.355469 164.992188 C 74.722656 163.140625 75.136719 161.300781 75.597656 159.46875 C 76.054688 157.636719 76.558594 155.820312 77.105469 154.011719 C 77.65625 152.207031 78.246094 150.414062 78.882812 148.636719 C 79.519531 146.859375 80.199219 145.097656 80.921875 143.351562 C 81.644531 141.609375 82.40625 139.882812 83.214844 138.175781 C 84.023438 136.46875 84.871094 134.785156 85.761719 133.117188 C 86.652344 131.453125 87.582031 129.8125 88.550781 128.191406 C 89.523438 126.574219 90.53125 124.976562 91.582031 123.410156 C 92.628906 121.839844 93.71875 120.296875 94.839844 118.78125 C 95.964844 117.261719 97.128906 115.773438 98.324219 114.316406 C 99.523438 112.855469 100.753906 111.425781 102.023438 110.027344 C 103.292969 108.628906 104.59375 107.261719 105.925781 105.925781 C 107.261719 104.59375 108.628906 103.292969 110.027344 102.023438 C 111.425781 100.753906 112.855469 99.523438 114.316406 98.324219 C 115.773438 97.128906 117.261719 95.964844 118.78125 94.839844 C 120.296875 93.71875 121.839844 92.628906 123.410156 91.582031 C 124.976562 90.53125 126.574219 89.523438 128.191406 88.550781 C 129.8125 87.582031 131.453125 86.652344 133.117188 85.761719 C 134.785156 84.871094 136.46875 84.023438 138.175781 83.214844 C 139.882812 82.40625 141.609375 81.644531 143.351562 80.921875 C 145.097656 80.199219 146.859375 79.519531 148.636719 78.882812 C 150.414062 78.246094 152.207031 77.65625 154.011719 77.105469 C 155.820312 76.558594 157.636719 76.054688 159.46875 75.597656 C 161.300781 75.136719 163.140625 74.722656 164.992188 74.355469 C 166.84375 73.988281 168.703125 73.664062 170.570312 73.386719 C 172.441406 73.109375 174.3125 72.878906 176.191406 72.695312 C 178.070312 72.511719 179.953125 72.371094 181.839844 72.277344 C 183.722656 72.1875 185.609375 72.140625 187.5 72.140625 C 189.386719 72.140625 191.273438 72.1875 193.160156 72.277344 C 195.046875 72.371094 196.925781 72.511719 198.804688 72.695312 C 200.683594 72.878906 202.558594 73.109375 204.425781 73.386719 C 206.292969 73.664062 208.152344 73.988281 210.003906 74.355469 C 211.855469 74.722656 213.699219 75.136719 215.527344 75.597656 C 217.359375 76.054688 219.179688 76.558594 220.984375 77.105469 C 222.792969 77.65625 224.585938 78.246094 226.363281 78.882812 C 228.140625 79.519531 229.902344 80.199219 231.644531 80.921875 C 233.390625 81.644531 235.113281 82.40625 236.820312 83.214844 C 238.527344 84.023438 240.214844 84.871094 241.878906 85.761719 C 243.542969 86.652344 245.1875 87.582031 246.804688 88.550781 C 248.425781 89.523438 250.019531 90.53125 251.589844 91.582031 C 253.160156 92.628906 254.703125 93.71875 256.21875 94.839844 C 257.734375 95.964844 259.222656 97.128906 260.683594 98.324219 C 262.140625 99.523438 263.570312 100.753906 264.96875 102.023438 C 266.367188 103.292969 267.734375 104.59375 269.070312 105.925781 C 270.40625 107.261719 271.707031 108.628906 272.972656 110.027344 C 274.242188 111.425781 275.476562 112.855469 276.671875 114.316406 C 277.871094 115.773438 279.03125 117.261719 280.15625 118.78125 C 281.28125 120.296875 282.367188 121.839844 283.417969 123.410156 C 284.464844 124.976562 285.476562 126.574219 286.445312 128.191406 C 287.417969 129.8125 288.347656 131.453125 289.238281 133.117188 C 290.125 134.785156 290.976562 136.46875 291.78125 138.175781 C 292.589844 139.882812 293.355469 141.609375 294.078125 143.351562 C 294.800781 145.097656 295.480469 146.859375 296.113281 148.636719 C 296.75 150.414062 297.34375 152.207031 297.890625 154.011719 C 298.4375 155.820312 298.941406 157.636719 299.402344 159.46875 C 299.859375 161.300781 300.273438 163.140625 300.640625 164.992188 C 301.011719 166.84375 301.332031 168.703125 301.609375 170.570312 C 301.886719 172.441406 302.117188 174.3125 302.304688 176.191406 C 302.488281 178.070312 302.625 179.953125 302.71875 181.839844 C 302.8125 183.722656 302.859375 185.609375 302.859375 187.5 Z M 302.859375 187.5 "/></g><path style=" stroke:none;fill-rule:nonzero;fill:#ffffff;fill-opacity:1;" d="M 213.734375 158.226562 L 213.734375 166.304688 C 213.734375 168.21875 213.496094 170.105469 213.027344 171.964844 C 212.554688 173.820312 211.867188 175.59375 210.953125 177.277344 C 210.042969 178.964844 208.9375 180.511719 207.640625 181.921875 C 206.34375 183.332031 204.894531 184.5625 203.292969 185.613281 L 200.773438 187.054688 C 197.574219 188.621094 194.199219 189.402344 190.640625 189.398438 L 186.226562 189.398438 C 183.449219 189.402344 180.753906 188.914062 178.152344 187.9375 L 175.613281 186.804688 C 174.679688 186.320312 173.785156 185.773438 172.925781 185.164062 C 172.066406 184.558594 171.25 183.894531 170.484375 183.175781 C 169.714844 182.457031 168.996094 181.6875 168.332031 180.871094 C 167.667969 180.054688 167.066406 179.195312 166.519531 178.296875 C 165.972656 177.398438 165.488281 176.464844 165.070312 175.5 C 164.648438 174.53125 164.296875 173.542969 164.015625 172.53125 C 163.730469 171.515625 163.515625 170.488281 163.371094 169.445312 C 163.230469 168.402344 163.15625 167.355469 163.15625 166.304688 L 163.15625 158.226562 C 164.136719 159.375 165.230469 160.402344 166.4375 161.3125 C 167.640625 162.222656 168.925781 162.996094 170.296875 163.628906 C 171.667969 164.261719 173.089844 164.738281 174.566406 165.066406 C 176.039062 165.390625 177.53125 165.554688 179.039062 165.558594 L 189.191406 165.558594 C 189.273438 165.558594 189.355469 165.554688 189.433594 165.542969 C 189.511719 165.554688 189.589844 165.558594 189.664062 165.558594 L 197.859375 165.558594 C 199.371094 165.554688 200.859375 165.390625 202.332031 165.0625 C 203.804688 164.738281 205.226562 164.257812 206.597656 163.625 C 207.964844 162.992188 209.253906 162.222656 210.457031 161.3125 C 211.660156 160.402344 212.753906 159.375 213.734375 158.226562 Z M 213.734375 158.226562 "/><path style=" stroke:none;fill-rule:nonzero;fill:#ffffff;fill-opacity:1;" d="M 212.390625 154.152344 C 211.597656 155.359375 210.671875 156.453125 209.609375 157.429688 C 208.546875 158.40625 207.382812 159.238281 206.113281 159.925781 C 204.847656 160.613281 203.511719 161.132812 202.113281 161.492188 C 200.714844 161.847656 199.296875 162.027344 197.855469 162.03125 L 189.652344 162.03125 C 189.578125 162.035156 189.5 162.039062 189.421875 162.046875 C 189.34375 162.039062 189.261719 162.03125 189.179688 162.03125 L 179.027344 162.03125 C 177.585938 162.027344 176.167969 161.847656 174.769531 161.492188 C 173.371094 161.132812 172.035156 160.613281 170.769531 159.925781 C 169.5 159.238281 168.335938 158.40625 167.273438 157.429688 C 166.210938 156.453125 165.285156 155.359375 164.492188 154.152344 Z M 212.390625 154.152344 "/><path style=" stroke:none;fill-rule:nonzero;fill:#ffffff;fill-opacity:1;" d="M 221.617188 133.410156 C 221.308594 132.601562 220.917969 131.839844 220.4375 131.121094 C 219.957031 130.402344 219.402344 129.746094 218.769531 129.15625 C 218.140625 128.566406 217.449219 128.050781 216.703125 127.621094 C 215.957031 127.1875 215.167969 126.84375 214.34375 126.589844 C 206.570312 124.230469 196.117188 120.035156 190.484375 113.460938 C 190.359375 113.3125 190.214844 113.179688 190.0625 113.0625 C 189.90625 112.945312 189.738281 112.84375 189.5625 112.761719 C 189.386719 112.679688 189.203125 112.621094 189.011719 112.578125 C 188.820312 112.535156 188.628906 112.515625 188.433594 112.515625 C 188.238281 112.515625 188.046875 112.535156 187.855469 112.578125 C 187.664062 112.621094 187.480469 112.679688 187.304688 112.761719 C 187.128906 112.84375 186.960938 112.945312 186.804688 113.0625 C 186.648438 113.179688 186.507812 113.3125 186.382812 113.460938 C 180.75 120.035156 170.300781 124.230469 162.523438 126.589844 C 161.578125 126.875 160.683594 127.28125 159.84375 127.804688 C 159.007812 128.328125 158.25 128.949219 157.574219 129.671875 C 156.898438 130.394531 156.328125 131.191406 155.863281 132.0625 C 155.398438 132.9375 155.050781 133.855469 154.828125 134.816406 C 154.605469 135.78125 154.511719 136.757812 154.542969 137.746094 C 154.578125 138.734375 154.738281 139.699219 155.027344 140.644531 C 155.316406 141.59375 155.722656 142.484375 156.246094 143.324219 C 156.769531 144.160156 157.390625 144.917969 158.113281 145.59375 L 160.769531 148.074219 C 160.894531 148.1875 160.996094 148.316406 161.082031 148.460938 L 162.367188 150.625 L 214.492188 150.625 L 215.777344 148.460938 C 215.859375 148.316406 215.964844 148.1875 216.089844 148.074219 L 218.746094 145.59375 C 219.5625 144.835938 220.25 143.976562 220.8125 143.011719 C 221.371094 142.046875 221.78125 141.023438 222.035156 139.9375 C 222.292969 138.855469 222.382812 137.753906 222.3125 136.644531 C 222.242188 135.53125 222.007812 134.453125 221.617188 133.410156 Z M 200.996094 132.621094 L 194.910156 137.039062 L 197.234375 144.191406 C 197.351562 144.554688 197.351562 144.921875 197.234375 145.285156 C 197.117188 145.648438 196.902344 145.941406 196.59375 146.164062 C 196.285156 146.390625 195.9375 146.503906 195.558594 146.503906 C 195.175781 146.503906 194.828125 146.390625 194.519531 146.164062 L 188.433594 141.746094 L 182.347656 146.167969 C 182.039062 146.390625 181.695312 146.503906 181.3125 146.503906 C 180.929688 146.503906 180.585938 146.390625 180.277344 146.167969 C 179.964844 145.941406 179.753906 145.648438 179.632812 145.285156 C 179.515625 144.921875 179.515625 144.558594 179.632812 144.195312 L 181.957031 137.042969 L 175.871094 132.621094 C 175.5625 132.394531 175.347656 132.101562 175.230469 131.738281 C 175.109375 131.375 175.109375 131.011719 175.230469 130.644531 C 175.347656 130.28125 175.5625 129.988281 175.871094 129.765625 C 176.179688 129.539062 176.527344 129.425781 176.910156 129.425781 L 184.433594 129.425781 L 186.757812 122.273438 C 186.875 121.910156 187.085938 121.617188 187.394531 121.390625 C 187.707031 121.167969 188.050781 121.054688 188.433594 121.054688 C 188.816406 121.054688 189.160156 121.167969 189.46875 121.390625 C 189.78125 121.617188 189.992188 121.910156 190.109375 122.273438 L 192.4375 129.425781 L 199.957031 129.425781 C 200.339844 129.425781 200.6875 129.539062 200.996094 129.765625 C 201.304688 129.988281 201.515625 130.285156 201.636719 130.648438 C 201.753906 131.011719 201.753906 131.375 201.636719 131.738281 C 201.515625 132.101562 201.304688 132.394531 200.992188 132.621094 Z M 200.996094 132.621094 "/><path style=" stroke:none;fill-rule:nonzero;fill:#ffffff;fill-opacity:1;" d="M 204.671875 193.496094 L 188.75 208.011719 L 174.414062 194.8125 L 176.730469 191.175781 C 179.789062 192.347656 182.953125 192.929688 186.226562 192.925781 L 190.640625 192.925781 C 194.777344 192.929688 198.699219 192.011719 202.40625 190.175781 Z M 204.671875 193.496094 "/><path style=" stroke:none;fill-rule:nonzero;fill:#ffffff;fill-opacity:1;" d="M 186.128906 210.390625 L 173.144531 222.222656 L 168.195312 208.019531 L 172.726562 198.058594 Z M 186.128906 210.390625 "/><path style=" stroke:none;fill-rule:nonzero;fill:#ffffff;fill-opacity:1;" d="M 209.851562 207.125 L 204.476562 222.472656 L 199.296875 217.722656 L 191.355469 210.414062 L 206.074219 196.996094 L 207.800781 203.035156 C 208.132812 204.574219 208.816406 205.9375 209.851562 207.125 Z M 209.851562 207.125 "/><path style=" stroke:none;fill-rule:nonzero;fill:#ffffff;fill-opacity:1;" d="M 195.859375 219.34375 L 192.726562 224.59375 L 185.367188 224.59375 L 181.988281 218.933594 L 188.734375 212.789062 Z M 195.859375 219.34375 "/><path style=" stroke:none;fill-rule:nonzero;fill:#ffffff;fill-opacity:1;" d="M 198.625 262.484375 L 176.90625 262.484375 L 185.734375 228.121094 L 192.261719 228.121094 Z M 198.625 262.484375 "/><path style=" stroke:none;fill-rule:nonzero;fill:#ffffff;fill-opacity:1;" d="M 191.15625 136.910156 L 192.199219 140.121094 L 189.472656 138.140625 C 189.164062 137.914062 188.816406 137.800781 188.433594 137.800781 C 188.050781 137.800781 187.703125 137.914062 187.394531 138.140625 L 184.664062 140.121094 L 185.707031 136.910156 C 185.828125 136.546875 185.828125 136.183594 185.710938 135.820312 C 185.589844 135.457031 185.378906 135.164062 185.070312 134.9375 L 182.339844 132.957031 L 185.714844 132.957031 C 186.09375 132.957031 186.441406 132.84375 186.75 132.621094 C 187.058594 132.394531 187.273438 132.101562 187.390625 131.738281 L 188.433594 128.527344 L 189.476562 131.738281 C 189.59375 132.101562 189.808594 132.394531 190.117188 132.621094 C 190.425781 132.84375 190.769531 132.957031 191.152344 132.957031 L 194.527344 132.957031 L 191.800781 134.9375 C 191.488281 135.164062 191.277344 135.457031 191.15625 135.820312 C 191.039062 136.183594 191.039062 136.546875 191.15625 136.910156 Z M 191.15625 136.910156 "/><path style=" stroke:none;fill-rule:nonzero;fill:#ffffff;fill-opacity:1;" d="M 246.898438 216.257812 L 246.691406 216.949219 C 246.589844 217.125 246.523438 217.308594 246.492188 217.507812 C 246.234375 218.050781 245.851562 218.480469 245.347656 218.804688 C 244.839844 219.125 244.289062 219.285156 243.6875 219.289062 C 243.382812 219.289062 243.085938 219.242188 242.796875 219.15625 L 230.46875 215.464844 C 230.097656 215.351562 229.757812 215.175781 229.449219 214.9375 C 229.140625 214.695312 228.890625 214.410156 228.691406 214.074219 C 228.492188 213.738281 228.359375 213.378906 228.296875 212.992188 C 228.234375 212.609375 228.242188 212.226562 228.324219 211.84375 C 228.359375 211.761719 228.390625 211.671875 228.414062 211.582031 C 228.429688 211.523438 228.441406 211.460938 228.445312 211.398438 L 228.632812 210.777344 C 228.753906 210.386719 228.945312 210.035156 229.207031 209.71875 C 229.464844 209.402344 229.777344 209.148438 230.136719 208.957031 C 230.5 208.765625 230.882812 208.648438 231.289062 208.609375 C 231.699219 208.566406 232.097656 208.605469 232.488281 208.726562 L 244.8125 212.417969 C 245.203125 212.535156 245.558594 212.722656 245.875 212.980469 C 246.195312 213.238281 246.449219 213.546875 246.644531 213.90625 C 246.84375 214.265625 246.960938 214.652344 247.003906 215.058594 C 247.050781 215.464844 247.015625 215.863281 246.898438 216.257812 Z M 246.898438 216.257812 "/><path style=" stroke:none;fill-rule:nonzero;fill:#ffffff;fill-opacity:1;" d="M 257.371094 236.640625 L 257.371094 262.484375 L 233.054688 262.484375 L 233.054688 236.566406 C 233.0625 236.328125 233.023438 236.097656 232.9375 235.875 C 232.851562 235.648438 232.726562 235.453125 232.5625 235.277344 C 232.394531 235.105469 232.203125 234.972656 231.980469 234.878906 C 231.761719 234.785156 231.53125 234.738281 231.289062 234.738281 C 231.050781 234.738281 230.820312 234.785156 230.601562 234.878906 C 230.378906 234.972656 230.1875 235.105469 230.019531 235.277344 C 229.855469 235.453125 229.726562 235.648438 229.640625 235.875 C 229.554688 236.097656 229.519531 236.328125 229.527344 236.566406 L 229.527344 262.484375 L 202.210938 262.484375 L 195.574219 226.691406 L 198.503906 221.785156 L 204.039062 226.886719 C 204.378906 227.195312 204.777344 227.347656 205.234375 227.347656 C 205.378906 227.347656 205.523438 227.328125 205.664062 227.292969 C 206.277344 227.140625 206.691406 226.761719 206.898438 226.164062 L 212.789062 209.363281 C 213.339844 209.625 213.910156 209.832031 214.503906 209.976562 L 224.703125 212.511719 C 224.703125 213.230469 224.816406 213.925781 225.042969 214.605469 C 225.269531 215.285156 225.597656 215.910156 226.023438 216.484375 C 226.453125 217.058594 226.960938 217.546875 227.546875 217.957031 C 228.132812 218.367188 228.769531 218.671875 229.457031 218.875 L 241.78125 222.566406 C 242.410156 222.753906 243.050781 222.847656 243.707031 222.84375 C 244.363281 222.84375 245.007812 222.742188 245.632812 222.550781 C 246.261719 222.359375 246.847656 222.078125 247.390625 221.710938 C 247.9375 221.34375 248.417969 220.90625 248.832031 220.398438 C 249.328125 220.765625 249.808594 221.152344 250.269531 221.550781 C 252.511719 223.488281 254.265625 225.796875 255.535156 228.472656 C 256.757812 231.058594 257.371094 233.78125 257.371094 236.640625 Z M 257.371094 236.640625 "/><path style=" stroke:none;fill-rule:nonzero;fill:#ffffff;fill-opacity:1;" d="M 153.078125 212.648438 C 152.597656 213.359375 151.9375 213.792969 151.097656 213.957031 L 138.460938 216.378906 C 138.058594 216.457031 137.65625 216.453125 137.253906 216.371094 C 136.851562 216.289062 136.476562 216.132812 136.136719 215.902344 C 135.796875 215.671875 135.515625 215.382812 135.289062 215.039062 C 135.0625 214.699219 134.910156 214.324219 134.832031 213.921875 L 134.71875 213.339844 C 134.71875 213.304688 134.710938 213.265625 134.707031 213.226562 C 134.695312 213.160156 134.679688 213.097656 134.660156 213.035156 C 134.589844 212.632812 134.597656 212.234375 134.683594 211.835938 C 134.769531 211.4375 134.929688 211.074219 135.160156 210.738281 C 135.390625 210.402344 135.675781 210.125 136.019531 209.902344 C 136.359375 209.679688 136.730469 209.527344 137.128906 209.453125 L 149.761719 207.023438 C 150.164062 206.949219 150.566406 206.949219 150.972656 207.035156 C 151.375 207.117188 151.746094 207.273438 152.085938 207.503906 C 152.425781 207.734375 152.710938 208.023438 152.9375 208.367188 C 153.164062 208.707031 153.316406 209.082031 153.394531 209.488281 L 153.496094 210.011719 C 153.496094 210.039062 153.496094 210.0625 153.496094 210.085938 C 153.496094 210.113281 153.519531 210.207031 153.535156 210.265625 L 153.535156 210.328125 C 153.703125 211.164062 153.550781 211.9375 153.078125 212.648438 Z M 153.078125 212.648438 "/><path style=" stroke:none;fill-rule:nonzero;fill:#ffffff;fill-opacity:1;" d="M 182.472656 226.628906 L 173.261719 262.484375 L 146.976562 262.484375 L 146.976562 236.566406 C 146.976562 236.332031 146.933594 236.109375 146.84375 235.890625 C 146.753906 235.675781 146.628906 235.484375 146.460938 235.316406 C 146.296875 235.152344 146.105469 235.023438 145.890625 234.933594 C 145.671875 234.84375 145.445312 234.800781 145.210938 234.800781 C 144.976562 234.800781 144.753906 234.84375 144.535156 234.933594 C 144.320312 235.023438 144.128906 235.152344 143.964844 235.316406 C 143.796875 235.484375 143.671875 235.675781 143.582031 235.890625 C 143.492188 236.109375 143.449219 236.332031 143.449219 236.566406 L 143.449219 262.484375 L 117.789062 262.484375 L 120.097656 228.566406 C 120.207031 227.039062 120.566406 225.574219 121.175781 224.171875 C 121.785156 222.765625 122.609375 221.5 123.644531 220.375 C 124.871094 219.023438 126.289062 217.921875 127.902344 217.066406 C 129.09375 216.429688 130.339844 215.941406 131.648438 215.601562 C 131.78125 215.972656 131.945312 216.324219 132.140625 216.664062 C 132.335938 217.003906 132.5625 217.320312 132.8125 217.621094 C 133.066406 217.921875 133.34375 218.195312 133.644531 218.445312 C 133.945312 218.695312 134.265625 218.917969 134.605469 219.109375 C 134.945312 219.304688 135.300781 219.464844 135.671875 219.597656 C 136.039062 219.726562 136.417969 219.824219 136.804688 219.886719 C 137.191406 219.949219 137.578125 219.980469 137.96875 219.972656 C 138.359375 219.96875 138.75 219.929688 139.132812 219.855469 L 151.765625 217.429688 C 152.492188 217.289062 153.175781 217.035156 153.820312 216.664062 C 154.460938 216.292969 155.023438 215.828125 155.511719 215.269531 C 155.996094 214.710938 156.378906 214.089844 156.65625 213.402344 C 156.9375 212.714844 157.09375 212.003906 157.132812 211.261719 L 165.121094 209.921875 L 170.6875 225.910156 C 170.898438 226.507812 171.308594 226.882812 171.921875 227.039062 C 172.066406 227.074219 172.210938 227.09375 172.355469 227.09375 C 172.8125 227.09375 173.207031 226.9375 173.546875 226.632812 L 179.324219 221.363281 Z M 182.472656 226.628906 "/></g></svg>