<svg xmlns="http://www.w3.org/2000/svg" xmlns:xlink="http://www.w3.org/1999/xlink" width="500" zoomAndPan="magnify" viewBox="0 0 375 374.999991" height="500" preserveAspectRatio="xMidYMid meet" version="1.2"><defs><clipPath id="d5dc65398b"><path d="M 95.34375 97 L 256 97 L 256 305 L 95.34375 305 Z M 95.34375 97 "/></clipPath><clipPath id="b24e72f354"><path d="M 118 70.289062 L 279.84375 70.289062 L 279.84375 278 L 118 278 Z M 118 70.289062 "/></clipPath></defs><g id="4dd5ebe1db"><g clip-rule="nonzero" clip-path="url(#d5dc65398b)"><path style=" stroke:none;fill-rule:nonzero;fill:#ffffff;fill-opacity:1;" d="M 95.421875 97.171875 L 95.421875 304.699219 L 255.976562 304.699219 L 255.976562 132.632812 L 228.054688 132.632812 C 225.636719 132.632812 223.679688 130.675781 223.679688 128.257812 L 223.679688 97.171875 Z M 192.078125 242.875 L 119.832031 242.875 C 117.414062 242.875 115.457031 240.917969 115.457031 238.5 C 115.457031 236.082031 117.414062 234.125 119.832031 234.125 L 192.078125 234.125 C 194.496094 234.125 196.453125 236.082031 196.453125 238.5 C 196.453125 240.917969 194.496094 242.875 192.078125 242.875 Z M 231.507812 214.609375 L 119.832031 214.609375 C 117.414062 214.609375 115.457031 212.652344 115.457031 210.234375 C 115.457031 207.816406 117.414062 205.859375 119.832031 205.859375 L 231.507812 205.859375 C 233.925781 205.859375 235.882812 207.816406 235.882812 210.234375 C 235.882812 212.652344 233.925781 214.609375 231.507812 214.609375 Z M 231.507812 186.285156 L 119.832031 186.285156 C 117.414062 186.285156 115.457031 184.328125 115.457031 181.910156 C 115.457031 179.492188 117.414062 177.535156 119.832031 177.535156 L 231.507812 177.535156 C 233.925781 177.535156 235.882812 179.492188 235.882812 181.910156 C 235.882812 184.328125 233.925781 186.285156 231.507812 186.285156 Z M 231.507812 149.214844 C 233.925781 149.214844 235.882812 151.171875 235.882812 153.589844 C 235.882812 156.007812 233.925781 157.964844 231.507812 157.964844 L 119.832031 157.964844 C 117.414062 157.964844 115.457031 156.007812 115.457031 153.589844 C 115.457031 151.171875 117.414062 149.214844 119.832031 149.214844 Z M 231.507812 149.214844 "/></g><path style=" stroke:none;fill-rule:nonzero;fill:#ffffff;fill-opacity:1;" d="M 250.449219 123.882812 L 232.429688 104.082031 L 232.429688 123.882812 Z M 250.449219 123.882812 "/><g clip-rule="nonzero" clip-path="url(#b24e72f354)"><path style=" stroke:none;fill-rule:nonzero;fill:#ffffff;fill-opacity:1;" d="M 118.96875 70.289062 L 118.96875 88.421875 L 228.054688 88.421875 C 228.113281 88.421875 228.113281 88.421875 228.171875 88.421875 C 228.457031 88.421875 228.746094 88.539062 229.035156 88.597656 C 229.320312 88.652344 229.609375 88.652344 229.839844 88.769531 C 230.011719 88.882812 230.183594 89 230.414062 89.113281 C 230.703125 89.285156 230.992188 89.460938 231.222656 89.746094 C 231.222656 89.746094 231.277344 89.804688 231.277344 89.804688 L 263.574219 125.265625 C 263.746094 125.4375 263.804688 125.613281 263.917969 125.839844 C 264.09375 126.128906 264.265625 126.359375 264.4375 126.648438 C 264.550781 126.933594 264.609375 127.28125 264.609375 127.625 C 264.667969 127.855469 264.726562 128.027344 264.726562 128.257812 L 264.726562 277.816406 L 279.578125 277.816406 L 279.578125 70.289062 Z M 118.96875 70.289062 "/></g></g></svg>