<svg xmlns="http://www.w3.org/2000/svg" xmlns:xlink="http://www.w3.org/1999/xlink" width="500" zoomAndPan="magnify" viewBox="0 0 375 374.999991" height="500" preserveAspectRatio="xMidYMid meet" version="1.2"><g id="b57919726e"><path style=" stroke:none;fill-rule:nonzero;fill:#f4f6fc;fill-opacity:1;" d="M 209.199219 303.878906 L 164.566406 303.878906 C 163.816406 303.914062 163.074219 303.878906 162.332031 303.765625 C 161.589844 303.65625 160.867188 303.476562 160.160156 303.222656 C 159.453125 302.96875 158.78125 302.652344 158.136719 302.265625 C 157.492188 301.882812 156.894531 301.4375 156.335938 300.9375 C 155.78125 300.433594 155.277344 299.882812 154.828125 299.28125 C 154.382812 298.679688 153.996094 298.042969 153.671875 297.367188 C 153.351562 296.6875 153.09375 295.988281 152.910156 295.261719 C 152.722656 294.535156 152.613281 293.796875 152.570312 293.046875 L 148.535156 268.199219 C 143.453125 266.117188 138.710938 263.4375 134.308594 260.152344 L 109.382812 270.527344 C 108.074219 271.109375 106.707031 271.425781 105.28125 271.476562 C 103.851562 271.53125 102.460938 271.316406 101.117188 270.835938 C 99.6875 270.375 98.402344 269.664062 97.257812 268.695312 C 96.109375 267.730469 95.1875 266.582031 94.492188 265.253906 L 72.351562 226.828125 C 71.992188 226.214844 71.6875 225.578125 71.441406 224.910156 C 71.195312 224.246094 71.011719 223.5625 70.890625 222.863281 C 70.773438 222.164062 70.71875 221.457031 70.726562 220.746094 C 70.738281 220.035156 70.8125 219.332031 70.953125 218.636719 C 71.089844 217.941406 71.292969 217.261719 71.554688 216.605469 C 71.820312 215.945312 72.140625 215.316406 72.523438 214.714844 C 72.902344 214.113281 73.332031 213.554688 73.816406 213.035156 C 74.300781 212.511719 74.824219 212.042969 75.394531 211.617188 L 95.472656 195.550781 C 95.105469 192.832031 94.953125 190.097656 95.019531 187.355469 C 95.074219 185.238281 95.300781 183.144531 95.695312 181.0625 L 95.953125 179.53125 L 75.015625 162.824219 C 74.304688 162.257812 73.75 161.5625 73.359375 160.738281 C 72.75 159.828125 72.261719 158.851562 71.894531 157.820312 C 71.523438 156.785156 71.289062 155.722656 71.179688 154.632812 C 71.074219 153.539062 71.101562 152.449219 71.261719 151.363281 C 71.421875 150.28125 71.714844 149.230469 72.132812 148.214844 L 94.628906 108.023438 C 94.910156 107.535156 95.25 107.089844 95.644531 106.683594 C 96.042969 106.160156 96.480469 105.675781 96.960938 105.226562 C 97.441406 104.777344 97.957031 104.371094 98.507812 104.011719 C 99.054688 103.648438 99.632812 103.335938 100.234375 103.074219 C 100.835938 102.8125 101.457031 102.601562 102.09375 102.441406 C 102.730469 102.285156 103.378906 102.183594 104.035156 102.132812 C 104.691406 102.085938 105.34375 102.09375 106 102.15625 C 106.652344 102.222656 107.296875 102.339844 107.929688 102.511719 C 108.566406 102.6875 109.179688 102.910156 109.777344 103.1875 L 134.308594 113.40625 C 138.183594 110.671875 142.28125 108.328125 145.996094 106.21875 L 148.289062 104.90625 L 151.441406 80.867188 C 151.539062 80.183594 151.738281 79.535156 152.042969 78.914062 C 152.539062 77.792969 153.175781 76.757812 153.949219 75.808594 C 154.726562 74.855469 155.613281 74.027344 156.613281 73.316406 C 157.613281 72.605469 158.6875 72.039062 159.839844 71.617188 C 160.992188 71.195312 162.179688 70.933594 163.402344 70.832031 L 208.023438 70.832031 C 208.773438 70.796875 209.519531 70.835938 210.261719 70.945312 C 211 71.054688 211.726562 71.238281 212.433594 71.488281 C 213.136719 71.742188 213.8125 72.058594 214.457031 72.445312 C 215.101562 72.828125 215.699219 73.273438 216.257812 73.773438 C 216.816406 74.277344 217.316406 74.828125 217.765625 75.429688 C 218.214844 76.03125 218.601562 76.667969 218.925781 77.34375 C 219.25 78.023438 219.503906 78.722656 219.691406 79.449219 C 219.875 80.175781 219.988281 80.914062 220.03125 81.664062 L 224.066406 106.511719 C 229.148438 108.597656 233.890625 111.28125 238.296875 114.558594 L 263.207031 104.183594 C 264.515625 103.609375 265.882812 103.296875 267.3125 103.246094 C 268.738281 103.191406 270.125 103.402344 271.472656 103.875 C 272.902344 104.335938 274.1875 105.046875 275.335938 106.011719 C 276.484375 106.980469 277.402344 108.128906 278.097656 109.457031 L 300.199219 147.886719 C 300.5625 148.496094 300.867188 149.132812 301.113281 149.800781 C 301.359375 150.464844 301.539062 151.148438 301.660156 151.851562 C 301.78125 152.550781 301.835938 153.253906 301.824219 153.964844 C 301.816406 154.675781 301.742188 155.378906 301.601562 156.074219 C 301.460938 156.769531 301.261719 157.449219 300.996094 158.109375 C 300.734375 158.765625 300.410156 159.398438 300.03125 159.996094 C 299.652344 160.597656 299.21875 161.15625 298.738281 161.679688 C 298.253906 162.199219 297.726562 162.671875 297.15625 163.09375 L 277.066406 179.164062 C 277.433594 181.882812 277.585938 184.613281 277.519531 187.355469 C 277.46875 189.472656 277.25 191.570312 276.859375 193.648438 C 276.773438 194.125 276.6875 194.605469 276.613281 195.082031 L 298.640625 211.886719 C 299.199219 212.292969 299.71875 212.742188 300.191406 213.246094 C 300.664062 213.746094 301.089844 214.285156 301.460938 214.867188 C 301.835938 215.445312 302.152344 216.054688 302.410156 216.695312 C 302.667969 217.335938 302.863281 217.992188 303 218.667969 C 303.136719 219.34375 303.207031 220.027344 303.214844 220.71875 C 303.222656 221.40625 303.164062 222.09375 303.042969 222.769531 C 302.921875 223.449219 302.738281 224.113281 302.496094 224.757812 C 302.25 225.402344 301.945312 226.019531 301.585938 226.605469 L 279.101562 265.574219 C 278.402344 266.832031 277.496094 267.914062 276.382812 268.824219 C 275.265625 269.734375 274.023438 270.402344 272.652344 270.835938 C 271.242188 271.320312 269.796875 271.523438 268.3125 271.441406 C 266.824219 271.359375 265.410156 270.996094 264.066406 270.355469 L 239.179688 259.992188 L 237.140625 261.328125 C 233.390625 263.917969 229.453125 266.183594 225.332031 268.125 L 221.136719 294.066406 C 221.023438 294.6875 220.832031 295.277344 220.558594 295.84375 C 220.058594 296.960938 219.417969 297.992188 218.640625 298.9375 C 217.863281 299.878906 216.976562 300.707031 215.976562 301.414062 C 214.976562 302.121094 213.902344 302.683594 212.753906 303.101562 C 211.605469 303.519531 210.421875 303.777344 209.199219 303.878906 Z M 164.675781 291.613281 L 209.089844 291.613281 C 208.832031 291.613281 208.957031 291.34375 209.1875 290.988281 L 213.703125 262.777344 C 213.792969 262.222656 213.953125 261.691406 214.1875 261.183594 C 214.421875 260.675781 214.722656 260.207031 215.085938 259.777344 C 215.449219 259.351562 215.863281 258.980469 216.328125 258.667969 C 216.792969 258.355469 217.292969 258.109375 217.824219 257.933594 C 222.289062 256.179688 226.472656 253.90625 230.371094 251.113281 C 232.0625 250.007812 233.730469 248.917969 235.414062 247.910156 C 236.246094 247.410156 237.148438 247.125 238.117188 247.054688 C 239.089844 246.984375 240.023438 247.132812 240.917969 247.507812 L 269.128906 259.257812 L 290.644531 221.0625 L 266.554688 202.808594 C 265.78125 202.230469 265.179688 201.511719 264.75 200.648438 C 264.316406 199.785156 264.101562 198.871094 264.101562 197.902344 C 264.15625 195.789062 264.382812 193.691406 264.777344 191.613281 C 265.066406 190.199219 265.230469 188.773438 265.28125 187.332031 C 265.449219 184.421875 265.164062 181.5625 264.421875 178.746094 C 264.222656 178.152344 264.121094 177.539062 264.109375 176.914062 C 264.097656 176.289062 264.183594 175.671875 264.359375 175.074219 C 264.539062 174.472656 264.800781 173.910156 265.148438 173.390625 C 265.5 172.871094 265.917969 172.414062 266.40625 172.023438 L 289.246094 153.746094 L 267.289062 115.257812 L 239.742188 127.253906 C 239.234375 127.464844 238.707031 127.605469 238.160156 127.675781 C 237.617188 127.746094 237.070312 127.746094 236.527344 127.667969 C 235.980469 127.589844 235.457031 127.445312 234.949219 127.226562 C 234.445312 127.007812 233.976562 126.726562 233.546875 126.382812 C 228.503906 122.15625 222.867188 118.972656 216.644531 116.828125 C 216.113281 116.652344 215.617188 116.40625 215.152344 116.09375 C 214.6875 115.78125 214.273438 115.410156 213.910156 114.980469 C 213.546875 114.554688 213.246094 114.085938 213.011719 113.578125 C 212.777344 113.070312 212.613281 112.539062 212.523438 111.984375 L 207.914062 83.097656 L 163.523438 83.097656 C 163.746094 83.097656 163.644531 83.34375 163.449219 83.648438 L 160.089844 109.40625 C 159.96875 110.335938 159.65625 111.195312 159.144531 111.980469 C 158.632812 112.765625 157.972656 113.402344 157.171875 113.882812 C 155.550781 114.855469 153.832031 115.824219 152.09375 116.816406 C 147.53125 119.265625 143.179688 122.046875 139.042969 125.15625 C 138.613281 125.496094 138.152344 125.773438 137.652344 125.988281 C 137.152344 126.203125 136.632812 126.347656 136.09375 126.421875 C 135.554688 126.5 135.015625 126.503906 134.476562 126.4375 C 133.933594 126.371094 133.414062 126.234375 132.910156 126.027344 L 105.175781 114.558594 L 104.84375 114.828125 L 83.207031 153.625 L 106.167969 172.023438 C 106.894531 172.605469 107.457031 173.316406 107.859375 174.15625 C 108.261719 174.992188 108.464844 175.878906 108.464844 176.808594 C 108.414062 178.921875 108.191406 181.019531 107.789062 183.101562 C 106.960938 187.433594 107.082031 191.738281 108.15625 196.015625 C 108.355469 196.609375 108.457031 197.21875 108.46875 197.847656 C 108.480469 198.472656 108.394531 199.085938 108.21875 199.6875 C 108.039062 200.289062 107.777344 200.847656 107.425781 201.371094 C 107.078125 201.890625 106.660156 202.34375 106.167969 202.738281 L 83.320312 221.011719 L 105.300781 259.453125 L 132.847656 247.457031 C 133.351562 247.253906 133.875 247.121094 134.414062 247.054688 C 134.953125 246.992188 135.492188 246.996094 136.03125 247.074219 C 136.570312 247.148438 137.085938 247.292969 137.585938 247.507812 C 138.085938 247.71875 138.550781 247.992188 138.980469 248.328125 C 144.027344 252.550781 149.664062 255.734375 155.882812 257.882812 C 156.414062 258.058594 156.914062 258.304688 157.378906 258.617188 C 157.84375 258.933594 158.257812 259.300781 158.621094 259.730469 C 158.984375 260.15625 159.28125 260.625 159.515625 261.132812 C 159.753906 261.644531 159.914062 262.175781 160.003906 262.726562 Z M 291.28125 221.578125 C 291.546875 221.855469 291.847656 222.082031 292.191406 222.25 Z M 291.28125 221.578125 "/><path style=" stroke:none;fill-rule:nonzero;fill:#f4f6fc;fill-opacity:1;" d="M 186.890625 243.078125 C 185.066406 243.078125 183.246094 242.988281 181.429688 242.808594 C 179.613281 242.632812 177.808594 242.363281 176.019531 242.007812 C 174.230469 241.652344 172.460938 241.207031 170.714844 240.679688 C 168.96875 240.148438 167.25 239.535156 165.566406 238.835938 C 163.878906 238.136719 162.230469 237.359375 160.621094 236.5 C 159.011719 235.636719 157.449219 234.703125 155.933594 233.6875 C 154.414062 232.671875 152.949219 231.585938 151.539062 230.429688 C 150.128906 229.273438 148.777344 228.046875 147.488281 226.757812 C 146.199219 225.46875 144.972656 224.117188 143.816406 222.707031 C 142.65625 221.296875 141.570312 219.832031 140.558594 218.3125 C 139.542969 216.796875 138.605469 215.234375 137.746094 213.625 C 136.886719 212.015625 136.105469 210.367188 135.410156 208.679688 C 134.710938 206.992188 134.097656 205.277344 133.566406 203.53125 C 133.035156 201.785156 132.59375 200.015625 132.238281 198.226562 C 131.882812 196.4375 131.613281 194.632812 131.433594 192.816406 C 131.257812 191 131.167969 189.179688 131.167969 187.355469 C 131.167969 185.53125 131.257812 183.710938 131.433594 181.894531 C 131.613281 180.078125 131.882812 178.273438 132.238281 176.484375 C 132.59375 174.695312 133.035156 172.925781 133.566406 171.179688 C 134.097656 169.433594 134.710938 167.71875 135.410156 166.03125 C 136.105469 164.34375 136.886719 162.699219 137.746094 161.089844 C 138.605469 159.480469 139.542969 157.914062 140.558594 156.398438 C 141.570312 154.878906 142.65625 153.417969 143.816406 152.003906 C 144.972656 150.59375 146.199219 149.246094 147.488281 147.953125 C 148.777344 146.664062 150.128906 145.4375 151.539062 144.28125 C 152.949219 143.125 154.414062 142.039062 155.933594 141.023438 C 157.449219 140.011719 159.011719 139.074219 160.621094 138.210938 C 162.230469 137.351562 163.878906 136.574219 165.566406 135.875 C 167.25 135.175781 168.96875 134.5625 170.714844 134.03125 C 172.460938 133.503906 174.230469 133.058594 176.019531 132.703125 C 177.808594 132.347656 179.613281 132.082031 181.429688 131.902344 C 183.246094 131.722656 185.066406 131.632812 186.890625 131.632812 C 188.714844 131.632812 190.535156 131.722656 192.351562 131.902344 C 194.167969 132.082031 195.972656 132.347656 197.761719 132.703125 C 199.550781 133.058594 201.320312 133.503906 203.066406 134.03125 C 204.8125 134.5625 206.527344 135.175781 208.214844 135.875 C 209.898438 136.574219 211.546875 137.351562 213.15625 138.210938 C 214.765625 139.074219 216.332031 140.011719 217.847656 141.023438 C 219.363281 142.039062 220.828125 143.125 222.238281 144.28125 C 223.652344 145.4375 225 146.664062 226.292969 147.953125 C 227.582031 149.246094 228.804688 150.59375 229.964844 152.003906 C 231.121094 153.417969 232.207031 154.878906 233.222656 156.398438 C 234.234375 157.914062 235.171875 159.480469 236.03125 161.089844 C 236.894531 162.699219 237.671875 164.34375 238.371094 166.03125 C 239.070312 167.71875 239.683594 169.433594 240.214844 171.179688 C 240.742188 172.925781 241.1875 174.695312 241.542969 176.484375 C 241.898438 178.273438 242.164062 180.078125 242.34375 181.894531 C 242.523438 183.710938 242.613281 185.53125 242.613281 187.355469 C 242.609375 189.179688 242.519531 191 242.339844 192.816406 C 242.15625 194.632812 241.890625 196.433594 241.53125 198.222656 C 241.175781 200.011719 240.730469 201.777344 240.199219 203.523438 C 239.667969 205.269531 239.054688 206.984375 238.355469 208.671875 C 237.65625 210.355469 236.875 212.003906 236.015625 213.609375 C 235.152344 215.21875 234.214844 216.78125 233.203125 218.300781 C 232.1875 219.816406 231.101562 221.28125 229.945312 222.691406 C 228.789062 224.101562 227.5625 225.449219 226.273438 226.738281 C 224.984375 228.03125 223.632812 229.253906 222.222656 230.410156 C 220.8125 231.570312 219.351562 232.65625 217.832031 233.667969 C 216.316406 234.683594 214.753906 235.621094 213.144531 236.480469 C 211.535156 237.339844 209.890625 238.121094 208.203125 238.820312 C 206.519531 239.519531 204.804688 240.132812 203.058594 240.664062 C 201.3125 241.195312 199.546875 241.640625 197.757812 241.996094 C 195.96875 242.355469 194.164062 242.625 192.351562 242.804688 C 190.535156 242.984375 188.714844 243.078125 186.890625 243.078125 Z M 186.890625 143.898438 C 185.464844 143.898438 184.046875 143.96875 182.628906 144.109375 C 181.214844 144.246094 179.808594 144.457031 178.410156 144.734375 C 177.015625 145.011719 175.636719 145.355469 174.273438 145.769531 C 172.914062 146.183594 171.574219 146.660156 170.257812 147.207031 C 168.945312 147.75 167.660156 148.359375 166.402344 149.03125 C 165.148438 149.699219 163.929688 150.433594 162.746094 151.222656 C 161.5625 152.011719 160.421875 152.859375 159.320312 153.761719 C 158.21875 154.664062 157.167969 155.621094 156.160156 156.628906 C 155.15625 157.632812 154.199219 158.6875 153.296875 159.785156 C 152.394531 160.886719 151.546875 162.027344 150.757812 163.210938 C 149.964844 164.394531 149.234375 165.613281 148.5625 166.871094 C 147.894531 168.125 147.285156 169.410156 146.742188 170.726562 C 146.195312 172.039062 145.71875 173.378906 145.304688 174.742188 C 144.890625 176.101562 144.546875 177.480469 144.269531 178.878906 C 143.988281 180.273438 143.78125 181.679688 143.640625 183.097656 C 143.503906 184.511719 143.433594 185.933594 143.433594 187.355469 C 143.433594 188.777344 143.503906 190.199219 143.640625 191.617188 C 143.78125 193.03125 143.988281 194.4375 144.269531 195.832031 C 144.546875 197.230469 144.890625 198.609375 145.304688 199.972656 C 145.71875 201.332031 146.195312 202.671875 146.742188 203.984375 C 147.285156 205.300781 147.894531 206.585938 148.5625 207.839844 C 149.234375 209.097656 149.964844 210.316406 150.757812 211.5 C 151.546875 212.683594 152.394531 213.824219 153.296875 214.925781 C 154.199219 216.023438 155.15625 217.078125 156.160156 218.085938 C 157.167969 219.089844 158.21875 220.046875 159.320312 220.949219 C 160.421875 221.851562 161.5625 222.699219 162.746094 223.488281 C 163.929688 224.28125 165.148438 225.011719 166.402344 225.679688 C 167.660156 226.351562 168.945312 226.960938 170.257812 227.503906 C 171.574219 228.050781 172.914062 228.527344 174.273438 228.941406 C 175.636719 229.355469 177.015625 229.699219 178.410156 229.976562 C 179.808594 230.253906 181.214844 230.464844 182.628906 230.605469 C 184.046875 230.742188 185.464844 230.8125 186.890625 230.8125 C 188.3125 230.8125 189.734375 230.742188 191.148438 230.605469 C 192.566406 230.464844 193.972656 230.253906 195.367188 229.976562 C 196.765625 229.699219 198.144531 229.355469 199.503906 228.941406 C 200.867188 228.527344 202.207031 228.050781 203.519531 227.503906 C 204.835938 226.960938 206.121094 226.351562 207.375 225.679688 C 208.628906 225.011719 209.851562 224.28125 211.035156 223.488281 C 212.214844 222.699219 213.359375 221.851562 214.457031 220.949219 C 215.558594 220.046875 216.613281 219.089844 217.617188 218.085938 C 218.625 217.078125 219.578125 216.023438 220.484375 214.925781 C 221.386719 213.824219 222.230469 212.683594 223.023438 211.5 C 223.8125 210.316406 224.542969 209.097656 225.214844 207.839844 C 225.886719 206.585938 226.496094 205.300781 227.039062 203.984375 C 227.582031 202.671875 228.0625 201.332031 228.476562 199.972656 C 228.890625 198.609375 229.234375 197.230469 229.511719 195.832031 C 229.789062 194.4375 230 193.03125 230.136719 191.617188 C 230.277344 190.199219 230.347656 188.777344 230.347656 187.355469 C 230.34375 185.933594 230.273438 184.515625 230.132812 183.097656 C 229.992188 181.683594 229.78125 180.277344 229.503906 178.882812 C 229.226562 177.484375 228.878906 176.109375 228.464844 174.746094 C 228.050781 173.386719 227.570312 172.046875 227.027344 170.734375 C 226.480469 169.417969 225.871094 168.132812 225.199219 166.878906 C 224.53125 165.625 223.800781 164.40625 223.007812 163.222656 C 222.21875 162.042969 221.371094 160.898438 220.46875 159.800781 C 219.566406 158.699219 218.609375 157.648438 217.605469 156.640625 C 216.597656 155.636719 215.546875 154.679688 214.445312 153.777344 C 213.347656 152.875 212.203125 152.027344 211.023438 151.238281 C 209.839844 150.445312 208.621094 149.714844 207.367188 149.042969 C 206.109375 148.375 204.828125 147.765625 203.511719 147.21875 C 202.199219 146.675781 200.859375 146.195312 199.5 145.78125 C 198.136719 145.367188 196.757812 145.019531 195.363281 144.742188 C 193.96875 144.464844 192.5625 144.253906 191.148438 144.113281 C 189.730469 143.972656 188.3125 143.898438 186.890625 143.898438 Z M 186.890625 143.898438 "/></g></svg>