<svg xmlns="http://www.w3.org/2000/svg" xmlns:xlink="http://www.w3.org/1999/xlink" width="500" zoomAndPan="magnify" viewBox="0 0 375 374.999991" height="500" preserveAspectRatio="xMidYMid meet" version="1.2"><defs><clipPath id="742d5a2d83"><path d="M 51.644531 51.644531 L 323.355469 51.644531 L 323.355469 323.355469 L 51.644531 323.355469 Z M 51.644531 51.644531 "/></clipPath><clipPath id="0ce475ccf2"><path d="M 187.5 51.644531 C 112.46875 51.644531 51.644531 112.46875 51.644531 187.5 C 51.644531 262.53125 112.46875 323.355469 187.5 323.355469 C 262.53125 323.355469 323.355469 262.53125 323.355469 187.5 C 323.355469 112.46875 262.53125 51.644531 187.5 51.644531 Z M 187.5 51.644531 "/></clipPath><clipPath id="7a198af373"><path d="M 87.707031 131 L 287.957031 131 L 287.957031 244 L 87.707031 244 Z M 87.707031 131 "/></clipPath><clipPath id="b21117731c"><path d="M 62.582031 62.171875 L 312.332031 62.171875 L 312.332031 311.921875 L 62.582031 311.921875 Z M 62.582031 62.171875 "/></clipPath><clipPath id="0882073a4e"><path d="M 187.457031 62.171875 C 118.492188 62.171875 62.582031 118.082031 62.582031 187.046875 C 62.582031 256.015625 118.492188 311.921875 187.457031 311.921875 C 256.421875 311.921875 312.332031 256.015625 312.332031 187.046875 C 312.332031 118.082031 256.421875 62.171875 187.457031 62.171875 Z M 187.457031 62.171875 "/></clipPath></defs><g id="96eaf4d9ba"><g clip-rule="nonzero" clip-path="url(#742d5a2d83)"><g clip-rule="nonzero" clip-path="url(#0ce475ccf2)"><path style=" stroke:none;fill-rule:nonzero;fill:#e9403e;fill-opacity:1;" d="M 51.644531 51.644531 L 323.355469 51.644531 L 323.355469 323.355469 L 51.644531 323.355469 Z M 51.644531 51.644531 "/></g></g><g clip-rule="nonzero" clip-path="url(#7a198af373)"><path style=" stroke:none;fill-rule:nonzero;fill:#ffffff;fill-opacity:1;" d="M 255.398438 131.394531 C 253.644531 131.300781 251.933594 132.230469 251.117188 133.910156 C 251.027344 134.09375 250.941406 134.285156 250.878906 134.484375 C 250.355469 135.851562 249.8125 137.214844 249.207031 138.542969 C 247.929688 141.34375 246.441406 144.050781 244.832031 146.675781 C 243.816406 147.46875 242.804688 148.257812 241.746094 148.984375 C 239.917969 150.242188 238.015625 151.375 236.082031 152.464844 C 236.085938 152.480469 236.089844 152.488281 236.097656 152.5 C 235.515625 152.804688 234.957031 153.191406 234.480469 153.707031 L 228.382812 160.300781 C 228.378906 160.304688 228.378906 160.3125 228.375 160.316406 C 225.394531 161.164062 222.351562 161.867188 219.285156 162.34375 C 218.023438 162.535156 216.746094 162.664062 215.472656 162.785156 C 212.480469 162.078125 209.519531 161.226562 206.632812 160.167969 C 205.257812 159.664062 203.914062 159.089844 202.574219 158.496094 C 202.386719 158.402344 202.191406 158.324219 201.996094 158.253906 C 199.640625 157.457031 197.085938 158.71875 196.289062 161.070312 C 196.289062 161.074219 196.28125 161.085938 196.28125 161.097656 C 195.527344 163.351562 196.660156 165.800781 198.863281 166.6875 C 200.394531 167.367188 201.949219 168.023438 203.523438 168.609375 C 206.867188 169.839844 210.292969 170.855469 213.773438 171.660156 C 213.808594 171.671875 213.84375 171.660156 213.875 171.671875 C 214.109375 171.738281 214.355469 171.71875 214.601562 171.753906 C 214.945312 171.792969 215.289062 171.859375 215.628906 171.824219 C 215.640625 171.824219 215.65625 171.824219 215.667969 171.824219 C 217.339844 171.675781 219.011719 171.5 220.671875 171.238281 C 223.636719 170.777344 226.566406 170.121094 229.464844 169.347656 L 244.421875 183.1875 C 244.6875 183.433594 244.96875 183.636719 245.265625 183.824219 C 245.273438 183.835938 245.273438 183.84375 245.28125 183.851562 C 245.328125 183.898438 245.375 183.945312 245.414062 183.984375 C 250.035156 188.488281 254.453125 193.179688 258.699219 198.046875 C 261.640625 203.71875 264.351562 209.503906 266.839844 215.398438 C 266.894531 215.535156 266.941406 215.675781 267.007812 215.808594 C 268.195312 218.292969 271.164062 219.34375 273.652344 218.164062 C 276.140625 216.980469 277.191406 213.996094 276.007812 211.507812 C 275.980469 211.453125 275.957031 211.394531 275.925781 211.339844 C 273.300781 205.128906 270.4375 199.007812 267.320312 193.023438 C 267.214844 192.816406 267.035156 192.679688 266.910156 192.492188 C 266.753906 192.253906 266.652344 191.988281 266.449219 191.777344 C 266.402344 191.730469 266.367188 191.6875 266.328125 191.644531 C 262.832031 187.636719 259.167969 183.757812 255.425781 179.976562 L 257.070312 178.175781 C 261.421875 178.226562 265.765625 178.375 270.105469 178.660156 C 272.707031 183.699219 275.160156 188.820312 277.402344 194.035156 C 277.457031 194.164062 277.515625 194.300781 277.582031 194.433594 C 278.785156 196.910156 281.765625 197.941406 284.246094 196.742188 C 286.722656 195.542969 287.746094 192.546875 286.546875 190.070312 C 286.519531 190.015625 286.496094 189.957031 286.464844 189.902344 C 283.792969 183.707031 280.882812 177.609375 277.722656 171.648438 C 277.5625 171.328125 277.296875 171.105469 277.074219 170.832031 C 276.941406 170.664062 276.832031 170.488281 276.683594 170.339844 C 276.425781 170.09375 276.148438 169.917969 275.851562 169.734375 C 275.574219 169.554688 275.3125 169.378906 275 169.261719 C 274.792969 169.183594 274.589844 169.164062 274.378906 169.121094 C 274.035156 169.027344 273.707031 168.882812 273.335938 168.871094 C 273.273438 168.871094 273.214844 168.871094 273.148438 168.871094 C 268.371094 168.511719 263.585938 168.335938 258.796875 168.25 C 258.703125 168.148438 258.628906 168.035156 258.519531 167.941406 L 246.378906 156.695312 C 246.527344 156.597656 246.6875 156.507812 246.839844 156.40625 C 248.230469 155.453125 249.558594 154.425781 250.878906 153.390625 C 250.953125 153.335938 250.992188 153.253906 251.0625 153.195312 C 251.320312 153 251.507812 152.738281 251.71875 152.488281 C 251.84375 152.328125 251.996094 152.195312 252.09375 152.015625 C 252.164062 151.910156 252.269531 151.835938 252.332031 151.71875 C 254.207031 148.683594 255.902344 145.539062 257.382812 142.292969 C 258.082031 140.761719 258.710938 139.195312 259.304688 137.632812 C 260.222656 135.441406 259.277344 132.917969 257.144531 131.863281 C 257.132812 131.859375 257.132812 131.859375 257.125 131.855469 C 256.574219 131.570312 255.984375 131.425781 255.398438 131.394531 Z M 220.382812 135.03125 C 220.105469 135.023438 219.835938 135.113281 219.613281 135.316406 C 219.542969 135.382812 219.476562 135.445312 219.425781 135.519531 C 219.398438 135.558594 219.367188 135.59375 219.335938 135.625 C 218.285156 136.792969 216.976562 137.691406 215.613281 138.464844 C 214.230469 139.253906 212.785156 139.925781 211.507812 140.855469 C 211.191406 141.085938 210.878906 141.335938 210.585938 141.605469 C 209.714844 142.417969 209 143.386719 208.667969 144.519531 C 208.472656 145.179688 208.414062 145.890625 208.5 146.582031 C 208.503906 146.621094 208.5 146.667969 208.488281 146.703125 C 208.316406 147.3125 208.230469 147.945312 208.269531 148.570312 C 208.34375 149.90625 208.898438 151.1875 209.6875 152.273438 C 210.472656 153.363281 211.492188 154.269531 212.582031 155.070312 C 214.066406 156.175781 215.714844 157.046875 217.429688 157.753906 C 217.585938 157.835938 217.753906 157.902344 217.921875 157.976562 C 218.003906 158.007812 218.070312 158.050781 218.152344 158.078125 L 218.152344 158.070312 C 222.136719 159.664062 226.675781 158.828125 229.832031 155.925781 C 230.449219 155.359375 230.996094 154.730469 231.46875 154.042969 L 231.476562 154.042969 C 231.804688 153.605469 232.148438 153.171875 232.527344 152.789062 C 232.679688 152.636719 232.890625 152.410156 233.03125 152.25 C 234.285156 151.089844 234.480469 149.152344 233.46875 147.78125 C 233.285156 147.511719 233.109375 147.246094 232.9375 146.972656 C 232.59375 146.429688 232.230469 145.902344 231.839844 145.390625 C 231.699219 145.203125 231.546875 145.023438 231.386719 144.839844 C 231.292969 144.730469 231.292969 144.570312 231.378906 144.449219 C 231.464844 144.332031 231.535156 144.214844 231.609375 144.097656 C 231.714844 143.921875 231.8125 143.746094 231.875 143.558594 C 231.941406 143.371094 231.957031 143.171875 231.929688 142.972656 C 231.910156 142.8125 231.847656 142.664062 231.734375 142.546875 C 231.628906 142.433594 231.488281 142.367188 231.335938 142.308594 C 230.765625 142.082031 230.171875 141.9375 229.566406 141.832031 C 229.230469 141.773438 228.890625 141.722656 228.546875 141.683594 C 228.175781 141.621094 227.832031 141.429688 227.574219 141.152344 C 227.554688 141.132812 227.546875 141.117188 227.527344 141.097656 C 226.859375 140.277344 226.09375 139.535156 225.242188 138.90625 C 224.410156 138.28125 223.496094 137.773438 222.535156 137.367188 C 222.304688 137.253906 222.09375 137.085938 221.921875 136.894531 C 221.773438 136.730469 221.648438 136.539062 221.5625 136.335938 C 221.511719 136.222656 221.464844 136.109375 221.421875 135.992188 C 221.402344 135.9375 221.382812 135.878906 221.367188 135.824219 C 221.320312 135.65625 221.234375 135.507812 221.117188 135.382812 C 220.921875 135.164062 220.660156 135.042969 220.382812 135.03125 Z M 228.941406 180.894531 C 228.46875 180.910156 228.074219 181.242188 227.976562 181.699219 L 225.921875 191.132812 L 217.632812 183.308594 C 217.214844 182.929688 216.574219 182.957031 216.191406 183.367188 C 215.96875 183.609375 215.878906 183.945312 215.941406 184.265625 L 219.359375 199.890625 C 219.476562 200.441406 220.019531 200.792969 220.574219 200.671875 C 220.578125 200.671875 220.582031 200.671875 220.582031 200.671875 L 221.34375 200.503906 C 221.890625 200.386719 222.238281 199.839844 222.121094 199.289062 L 219.953125 189.375 L 226.3125 195.375 C 226.726562 195.757812 227.367188 195.738281 227.753906 195.320312 C 227.875 195.1875 227.960938 195.03125 228.003906 194.847656 L 229.445312 188.246094 L 231.921875 194.785156 C 232.125 195.3125 232.714844 195.574219 233.242188 195.375 C 233.320312 195.34375 233.390625 195.300781 233.460938 195.257812 L 239.382812 191.070312 L 237.527344 198.75 C 237.390625 199.296875 237.722656 199.847656 238.269531 199.988281 C 238.394531 200.011719 238.527344 200.023438 238.660156 200.003906 L 244.980469 199.113281 L 239.863281 203.625 C 239.453125 203.988281 239.402344 204.617188 239.761719 205.042969 L 243.492188 209.535156 L 234.609375 207.714844 C 234.058594 207.597656 233.515625 207.945312 233.394531 208.5 C 233.394531 208.503906 233.394531 208.503906 233.394531 208.503906 L 233.234375 209.273438 C 233.121094 209.820312 233.472656 210.367188 234.023438 210.488281 C 234.023438 210.488281 234.027344 210.488281 234.03125 210.488281 L 247.96875 213.347656 C 248.523438 213.457031 249.054688 213.097656 249.175781 212.550781 C 249.234375 212.25 249.15625 211.9375 248.960938 211.699219 L 243.058594 204.59375 L 251.367188 197.242188 C 251.789062 196.863281 251.824219 196.222656 251.449219 195.800781 C 251.21875 195.546875 250.882812 195.425781 250.546875 195.472656 L 240.902344 196.847656 L 243.269531 187.070312 C 243.367188 186.679688 243.226562 186.273438 242.910156 186.027344 C 242.554688 185.746094 242.058594 185.738281 241.683594 186 L 233.746094 191.609375 L 229.933594 181.554688 C 229.777344 181.144531 229.378906 180.875 228.941406 180.894531 Z M 146.398438 181.070312 C 141.152344 181.140625 135.980469 181.992188 131.136719 183.894531 C 126.003906 185.910156 121.304688 189.085938 116.320312 191.886719 C 111.6875 194.492188 106.832031 196.722656 101.84375 198.578125 C 99.640625 199.398438 97.398438 200.101562 95.140625 200.753906 C 95.140625 200.765625 95.144531 200.785156 95.148438 200.796875 C 93.390625 201.386719 91.902344 202.570312 90.925781 204.140625 L 90.917969 204.148438 C 90.871094 204.222656 90.832031 204.300781 90.785156 204.371094 C 90.757812 204.417969 90.742188 204.46875 90.714844 204.511719 C 90.378906 205.050781 90.046875 205.601562 89.785156 206.175781 C 88.171875 209.753906 87.894531 213.882812 87.777344 218.023438 C 87.71875 219.960938 87.703125 221.894531 87.707031 223.835938 C 87.707031 223.914062 87.707031 223.988281 87.707031 224.066406 C 87.707031 227.890625 90.980469 230.992188 94.800781 230.992188 L 97.585938 230.992188 C 97.554688 230.578125 97.523438 230.160156 97.523438 229.746094 C 97.523438 225.347656 99.335938 220.976562 102.445312 217.871094 C 105.550781 214.769531 109.921875 212.953125 114.316406 212.953125 C 118.710938 212.953125 123.085938 214.765625 126.191406 217.871094 C 129.300781 220.980469 131.113281 225.347656 131.113281 229.746094 C 131.113281 230.164062 131.070312 230.582031 131.039062 230.992188 L 186.734375 230.992188 C 186.703125 230.578125 186.671875 230.160156 186.671875 229.746094 C 186.671875 225.347656 188.484375 220.976562 191.589844 217.871094 C 194.699219 214.765625 199.066406 212.953125 203.464844 212.953125 C 207.863281 212.953125 212.238281 214.765625 215.339844 217.871094 C 218.445312 220.980469 220.261719 225.347656 220.261719 229.746094 C 220.261719 230.164062 220.21875 230.582031 220.1875 230.992188 L 224.074219 230.992188 C 226.082031 230.992188 228.140625 229.761719 228.894531 227.894531 C 229.089844 227.464844 229.265625 227.027344 229.417969 226.585938 C 230.453125 223.5 230.335938 220.058594 230.160156 216.566406 C 230.070312 214.894531 229.972656 213.273438 229.574219 211.789062 C 229.148438 210.214844 228.367188 208.75 227.273438 207.585938 C 225.9375 206.160156 224.117188 205.167969 222.167969 204.519531 C 220.210938 203.875 218.121094 203.5625 215.984375 203.257812 C 209.742188 202.371094 203.25 201.59375 197.285156 198.976562 C 194.011719 197.535156 191.054688 195.625 188.09375 193.871094 C 179.957031 189.054688 171.230469 185.203125 162.078125 182.96875 C 156.953125 181.722656 151.644531 181.003906 146.398438 181.070312 Z M 149.378906 186.496094 C 153.171875 186.671875 157.03125 187.261719 160.808594 188.183594 C 169.347656 190.269531 177.597656 193.882812 185.367188 198.480469 C 186.652344 199.242188 188.171875 200.113281 189.621094 200.960938 L 189.609375 201.023438 C 189.855469 201.152344 190.011719 201.40625 190.011719 201.679688 C 190.011719 202.089844 189.691406 202.414062 189.285156 202.425781 L 152.613281 202.425781 Z M 143.53125 186.582031 L 146.753906 202.417969 L 112.058594 202.417969 C 111.445312 202.417969 110.941406 201.925781 110.941406 201.3125 C 110.941406 200.867188 111.207031 200.460938 111.613281 200.285156 C 111.609375 200.273438 111.605469 200.265625 111.59375 200.257812 C 114.085938 199.109375 116.542969 197.890625 118.9375 196.542969 C 124.171875 193.605469 128.699219 190.605469 133.089844 188.882812 C 136.363281 187.601562 139.878906 186.871094 143.53125 186.582031 Z M 114.324219 216.40625 C 106.957031 216.40625 100.980469 222.375 100.980469 229.746094 C 100.980469 237.117188 106.953125 243.089844 114.324219 243.089844 C 121.6875 243.089844 127.664062 237.117188 127.664062 229.746094 C 127.664062 222.375 121.695312 216.40625 114.324219 216.40625 Z M 203.476562 216.40625 C 196.101562 216.40625 190.132812 222.375 190.132812 229.746094 C 190.132812 237.117188 196.101562 243.089844 203.476562 243.089844 C 210.839844 243.085938 216.808594 237.113281 216.808594 229.746094 C 216.808594 222.382812 210.839844 216.40625 203.476562 216.40625 Z M 114.164062 223.816406 C 114.183594 223.816406 114.199219 223.816406 114.21875 223.816406 C 114.21875 223.816406 114.222656 223.816406 114.226562 223.816406 C 114.257812 223.816406 114.289062 223.816406 114.324219 223.816406 C 117.597656 223.816406 120.253906 226.472656 120.253906 229.746094 C 120.253906 233.023438 117.597656 235.679688 114.324219 235.679688 C 111.046875 235.679688 108.390625 233.023438 108.390625 229.746094 C 108.390625 226.535156 110.953125 223.90625 114.164062 223.816406 Z M 203.308594 223.816406 C 203.324219 223.816406 203.351562 223.816406 203.371094 223.816406 C 203.40625 223.816406 203.441406 223.816406 203.476562 223.816406 C 206.75 223.816406 209.40625 226.472656 209.40625 229.746094 C 209.40625 233.023438 206.75 235.679688 203.476562 235.679688 C 200.199219 235.683594 197.539062 233.03125 197.535156 229.757812 C 197.535156 229.753906 197.535156 229.746094 197.535156 229.746094 C 197.535156 226.535156 200.09375 223.90625 203.308594 223.816406 Z M 203.308594 223.816406 "/></g><g clip-rule="nonzero" clip-path="url(#b21117731c)"><g clip-rule="nonzero" clip-path="url(#0882073a4e)"><path style="fill:none;stroke-width:14;stroke-linecap:butt;stroke-linejoin:miter;stroke:#ffffff;stroke-opacity:1;stroke-miterlimit:4;" d="M 166.55435 -0.00260048 C 74.571022 -0.00260048 -0.000338698 74.56876 -0.000338698 166.552088 C -0.000338698 258.540626 74.571022 333.106777 166.55435 333.106777 C 258.537678 333.106777 333.109039 258.540626 333.109039 166.552088 C 333.109039 74.56876 258.537678 -0.00260048 166.55435 -0.00260048 Z M 166.55435 -0.00260048 " transform="matrix(0.749754,0,0,0.749754,62.582285,62.173825)"/></g></g></g></svg>